<?xml version="1.0" standalone="no"?>
<!DOCTYPE svg PUBLIC "-//W3C//DTD SVG 1.1//EN" "http://www.w3.org/Graphics/SVG/1.1/DTD/svg11.dtd" >
<svg xmlns="http://www.w3.org/2000/svg" xmlns:xlink="http://www.w3.org/1999/xlink" version="1.1">
<metadata>
Created by FontForge 20141024 at Mon Nov  3 10:05:11 2014
 By Jimmy Warting
2008 Daniel Utz published by FSI FontShop International GmbH. Customized 2010
</metadata>
<defs>
<font id="EniroNetto-Bold" horiz-adv-x="520" >
  <font-face 
    font-family="Eniro Netto Bold"
    font-weight="700"
    font-stretch="normal"
    units-per-em="1000"
    panose-1="2 1 8 4 1 1 1 1 1 4"
    ascent="777"
    descent="-223"
    x-height="507"
    cap-height="711"
    bbox="-451 -288 1191 981"
    underline-thickness="98"
    underline-position="-18"
    stemh="95"
    stemv="103"
    unicode-range="U+000D-FB02"
  />
<missing-glyph horiz-adv-x="545" 
d="M395 0h-245c-36 0 -65 30 -65 65v572c0 36 31 64 65 64h245c35 0 65 -30 65 -64v-572c0 -36 -31 -65 -65 -65zM357 98v505h-169v-505h169z" />
    <glyph glyph-name="fi" unicode="fi" horiz-adv-x="557" 
d="M63 42v366h-28c-30 0 -52 20 -52 50c0 28 23 49 52 49h28v55c0 82 67 149 149 149c20 0 40 -2 60 -5c25 -4 43 -25 43 -50c0 -26 -22 -47 -50 -47c-14 0 -16 6 -53 6c-25 0 -46 -20 -46 -45v-63h98c29 0 51 -21 51 -49c0 -29 -23 -49 -51 -49h-98v-367
c0 -29 -23 -52 -51 -52c-29 0 -52 23 -52 52zM384 42v423c0 29 24 52 52 52c29 0 51 -23 51 -52v-423c0 -29 -22 -52 -51 -52c-28 0 -52 23 -52 52zM494 653c0 -32 -26 -58 -58 -58s-58 26 -58 58s26 58 58 58s58 -26 58 -58z" />
    <glyph glyph-name="fl" unicode="fl" horiz-adv-x="568" 
d="M63 42v366h-28c-30 0 -52 20 -52 50c0 28 23 49 52 49h28v55c0 82 67 149 149 149c20 0 40 -2 60 -5c25 -4 43 -25 43 -50c0 -26 -22 -47 -50 -47c-14 0 -16 6 -53 6c-25 0 -46 -20 -46 -45v-63h98c29 0 51 -21 51 -49c0 -29 -23 -49 -51 -49h-98v-367
c0 -29 -23 -52 -51 -52c-29 0 -52 23 -52 52zM397 42v617c0 29 23 52 52 52c28 0 51 -23 51 -52v-617c0 -29 -23 -52 -51 -52c-29 0 -52 23 -52 52z" />
    <glyph glyph-name=".notdef" horiz-adv-x="545" 
d="M395 0h-245c-36 0 -65 30 -65 65v572c0 36 31 64 65 64h245c35 0 65 -30 65 -64v-572c0 -36 -31 -65 -65 -65zM357 98v505h-169v-505h169z" />
    <glyph glyph-name=".null" horiz-adv-x="0" 
 />
    <glyph glyph-name=".null" horiz-adv-x="0" 
 />
    <glyph glyph-name="CR" unicode="&#xd;" horiz-adv-x="250" 
 />
    <glyph glyph-name="space" unicode=" " horiz-adv-x="250" 
 />
    <glyph glyph-name="exclam" unicode="!" horiz-adv-x="363" 
d="M182 -10c-36 0 -65 29 -65 65s29 65 65 65c35 0 64 -29 64 -65s-29 -65 -64 -65zM130 263v396c0 29 23 52 52 52c28 0 51 -23 51 -52v-396c0 -28 -23 -51 -51 -51c-29 0 -52 23 -52 51z" />
    <glyph glyph-name="quotedbl" unicode="&#x22;" horiz-adv-x="440" 
d="M81 517v142c0 29 23 52 52 52c28 0 51 -23 51 -52v-142c0 -29 -23 -52 -51 -52c-29 0 -52 23 -52 52zM255 517v142c0 29 24 52 52 52c29 0 52 -23 52 -52v-142c0 -29 -23 -52 -52 -52c-28 0 -52 23 -52 52z" />
    <glyph glyph-name="numbersign" unicode="#" 
d="M434 184h-46l-23 -154c-3 -23 -23 -40 -46 -40c-24 0 -47 21 -47 47c0 2 1 11 2 17l19 130h-115l-23 -154c-3 -23 -23 -40 -46 -40c-24 0 -47 21 -47 47c0 2 1 11 2 17l19 130h-33c-26 0 -45 18 -45 44s19 45 45 45h46l23 155h-34c-26 0 -45 18 -45 44s19 45 45 45h47
l23 154c3 23 24 40 46 40c24 0 48 -20 48 -47c0 -2 0 -4 -1 -11l-20 -136h114l23 154c3 23 24 40 46 40c24 0 48 -20 48 -47c0 -2 0 -4 -1 -11l-20 -136h31c26 0 46 -19 46 -45s-20 -44 -46 -44h-45l-23 -155h33c26 0 46 -19 46 -45s-20 -44 -46 -44zM306 273l23 155h-115
l-23 -155h115z" />
    <glyph glyph-name="dollar" unicode="$" 
d="M317 -3v-84c0 -29 -24 -52 -52 -52c-29 0 -52 23 -52 52v80c-48 5 -98 18 -138 35c-19 8 -31 25 -31 47c0 28 18 51 48 51c13 0 23 -3 32 -7c41 -18 83 -31 130 -31c72 0 115 35 115 101c0 50 -42 85 -87 105l-120 53c-78 34 -118 95 -118 173c0 99 77 165 169 185v83
c0 29 23 52 52 52c28 0 51 -23 51 -52v-80c40 -4 81 -14 119 -30c21 -9 39 -23 39 -51c0 -26 -22 -48 -50 -48c-6 0 -12 1 -19 4c-24 9 -59 30 -140 30c-49 0 -114 -20 -114 -88c0 -47 23 -68 63 -86l114 -50c76 -33 148 -80 148 -187c0 -101 -61 -182 -159 -205z" />
    <glyph glyph-name="percent" unicode="%" horiz-adv-x="895" 
d="M369 560v-90c0 -87 -60 -151 -150 -151c-86 0 -151 59 -151 151v90c0 87 59 151 151 151c86 0 150 -60 150 -151zM285 470v90c0 43 -24 67 -66 67c-43 0 -67 -24 -67 -67v-90c0 -43 24 -67 67 -67c42 0 66 24 66 67zM193 51l446 643c7 11 20 17 32 17c19 0 38 -16 38 -38
c0 -8 -2 -16 -7 -23l-445 -643c-8 -11 -20 -17 -32 -17c-20 0 -39 17 -39 39c0 8 2 15 7 22zM827 231v-90c0 -87 -60 -151 -150 -151c-86 0 -151 59 -151 151v90c0 87 59 151 151 151c86 0 150 -60 150 -151zM743 141v90c0 43 -24 67 -66 67c-43 0 -67 -24 -67 -67v-90
c0 -43 24 -67 67 -67c42 0 66 24 66 67z" />
    <glyph glyph-name="ampersand" unicode="&#x26;" horiz-adv-x="696" 
d="M562 6l-78 82c-52 -50 -118 -98 -216 -98c-113 0 -205 88 -205 197c0 39 13 80 35 113c27 39 65 69 98 90l-15 16c-41 43 -62 89 -62 137c0 93 79 168 175 168s174 -75 174 -168c0 -28 -23 -52 -51 -52c-29 0 -52 24 -52 52c0 36 -32 72 -71 72s-71 -36 -71 -72
c0 -20 11 -42 33 -65l228 -239l76 88c10 12 25 18 39 18c27 0 52 -21 52 -51c0 -12 -4 -24 -12 -34l-84 -97l82 -85c10 -10 14 -23 14 -36c0 -27 -23 -52 -52 -52c-13 0 -27 6 -37 16zM413 163l-147 155c-29 -17 -61 -40 -82 -71c-11 -17 -18 -42 -18 -60
c0 -52 46 -101 102 -101c60 0 99 33 145 77z" />
    <glyph glyph-name="quotesingle" unicode="'" horiz-adv-x="265" 
d="M81 517v142c0 29 23 52 52 52c28 0 51 -23 51 -52v-142c0 -29 -23 -52 -51 -52c-29 0 -52 23 -52 52z" />
    <glyph glyph-name="parenleft" unicode="(" horiz-adv-x="311" 
d="M201 -145c-19 0 -37 10 -46 27c-67 127 -105 278 -105 435c0 156 39 306 105 434c9 18 27 28 46 28c29 0 51 -26 51 -52c0 -8 -2 -16 -6 -24c-57 -112 -93 -247 -93 -386c0 -140 32 -276 93 -387c4 -7 6 -15 6 -23c0 -29 -24 -52 -51 -52z" />
    <glyph glyph-name="parenright" unicode=")" horiz-adv-x="315" 
d="M160 -118c-9 -17 -27 -27 -46 -27c-27 0 -51 23 -51 52c0 8 2 16 6 23c61 111 93 247 93 387c0 139 -36 274 -93 386c-4 8 -6 16 -6 24c0 26 22 52 51 52c19 0 37 -10 46 -28c66 -128 105 -278 105 -434c0 -157 -38 -308 -105 -435z" />
    <glyph glyph-name="asterisk" unicode="*" horiz-adv-x="448" 
d="M272 384l-48 66l-48 -66c-8 -12 -22 -18 -35 -18c-23 0 -44 18 -44 44c0 9 2 18 8 26l48 66l-78 25c-19 6 -30 23 -30 42c0 22 19 43 43 43c5 0 10 0 15 -2l77 -25v82c0 24 20 44 44 44s44 -20 44 -44v-82l77 24c5 2 10 3 15 3c20 0 43 -19 43 -44c0 -18 -12 -35 -30 -41
l-78 -25l48 -66c6 -8 9 -17 9 -26c0 -23 -18 -44 -44 -44c-14 0 -27 6 -36 18z" />
    <glyph glyph-name="plus" unicode="+" 
d="M457 205h-146v-163c0 -29 -22 -52 -51 -52c-28 0 -52 23 -52 52v163h-145c-27 0 -50 20 -50 49c0 28 22 49 50 49h145v162c0 29 24 52 52 52c29 0 51 -23 51 -52v-162h146c28 0 50 -21 50 -49c0 -29 -23 -49 -50 -49z" />
    <glyph glyph-name="comma" unicode="," horiz-adv-x="201" 
d="M149 53l-48 -141c-7 -21 -28 -35 -49 -35c-27 0 -52 23 -52 52c0 6 1 11 3 17l48 140c7 21 28 35 49 35c26 0 52 -22 52 -51c0 -6 -1 -11 -3 -17z" />
    <glyph glyph-name="hyphen" unicode="-" horiz-adv-x="438" 
d="M335 249h-233c-27 0 -48 22 -48 49c0 26 20 49 48 49h233c27 0 49 -22 49 -49s-22 -49 -49 -49z" />
    <glyph glyph-name="period" unicode="." horiz-adv-x="201" 
d="M101 -8c-36 0 -65 29 -65 65c0 35 29 64 65 64c35 0 64 -29 64 -64c0 -36 -29 -65 -64 -65z" />
    <glyph glyph-name="slash" unicode="/" horiz-adv-x="546" 
d="M103 61l244 617c8 20 29 33 49 33c29 0 51 -26 51 -51c0 -7 -1 -13 -4 -20l-244 -617c-8 -20 -29 -33 -49 -33c-28 0 -51 26 -51 51c0 7 1 13 4 20z" />
    <glyph glyph-name="zero" unicode="0" horiz-adv-x="577" 
d="M518 481v-261c0 -67 -22 -125 -63 -166c-42 -42 -100 -64 -167 -64s-124 22 -166 64c-41 41 -63 99 -63 166v261c0 68 22 125 63 166c42 42 99 64 166 64s125 -22 166 -63c42 -42 64 -99 64 -167zM415 211v279c0 81 -47 126 -127 126s-126 -45 -126 -126v-279
c0 -80 46 -126 126 -126s127 46 127 126z" />
    <glyph glyph-name="one" unicode="1" horiz-adv-x="384" 
d="M186 42v538l-90 -52c-8 -5 -20 -9 -29 -9c-28 0 -49 22 -49 49c0 18 9 34 26 44l158 91c9 5 19 8 29 8c32 0 58 -26 58 -58v-611c0 -29 -23 -52 -51 -52c-29 0 -52 23 -52 52z" />
    <glyph glyph-name="two" unicode="2" horiz-adv-x="494" 
d="M393 0h-308c-32 0 -58 26 -58 58c0 13 5 27 13 37l252 303c29 35 42 67 42 110c0 59 -38 108 -103 108c-43 0 -75 -6 -118 -28c-8 -4 -16 -8 -26 -8c-26 0 -50 20 -50 47c0 18 10 36 28 45c61 32 110 39 166 39c60 0 112 -20 149 -58c38 -38 57 -90 57 -150
c0 -78 -37 -126 -70 -169c-17 -22 -128 -153 -196 -236h222c29 0 51 -21 51 -48c0 -29 -22 -50 -51 -50z" />
    <glyph glyph-name="three" unicode="3" horiz-adv-x="508" 
d="M217 313h-19c-29 0 -52 22 -52 51c0 28 23 51 52 51h13c66 0 120 44 120 97c0 61 -38 104 -104 104c-42 0 -77 -6 -120 -27c-7 -4 -16 -6 -24 -6c-25 0 -49 20 -49 47c0 19 10 36 28 45c61 30 110 36 165 36c60 0 111 -19 149 -55s58 -86 58 -144
c0 -57 -26 -107 -73 -144c58 -39 93 -98 93 -165c0 -125 -93 -213 -227 -213c-65 0 -119 13 -171 37c-18 9 -29 25 -29 45c0 27 23 48 52 48c7 0 15 -3 22 -6c38 -18 77 -29 126 -29c60 0 124 37 124 118c0 60 -60 110 -134 110z" />
    <glyph glyph-name="four" unicode="4" horiz-adv-x="497" 
d="M442 144h-60v-103c0 -29 -23 -51 -52 -51c-28 0 -51 22 -51 51v103h-198c-31 0 -58 22 -58 55c0 6 1 13 4 20l170 458c8 21 27 34 50 34c27 0 48 -23 48 -52c0 -6 -1 -12 -3 -18l-151 -399h138v100c0 29 23 52 51 52c29 0 52 -23 52 -52v-100h60c28 0 50 -21 50 -49
s-22 -49 -50 -49z" />
    <glyph glyph-name="five" unicode="5" horiz-adv-x="522" 
d="M468 237v-33c0 -118 -96 -214 -214 -214c-65 0 -120 13 -171 38c-19 9 -29 25 -29 44c0 27 22 49 51 49c8 0 17 -3 24 -7c37 -20 76 -29 125 -29c61 0 110 58 110 119v33c0 61 -49 119 -110 119c-36 0 -73 -9 -105 -26c-8 -4 -18 -7 -27 -7c-32 0 -58 26 -58 58v256
c0 35 29 64 64 64h271c27 0 49 -22 49 -49c0 -26 -21 -49 -49 -49h-232v-164c28 8 58 12 87 12c118 0 214 -96 214 -214z" />
    <glyph glyph-name="six" unicode="6" horiz-adv-x="527" 
d="M59 204v302c0 125 112 204 226 204c66 0 124 -22 168 -65c9 -9 14 -20 14 -32c0 -13 -6 -26 -16 -37c-9 -9 -21 -13 -34 -13c-14 0 -29 5 -38 15c-23 26 -61 37 -94 37c-62 1 -123 -38 -123 -104v-96c32 24 71 36 110 36c118 0 214 -96 214 -214v-33
c0 -118 -96 -214 -214 -214c-117 0 -213 96 -213 214zM383 195v51c0 61 -50 110 -111 110c-60 0 -110 -49 -110 -110v-51c0 -61 50 -110 110 -110c61 0 111 49 111 110z" />
    <glyph glyph-name="seven" unicode="7" horiz-adv-x="475" 
d="M105 61l227 542h-273c-29 0 -50 22 -50 48c0 28 21 50 50 50h335c33 0 58 -28 58 -58c0 -7 -1 -14 -4 -21l-249 -600c-8 -20 -28 -32 -48 -32c-29 0 -50 23 -50 51c0 7 1 13 4 20z" />
    <glyph glyph-name="eight" unicode="8" horiz-adv-x="554" 
d="M406 369c53 -39 94 -100 94 -168c0 -116 -100 -211 -223 -211s-223 95 -223 211c0 68 33 129 92 168c-48 36 -76 88 -76 147c0 108 93 195 207 195s207 -87 207 -195c0 -59 -34 -111 -78 -147zM381 516c0 56 -47 100 -104 100s-103 -44 -103 -100c0 -55 46 -101 103 -101
s104 46 104 101zM397 201c0 64 -54 118 -120 118s-120 -54 -120 -118s54 -116 120 -116s120 52 120 116z" />
    <glyph glyph-name="nine" unicode="9" horiz-adv-x="527" 
d="M468 496v-302c0 -125 -112 -204 -226 -204c-66 0 -124 22 -168 65c-9 9 -14 20 -14 32c0 13 6 26 16 37c9 9 21 13 34 13c14 0 29 -5 38 -15c23 -26 61 -37 94 -37c62 -1 123 38 123 104v96c-32 -24 -71 -36 -110 -36c-118 0 -214 96 -214 214v33c0 118 96 214 214 214
c117 0 213 -96 213 -214zM144 505v-51c0 -61 50 -110 111 -110c60 0 110 49 110 110v51c0 61 -50 110 -110 110c-61 0 -111 -49 -111 -110z" />
    <glyph glyph-name="colon" unicode=":" horiz-adv-x="201" 
d="M101 -10c-36 0 -65 29 -65 65s29 65 65 65c35 0 64 -29 64 -65s-29 -65 -64 -65zM101 388c-36 0 -65 29 -65 64c0 36 29 65 65 65c35 0 64 -29 64 -65c0 -35 -29 -64 -64 -64z" />
    <glyph glyph-name="semicolon" unicode=";" horiz-adv-x="201" 
d="M165 452c0 -35 -29 -64 -65 -64s-64 29 -64 64c0 36 28 65 64 65s65 -29 65 -65zM149 53l-48 -141c-7 -21 -28 -35 -49 -35c-26 0 -52 23 -52 52c0 6 1 11 3 17l48 140c7 21 28 35 49 35c26 0 52 -22 52 -51c0 -6 -1 -11 -3 -17z" />
    <glyph glyph-name="less" unicode="&#x3c;" 
d="M400 -2l-323 201c-18 11 -30 32 -30 55s12 43 30 54l322 201c9 5 18 8 27 8c29 0 50 -22 50 -49c0 -17 -9 -33 -24 -42l-284 -172l284 -172c15 -9 24 -26 24 -43c0 -29 -23 -49 -49 -49c-9 0 -18 3 -27 8z" />
    <glyph glyph-name="equal" unicode="=" 
d="M458 309h-397c-27 0 -48 22 -48 49c0 26 20 49 48 49h397c27 0 49 -22 49 -49s-22 -49 -49 -49zM458 103h-397c-27 0 -48 22 -48 49c0 26 20 49 48 49h397c27 0 49 -22 49 -49s-22 -49 -49 -49z" />
    <glyph glyph-name="greater" unicode="&#x3e;" 
d="M443 199l-323 -201c-9 -5 -18 -8 -27 -8c-26 0 -49 20 -49 49c0 17 9 34 24 43l284 172l-284 172c-15 9 -24 25 -24 42c0 27 21 49 50 49c9 0 18 -3 27 -8l322 -201c18 -11 30 -31 30 -54s-12 -44 -30 -55z" />
    <glyph glyph-name="question" unicode="?" horiz-adv-x="480" 
d="M293 55c0 -36 -29 -65 -65 -65c-35 0 -64 29 -64 65s29 65 64 65c36 0 65 -29 65 -65zM280 289v-26c0 -28 -23 -51 -52 -51c-28 0 -51 23 -51 51v20c0 45 22 92 58 118l59 42c30 21 38 52 38 78c0 59 -49 95 -102 95c-38 0 -69 -9 -101 -26c-7 -4 -18 -7 -26 -7
c-26 0 -49 21 -49 49c0 20 11 36 30 45c47 23 98 34 151 34c110 0 200 -87 200 -194c0 -60 -27 -113 -74 -147l-64 -46c-11 -8 -17 -22 -17 -35z" />
    <glyph glyph-name="at" unicode="@" horiz-adv-x="737" 
d="M638 446v-267c0 -27 -17 -51 -41 -60c-40 -16 -83 -24 -127 -24c-100 0 -181 81 -181 181s81 181 181 181h64c0 86 -76 159 -161 159c-89 0 -162 -72 -162 -161v-355c0 -38 14 -76 40 -105c25 -29 60 -49 97 -54c26 -4 44 -23 44 -47c0 -27 -20 -49 -50 -49
c-17 0 -37 5 -55 11c-44 15 -86 45 -114 78c-42 48 -65 110 -65 173v339c0 146 119 265 265 265s265 -119 265 -265zM535 200v161h-65c-43 0 -78 -34 -78 -85s35 -86 78 -86c22 0 44 5 65 10z" />
    <glyph glyph-name="A" unicode="A" horiz-adv-x="584" 
d="M469 24l-54 152h-246l-55 -152c-8 -21 -27 -34 -49 -34c-27 0 -51 23 -51 52c0 6 1 11 3 17l220 614c8 21 30 38 55 38c23 0 47 -16 55 -39l220 -613c2 -5 3 -12 3 -17c0 -27 -22 -52 -52 -52c-21 0 -41 13 -49 34zM379 277l-87 242l-87 -242h174z" />
    <glyph glyph-name="B" unicode="B" horiz-adv-x="557" 
d="M303 0h-170c-36 0 -65 29 -65 64v573c0 35 29 64 65 64h163c118 0 197 -78 197 -194c0 -53 -22 -102 -67 -139c59 -40 86 -100 86 -160c0 -125 -84 -208 -209 -208zM174 414h107c61 0 106 41 106 93c0 59 -30 93 -91 93h-122v-186zM174 101h129c68 0 103 39 103 107
c0 58 -50 105 -119 105c1 0 -10 0 -113 0v-212z" />
    <glyph glyph-name="C" unicode="C" horiz-adv-x="513" 
d="M50 249v203c0 155 104 259 258 259c54 0 106 -16 154 -47c15 -10 24 -26 24 -43c0 -27 -23 -49 -52 -49c-9 0 -18 3 -27 8c-32 20 -65 33 -99 33c-97 0 -152 -64 -152 -161v-203c0 -97 55 -161 152 -161c34 0 66 14 98 34c9 6 19 9 29 9c27 0 51 -21 51 -50
c0 -17 -9 -34 -24 -44c-48 -31 -100 -47 -154 -47c-154 0 -258 104 -258 259z" />
    <glyph glyph-name="D" unicode="D" horiz-adv-x="590" 
d="M265 0h-132c-36 0 -65 29 -65 64v573c0 35 29 64 65 64h132c164 0 275 -109 275 -272v-157c0 -163 -111 -272 -275 -272zM434 270v161c0 106 -61 169 -168 169h-92v-499h92c107 0 168 64 168 169z" />
    <glyph glyph-name="E" unicode="E" horiz-adv-x="514" 
d="M430 0h-297c-34 0 -65 28 -65 64v573c0 34 29 64 65 64h290c29 0 52 -23 52 -52c0 -28 -23 -49 -52 -49h-249v-186h236c29 0 52 -22 52 -51c0 -28 -23 -50 -52 -50h-236v-212h256c28 0 52 -22 52 -50c0 -29 -24 -51 -52 -51z" />
    <glyph glyph-name="F" unicode="F" horiz-adv-x="486" 
d="M407 313h-233v-271c0 -29 -24 -52 -52 -52c-29 0 -54 23 -54 52v595c0 34 29 64 65 64h287c29 0 52 -22 52 -51c0 -28 -23 -50 -52 -50h-246v-186h233c29 0 52 -22 52 -51c0 -28 -23 -50 -52 -50z" />
    <glyph glyph-name="G" unicode="G" horiz-adv-x="575" 
d="M419 106v185h-98c-28 0 -51 22 -51 51c0 28 23 51 51 51h139c36 0 65 -29 65 -65v-244c0 -26 -15 -49 -38 -59c-48 -21 -116 -35 -179 -35c-154 0 -258 104 -258 259v203c0 155 104 259 258 259c55 0 120 -17 166 -45c16 -10 25 -28 25 -46c0 -27 -23 -48 -52 -48
c-9 0 -19 3 -27 8c-26 16 -72 33 -112 33c-97 0 -152 -60 -152 -157v-212c0 -97 55 -156 152 -156c39 0 77 7 111 18z" />
    <glyph glyph-name="H" unicode="H" horiz-adv-x="608" 
d="M434 43v270h-260v-270c0 -29 -24 -53 -52 -53c-29 0 -54 24 -54 53v615c0 29 24 53 53 53c28 0 53 -24 53 -53v-244h260v244c0 29 24 53 53 53s53 -24 53 -53v-615c0 -29 -23 -53 -52 -53s-54 24 -54 53z" />
    <glyph glyph-name="I" unicode="I" horiz-adv-x="242" 
d="M68 43v615c0 29 24 53 53 53c28 0 53 -24 53 -53v-615c0 -29 -25 -53 -53 -53c-29 0 -53 24 -53 53z" />
    <glyph glyph-name="J" unicode="J" horiz-adv-x="393" 
d="M224 187v472c0 29 24 52 52 52c29 0 54 -23 54 -52v-472c0 -54 -22 -103 -58 -139c-35 -36 -85 -58 -139 -58c-22 0 -47 2 -67 6c-26 5 -43 24 -43 48c0 32 25 50 49 50c16 0 32 -6 61 -6c26 0 46 10 63 27s28 46 28 72z" />
    <glyph glyph-name="K" unicode="K" horiz-adv-x="528" 
d="M423 8l-249 287v-252c0 -29 -25 -53 -53 -53c-29 0 -53 24 -53 53v615c0 29 24 53 53 53c28 0 53 -24 53 -53v-227l237 263c10 11 25 17 39 17c27 0 51 -22 51 -52c0 -12 -4 -24 -13 -34l-240 -262l253 -287c9 -10 13 -22 13 -34c0 -27 -23 -52 -52 -52
c-14 0 -29 6 -39 18z" />
    <glyph glyph-name="L" unicode="L" horiz-adv-x="496" 
d="M431 0h-298c-36 0 -65 31 -65 65v593c0 29 25 53 53 53c29 0 53 -25 53 -54v-556h256c29 0 52 -22 52 -50c0 -29 -22 -51 -51 -51z" />
    <glyph glyph-name="M" unicode="M" horiz-adv-x="750" 
d="M576 43v437l-150 -272c-10 -18 -30 -30 -51 -30c-22 0 -41 12 -51 30l-150 272v-437c0 -29 -25 -53 -53 -53c-29 0 -53 24 -53 53v610c0 32 27 58 58 58c23 0 42 -13 52 -31l197 -352l197 352c10 18 31 31 52 31c32 0 58 -26 58 -58v-610c0 -29 -25 -53 -54 -53
c-28 0 -52 24 -52 53z" />
    <glyph glyph-name="N" unicode="N" horiz-adv-x="614" 
d="M438 20l-264 463v-441c0 -29 -24 -52 -52 -52c-29 0 -54 23 -54 52v611c0 32 28 58 58 58c22 0 41 -11 51 -29l263 -464v441c0 29 25 52 54 52c28 0 52 -23 52 -52v-611c0 -33 -28 -58 -58 -58c-22 0 -40 13 -50 30z" />
    <glyph glyph-name="O" unicode="O" horiz-adv-x="591" 
d="M541 465v-229c0 -147 -99 -246 -245 -246c-147 0 -246 99 -246 246v229c0 147 99 246 246 246c146 0 245 -99 245 -246zM435 230v241c0 89 -50 142 -139 142s-140 -53 -140 -142v-241c0 -89 51 -142 140 -142s139 53 139 142z" />
    <glyph glyph-name="P" unicode="P" horiz-adv-x="544" 
d="M68 43v594c0 35 29 64 65 64h167c125 0 212 -86 212 -214c0 -126 -84 -209 -212 -209h-126v-235c0 -29 -25 -53 -53 -53c-29 0 -53 24 -53 53zM174 379h126c50 0 106 21 106 108c0 70 -37 113 -106 113h-126v-221z" />
    <glyph glyph-name="Q" unicode="Q" horiz-adv-x="597" 
d="M575 -100l-353 99c-105 29 -172 116 -172 237v229c0 147 99 246 246 246c146 0 245 -99 245 -246v-229c0 -84 -30 -152 -92 -195l154 -41c23 -6 38 -26 38 -49c0 -27 -22 -53 -52 -53c-5 0 -9 1 -14 2zM435 232v237c0 89 -50 144 -139 144s-140 -55 -140 -144v-237
c0 -89 51 -144 140 -144s139 55 139 144z" />
    <glyph glyph-name="R" unicode="R" horiz-adv-x="554" 
d="M431 15l-167 279h-90v-252c0 -29 -25 -52 -53 -52c-29 0 -53 23 -53 52v595c0 35 29 64 65 64h186c59 0 110 -19 147 -56c38 -38 58 -90 58 -150s-20 -111 -57 -147c-24 -23 -53 -38 -87 -47l139 -233c5 -8 8 -18 8 -27c0 -26 -24 -51 -52 -51c-18 0 -35 9 -44 25z
M174 395h145c46 0 99 19 99 100c0 60 -35 105 -99 105h-145v-205z" />
    <glyph glyph-name="S" unicode="S" horiz-adv-x="503" 
d="M277 294l-120 53c-78 34 -118 95 -118 173c0 119 112 191 226 191c55 0 113 -10 165 -33c21 -9 39 -23 39 -51c0 -26 -22 -48 -50 -48c-6 0 -12 1 -19 4c-24 9 -59 30 -140 30c-49 0 -114 -20 -114 -88c0 -47 23 -68 63 -86l114 -50c76 -33 148 -80 148 -187
c0 -121 -87 -212 -222 -212c-59 0 -127 16 -179 38c-19 8 -31 25 -31 47c0 28 18 51 48 51c13 0 23 -3 32 -7c41 -18 83 -31 130 -31c72 0 115 35 115 101c0 50 -42 85 -87 105z" />
    <glyph glyph-name="T" unicode="T" horiz-adv-x="514" 
d="M204 43v557h-148c-29 0 -51 22 -51 50c0 29 22 51 51 51h401c29 0 52 -22 52 -51c0 -28 -23 -50 -52 -50h-147v-557c0 -29 -24 -53 -53 -53s-53 24 -53 53z" />
    <glyph glyph-name="U" unicode="U" horiz-adv-x="616" 
d="M451 233v425c0 29 24 53 53 53c28 0 53 -24 53 -53v-419c0 -149 -100 -249 -249 -249s-249 100 -249 249v419c0 29 25 53 54 53c28 0 52 -24 52 -53v-425c0 -91 52 -145 143 -145s143 54 143 145z" />
    <glyph glyph-name="V" unicode="V" horiz-adv-x="555" 
d="M222 30l-210 612c-2 6 -3 11 -3 17c0 29 25 52 52 52c21 0 42 -14 49 -35l167 -505l168 505c7 21 27 35 48 35c30 0 53 -26 53 -53c0 -5 -1 -11 -3 -16l-211 -612c-8 -25 -31 -40 -55 -40c-26 0 -47 17 -55 40z" />
    <glyph glyph-name="W" unicode="W" horiz-adv-x="804" 
d="M514 33l-112 453l-112 -452c-6 -26 -31 -44 -56 -44c-27 0 -50 19 -56 43l-162 613c-1 5 -2 9 -2 14c0 28 25 51 51 51c23 0 45 -15 51 -39l117 -461l112 456c6 26 32 44 57 44c26 0 50 -20 56 -43l112 -459l118 463c6 24 27 39 50 39c29 0 52 -25 52 -52
c0 -4 -1 -9 -2 -13l-162 -613c-6 -25 -32 -43 -56 -43c-27 0 -50 20 -56 43z" />
    <glyph glyph-name="X" unicode="X" horiz-adv-x="542" 
d="M438 13l-167 250l-167 -250c-10 -15 -27 -23 -43 -23c-27 0 -52 23 -52 52c0 10 3 20 9 29l192 282l-189 277c-6 9 -9 19 -9 29c0 27 23 52 52 52c17 0 33 -8 43 -23l164 -245l164 245c10 15 27 23 43 23c27 0 51 -24 51 -52c0 -10 -3 -20 -9 -29l-189 -277l193 -282
c6 -9 9 -19 9 -29c0 -27 -23 -52 -52 -52c-17 0 -33 8 -43 23z" />
    <glyph glyph-name="Y" unicode="Y" horiz-adv-x="522" 
d="M209 42v265l-193 326c-5 8 -7 17 -7 26c0 27 22 52 51 52c18 0 36 -9 45 -25l156 -274l156 274c9 16 27 25 45 25c27 0 51 -23 51 -52c0 -9 -2 -18 -7 -26l-193 -326v-265c0 -29 -23 -52 -52 -52s-52 23 -52 52z" />
    <glyph glyph-name="Z" unicode="Z" horiz-adv-x="521" 
d="M451 0h-375c-33 0 -58 28 -58 58c0 11 3 22 9 31l336 511h-290c-29 0 -52 22 -52 50c0 29 23 51 52 51h368c33 0 58 -28 58 -58c0 -11 -3 -22 -8 -30l-336 -512h296c29 0 52 -22 52 -50c0 -29 -23 -51 -52 -51z" />
    <glyph glyph-name="bracketleft" unicode="[" horiz-adv-x="361" 
d="M247 -145h-136c-27 0 -52 21 -52 51v821c0 27 22 52 52 52h136c29 0 51 -21 51 -49c0 -29 -22 -49 -51 -49h-85v-728h85c29 0 51 -21 51 -49s-22 -49 -51 -49z" />
    <glyph glyph-name="backslash" unicode="\" horiz-adv-x="546" 
d="M347 23l-244 617c-3 7 -4 13 -4 20c0 25 22 51 51 51c20 0 41 -13 49 -33l244 -617c3 -7 4 -13 4 -20c0 -25 -23 -51 -51 -51c-20 0 -41 13 -49 33z" />
    <glyph glyph-name="bracketright" unicode="]" horiz-adv-x="366" 
d="M255 -145h-136c-29 0 -51 21 -51 49s22 49 51 49h85v728h-85c-29 0 -51 20 -51 49c0 28 22 49 51 49h136c30 0 52 -25 52 -52v-821c0 -30 -25 -51 -52 -51z" />
    <glyph glyph-name="asciicircum" unicode="^" horiz-adv-x="545" 
d="M414 349l-141 228l-142 -228c-10 -15 -25 -24 -42 -24c-29 0 -49 24 -49 50c0 9 2 17 8 26l181 286c9 15 26 24 44 24c17 0 34 -9 43 -24l181 -285c6 -9 8 -19 8 -28c0 -28 -22 -49 -49 -49c-17 0 -32 9 -42 24z" />
    <glyph glyph-name="underscore" unicode="_" horiz-adv-x="579" 
d="M512 -165h-446c-27 0 -48 21 -48 48c0 26 20 50 48 50h446c27 0 49 -23 49 -50s-22 -48 -49 -48z" />
    <glyph glyph-name="grave" unicode="`" horiz-adv-x="435" 
d="M242 575l-104 63c-15 9 -24 25 -24 42c0 29 23 49 50 49c9 0 19 -3 27 -8l105 -64c16 -10 25 -26 25 -43c0 -29 -23 -49 -50 -49c-11 0 -21 5 -29 10z" />
    <glyph glyph-name="a" unicode="a" horiz-adv-x="496" 
d="M437 347v-270c0 -28 -18 -52 -44 -61c-49 -17 -106 -26 -162 -26c-61 0 -109 15 -143 44s-52 70 -52 119s18 87 52 115c34 29 82 44 143 44h103v35c0 42 -31 75 -83 75c-47 0 -73 -6 -108 -27c-8 -5 -19 -9 -28 -9c-27 0 -49 20 -49 45c0 18 8 36 25 46
c54 31 101 40 173 40c112 0 173 -81 173 -170zM334 98v119h-103c-87 0 -92 -47 -92 -64c0 -18 5 -68 92 -68c34 0 71 5 103 13z" />
    <glyph glyph-name="b" unicode="b" horiz-adv-x="514" 
d="M464 317v-126c0 -59 -20 -109 -56 -145c-36 -37 -86 -56 -145 -56c-54 0 -106 9 -156 26c-26 9 -44 33 -44 61v582c0 29 23 52 52 52c28 0 51 -23 51 -52v-168c31 14 71 26 104 26c59 0 103 -17 139 -54c36 -36 55 -88 55 -146zM361 182v143c0 61 -36 97 -98 97
c-36 0 -69 -13 -97 -36v-289c32 -8 64 -12 97 -12c62 0 98 35 98 97z" />
    <glyph glyph-name="c" unicode="c" horiz-adv-x="440" 
d="M45 191v126c0 58 19 108 55 144c37 37 87 56 145 56c49 0 96 -11 139 -32c19 -9 29 -27 29 -46c0 -25 -21 -47 -49 -47c-9 0 -17 3 -24 6c-29 13 -62 24 -95 24c-61 0 -97 -36 -97 -97v-142c0 -62 36 -97 97 -97c33 0 69 11 98 25c7 4 14 5 22 5c25 0 48 -20 48 -48
c0 -19 -11 -37 -30 -46c-43 -21 -89 -32 -138 -32c-58 0 -108 19 -145 56c-36 36 -55 86 -55 145z" />
    <glyph glyph-name="d" unicode="d" horiz-adv-x="509" 
d="M45 191v126c0 58 18 109 54 145c37 37 88 55 146 55c34 0 71 -12 98 -26v168c0 29 22 52 51 52s52 -23 52 -52v-582c0 -28 -18 -52 -44 -61c-50 -17 -103 -26 -157 -26c-58 0 -108 19 -145 56c-36 36 -55 86 -55 145zM343 98v288c-27 23 -62 36 -98 36
c-61 0 -97 -36 -97 -97v-143c0 -62 36 -97 97 -97c34 0 67 4 98 13z" />
    <glyph glyph-name="e" unicode="e" horiz-adv-x="491" 
d="M381 205h-233c0 -41 7 -68 20 -86c17 -22 43 -34 77 -34c38 0 74 11 108 26c7 3 14 5 21 5c25 0 49 -21 49 -47c0 -19 -8 -36 -26 -45c-48 -23 -99 -34 -152 -34c-58 0 -108 19 -145 56c-36 36 -55 86 -55 145v126c0 58 19 108 55 144c37 37 87 56 145 56
c59 0 109 -19 145 -56c36 -36 56 -86 56 -144v-47c0 -36 -29 -65 -65 -65zM148 300h195c0 83 -34 122 -98 122c-63 0 -97 -38 -97 -122z" />
    <glyph glyph-name="f" unicode="f" horiz-adv-x="329" 
d="M63 42v366h-28c-30 0 -52 20 -52 50c0 28 23 49 52 49h28v55c0 82 67 149 149 149c20 0 40 -2 60 -5c25 -4 43 -25 43 -50c0 -26 -22 -47 -50 -47c-14 0 -16 6 -53 6c-25 0 -46 -20 -46 -45v-63h98c29 0 51 -21 51 -49c0 -29 -23 -49 -51 -49h-98v-367
c0 -29 -23 -52 -51 -52c-29 0 -52 23 -52 52z" />
    <glyph glyph-name="g" unicode="g" horiz-adv-x="509" 
d="M343 -23v39c-30 -15 -64 -26 -98 -26c-58 0 -108 19 -145 56c-36 36 -55 86 -55 145v126c0 58 19 108 55 144c37 37 87 56 145 56c55 0 107 -9 157 -26c26 -9 44 -33 44 -61v-453c0 -58 -20 -108 -56 -144c-36 -37 -86 -56 -145 -56c-50 0 -99 10 -145 31
c-19 9 -31 26 -31 46c0 26 22 48 50 48c7 0 16 -3 23 -6c33 -14 67 -24 103 -24c62 0 98 44 98 105zM343 121v288c-31 8 -64 13 -98 13c-61 0 -97 -36 -97 -97v-143c0 -62 36 -97 97 -97c36 0 71 13 98 36z" />
    <glyph glyph-name="h" unicode="h" horiz-adv-x="523" 
d="M361 42v283c0 61 -36 97 -98 97c-35 0 -69 -13 -97 -36v-344c0 -29 -23 -52 -51 -52c-29 0 -52 23 -52 52v617c0 29 23 52 52 52c28 0 51 -23 51 -52v-168c31 14 71 26 104 26c59 0 102 -17 139 -54c36 -36 55 -88 55 -146v-275c0 -29 -23 -52 -52 -52s-51 23 -51 52z
" />
    <glyph glyph-name="i" unicode="i" horiz-adv-x="242" 
d="M179 653c0 -32 -26 -58 -58 -58s-58 26 -58 58s26 58 58 58s58 -26 58 -58zM69 42v423c0 29 24 52 52 52c29 0 51 -23 51 -52v-423c0 -29 -22 -52 -51 -52c-28 0 -52 23 -52 52z" />
    <glyph glyph-name="j" unicode="j" horiz-adv-x="260" 
d="M201 653c0 -32 -26 -58 -58 -58s-58 26 -58 58s26 58 58 58s58 -26 58 -58zM91 -15v480c0 29 23 52 52 52c28 0 51 -23 51 -52v-480c0 -96 -50 -171 -134 -199c-9 -3 -22 -6 -33 -6c-25 0 -49 19 -49 49c0 24 16 43 40 48c47 11 73 53 73 108z" />
    <glyph glyph-name="k" unicode="k" horiz-adv-x="459" 
d="M351 8l-180 207v-173c0 -29 -23 -52 -51 -52c-29 0 -52 23 -52 52v617c0 29 23 52 52 52c28 0 51 -23 51 -52v-321l178 165c10 10 23 14 36 14c27 0 50 -23 50 -52c0 -14 -6 -27 -17 -37l-171 -152l182 -200c9 -9 12 -22 12 -34c0 -26 -21 -52 -50 -52
c-15 0 -30 6 -40 18z" />
    <glyph glyph-name="l" unicode="l" horiz-adv-x="239" 
d="M68 42v617c0 29 23 52 52 52c28 0 51 -23 51 -52v-617c0 -29 -23 -52 -51 -52c-29 0 -52 23 -52 52z" />
    <glyph glyph-name="m" unicode="m" horiz-adv-x="775" 
d="M613 42v294c0 47 -39 86 -86 86c-31 0 -61 -10 -86 -26v-354c0 -29 -23 -52 -52 -52c-28 0 -51 23 -51 52v307c0 58 -38 73 -82 73c-36 0 -58 -5 -90 -14v-366c0 -29 -23 -52 -51 -52c-29 0 -52 23 -52 52v385c0 27 17 51 42 61c52 20 103 29 161 29c48 0 90 -15 121 -41
c41 27 90 41 140 41c108 0 189 -81 189 -189v-286c0 -29 -23 -52 -52 -52s-51 23 -51 52z" />
    <glyph glyph-name="n" unicode="n" horiz-adv-x="523" 
d="M361 42v283c0 61 -36 97 -98 97c-33 0 -66 -5 -97 -13v-367c0 -29 -23 -52 -51 -52c-29 0 -52 23 -52 52v388c0 28 17 52 44 61c49 17 102 26 156 26c59 0 109 -19 145 -56c36 -36 56 -86 56 -144v-275c0 -29 -23 -52 -52 -52s-51 23 -51 52z" />
    <glyph glyph-name="o" unicode="o" horiz-adv-x="510" 
d="M465 307v-107c0 -61 -20 -114 -58 -152s-91 -58 -152 -58s-114 20 -152 58s-58 91 -58 152v107c0 61 20 114 58 152s91 58 152 58s114 -20 152 -58s58 -91 58 -152zM362 191v124c0 63 -41 107 -107 107c-68 0 -107 -39 -107 -107v-124c0 -67 39 -106 107 -106
s107 39 107 106z" />
    <glyph glyph-name="p" unicode="p" horiz-adv-x="514" 
d="M63 -171v601c0 28 18 53 44 61c50 16 102 26 156 26c59 0 109 -19 145 -56c36 -36 56 -86 56 -144v-126c0 -59 -19 -111 -55 -147c-36 -37 -80 -54 -139 -54c-33 0 -73 12 -104 26v-187c0 -29 -23 -52 -51 -52c-29 0 -52 23 -52 52zM361 182v143c0 61 -36 97 -98 97
c-33 0 -65 -4 -97 -12v-290c28 -23 61 -35 97 -35c62 0 98 35 98 97z" />
    <glyph glyph-name="q" unicode="q" horiz-adv-x="509" 
d="M402 491c26 -8 44 -33 44 -61v-601c0 -29 -23 -52 -52 -52c-28 0 -51 23 -51 52v187c-31 -14 -71 -26 -104 -26c-59 0 -103 17 -139 54c-36 36 -55 88 -55 147v126c0 58 20 108 56 144c36 37 86 56 145 56c54 0 106 -10 156 -26zM246 85c36 0 69 12 97 35v290
c-32 8 -64 12 -97 12c-62 0 -98 -36 -98 -97v-143c0 -62 36 -97 98 -97z" />
    <glyph glyph-name="r" unicode="r" horiz-adv-x="342" 
d="M63 42v326c0 85 64 149 149 149c25 0 50 -3 75 -8c24 -5 41 -25 41 -49c0 -27 -20 -48 -49 -48c-6 0 -9 0 -17 2c-16 4 -34 8 -50 8c-25 0 -46 -21 -46 -46v-334c0 -29 -23 -52 -51 -52c-29 0 -52 23 -52 52z" />
    <glyph glyph-name="s" unicode="s" horiz-adv-x="431" 
d="M220 199l-82 30c-54 20 -96 62 -96 137c0 88 73 151 173 151c68 0 103 -10 136 -25c20 -8 33 -26 33 -47c0 -26 -21 -48 -48 -48c-7 0 -17 2 -24 5c-25 12 -66 20 -99 20c-41 0 -68 -20 -68 -54c0 -26 20 -42 41 -49l98 -32c66 -22 106 -67 106 -140
c0 -88 -71 -157 -178 -157c-59 0 -107 11 -144 28c-19 9 -31 26 -31 46c0 26 22 50 50 50c7 0 16 -3 23 -6c27 -14 60 -23 104 -23c48 0 73 18 73 52c0 37 -30 49 -67 62z" />
    <glyph glyph-name="t" unicode="t" horiz-adv-x="342" 
d="M63 146v262h-28c-30 0 -52 20 -52 50c0 28 23 49 52 49h28v152c0 29 23 52 52 52c28 0 51 -23 51 -52v-152h97c29 0 52 -21 52 -49c0 -30 -22 -50 -52 -50h-97v-261c0 -38 20 -62 46 -62c29 0 34 8 53 8c25 0 50 -18 50 -48c0 -25 -19 -44 -44 -49c-20 -4 -39 -6 -59 -6
c-82 0 -149 64 -149 156z" />
    <glyph glyph-name="u" unicode="u" horiz-adv-x="523" 
d="M357 98v367c0 29 22 52 51 52s52 -23 52 -52v-388c0 -28 -18 -52 -44 -61c-49 -17 -102 -26 -157 -26c-58 0 -110 17 -147 54c-36 36 -53 88 -53 147v274c0 29 23 52 52 52c28 0 51 -23 51 -52v-282c0 -62 36 -97 97 -97c34 0 67 4 98 12z" />
    <glyph glyph-name="v" unicode="v" horiz-adv-x="439" 
d="M169 29l-152 419c-2 6 -3 11 -3 17c0 26 22 52 51 52c21 0 41 -12 49 -34l109 -327l101 326c7 21 27 35 48 35c27 0 53 -22 53 -52c0 -5 -1 -11 -3 -16l-142 -418c-8 -24 -30 -41 -56 -41s-49 22 -55 39z" />
    <glyph glyph-name="w" unicode="w" horiz-adv-x="705" 
d="M436 32l-83 287l-83 -286c-7 -25 -30 -43 -56 -43s-48 17 -56 41l-133 419c-2 5 -2 10 -2 15c0 27 21 52 51 52c22 0 44 -14 50 -36l89 -304l84 297c7 25 30 43 56 43s50 -23 55 -41l84 -299l89 304c6 22 28 36 50 36c27 0 51 -22 51 -52c0 -5 0 -10 -2 -15l-133 -418
c-8 -25 -30 -42 -55 -42c-26 0 -49 18 -56 42z" />
    <glyph glyph-name="x" unicode="x" horiz-adv-x="447" 
d="M329 12l-106 156l-106 -156c-10 -14 -26 -22 -42 -22c-27 0 -52 23 -52 52c0 10 3 20 9 29l131 185l-128 180c-6 9 -9 19 -9 29c0 27 23 52 52 52c16 0 32 -8 42 -22l103 -151l103 151c10 15 27 22 43 22c28 0 51 -23 51 -52c0 -10 -3 -20 -9 -29l-128 -180l131 -185
c7 -9 10 -19 10 -29c0 -28 -24 -52 -53 -52c-16 0 -32 7 -42 22z" />
    <glyph glyph-name="y" unicode="y" horiz-adv-x="457" 
d="M163 -62l25 82l-165 427c-2 6 -4 13 -4 19c0 26 24 51 53 51c21 0 40 -13 47 -33l120 -329l103 327c7 21 27 35 48 35c27 0 53 -22 53 -52c0 -5 -1 -11 -3 -16l-179 -535c-27 -82 -97 -137 -192 -137c-27 0 -51 19 -51 49c0 26 22 47 49 48c44 2 82 20 96 64z" />
    <glyph glyph-name="z" unicode="z" horiz-adv-x="455" 
d="M377 0h-292c-32 0 -58 26 -58 58c0 12 3 23 12 35l246 316h-204c-29 0 -51 21 -51 49s22 49 51 49h285c32 0 58 -26 58 -58c0 -12 -3 -24 -10 -33l-248 -318h210c29 0 52 -20 52 -48c0 -29 -22 -50 -51 -50z" />
    <glyph glyph-name="braceleft" unicode="{" horiz-adv-x="418" 
d="M155 16v177c0 37 -28 68 -64 72c-26 3 -46 25 -46 52c0 26 20 48 46 51c36 4 64 35 64 72v177c0 89 72 162 161 162c30 0 52 -20 52 -49s-22 -49 -52 -49c-32 0 -58 -26 -58 -58v-183c0 -48 -19 -91 -60 -123c41 -32 60 -76 60 -124v-182c0 -32 26 -58 58 -58
c30 0 52 -20 52 -49c0 -28 -21 -49 -52 -49c-89 0 -161 72 -161 161z" />
    <glyph glyph-name="bar" unicode="|" horiz-adv-x="319" 
d="M108 -171v898c0 29 23 52 52 52c28 0 51 -23 51 -52v-898c0 -29 -23 -52 -51 -52c-29 0 -52 23 -52 52z" />
    <glyph glyph-name="braceright" unicode="}" horiz-adv-x="418" 
d="M160 11v182c0 48 19 92 60 124c-41 32 -60 75 -60 123v183c0 32 -26 58 -58 58c-30 0 -52 20 -52 49s22 49 52 49c89 0 161 -73 161 -162v-177c0 -37 28 -68 64 -72c26 -3 46 -25 46 -51c0 -27 -20 -49 -46 -52c-36 -4 -64 -35 -64 -72v-177c0 -89 -72 -161 -161 -161
c-31 0 -52 21 -52 49c0 29 22 49 52 49c32 0 58 26 58 58z" />
    <glyph glyph-name="asciitilde" unicode="~" horiz-adv-x="545" 
d="M451 202c-25 -14 -54 -21 -83 -21c-45 0 -86 19 -122 40c-24 13 -46 25 -70 25c-22 0 -46 -13 -58 -31c-11 -17 -25 -25 -44 -25c-29 0 -49 23 -49 50c0 37 40 66 68 81c26 14 54 21 83 21c45 0 87 -19 122 -40c24 -14 46 -25 70 -25c22 0 45 14 57 31s26 25 44 25
c29 0 50 -23 50 -50c0 -37 -40 -66 -68 -81z" />
    <glyph glyph-name="uni00A0" unicode="&#xa0;" horiz-adv-x="250" 
 />
    <glyph glyph-name="exclamdown" unicode="&#xa1;" horiz-adv-x="363" 
d="M182 375c-36 0 -65 29 -65 64c0 36 29 65 65 65c35 0 64 -29 64 -65c0 -35 -29 -64 -64 -64zM130 -171v402c0 29 23 52 52 52c28 0 51 -23 51 -52v-402c0 -29 -23 -52 -51 -52c-29 0 -52 23 -52 52z" />
    <glyph glyph-name="cent" unicode="&#xa2;" 
d="M330 120v-78c0 -29 -23 -52 -51 -52c-29 0 -52 23 -52 52v82c-30 8 -56 23 -78 44c-33 33 -51 80 -51 134v97c0 54 18 101 51 134c22 22 48 36 78 45v81c0 29 23 52 52 52c28 0 51 -23 51 -52v-78c28 -4 55 -13 81 -25c18 -9 29 -27 29 -46c0 -27 -22 -48 -51 -48
c-7 0 -15 2 -22 5c-26 12 -55 22 -84 22c-52 0 -82 -29 -82 -82v-113c0 -53 30 -82 82 -82c29 0 58 8 83 21c7 4 15 7 23 7c27 0 51 -19 51 -48c0 -20 -11 -37 -29 -46c-26 -13 -53 -22 -81 -26z" />
    <glyph glyph-name="sterling" unicode="&#xa3;" 
d="M425 0h-330c-26 0 -52 23 -52 52c0 13 5 26 15 36c49 49 75 111 75 179v87h-39c-29 0 -51 21 -51 49s22 49 51 49h39v69c0 55 19 103 53 137c34 35 82 53 137 53c39 0 77 -11 112 -33c15 -10 24 -27 24 -44c0 -27 -22 -48 -50 -48c-10 0 -21 4 -30 11
c-17 13 -37 19 -56 19c-56 0 -87 -39 -87 -95v-69h172c29 0 51 -21 51 -49s-22 -49 -51 -49h-172v-87c0 -59 -13 -119 -49 -169h238c29 0 51 -21 51 -49c0 -29 -22 -49 -51 -49z" />
    <glyph glyph-name="currency" unicode="&#xa4;" 
d="M427 110l-58 58c-32 -20 -69 -31 -110 -31c-40 0 -77 11 -109 31l-59 -59c-10 -10 -23 -15 -36 -15c-27 0 -52 21 -52 51c0 13 5 27 15 37l58 59c-19 32 -30 70 -30 110s11 77 30 109l-58 59c-10 10 -15 23 -15 36c0 27 21 52 51 52c13 0 27 -5 37 -15l59 -59
c32 20 69 31 109 31s78 -11 110 -31l59 59c10 10 23 15 36 15c27 0 52 -22 52 -52c0 -13 -5 -26 -15 -36l-59 -59c20 -32 31 -69 31 -109s-11 -78 -31 -110l58 -58c10 -10 15 -24 15 -37c0 -26 -22 -51 -51 -51c-14 0 -27 5 -37 15zM259 235c59 0 111 48 111 116
c0 64 -50 115 -111 115c-58 0 -110 -48 -110 -115c0 -64 49 -116 110 -116z" />
    <glyph glyph-name="yen" unicode="&#xa5;" 
d="M415 113h-104v-71c0 -29 -23 -52 -52 -52s-51 23 -51 52v71h-105c-29 0 -51 21 -51 49s22 49 51 49h105v89h-105c-28 0 -51 20 -51 49c0 28 22 49 51 49h55l-144 234c-5 9 -7 18 -7 27c0 27 23 52 52 52c17 0 34 -9 44 -25l156 -268l156 268c10 16 27 25 44 25
c27 0 53 -23 53 -52c0 -9 -3 -19 -8 -27l-144 -234h55c29 0 51 -21 51 -49c0 -29 -22 -49 -51 -49h-104v-89h104c29 0 51 -21 51 -49s-22 -49 -51 -49z" />
    <glyph glyph-name="brokenbar" unicode="&#xa6;" horiz-adv-x="319" 
d="M108 -171v307c0 28 23 51 52 51c28 0 51 -23 51 -51v-307c0 -29 -23 -52 -51 -52c-29 0 -52 23 -52 52zM108 420v307c0 29 23 52 52 52c28 0 51 -23 51 -52v-307c0 -29 -23 -52 -51 -52c-29 0 -52 23 -52 52z" />
    <glyph glyph-name="section" unicode="&#xa7;" 
d="M294 94l-123 57c-62 29 -101 87 -101 151c0 52 17 98 49 136c-34 30 -49 70 -49 112c0 45 21 87 59 118c34 27 79 43 127 43c50 0 98 -9 144 -27c21 -8 33 -26 33 -47c0 -27 -20 -48 -49 -48c-6 0 -15 2 -21 5c-33 15 -70 22 -107 22c-45 0 -83 -35 -83 -66
c0 -23 16 -45 42 -57l123 -57c64 -30 104 -91 104 -160c0 -50 -16 -95 -49 -133c34 -30 49 -71 49 -115c0 -92 -83 -167 -186 -167c-54 0 -106 11 -155 31c-19 8 -31 26 -31 46c0 25 22 48 50 48c7 0 15 -2 22 -5c36 -15 74 -25 114 -25c45 0 83 38 83 72
c0 28 -17 53 -45 66zM294 350l-87 40c-23 -22 -34 -51 -34 -88c0 -31 16 -53 42 -65c0 -1 58 -27 94 -44c20 21 30 49 30 83c0 36 -17 61 -45 74z" />
    <glyph glyph-name="dieresis" unicode="&#xa8;" horiz-adv-x="435" 
d="M181 661c0 -32 -26 -58 -58 -58s-58 26 -58 58s26 58 58 58s58 -26 58 -58zM311 603c-33 0 -59 26 -59 58s26 58 59 58c32 0 58 -26 58 -58s-26 -58 -58 -58z" />
    <glyph glyph-name="copyright" unicode="&#xa9;" horiz-adv-x="829" 
d="M284 300v101c0 41 13 77 39 103s62 40 104 40c29 0 57 -8 83 -25c12 -7 19 -20 19 -33c0 -22 -19 -35 -39 -35c-7 0 -14 3 -20 7c-14 9 -29 14 -43 14c-43 0 -66 -23 -66 -65v-113c0 -42 23 -65 66 -65c14 0 28 5 42 14c7 4 14 7 21 7c22 0 39 -16 39 -36
c0 -13 -6 -25 -18 -32c-26 -17 -55 -25 -84 -25c-42 0 -78 14 -104 40s-39 62 -39 103zM414 -10c-198 0 -360 162 -360 361c0 198 162 360 360 360c199 0 361 -162 361 -360c0 -199 -162 -361 -361 -361zM414 63c156 0 283 129 283 288c0 158 -127 287 -283 287
s-282 -129 -282 -287c0 -159 126 -288 282 -288z" />
    <glyph glyph-name="ordfeminine" unicode="&#xaa;" horiz-adv-x="365" 
d="M300 606v-168c0 -19 -13 -37 -31 -43c-29 -10 -60 -15 -91 -15c-76 0 -122 40 -122 106s46 98 122 98h44v22c0 15 -17 32 -39 33c-20 0 -41 -4 -61 -12c-5 -2 -9 -2 -13 -2c-19 0 -35 16 -35 36c0 16 10 29 26 35c28 10 54 15 83 15c55 0 117 -40 117 -105zM222 452v64
h-44c-44 0 -44 -19 -44 -31c0 -13 0 -37 44 -37c15 0 30 1 44 4z" />
    <glyph glyph-name="guillemotleft" unicode="&#xab;" horiz-adv-x="532" 
d="M165 76l-98 137c-7 10 -13 23 -13 37s5 28 12 38l99 136c10 14 26 22 42 22c27 0 51 -23 51 -52c0 -10 -3 -21 -9 -30l-82 -114l82 -113c6 -9 9 -20 9 -30c0 -27 -22 -52 -51 -52c-16 0 -32 7 -42 21zM384 76l-98 137c-7 10 -12 23 -12 37s5 28 12 38l98 136
c10 14 26 22 42 22c30 0 52 -25 52 -52c0 -11 -3 -21 -10 -30l-81 -114l81 -113c7 -9 10 -20 10 -31c0 -29 -25 -51 -52 -51c-16 0 -32 7 -42 21z" />
    <glyph glyph-name="logicalnot" unicode="&#xac;" 
d="M393 71v135h-318c-29 0 -51 21 -51 49s22 49 51 49h356c35 0 65 -30 65 -64v-169c0 -28 -22 -51 -51 -51s-52 23 -52 51z" />
    <glyph glyph-name="uni00AD" unicode="&#xad;" horiz-adv-x="438" 
d="M335 249h-233c-27 0 -48 22 -48 49c0 26 20 49 48 49h233c27 0 49 -22 49 -49s-22 -49 -49 -49z" />
    <glyph glyph-name="registered" unicode="&#xae;" horiz-adv-x="829" 
d="M482 176l-73 133h-33v-114c0 -21 -17 -39 -39 -39c-21 0 -38 18 -38 39v303c0 25 20 45 45 45h89c67 0 121 -47 121 -118c0 -52 -28 -88 -65 -105l60 -106c4 -6 5 -13 5 -19c0 -20 -16 -39 -38 -39c-14 0 -27 7 -34 20zM376 387h57c39 0 43 20 43 38c0 26 -14 40 -43 40
h-57v-78zM414 -10c-198 0 -360 162 -360 361c0 198 162 360 360 360c199 0 361 -162 361 -360c0 -199 -162 -361 -361 -361zM414 63c156 0 283 129 283 288c0 158 -127 287 -283 287s-282 -129 -282 -287c0 -159 126 -288 282 -288z" />
    <glyph glyph-name="macron" unicode="&#xaf;" horiz-adv-x="419" 
d="M290 622h-161c-27 0 -48 21 -48 48c0 26 20 49 48 49h161c27 0 49 -22 49 -49s-22 -48 -49 -48z" />
    <glyph glyph-name="degree" unicode="&#xb0;" horiz-adv-x="398" 
d="M199 403c-85 0 -154 69 -154 154s69 154 154 154s154 -69 154 -154s-69 -154 -154 -154zM199 489c36 0 66 31 66 68c0 39 -31 68 -66 68c-37 0 -66 -30 -66 -68c0 -39 31 -68 66 -68z" />
    <glyph glyph-name="plusminus" unicode="&#xb1;" 
d="M458 0h-397c-27 0 -48 22 -48 49c0 26 20 49 48 49h397c27 0 49 -22 49 -49s-22 -49 -49 -49zM457 308h-146v-123c0 -29 -22 -52 -51 -52c-28 0 -52 23 -52 52v123h-145c-27 0 -50 20 -50 49c0 28 22 49 50 49h145v122c0 29 24 52 52 52c29 0 51 -23 51 -52v-122h146
c28 0 50 -21 50 -49c0 -29 -23 -49 -50 -49z" />
    <glyph glyph-name="twosuperior" unicode="&#xb2;" horiz-adv-x="372" 
d="M274 291h-171c-26 0 -46 20 -46 45c0 11 4 21 10 29l137 167c11 14 25 35 25 55c0 26 -15 47 -49 47c-23 0 -35 -3 -57 -14c-6 -3 -14 -5 -20 -5c-21 0 -40 15 -40 39c0 15 8 29 23 36c39 18 70 21 98 21c76 0 129 -51 129 -124c0 -35 -19 -74 -46 -107l-90 -109h97
c24 0 42 -17 42 -40s-18 -40 -42 -40z" />
    <glyph glyph-name="threesuperior" unicode="&#xb3;" horiz-adv-x="373" 
d="M174 466h-11c-24 0 -42 16 -42 39c0 24 18 39 42 39h7c29 0 54 17 54 43s-15 47 -49 47c-22 0 -37 -4 -59 -15c-6 -3 -11 -4 -17 -4c-21 0 -41 14 -41 39c0 15 8 29 23 36c39 18 70 21 98 21c76 0 129 -51 129 -124c0 -30 -12 -57 -38 -78c33 -24 49 -56 49 -92
c0 -38 -15 -72 -41 -96c-26 -23 -60 -35 -99 -35c-38 0 -70 7 -101 21c-15 7 -24 20 -24 36c0 22 17 40 41 40c6 0 13 -2 19 -5c19 -9 39 -15 65 -15c17 0 56 11 56 54c0 25 -28 49 -61 49z" />
    <glyph glyph-name="acute" unicode="&#xb4;" horiz-adv-x="435" 
d="M297 638l-104 -63c-8 -5 -18 -10 -29 -10c-27 0 -50 20 -50 49c0 17 9 33 25 43l105 64c8 5 18 8 27 8c27 0 50 -20 50 -49c0 -17 -9 -33 -24 -42z" />
    <glyph glyph-name="mu" unicode="&#xb5;" horiz-adv-x="556" 
d="M381 97v368c0 29 22 52 51 52s52 -23 52 -52v-388c0 -26 -18 -53 -44 -61c-49 -16 -102 -26 -157 -26c-35 0 -68 7 -97 30v-191c0 -29 -23 -52 -51 -52c-29 0 -52 23 -52 52v636c0 29 23 52 52 52c28 0 51 -23 51 -52v-283c0 -59 35 -97 97 -97c34 0 68 4 98 12z" />
    <glyph glyph-name="paragraph" unicode="&#xb6;" horiz-adv-x="545" 
d="M421 -171v774h-98v-774c0 -29 -23 -52 -51 -52c-29 0 -52 23 -52 52v472c-110 0 -200 87 -200 200c0 104 83 200 200 200h239c34 0 65 -28 65 -64v-808c0 -29 -23 -52 -52 -52c-28 0 -51 23 -51 52z" />
    <glyph glyph-name="periodcentered" unicode="&#xb7;" horiz-adv-x="291" 
d="M146 231c-36 0 -65 29 -65 65c0 35 29 64 65 64c35 0 64 -29 64 -64c0 -36 -29 -65 -64 -65z" />
    <glyph glyph-name="cedilla" unicode="&#xb8;" horiz-adv-x="435" 
d="M269 -1l-6 -21c27 -16 50 -37 50 -74c0 -53 -38 -88 -97 -113c-15 -7 -39 -14 -52 -14c-22 0 -43 16 -43 42c0 24 15 36 33 41c16 4 69 12 69 34c0 13 -9 17 -32 25c-17 6 -23 21 -23 36c0 7 1 15 3 23l11 41c5 18 18 34 44 34c23 0 45 -15 45 -40c0 -4 -1 -9 -2 -14z
" />
    <glyph glyph-name="onesuperior" unicode="&#xb9;" horiz-adv-x="365" 
d="M162 328v277l-31 -17c-7 -4 -15 -7 -23 -7c-21 0 -40 16 -40 39c0 15 7 27 21 35l89 50c6 3 14 6 22 6c26 0 46 -21 46 -46v-337c0 -23 -19 -42 -42 -42s-42 19 -42 42z" />
    <glyph glyph-name="ordmasculine" unicode="&#xba;" horiz-adv-x="367" 
d="M311 583v-76c0 -75 -53 -127 -128 -127s-127 52 -127 127v76c0 75 52 128 127 128s128 -53 128 -128zM233 501v88c0 33 -17 50 -50 50c-32 0 -49 -17 -49 -50v-88c0 -32 17 -49 49 -49c33 0 50 17 50 49z" />
    <glyph glyph-name="guillemotright" unicode="&#xbb;" horiz-adv-x="532" 
d="M465 213l-98 -137c-10 -14 -26 -21 -42 -21c-29 0 -51 25 -51 52c0 10 3 21 9 30l82 113l-82 114c-6 9 -9 20 -9 30c0 29 24 52 51 52c16 0 32 -8 42 -22l99 -136c7 -10 12 -24 12 -38s-6 -27 -13 -37zM246 213l-98 -137c-10 -14 -26 -21 -42 -21c-27 0 -52 22 -52 51
c0 11 3 22 10 31l81 113l-81 114c-7 9 -10 19 -10 30c0 27 22 52 52 52c16 0 32 -8 42 -22l98 -136c7 -10 12 -24 12 -38s-5 -27 -12 -37z" />
    <glyph glyph-name="onequarter" unicode="&#xbc;" horiz-adv-x="846" 
d="M130 328v277l-31 -17c-7 -4 -15 -7 -23 -7c-21 0 -40 16 -40 39c0 15 7 27 21 35l89 50c6 3 14 6 22 6c26 0 46 -21 46 -46v-337c0 -23 -19 -42 -42 -42s-42 19 -42 42zM144 51l446 643c7 11 20 17 32 17c19 0 38 -16 38 -38c0 -8 -2 -16 -7 -23l-445 -643
c-8 -11 -20 -17 -32 -17c-20 0 -39 17 -39 39c0 8 2 15 7 22zM760 80h-21v-48c0 -23 -18 -42 -42 -42c-23 0 -42 19 -42 42v48h-126c-25 0 -47 18 -47 42c0 2 0 11 3 18l97 248c7 17 22 27 39 27c22 0 40 -17 40 -41c0 -5 -1 -11 -3 -16l-77 -198h74v48c0 23 19 42 42 42
c24 0 42 -19 42 -42v-48h21c23 0 41 -17 41 -40s-18 -40 -41 -40z" />
    <glyph glyph-name="onehalf" unicode="&#xbd;" horiz-adv-x="873" 
d="M135 51l446 643c7 11 20 17 32 17c19 0 38 -16 38 -38c0 -8 -2 -16 -7 -23l-445 -643c-8 -11 -20 -17 -32 -17c-20 0 -39 17 -39 39c0 8 2 15 7 22zM130 328v277l-31 -17c-7 -4 -15 -7 -23 -7c-21 0 -40 16 -40 39c0 15 7 27 21 35l89 50c6 3 14 6 22 6
c26 0 46 -21 46 -46v-337c0 -23 -19 -42 -42 -42s-42 19 -42 42zM763 0h-171c-26 0 -46 20 -46 45c0 11 4 21 10 29l137 162c11 13 25 31 25 51c0 26 -15 47 -49 47c-23 0 -35 -3 -57 -14c-6 -3 -14 -5 -20 -5c-21 0 -40 15 -40 39c0 15 8 29 23 36c39 18 70 21 98 21
c76 0 129 -51 129 -124c0 -35 -17 -71 -44 -103l-90 -104h95c24 0 42 -17 42 -40s-18 -40 -42 -40z" />
    <glyph glyph-name="threequarters" unicode="&#xbe;" horiz-adv-x="900" 
d="M816 80h-21v-48c0 -23 -18 -42 -42 -42c-23 0 -42 19 -42 42v48h-126c-25 0 -47 18 -47 42c0 2 0 11 3 18l97 248c7 17 22 27 39 27c22 0 40 -17 40 -41c0 -5 -1 -11 -3 -16l-77 -198h74v48c0 23 19 42 42 42c24 0 42 -19 42 -42v-48h21c23 0 41 -17 41 -40
s-18 -40 -41 -40zM199 51l446 643c7 11 20 17 32 17c19 0 38 -16 38 -38c0 -8 -2 -16 -7 -23l-445 -643c-8 -11 -20 -17 -32 -17c-20 0 -39 17 -39 39c0 8 2 15 7 22zM164 466h-11c-24 0 -42 16 -42 39c0 24 18 39 42 39h7c29 0 54 17 54 43s-15 47 -49 47
c-22 0 -37 -4 -59 -15c-6 -3 -11 -4 -17 -4c-21 0 -41 14 -41 39c0 15 8 29 23 36c39 18 70 21 98 21c76 0 129 -51 129 -124c0 -30 -12 -57 -38 -78c33 -24 49 -56 49 -92c0 -38 -15 -72 -41 -96c-26 -23 -60 -35 -99 -35c-38 0 -70 7 -101 21c-15 7 -24 20 -24 36
c0 22 17 40 41 40c6 0 13 -2 19 -5c19 -9 39 -15 65 -15c17 0 56 11 56 54c0 25 -28 49 -61 49z" />
    <glyph glyph-name="questiondown" unicode="&#xbf;" horiz-adv-x="480" 
d="M252 375c-36 0 -65 29 -65 65s29 65 65 65c35 0 64 -29 64 -65s-29 -65 -64 -65zM245 87l-59 -42c-30 -21 -38 -52 -38 -78c0 -59 49 -95 102 -95c38 0 69 9 101 26c7 4 18 7 26 7c26 0 49 -21 49 -49c0 -20 -11 -36 -30 -45c-47 -23 -98 -34 -151 -34
c-110 0 -200 87 -200 194c0 60 27 113 74 147l64 46c11 8 17 22 17 35v33c0 28 23 51 52 51c28 0 51 -23 51 -51v-27c0 -45 -22 -92 -58 -118z" />
    <glyph glyph-name="Agrave" unicode="&#xc0;" horiz-adv-x="584" 
d="M469 24l-54 152h-246l-55 -152c-8 -21 -27 -34 -49 -34c-27 0 -51 23 -51 52c0 6 1 11 3 17l220 614c8 21 30 38 55 38c23 0 47 -16 55 -39l220 -613c2 -5 3 -12 3 -17c0 -27 -22 -52 -52 -52c-21 0 -41 13 -49 34zM379 277l-87 242l-87 -242h174zM300 762l-104 63
c-15 9 -24 25 -24 42c0 29 23 49 50 49c9 0 19 -3 27 -8l105 -64c16 -10 25 -26 25 -43c0 -29 -23 -49 -50 -49c-11 0 -21 5 -29 10z" />
    <glyph glyph-name="Aacute" unicode="&#xc1;" horiz-adv-x="584" 
d="M469 24l-54 152h-246l-55 -152c-8 -21 -27 -34 -49 -34c-27 0 -51 23 -51 52c0 6 1 11 3 17l220 614c8 21 30 38 55 38c23 0 47 -16 55 -39l220 -613c2 -5 3 -12 3 -17c0 -27 -22 -52 -52 -52c-21 0 -41 13 -49 34zM379 277l-87 242l-87 -242h174zM389 825l-104 -63
c-8 -5 -18 -10 -29 -10c-27 0 -50 20 -50 49c0 17 9 33 25 43l105 64c8 5 18 8 27 8c27 0 50 -20 50 -49c0 -17 -9 -33 -24 -42z" />
    <glyph glyph-name="Acircumflex" unicode="&#xc2;" horiz-adv-x="584" 
d="M469 24l-54 152h-246l-55 -152c-8 -21 -27 -34 -49 -34c-27 0 -51 23 -51 52c0 6 1 11 3 17l220 614c8 21 30 38 55 38c23 0 47 -16 55 -39l220 -613c2 -5 3 -12 3 -17c0 -27 -22 -52 -52 -52c-21 0 -41 13 -49 34zM379 277l-87 242l-87 -242h174zM361 762l-69 49
l-70 -49c-9 -6 -17 -10 -30 -10c-27 0 -49 21 -49 49c0 16 7 31 22 41l90 62c10 7 23 12 37 12c13 0 26 -5 37 -12l89 -62c15 -10 22 -25 22 -41c0 -28 -22 -49 -49 -49c-13 0 -21 4 -30 10z" />
    <glyph glyph-name="Atilde" unicode="&#xc3;" horiz-adv-x="584" 
d="M469 24l-54 152h-246l-55 -152c-8 -21 -27 -34 -49 -34c-27 0 -51 23 -51 52c0 6 1 11 3 17l220 614c8 21 30 38 55 38c23 0 47 -16 55 -39l220 -613c2 -5 3 -12 3 -17c0 -27 -22 -52 -52 -52c-21 0 -41 13 -49 34zM379 277l-87 242l-87 -242h174zM439 840
c-13 -16 -28 -29 -45 -37c-18 -8 -37 -13 -56 -13c-26 0 -53 9 -75 26c-5 4 -11 6 -17 6c-11 0 -19 -5 -24 -12c-10 -12 -24 -20 -39 -20c-26 0 -47 24 -47 48c0 10 3 20 9 28c13 17 28 30 45 38c18 9 37 12 56 12c28 0 54 -12 75 -28c5 -4 11 -6 17 -6c10 0 19 6 25 12
c10 12 23 22 38 22c27 0 47 -23 47 -48c0 -10 -3 -20 -9 -28z" />
    <glyph glyph-name="Adieresis" unicode="&#xc4;" horiz-adv-x="584" 
d="M469 24l-54 152h-246l-55 -152c-8 -21 -27 -34 -49 -34c-27 0 -51 23 -51 52c0 6 1 11 3 17l220 614c8 21 30 38 55 38c23 0 47 -16 55 -39l220 -613c2 -5 3 -12 3 -17c0 -27 -22 -52 -52 -52c-21 0 -41 13 -49 34zM379 277l-87 242l-87 -242h174zM256 848
c0 -32 -26 -58 -58 -58s-58 26 -58 58s26 58 58 58s58 -26 58 -58zM386 790c-33 0 -59 26 -59 58s26 58 59 58c32 0 58 -26 58 -58s-26 -58 -58 -58z" />
    <glyph glyph-name="Aring" unicode="&#xc5;" horiz-adv-x="584" 
d="M469 24l-54 152h-246l-55 -152c-8 -21 -27 -34 -49 -34c-27 0 -51 23 -51 52c0 6 1 11 3 17l220 614c8 21 30 38 55 38c23 0 47 -16 55 -39l220 -613c2 -5 3 -12 3 -17c0 -27 -22 -52 -52 -52c-21 0 -41 13 -49 34zM379 277l-87 242l-87 -242h174zM408 865
c0 -64 -52 -116 -117 -116c-64 0 -116 52 -116 116s52 116 116 116c65 0 117 -52 117 -116zM291 824c23 0 40 17 40 41s-17 41 -40 41c-22 0 -39 -18 -39 -41s17 -41 39 -41z" />
    <glyph glyph-name="AE" unicode="&#xc6;" horiz-adv-x="848" 
d="M765 0h-299c-33 0 -64 29 -64 64v112h-188l-105 -162c-10 -15 -26 -24 -43 -24c-27 0 -52 24 -52 53c0 9 2 18 8 27l389 601c12 18 32 30 55 30h291c29 0 52 -23 52 -52c0 -28 -23 -49 -52 -49h-249v-186h236c29 0 52 -22 52 -51c0 -28 -23 -50 -52 -50h-236v-212h257
c28 0 51 -22 51 -50c0 -29 -23 -51 -51 -51zM402 277v189l-123 -189h123z" />
    <glyph glyph-name="Ccedilla" unicode="&#xc7;" horiz-adv-x="513" 
d="M50 249v203c0 155 104 259 258 259c54 0 106 -16 154 -47c15 -10 24 -26 24 -43c0 -27 -23 -49 -52 -49c-9 0 -18 3 -27 8c-32 20 -65 33 -99 33c-97 0 -152 -64 -152 -161v-203c0 -97 55 -161 152 -161c34 0 66 14 98 34c9 6 19 9 29 9c27 0 51 -21 51 -50
c0 -17 -9 -34 -24 -44c-45 -29 -94 -45 -145 -47l-3 -12c27 -16 50 -37 50 -74c0 -53 -38 -88 -97 -113c-15 -7 -39 -14 -52 -14c-22 0 -43 16 -43 42c0 24 15 36 33 41c16 4 69 12 69 34c0 13 -9 17 -32 25c-17 6 -23 21 -23 36c0 7 1 15 3 23l6 22
c-109 30 -178 122 -178 249z" />
    <glyph glyph-name="Egrave" unicode="&#xc8;" horiz-adv-x="514" 
d="M430 0h-297c-34 0 -65 28 -65 64v573c0 34 29 64 65 64h290c29 0 52 -23 52 -52c0 -28 -23 -49 -52 -49h-249v-186h236c29 0 52 -22 52 -51c0 -28 -23 -50 -52 -50h-236v-212h256c28 0 52 -22 52 -50c0 -29 -24 -51 -52 -51zM281 762l-104 63c-15 9 -24 25 -24 42
c0 29 23 49 50 49c9 0 19 -3 27 -8l105 -64c16 -10 25 -26 25 -43c0 -29 -23 -49 -50 -49c-11 0 -21 5 -29 10z" />
    <glyph glyph-name="Eacute" unicode="&#xc9;" horiz-adv-x="514" 
d="M430 0h-297c-34 0 -65 28 -65 64v573c0 34 29 64 65 64h290c29 0 52 -23 52 -52c0 -28 -23 -49 -52 -49h-249v-186h236c29 0 52 -22 52 -51c0 -28 -23 -50 -52 -50h-236v-212h256c28 0 52 -22 52 -50c0 -29 -24 -51 -52 -51zM370 825l-104 -63c-8 -5 -18 -10 -29 -10
c-27 0 -50 20 -50 49c0 17 9 33 25 43l105 64c8 5 18 8 27 8c27 0 50 -20 50 -49c0 -17 -9 -33 -24 -42z" />
    <glyph glyph-name="Ecircumflex" unicode="&#xca;" horiz-adv-x="514" 
d="M430 0h-297c-34 0 -65 28 -65 64v573c0 34 29 64 65 64h290c29 0 52 -23 52 -52c0 -28 -23 -49 -52 -49h-249v-186h236c29 0 52 -22 52 -51c0 -28 -23 -50 -52 -50h-236v-212h256c28 0 52 -22 52 -50c0 -29 -24 -51 -52 -51zM342 762l-69 49l-70 -49
c-9 -6 -17 -10 -30 -10c-27 0 -49 21 -49 49c0 16 7 31 22 41l90 62c10 7 23 12 37 12c13 0 26 -5 37 -12l89 -62c15 -10 22 -25 22 -41c0 -28 -22 -49 -49 -49c-13 0 -21 4 -30 10z" />
    <glyph glyph-name="Edieresis" unicode="&#xcb;" horiz-adv-x="514" 
d="M430 0h-297c-34 0 -65 28 -65 64v573c0 34 29 64 65 64h290c29 0 52 -23 52 -52c0 -28 -23 -49 -52 -49h-249v-186h236c29 0 52 -22 52 -51c0 -28 -23 -50 -52 -50h-236v-212h256c28 0 52 -22 52 -50c0 -29 -24 -51 -52 -51zM237 848c0 -32 -26 -58 -58 -58
s-58 26 -58 58s26 58 58 58s58 -26 58 -58zM367 790c-33 0 -59 26 -59 58s26 58 59 58c32 0 58 -26 58 -58s-26 -58 -58 -58z" />
    <glyph glyph-name="Igrave" unicode="&#xcc;" horiz-adv-x="242" 
d="M68 43v615c0 29 24 53 53 53c28 0 53 -24 53 -53v-615c0 -29 -25 -53 -53 -53c-29 0 -53 24 -53 53zM134 762l-104 63c-15 9 -24 25 -24 42c0 29 23 49 50 49c9 0 19 -3 27 -8l105 -64c16 -10 25 -26 25 -43c0 -29 -23 -49 -50 -49c-11 0 -21 5 -29 10z" />
    <glyph glyph-name="Iacute" unicode="&#xcd;" horiz-adv-x="242" 
d="M68 43v615c0 29 24 53 53 53c28 0 53 -24 53 -53v-615c0 -29 -25 -53 -53 -53c-29 0 -53 24 -53 53zM224 825l-104 -63c-8 -5 -18 -10 -29 -10c-27 0 -50 20 -50 49c0 17 9 33 25 43l105 64c8 5 18 8 27 8c27 0 50 -20 50 -49c0 -17 -9 -33 -24 -42z" />
    <glyph glyph-name="Icircumflex" unicode="&#xce;" horiz-adv-x="242" 
d="M68 43v615c0 29 24 53 53 53c28 0 53 -24 53 -53v-615c0 -29 -25 -53 -53 -53c-29 0 -53 24 -53 53zM197 762l-69 49l-70 -49c-9 -6 -17 -10 -30 -10c-27 0 -49 21 -49 49c0 16 7 31 22 41l90 62c10 7 23 12 37 12c13 0 26 -5 37 -12l89 -62c15 -10 22 -25 22 -41
c0 -28 -22 -49 -49 -49c-13 0 -21 4 -30 10z" />
    <glyph glyph-name="Idieresis" unicode="&#xcf;" horiz-adv-x="242" 
d="M68 43v615c0 29 24 53 53 53c28 0 53 -24 53 -53v-615c0 -29 -25 -53 -53 -53c-29 0 -53 24 -53 53zM91 848c0 -32 -26 -58 -58 -58s-58 26 -58 58s26 58 58 58s58 -26 58 -58zM221 790c-33 0 -59 26 -59 58s26 58 59 58c32 0 58 -26 58 -58s-26 -58 -58 -58z" />
    <glyph glyph-name="Eth" unicode="&#xd0;" horiz-adv-x="637" 
d="M312 0h-132c-36 0 -65 29 -65 64v249h-46c-29 0 -51 22 -51 50c0 29 22 51 51 51h46v223c0 35 29 64 65 64h132c164 0 275 -109 275 -272v-157c0 -163 -111 -272 -275 -272zM481 270v161c0 106 -61 169 -168 169h-92v-186h94c29 0 52 -22 52 -51c0 -28 -23 -50 -52 -50
h-94v-212h92c107 0 168 64 168 169z" />
    <glyph glyph-name="Ntilde" unicode="&#xd1;" horiz-adv-x="614" 
d="M438 20l-264 463v-441c0 -29 -24 -52 -52 -52c-29 0 -54 23 -54 52v611c0 32 28 58 58 58c22 0 41 -11 51 -29l263 -464v441c0 29 25 52 54 52c28 0 52 -23 52 -52v-611c0 -33 -28 -58 -58 -58c-22 0 -40 13 -50 30zM454 840c-13 -16 -28 -29 -45 -37
c-18 -8 -37 -13 -56 -13c-26 0 -53 9 -75 26c-5 4 -11 6 -17 6c-11 0 -19 -5 -24 -12c-10 -12 -24 -20 -39 -20c-26 0 -47 24 -47 48c0 10 3 20 9 28c13 17 28 30 45 38c18 9 37 12 56 12c28 0 54 -12 75 -28c5 -4 11 -6 17 -6c10 0 19 6 25 12c10 12 23 22 38 22
c27 0 47 -23 47 -48c0 -10 -3 -20 -9 -28z" />
    <glyph glyph-name="Ograve" unicode="&#xd2;" horiz-adv-x="591" 
d="M541 465v-229c0 -147 -99 -246 -245 -246c-147 0 -246 99 -246 246v229c0 147 99 246 246 246c146 0 245 -99 245 -246zM435 230v241c0 89 -50 142 -139 142s-140 -53 -140 -142v-241c0 -89 51 -142 140 -142s139 53 139 142zM303 762l-104 63c-15 9 -24 25 -24 42
c0 29 23 49 50 49c9 0 19 -3 27 -8l105 -64c16 -10 25 -26 25 -43c0 -29 -23 -49 -50 -49c-11 0 -21 5 -29 10z" />
    <glyph glyph-name="Oacute" unicode="&#xd3;" horiz-adv-x="591" 
d="M541 465v-229c0 -147 -99 -246 -245 -246c-147 0 -246 99 -246 246v229c0 147 99 246 246 246c146 0 245 -99 245 -246zM435 230v241c0 89 -50 142 -139 142s-140 -53 -140 -142v-241c0 -89 51 -142 140 -142s139 53 139 142zM392 825l-104 -63c-8 -5 -18 -10 -29 -10
c-27 0 -50 20 -50 49c0 17 9 33 25 43l105 64c8 5 18 8 27 8c27 0 50 -20 50 -49c0 -17 -9 -33 -24 -42z" />
    <glyph glyph-name="Ocircumflex" unicode="&#xd4;" horiz-adv-x="591" 
d="M541 465v-229c0 -147 -99 -246 -245 -246c-147 0 -246 99 -246 246v229c0 147 99 246 246 246c146 0 245 -99 245 -246zM435 230v241c0 89 -50 142 -139 142s-140 -53 -140 -142v-241c0 -89 51 -142 140 -142s139 53 139 142zM364 762l-69 49l-70 -49
c-9 -6 -17 -10 -30 -10c-27 0 -49 21 -49 49c0 16 7 31 22 41l90 62c10 7 23 12 37 12c13 0 26 -5 37 -12l89 -62c15 -10 22 -25 22 -41c0 -28 -22 -49 -49 -49c-13 0 -21 4 -30 10z" />
    <glyph glyph-name="Otilde" unicode="&#xd5;" horiz-adv-x="591" 
d="M541 465v-229c0 -147 -99 -246 -245 -246c-147 0 -246 99 -246 246v229c0 147 99 246 246 246c146 0 245 -99 245 -246zM435 230v241c0 89 -50 142 -139 142s-140 -53 -140 -142v-241c0 -89 51 -142 140 -142s139 53 139 142zM442 840c-13 -16 -28 -29 -45 -37
c-18 -8 -37 -13 -56 -13c-26 0 -53 9 -75 26c-5 4 -11 6 -17 6c-11 0 -19 -5 -24 -12c-10 -12 -24 -20 -39 -20c-26 0 -47 24 -47 48c0 10 3 20 9 28c13 17 28 30 45 38c18 9 37 12 56 12c28 0 54 -12 75 -28c5 -4 11 -6 17 -6c10 0 19 6 25 12c10 12 23 22 38 22
c27 0 47 -23 47 -48c0 -10 -3 -20 -9 -28z" />
    <glyph glyph-name="Odieresis" unicode="&#xd6;" horiz-adv-x="591" 
d="M541 465v-229c0 -147 -99 -246 -245 -246c-147 0 -246 99 -246 246v229c0 147 99 246 246 246c146 0 245 -99 245 -246zM435 230v241c0 89 -50 142 -139 142s-140 -53 -140 -142v-241c0 -89 51 -142 140 -142s139 53 139 142zM259 848c0 -32 -26 -58 -58 -58
s-58 26 -58 58s26 58 58 58s58 -26 58 -58zM389 790c-33 0 -59 26 -59 58s26 58 59 58c32 0 58 -26 58 -58s-26 -58 -58 -58z" />
    <glyph glyph-name="multiply" unicode="&#xd7;" 
d="M380 62l-121 121l-120 -121c-10 -10 -23 -15 -36 -15c-27 0 -52 21 -52 51c0 13 5 27 15 37l121 120l-121 120c-10 10 -15 24 -15 37c0 26 22 52 51 52c13 0 27 -5 37 -15l120 -122l121 122c10 10 23 15 36 15c27 0 52 -22 52 -52c0 -13 -5 -27 -15 -37l-121 -120
l121 -120c10 -10 15 -24 15 -37c0 -27 -23 -51 -52 -51c-13 0 -26 5 -36 15z" />
    <glyph glyph-name="Oslash" unicode="&#xd8;" horiz-adv-x="591" 
d="M181 14l-20 -43c-8 -16 -23 -25 -39 -25c-24 0 -45 20 -45 45c0 6 1 12 4 18l28 58c-38 42 -59 100 -59 169v229c0 147 99 246 246 246c42 0 81 -8 114 -24l20 43c8 16 23 25 39 25c23 0 45 -19 45 -44c0 -6 -1 -13 -4 -19l-28 -58c38 -42 59 -100 59 -169v-229
c0 -147 -99 -246 -245 -246c-43 0 -81 9 -115 24zM163 177l204 421c-21 11 -45 15 -71 15c-89 0 -140 -53 -140 -142v-235c0 -22 2 -42 7 -59zM435 230v235c0 22 -1 42 -7 59l-204 -421c20 -10 44 -15 72 -15c89 0 139 53 139 142z" />
    <glyph glyph-name="Ugrave" unicode="&#xd9;" horiz-adv-x="616" 
d="M451 233v425c0 29 24 53 53 53c28 0 53 -24 53 -53v-419c0 -149 -100 -249 -249 -249s-249 100 -249 249v419c0 29 25 53 54 53c28 0 52 -24 52 -53v-425c0 -91 52 -145 143 -145s143 54 143 145zM316 762l-104 63c-15 9 -24 25 -24 42c0 29 23 49 50 49c9 0 19 -3 27 -8
l105 -64c16 -10 25 -26 25 -43c0 -29 -23 -49 -50 -49c-11 0 -21 5 -29 10z" />
    <glyph glyph-name="Uacute" unicode="&#xda;" horiz-adv-x="616" 
d="M451 233v425c0 29 24 53 53 53c28 0 53 -24 53 -53v-419c0 -149 -100 -249 -249 -249s-249 100 -249 249v419c0 29 25 53 54 53c28 0 52 -24 52 -53v-425c0 -91 52 -145 143 -145s143 54 143 145zM405 825l-104 -63c-8 -5 -18 -10 -29 -10c-27 0 -50 20 -50 49
c0 17 9 33 25 43l105 64c8 5 18 8 27 8c27 0 50 -20 50 -49c0 -17 -9 -33 -24 -42z" />
    <glyph glyph-name="Ucircumflex" unicode="&#xdb;" horiz-adv-x="616" 
d="M451 233v425c0 29 24 53 53 53c28 0 53 -24 53 -53v-419c0 -149 -100 -249 -249 -249s-249 100 -249 249v419c0 29 25 53 54 53c28 0 52 -24 52 -53v-425c0 -91 52 -145 143 -145s143 54 143 145zM377 762l-69 49l-70 -49c-9 -6 -17 -10 -30 -10c-27 0 -49 21 -49 49
c0 16 7 31 22 41l90 62c10 7 23 12 37 12c13 0 26 -5 37 -12l89 -62c15 -10 22 -25 22 -41c0 -28 -22 -49 -49 -49c-13 0 -21 4 -30 10z" />
    <glyph glyph-name="Udieresis" unicode="&#xdc;" horiz-adv-x="616" 
d="M451 233v425c0 29 24 53 53 53c28 0 53 -24 53 -53v-419c0 -149 -100 -249 -249 -249s-249 100 -249 249v419c0 29 25 53 54 53c28 0 52 -24 52 -53v-425c0 -91 52 -145 143 -145s143 54 143 145zM272 848c0 -32 -26 -58 -58 -58s-58 26 -58 58s26 58 58 58
s58 -26 58 -58zM402 790c-33 0 -59 26 -59 58s26 58 59 58c32 0 58 -26 58 -58s-26 -58 -58 -58z" />
    <glyph glyph-name="Yacute" unicode="&#xdd;" horiz-adv-x="522" 
d="M209 42v265l-193 326c-5 8 -7 17 -7 26c0 27 22 52 51 52c18 0 36 -9 45 -25l156 -274l156 274c9 16 27 25 45 25c27 0 51 -23 51 -52c0 -9 -2 -18 -7 -26l-193 -326v-265c0 -29 -23 -52 -52 -52s-52 23 -52 52zM358 825l-104 -63c-8 -5 -18 -10 -29 -10
c-27 0 -50 20 -50 49c0 17 9 33 25 43l105 64c8 5 18 8 27 8c27 0 50 -20 50 -49c0 -17 -9 -33 -24 -42z" />
    <glyph glyph-name="Thorn" unicode="&#xde;" horiz-adv-x="557" 
d="M291 130h-117v-88c0 -29 -24 -52 -52 -52c-29 0 -54 23 -54 52v617c0 29 25 52 54 52c28 0 52 -23 52 -52v-88h117c64 0 119 -21 159 -61c41 -41 62 -97 62 -163c0 -63 -20 -118 -59 -156c-40 -40 -96 -61 -162 -61zM174 231h117c68 0 112 43 112 116
c0 69 -38 123 -112 123h-117v-239z" />
    <glyph glyph-name="germandbls" unicode="&#xdf;" horiz-adv-x="570" 
d="M401 207l-66 34c-51 26 -84 71 -84 125c0 67 40 99 68 121c22 17 32 30 32 60c0 50 -48 70 -93 70c-44 0 -96 -25 -96 -94v-480c0 -28 -23 -51 -51 -51c-29 0 -52 23 -52 51v480c0 110 84 189 199 189c114 0 196 -69 196 -165c0 -77 -40 -107 -66 -128
c-25 -20 -34 -31 -34 -54c0 -17 14 -33 27 -40l67 -34c56 -28 90 -85 90 -144c0 -85 -70 -155 -157 -155c-42 0 -80 9 -122 29c-19 9 -29 28 -29 47c0 27 22 45 51 45c8 0 16 -1 23 -5c28 -13 45 -21 71 -21c31 0 60 20 60 60c0 35 -24 55 -34 60z" />
    <glyph glyph-name="agrave" unicode="&#xe0;" horiz-adv-x="496" 
d="M437 347v-270c0 -28 -18 -52 -44 -61c-49 -17 -106 -26 -162 -26c-61 0 -109 15 -143 44s-52 70 -52 119s18 87 52 115c34 29 82 44 143 44h103v35c0 42 -31 75 -83 75c-47 0 -73 -6 -108 -27c-8 -5 -19 -9 -28 -9c-27 0 -49 20 -49 45c0 18 8 36 25 46
c54 31 101 40 173 40c112 0 173 -81 173 -170zM334 98v119h-103c-87 0 -92 -47 -92 -64c0 -18 5 -68 92 -68c34 0 71 5 103 13zM260 575l-104 63c-15 9 -24 25 -24 42c0 29 23 49 50 49c9 0 19 -3 27 -8l105 -64c16 -10 25 -26 25 -43c0 -29 -23 -49 -50 -49
c-11 0 -21 5 -29 10z" />
    <glyph glyph-name="aacute" unicode="&#xe1;" horiz-adv-x="496" 
d="M437 347v-270c0 -28 -18 -52 -44 -61c-49 -17 -106 -26 -162 -26c-61 0 -109 15 -143 44s-52 70 -52 119s18 87 52 115c34 29 82 44 143 44h103v35c0 42 -31 75 -83 75c-47 0 -73 -6 -108 -27c-8 -5 -19 -9 -28 -9c-27 0 -49 20 -49 45c0 18 8 36 25 46
c54 31 101 40 173 40c112 0 173 -81 173 -170zM334 98v119h-103c-87 0 -92 -47 -92 -64c0 -18 5 -68 92 -68c34 0 71 5 103 13zM338 638l-104 -63c-8 -5 -18 -10 -29 -10c-27 0 -50 20 -50 49c0 17 9 33 25 43l105 64c8 5 18 8 27 8c27 0 50 -20 50 -49
c0 -17 -9 -33 -24 -42z" />
    <glyph glyph-name="acircumflex" unicode="&#xe2;" horiz-adv-x="496" 
d="M437 347v-270c0 -28 -18 -52 -44 -61c-49 -17 -106 -26 -162 -26c-61 0 -109 15 -143 44s-52 70 -52 119s18 87 52 115c34 29 82 44 143 44h103v35c0 42 -31 75 -83 75c-47 0 -73 -6 -108 -27c-8 -5 -19 -9 -28 -9c-27 0 -49 20 -49 45c0 18 8 36 25 46
c54 31 101 40 173 40c112 0 173 -81 173 -170zM334 98v119h-103c-87 0 -92 -47 -92 -64c0 -18 5 -68 92 -68c34 0 71 5 103 13zM317 575l-69 49l-70 -49c-9 -6 -17 -10 -30 -10c-27 0 -49 21 -49 49c0 16 7 31 22 41l90 62c10 7 23 12 37 12c13 0 26 -5 37 -12l89 -62
c15 -10 22 -25 22 -41c0 -28 -22 -49 -49 -49c-13 0 -21 4 -30 10z" />
    <glyph glyph-name="atilde" unicode="&#xe3;" horiz-adv-x="496" 
d="M437 347v-270c0 -28 -18 -52 -44 -61c-49 -17 -106 -26 -162 -26c-61 0 -109 15 -143 44s-52 70 -52 119s18 87 52 115c34 29 82 44 143 44h103v35c0 42 -31 75 -83 75c-47 0 -73 -6 -108 -27c-8 -5 -19 -9 -28 -9c-27 0 -49 20 -49 45c0 18 8 36 25 46
c54 31 101 40 173 40c112 0 173 -81 173 -170zM334 98v119h-103c-87 0 -92 -47 -92 -64c0 -18 5 -68 92 -68c34 0 71 5 103 13zM395 653c-13 -16 -28 -29 -45 -37c-18 -8 -37 -13 -56 -13c-26 0 -53 9 -75 26c-5 4 -11 6 -17 6c-11 0 -19 -5 -24 -12
c-10 -12 -24 -20 -39 -20c-26 0 -47 24 -47 48c0 10 3 20 9 28c13 17 28 30 45 38c18 9 37 12 56 12c28 0 54 -12 75 -28c5 -4 11 -6 17 -6c10 0 19 6 25 12c10 12 23 22 38 22c27 0 47 -23 47 -48c0 -10 -3 -20 -9 -28z" />
    <glyph glyph-name="adieresis" unicode="&#xe4;" horiz-adv-x="496" 
d="M437 347v-270c0 -28 -18 -52 -44 -61c-49 -17 -106 -26 -162 -26c-61 0 -109 15 -143 44s-52 70 -52 119s18 87 52 115c34 29 82 44 143 44h103v35c0 42 -31 75 -83 75c-47 0 -73 -6 -108 -27c-8 -5 -19 -9 -28 -9c-27 0 -49 20 -49 45c0 18 8 36 25 46
c54 31 101 40 173 40c112 0 173 -81 173 -170zM334 98v119h-103c-87 0 -92 -47 -92 -64c0 -18 5 -68 92 -68c34 0 71 5 103 13zM212 661c0 -32 -26 -58 -58 -58s-58 26 -58 58s26 58 58 58s58 -26 58 -58zM342 603c-33 0 -59 26 -59 58s26 58 59 58c32 0 58 -26 58 -58
s-26 -58 -58 -58z" />
    <glyph glyph-name="aring" unicode="&#xe5;" horiz-adv-x="496" 
d="M437 347v-270c0 -28 -18 -52 -44 -61c-49 -17 -106 -26 -162 -26c-61 0 -109 15 -143 44s-52 70 -52 119s18 87 52 115c34 29 82 44 143 44h103v35c0 42 -31 75 -83 75c-47 0 -73 -6 -108 -27c-8 -5 -19 -9 -28 -9c-27 0 -49 20 -49 45c0 18 8 36 25 46
c54 31 101 40 173 40c112 0 173 -81 173 -170zM334 98v119h-103c-87 0 -92 -47 -92 -64c0 -18 5 -68 92 -68c34 0 71 5 103 13zM364 677c0 -64 -52 -116 -117 -116c-64 0 -116 52 -116 116s52 116 116 116c65 0 117 -52 117 -116zM247 636c23 0 40 17 40 41s-17 41 -40 41
c-22 0 -39 -18 -39 -41s17 -41 39 -41z" />
    <glyph glyph-name="ae" unicode="&#xe6;" horiz-adv-x="777" 
d="M667 211h-232c0 -64 18 -126 96 -126c38 0 74 11 108 26c7 3 14 5 21 5c25 0 49 -21 49 -47c0 -19 -8 -36 -26 -45c-48 -23 -99 -34 -152 -34c-52 0 -114 16 -149 65c-36 -44 -87 -65 -153 -65c-61 0 -107 15 -141 44s-52 70 -52 119c0 108 84 156 193 156h103v38
c0 39 -39 74 -83 74c-47 0 -72 -8 -107 -26c-8 -4 -20 -8 -29 -8c-27 0 -49 22 -49 48c0 18 10 37 27 45c56 26 103 36 171 36c50 0 94 -24 125 -59c37 42 87 60 144 60c59 0 109 -19 145 -56c36 -36 56 -86 56 -144v-41c0 -36 -29 -65 -65 -65zM331 211h-102
c-75 0 -90 -41 -90 -58c0 -18 4 -68 90 -68c82 0 102 54 102 126zM435 309h194c0 83 -34 113 -98 113c-57 0 -96 -26 -96 -113z" />
    <glyph glyph-name="ccedilla" unicode="&#xe7;" horiz-adv-x="440" 
d="M45 191v126c0 58 19 108 55 144c37 37 87 56 145 56c49 0 96 -11 139 -32c19 -9 29 -27 29 -46c0 -25 -21 -47 -49 -47c-9 0 -17 3 -24 6c-29 13 -62 24 -95 24c-61 0 -97 -36 -97 -97v-142c0 -62 36 -97 97 -97c33 0 69 11 98 25c7 4 14 5 22 5c25 0 48 -20 48 -48
c0 -19 -11 -37 -30 -46c-33 -16 -68 -26 -104 -30l-4 -14c27 -16 50 -37 50 -74c0 -53 -38 -88 -97 -113c-15 -7 -39 -14 -52 -14c-22 0 -43 16 -43 42c0 24 15 36 33 41c16 4 69 12 69 34c0 13 -9 17 -32 25c-17 6 -23 21 -23 36c0 7 1 15 3 23l5 19c-34 8 -64 25 -88 49
c-36 36 -55 86 -55 145z" />
    <glyph glyph-name="egrave" unicode="&#xe8;" horiz-adv-x="491" 
d="M381 205h-233c0 -41 7 -68 20 -86c17 -22 43 -34 77 -34c38 0 74 11 108 26c7 3 14 5 21 5c25 0 49 -21 49 -47c0 -19 -8 -36 -26 -45c-48 -23 -99 -34 -152 -34c-58 0 -108 19 -145 56c-36 36 -55 86 -55 145v126c0 58 19 108 55 144c37 37 87 56 145 56
c59 0 109 -19 145 -56c36 -36 56 -86 56 -144v-47c0 -36 -29 -65 -65 -65zM148 300h195c0 83 -34 122 -98 122c-63 0 -97 -38 -97 -122zM257 575l-104 63c-15 9 -24 25 -24 42c0 29 23 49 50 49c9 0 19 -3 27 -8l105 -64c16 -10 25 -26 25 -43c0 -29 -23 -49 -50 -49
c-11 0 -21 5 -29 10z" />
    <glyph glyph-name="eacute" unicode="&#xe9;" horiz-adv-x="491" 
d="M381 205h-233c0 -41 7 -68 20 -86c17 -22 43 -34 77 -34c38 0 74 11 108 26c7 3 14 5 21 5c25 0 49 -21 49 -47c0 -19 -8 -36 -26 -45c-48 -23 -99 -34 -152 -34c-58 0 -108 19 -145 56c-36 36 -55 86 -55 145v126c0 58 19 108 55 144c37 37 87 56 145 56
c59 0 109 -19 145 -56c36 -36 56 -86 56 -144v-47c0 -36 -29 -65 -65 -65zM148 300h195c0 83 -34 122 -98 122c-63 0 -97 -38 -97 -122zM335 638l-104 -63c-8 -5 -18 -10 -29 -10c-27 0 -50 20 -50 49c0 17 9 33 25 43l105 64c8 5 18 8 27 8c27 0 50 -20 50 -49
c0 -17 -9 -33 -24 -42z" />
    <glyph glyph-name="ecircumflex" unicode="&#xea;" horiz-adv-x="491" 
d="M381 205h-233c0 -41 7 -68 20 -86c17 -22 43 -34 77 -34c38 0 74 11 108 26c7 3 14 5 21 5c25 0 49 -21 49 -47c0 -19 -8 -36 -26 -45c-48 -23 -99 -34 -152 -34c-58 0 -108 19 -145 56c-36 36 -55 86 -55 145v126c0 58 19 108 55 144c37 37 87 56 145 56
c59 0 109 -19 145 -56c36 -36 56 -86 56 -144v-47c0 -36 -29 -65 -65 -65zM148 300h195c0 83 -34 122 -98 122c-63 0 -97 -38 -97 -122zM314 575l-69 49l-70 -49c-9 -6 -17 -10 -30 -10c-27 0 -49 21 -49 49c0 16 7 31 22 41l90 62c10 7 23 12 37 12c13 0 26 -5 37 -12
l89 -62c15 -10 22 -25 22 -41c0 -28 -22 -49 -49 -49c-13 0 -21 4 -30 10z" />
    <glyph glyph-name="edieresis" unicode="&#xeb;" horiz-adv-x="491" 
d="M381 205h-233c0 -41 7 -68 20 -86c17 -22 43 -34 77 -34c38 0 74 11 108 26c7 3 14 5 21 5c25 0 49 -21 49 -47c0 -19 -8 -36 -26 -45c-48 -23 -99 -34 -152 -34c-58 0 -108 19 -145 56c-36 36 -55 86 -55 145v126c0 58 19 108 55 144c37 37 87 56 145 56
c59 0 109 -19 145 -56c36 -36 56 -86 56 -144v-47c0 -36 -29 -65 -65 -65zM148 300h195c0 83 -34 122 -98 122c-63 0 -97 -38 -97 -122zM209 661c0 -32 -26 -58 -58 -58s-58 26 -58 58s26 58 58 58s58 -26 58 -58zM339 603c-33 0 -59 26 -59 58s26 58 59 58
c32 0 58 -26 58 -58s-26 -58 -58 -58z" />
    <glyph glyph-name="igrave" unicode="&#xec;" horiz-adv-x="242" 
d="M70 42v423c0 29 23 52 52 52c28 0 51 -23 51 -52v-423c0 -29 -23 -52 -51 -52c-29 0 -52 23 -52 52zM133 575l-104 63c-15 9 -24 25 -24 42c0 29 23 49 50 49c9 0 19 -3 27 -8l105 -64c16 -10 25 -26 25 -43c0 -29 -23 -49 -50 -49c-11 0 -21 5 -29 10z" />
    <glyph glyph-name="iacute" unicode="&#xed;" horiz-adv-x="242" 
d="M70 42v423c0 29 23 52 52 52c28 0 51 -23 51 -52v-423c0 -29 -23 -52 -51 -52c-29 0 -52 23 -52 52zM211 638l-104 -63c-8 -5 -18 -10 -29 -10c-27 0 -50 20 -50 49c0 17 9 33 25 43l105 64c8 5 18 8 27 8c27 0 50 -20 50 -49c0 -17 -9 -33 -24 -42z" />
    <glyph glyph-name="icircumflex" unicode="&#xee;" horiz-adv-x="242" 
d="M70 42v423c0 29 23 52 52 52c28 0 51 -23 51 -52v-423c0 -29 -23 -52 -51 -52c-29 0 -52 23 -52 52zM190 575l-69 49l-70 -49c-9 -6 -17 -10 -30 -10c-27 0 -49 21 -49 49c0 16 7 31 22 41l90 62c10 7 23 12 37 12c13 0 26 -5 37 -12l89 -62c15 -10 22 -25 22 -41
c0 -28 -22 -49 -49 -49c-13 0 -21 4 -30 10z" />
    <glyph glyph-name="idieresis" unicode="&#xef;" horiz-adv-x="242" 
d="M70 42v423c0 29 23 52 52 52c28 0 51 -23 51 -52v-423c0 -29 -23 -52 -51 -52c-29 0 -52 23 -52 52zM85 661c0 -32 -26 -58 -58 -58s-58 26 -58 58s26 58 58 58s58 -26 58 -58zM215 603c-33 0 -59 26 -59 58s26 58 59 58c32 0 58 -26 58 -58s-26 -58 -58 -58z" />
    <glyph glyph-name="eth" unicode="&#xf0;" horiz-adv-x="528" 
d="M465 299v-99c0 -61 -20 -114 -58 -152s-91 -58 -152 -58s-114 20 -152 58s-58 91 -58 152v76c0 61 20 114 58 152s91 58 152 58c33 0 67 -11 89 -23c-13 42 -37 75 -60 97l-93 -46c2 0 -10 -4 -16 -4c-19 0 -40 16 -40 39c0 15 8 28 22 35l51 25c-13 5 -24 8 -35 10
c-24 5 -38 24 -38 46c0 26 20 46 48 46c4 0 12 -1 16 -2c42 -10 80 -27 113 -49l97 47c6 3 11 4 17 4c20 0 39 -16 39 -39c0 -14 -8 -28 -22 -35l-69 -34c22 -26 40 -56 54 -89c33 -80 37 -159 37 -215zM362 191v93c0 63 -41 107 -107 107c-68 0 -107 -39 -107 -107v-93
c0 -67 39 -106 107 -106s107 39 107 106z" />
    <glyph glyph-name="ntilde" unicode="&#xf1;" horiz-adv-x="523" 
d="M361 42v283c0 61 -36 97 -98 97c-33 0 -66 -5 -97 -13v-367c0 -29 -23 -52 -51 -52c-29 0 -52 23 -52 52v388c0 28 17 52 44 61c49 17 102 26 156 26c59 0 109 -19 145 -56c36 -36 56 -86 56 -144v-275c0 -29 -23 -52 -52 -52s-51 23 -51 52zM408 653
c-13 -16 -28 -29 -45 -37c-18 -8 -37 -13 -56 -13c-26 0 -53 9 -75 26c-5 4 -11 6 -17 6c-11 0 -19 -5 -24 -12c-10 -12 -24 -20 -39 -20c-26 0 -47 24 -47 48c0 10 3 20 9 28c13 17 28 30 45 38c18 9 37 12 56 12c28 0 54 -12 75 -28c5 -4 11 -6 17 -6c10 0 19 6 25 12
c10 12 23 22 38 22c27 0 47 -23 47 -48c0 -10 -3 -20 -9 -28z" />
    <glyph glyph-name="ograve" unicode="&#xf2;" horiz-adv-x="510" 
d="M465 307v-107c0 -61 -20 -114 -58 -152s-91 -58 -152 -58s-114 20 -152 58s-58 91 -58 152v107c0 61 20 114 58 152s91 58 152 58s114 -20 152 -58s58 -91 58 -152zM362 191v124c0 63 -41 107 -107 107c-68 0 -107 -39 -107 -107v-124c0 -67 39 -106 107 -106
s107 39 107 106zM267 575l-104 63c-15 9 -24 25 -24 42c0 29 23 49 50 49c9 0 19 -3 27 -8l105 -64c16 -10 25 -26 25 -43c0 -29 -23 -49 -50 -49c-11 0 -21 5 -29 10z" />
    <glyph glyph-name="oacute" unicode="&#xf3;" horiz-adv-x="510" 
d="M465 307v-107c0 -61 -20 -114 -58 -152s-91 -58 -152 -58s-114 20 -152 58s-58 91 -58 152v107c0 61 20 114 58 152s91 58 152 58s114 -20 152 -58s58 -91 58 -152zM362 191v124c0 63 -41 107 -107 107c-68 0 -107 -39 -107 -107v-124c0 -67 39 -106 107 -106
s107 39 107 106zM345 638l-104 -63c-8 -5 -18 -10 -29 -10c-27 0 -50 20 -50 49c0 17 9 33 25 43l105 64c8 5 18 8 27 8c27 0 50 -20 50 -49c0 -17 -9 -33 -24 -42z" />
    <glyph glyph-name="ocircumflex" unicode="&#xf4;" horiz-adv-x="510" 
d="M465 307v-107c0 -61 -20 -114 -58 -152s-91 -58 -152 -58s-114 20 -152 58s-58 91 -58 152v107c0 61 20 114 58 152s91 58 152 58s114 -20 152 -58s58 -91 58 -152zM362 191v124c0 63 -41 107 -107 107c-68 0 -107 -39 -107 -107v-124c0 -67 39 -106 107 -106
s107 39 107 106zM324 575l-69 49l-70 -49c-9 -6 -17 -10 -30 -10c-27 0 -49 21 -49 49c0 16 7 31 22 41l90 62c10 7 23 12 37 12c13 0 26 -5 37 -12l89 -62c15 -10 22 -25 22 -41c0 -28 -22 -49 -49 -49c-13 0 -21 4 -30 10z" />
    <glyph glyph-name="otilde" unicode="&#xf5;" horiz-adv-x="510" 
d="M465 307v-107c0 -61 -20 -114 -58 -152s-91 -58 -152 -58s-114 20 -152 58s-58 91 -58 152v107c0 61 20 114 58 152s91 58 152 58s114 -20 152 -58s58 -91 58 -152zM362 191v124c0 63 -41 107 -107 107c-68 0 -107 -39 -107 -107v-124c0 -67 39 -106 107 -106
s107 39 107 106zM402 653c-13 -16 -28 -29 -45 -37c-18 -8 -37 -13 -56 -13c-26 0 -53 9 -75 26c-5 4 -11 6 -17 6c-11 0 -19 -5 -24 -12c-10 -12 -24 -20 -39 -20c-26 0 -47 24 -47 48c0 10 3 20 9 28c13 17 28 30 45 38c18 9 37 12 56 12c28 0 54 -12 75 -28
c5 -4 11 -6 17 -6c10 0 19 6 25 12c10 12 23 22 38 22c27 0 47 -23 47 -48c0 -10 -3 -20 -9 -28z" />
    <glyph glyph-name="odieresis" unicode="&#xf6;" horiz-adv-x="510" 
d="M465 307v-107c0 -61 -20 -114 -58 -152s-91 -58 -152 -58s-114 20 -152 58s-58 91 -58 152v107c0 61 20 114 58 152s91 58 152 58s114 -20 152 -58s58 -91 58 -152zM362 191v124c0 63 -41 107 -107 107c-68 0 -107 -39 -107 -107v-124c0 -67 39 -106 107 -106
s107 39 107 106zM219 661c0 -32 -26 -58 -58 -58s-58 26 -58 58s26 58 58 58s58 -26 58 -58zM349 603c-33 0 -59 26 -59 58s26 58 59 58c32 0 58 -26 58 -58s-26 -58 -58 -58z" />
    <glyph glyph-name="divide" unicode="&#xf7;" 
d="M325 55c0 -36 -29 -65 -65 -65s-64 29 -64 65s28 65 64 65s65 -29 65 -65zM325 452c0 -35 -29 -64 -65 -64s-64 29 -64 64c0 36 28 65 64 65s65 -29 65 -65zM458 206h-397c-27 0 -48 22 -48 49c0 26 20 49 48 49h397c27 0 49 -22 49 -49s-22 -49 -49 -49z" />
    <glyph glyph-name="oslash" unicode="&#xf8;" horiz-adv-x="510" 
d="M173 4l-18 -34c-8 -15 -23 -24 -39 -24c-23 0 -44 20 -44 45c0 7 2 13 5 20l22 42c-35 37 -54 88 -54 147v107c0 61 20 114 58 152s91 58 152 58c30 0 57 -5 82 -14l18 34c8 15 23 24 39 24c23 0 44 -20 44 -44c0 -7 -2 -14 -5 -21l-22 -41c35 -38 54 -89 54 -148v-107
c0 -61 -20 -114 -58 -152s-91 -58 -152 -58c-30 0 -57 5 -82 14zM153 154l139 263c-10 3 -25 5 -37 5c-68 0 -107 -39 -107 -107v-124c0 -16 2 -25 5 -37zM362 191v124c0 16 -1 25 -6 38l-138 -264c13 -3 25 -4 37 -4c68 0 107 39 107 106z" />
    <glyph glyph-name="ugrave" unicode="&#xf9;" horiz-adv-x="523" 
d="M357 98v367c0 29 22 52 51 52s52 -23 52 -52v-388c0 -28 -18 -52 -44 -61c-49 -17 -102 -26 -157 -26c-58 0 -110 17 -147 54c-36 36 -53 88 -53 147v274c0 29 23 52 52 52c28 0 51 -23 51 -52v-282c0 -62 36 -97 97 -97c34 0 67 4 98 12zM273 575l-104 63
c-15 9 -24 25 -24 42c0 29 23 49 50 49c9 0 19 -3 27 -8l105 -64c16 -10 25 -26 25 -43c0 -29 -23 -49 -50 -49c-11 0 -21 5 -29 10z" />
    <glyph glyph-name="uacute" unicode="&#xfa;" horiz-adv-x="523" 
d="M357 98v367c0 29 22 52 51 52s52 -23 52 -52v-388c0 -28 -18 -52 -44 -61c-49 -17 -102 -26 -157 -26c-58 0 -110 17 -147 54c-36 36 -53 88 -53 147v274c0 29 23 52 52 52c28 0 51 -23 51 -52v-282c0 -62 36 -97 97 -97c34 0 67 4 98 12zM356 638l-104 -63
c-8 -5 -18 -10 -29 -10c-27 0 -50 20 -50 49c0 17 9 33 25 43l105 64c8 5 18 8 27 8c27 0 50 -20 50 -49c0 -17 -9 -33 -24 -42z" />
    <glyph glyph-name="ucircumflex" unicode="&#xfb;" horiz-adv-x="523" 
d="M357 98v367c0 29 22 52 51 52s52 -23 52 -52v-388c0 -28 -18 -52 -44 -61c-49 -17 -102 -26 -157 -26c-58 0 -110 17 -147 54c-36 36 -53 88 -53 147v274c0 29 23 52 52 52c28 0 51 -23 51 -52v-282c0 -62 36 -97 97 -97c34 0 67 4 98 12zM330 575l-69 49l-70 -49
c-9 -6 -17 -10 -30 -10c-27 0 -49 21 -49 49c0 16 7 31 22 41l90 62c10 7 23 12 37 12c13 0 26 -5 37 -12l89 -62c15 -10 22 -25 22 -41c0 -28 -22 -49 -49 -49c-13 0 -21 4 -30 10z" />
    <glyph glyph-name="udieresis" unicode="&#xfc;" horiz-adv-x="523" 
d="M357 98v367c0 29 22 52 51 52s52 -23 52 -52v-388c0 -28 -18 -52 -44 -61c-49 -17 -102 -26 -157 -26c-58 0 -110 17 -147 54c-36 36 -53 88 -53 147v274c0 29 23 52 52 52c28 0 51 -23 51 -52v-282c0 -62 36 -97 97 -97c34 0 67 4 98 12zM225 661c0 -32 -26 -58 -58 -58
s-58 26 -58 58s26 58 58 58s58 -26 58 -58zM355 603c-33 0 -59 26 -59 58s26 58 59 58c32 0 58 -26 58 -58s-26 -58 -58 -58z" />
    <glyph glyph-name="yacute" unicode="&#xfd;" horiz-adv-x="457" 
d="M163 -62l25 82l-165 427c-2 6 -4 13 -4 19c0 26 24 51 53 51c21 0 40 -13 47 -33l120 -329l103 327c7 21 27 35 48 35c27 0 53 -22 53 -52c0 -5 -1 -11 -3 -16l-179 -535c-27 -82 -97 -137 -192 -137c-27 0 -51 19 -51 49c0 26 22 47 49 48c44 2 82 20 96 64zM318 638
l-104 -63c-8 -5 -18 -10 -29 -10c-27 0 -50 20 -50 49c0 17 9 33 25 43l105 64c8 5 18 8 27 8c27 0 50 -20 50 -49c0 -17 -9 -33 -24 -42z" />
    <glyph glyph-name="thorn" unicode="&#xfe;" horiz-adv-x="514" 
d="M63 -171v830c0 29 23 52 52 52c28 0 51 -23 51 -52v-161c31 12 64 19 97 19c59 0 108 -19 145 -56c36 -36 56 -86 56 -144v-126c0 -59 -20 -109 -56 -145c-36 -37 -86 -56 -145 -56c-33 0 -66 7 -97 19v-180c0 -29 -23 -52 -51 -52c-29 0 -52 23 -52 52zM361 182v143
c0 61 -36 97 -98 97c-35 0 -69 -13 -97 -36v-266c28 -23 62 -35 97 -35c62 0 98 35 98 97z" />
    <glyph glyph-name="ydieresis" unicode="&#xff;" horiz-adv-x="457" 
d="M163 -62l25 82l-165 427c-2 6 -4 13 -4 19c0 26 24 51 53 51c21 0 40 -13 47 -33l120 -329l103 327c7 21 27 35 48 35c27 0 53 -22 53 -52c0 -5 -1 -11 -3 -16l-179 -535c-27 -82 -97 -137 -192 -137c-27 0 -51 19 -51 49c0 26 22 47 49 48c44 2 82 20 96 64zM192 661
c0 -32 -26 -58 -58 -58s-58 26 -58 58s26 58 58 58s58 -26 58 -58zM322 603c-33 0 -59 26 -59 58s26 58 59 58c32 0 58 -26 58 -58s-26 -58 -58 -58z" />
    <glyph glyph-name="dotlessi" unicode="&#x131;" horiz-adv-x="242" 
d="M69 42v423c0 29 23 52 52 52c28 0 51 -23 51 -52v-423c0 -29 -23 -52 -51 -52c-29 0 -52 23 -52 52z" />
    <glyph glyph-name="Lslash" unicode="&#x141;" horiz-adv-x="539" 
d="M474 0h-299c-34 0 -64 29 -64 65v188l-19 -12c-8 -5 -16 -9 -28 -9c-27 0 -50 20 -50 49c0 17 8 32 23 42l74 49v286c0 29 25 53 53 53s53 -24 53 -54v-214l111 74c9 6 20 10 30 10c27 0 50 -20 50 -49c0 -17 -9 -32 -24 -42l-167 -111v-224h256c29 0 52 -22 52 -50
c0 -29 -23 -51 -51 -51z" />
    <glyph glyph-name="lslash" unicode="&#x142;" horiz-adv-x="337" 
d="M116 42v230l-19 -13c-8 -5 -19 -10 -29 -10c-27 0 -50 20 -50 49c0 17 8 32 23 42l75 49v270c0 29 22 52 51 52c28 0 52 -24 52 -53v-201l20 14c9 6 18 11 30 11c27 0 50 -20 50 -49c0 -17 -8 -32 -23 -42l-77 -51v-297c0 -29 -24 -53 -52 -53c-29 0 -51 23 -51 52z" />
    <glyph glyph-name="OE" unicode="&#x152;" horiz-adv-x="883" 
d="M799 0h-297c-24 0 -46 13 -57 34c-40 -29 -91 -44 -149 -44c-147 0 -246 99 -246 246v229c0 147 99 246 246 246c58 0 108 -16 148 -44c11 20 33 34 58 34h290c29 0 52 -23 52 -52c0 -28 -23 -49 -52 -49h-250v-186h237c29 0 52 -22 52 -51c0 -28 -23 -50 -52 -50h-237
v-212h257c28 0 52 -22 52 -50c0 -29 -24 -51 -52 -51zM436 230v241c0 89 -51 142 -140 142s-140 -53 -140 -142v-241c0 -89 51 -142 140 -142s140 53 140 142z" />
    <glyph glyph-name="oe" unicode="&#x153;" horiz-adv-x="807" 
d="M697 205h-233c0 -41 7 -68 20 -86c17 -22 43 -34 77 -34c38 0 74 11 108 26c7 3 14 5 21 5c25 0 49 -21 49 -47c0 -19 -8 -36 -26 -45c-48 -23 -99 -34 -152 -34c-58 0 -108 18 -151 63c-41 -44 -94 -63 -155 -63s-114 20 -152 58s-58 91 -58 152v107c0 61 20 114 58 152
s91 58 152 58s114 -19 155 -64c43 46 93 64 151 64c59 0 109 -19 145 -56c36 -36 56 -86 56 -144v-47c0 -36 -29 -65 -65 -65zM362 191v124c0 63 -41 107 -107 107c-68 0 -107 -39 -107 -107v-124c0 -67 39 -106 107 -106s107 39 107 106zM464 303h195c0 83 -34 119 -98 119
c-63 0 -97 -35 -97 -119z" />
    <glyph glyph-name="Scaron" unicode="&#x160;" horiz-adv-x="503" 
d="M277 294l-120 53c-78 34 -118 95 -118 173c0 119 112 191 226 191c55 0 113 -10 165 -33c21 -9 39 -23 39 -51c0 -26 -22 -48 -50 -48c-6 0 -12 1 -19 4c-24 9 -59 30 -140 30c-49 0 -114 -20 -114 -88c0 -47 23 -68 63 -86l114 -50c76 -33 148 -80 148 -187
c0 -121 -87 -212 -222 -212c-59 0 -127 16 -179 38c-19 8 -31 25 -31 47c0 28 18 51 48 51c13 0 23 -3 32 -7c41 -18 83 -31 130 -31c72 0 115 35 115 101c0 50 -42 85 -87 105zM394 826l-89 -62c-11 -7 -24 -12 -37 -12c-14 0 -27 5 -37 12l-90 62c-15 10 -22 25 -22 41
c0 28 22 49 49 49c13 0 21 -4 30 -10l70 -49l69 49c9 6 17 10 30 10c27 0 49 -21 49 -49c0 -16 -7 -31 -22 -41z" />
    <glyph glyph-name="scaron" unicode="&#x161;" horiz-adv-x="431" 
d="M220 199l-82 30c-54 20 -96 62 -96 137c0 88 73 151 173 151c68 0 103 -10 136 -25c20 -8 33 -26 33 -47c0 -26 -21 -48 -48 -48c-7 0 -17 2 -24 5c-25 12 -66 20 -99 20c-41 0 -68 -20 -68 -54c0 -26 20 -42 41 -49l98 -32c66 -22 106 -67 106 -140
c0 -88 -71 -157 -178 -157c-59 0 -107 11 -144 28c-19 9 -31 26 -31 46c0 26 22 50 50 50c7 0 16 -3 23 -6c27 -14 60 -23 104 -23c48 0 73 18 73 52c0 37 -30 49 -67 62zM341 639l-89 -62c-11 -7 -24 -12 -37 -12c-14 0 -27 5 -37 12l-90 62c-15 10 -22 25 -22 41
c0 28 22 49 49 49c13 0 21 -4 30 -10l70 -49l69 49c9 6 17 10 30 10c27 0 49 -21 49 -49c0 -16 -7 -31 -22 -41z" />
    <glyph glyph-name="Ydieresis" unicode="&#x178;" horiz-adv-x="522" 
d="M209 42v265l-193 326c-5 8 -7 17 -7 26c0 27 22 52 51 52c18 0 36 -9 45 -25l156 -274l156 274c9 16 27 25 45 25c27 0 51 -23 51 -52c0 -9 -2 -18 -7 -26l-193 -326v-265c0 -29 -23 -52 -52 -52s-52 23 -52 52zM225 848c0 -32 -26 -58 -58 -58s-58 26 -58 58
s26 58 58 58s58 -26 58 -58zM355 790c-33 0 -59 26 -59 58s26 58 59 58c32 0 58 -26 58 -58s-26 -58 -58 -58z" />
    <glyph glyph-name="Zcaron" unicode="&#x17d;" horiz-adv-x="521" 
d="M451 0h-375c-33 0 -58 28 -58 58c0 11 3 22 9 31l336 511h-290c-29 0 -52 22 -52 50c0 29 23 51 52 51h368c33 0 58 -28 58 -58c0 -11 -3 -22 -8 -30l-336 -512h296c29 0 52 -22 52 -50c0 -29 -23 -51 -52 -51zM389 826l-89 -62c-11 -7 -24 -12 -37 -12
c-14 0 -27 5 -37 12l-90 62c-15 10 -22 25 -22 41c0 28 22 49 49 49c13 0 21 -4 30 -10l70 -49l69 49c9 6 17 10 30 10c27 0 49 -21 49 -49c0 -16 -7 -31 -22 -41z" />
    <glyph glyph-name="zcaron" unicode="&#x17e;" horiz-adv-x="455" 
d="M377 0h-292c-32 0 -58 26 -58 58c0 12 3 23 12 35l246 316h-204c-29 0 -51 21 -51 49s22 49 51 49h285c32 0 58 -26 58 -58c0 -12 -3 -24 -10 -33l-248 -318h210c29 0 52 -20 52 -48c0 -29 -22 -50 -51 -50zM353 639l-89 -62c-11 -7 -24 -12 -37 -12c-14 0 -27 5 -37 12
l-90 62c-15 10 -22 25 -22 41c0 28 22 49 49 49c13 0 21 -4 30 -10l70 -49l69 49c9 6 17 10 30 10c27 0 49 -21 49 -49c0 -16 -7 -31 -22 -41z" />
    <glyph glyph-name="florin" unicode="&#x192;" horiz-adv-x="545" 
d="M163 -89l120 681c12 69 72 119 145 119c20 0 38 -2 58 -5c25 -4 45 -25 45 -50c0 -26 -22 -47 -51 -47c-14 0 -31 7 -55 7c-22 0 -41 -14 -45 -38l-29 -166h92c28 0 51 -20 51 -49c0 -28 -23 -49 -51 -49h-108l-73 -414c-12 -69 -72 -123 -145 -123c-20 0 -39 2 -59 5
c-25 4 -43 24 -43 49c0 26 22 47 50 47c16 0 32 -6 53 -6s41 16 45 39z" />
    <glyph glyph-name="circumflex" unicode="&#x2c6;" horiz-adv-x="435" 
d="M287 575l-69 49l-70 -49c-9 -6 -17 -10 -30 -10c-27 0 -49 21 -49 49c0 16 7 31 22 41l90 62c10 7 23 12 37 12c13 0 26 -5 37 -12l89 -62c15 -10 22 -25 22 -41c0 -28 -22 -49 -49 -49c-13 0 -21 4 -30 10z" />
    <glyph glyph-name="caron" unicode="&#x2c7;" horiz-adv-x="435" 
d="M344 639l-89 -62c-11 -7 -24 -12 -37 -12c-14 0 -27 5 -37 12l-90 62c-15 10 -22 25 -22 41c0 28 22 49 49 49c13 0 21 -4 30 -10l70 -49l69 49c9 6 17 10 30 10c27 0 49 -21 49 -49c0 -16 -7 -31 -22 -41z" />
    <glyph glyph-name="breve" unicode="&#x2d8;" horiz-adv-x="435" 
d="M343 649c-31 -40 -78 -60 -126 -60s-95 20 -126 60c-7 9 -10 19 -10 30c0 28 23 49 49 49c15 0 28 -6 39 -20s31 -23 48 -23s37 9 48 23s24 20 39 20c26 0 49 -21 49 -49c0 -11 -3 -21 -10 -30z" />
    <glyph glyph-name="dotaccent" unicode="&#x2d9;" horiz-adv-x="435" 
d="M275 653c0 -32 -26 -58 -58 -58s-58 26 -58 58s26 58 58 58s58 -26 58 -58z" />
    <glyph glyph-name="ring" unicode="&#x2da;" horiz-adv-x="435" 
d="M334 677c0 -64 -52 -116 -117 -116c-64 0 -116 52 -116 116s52 116 116 116c65 0 117 -52 117 -116zM217 636c23 0 40 17 40 41s-17 41 -40 41c-22 0 -39 -18 -39 -41s17 -41 39 -41z" />
    <glyph glyph-name="ogonek" unicode="&#x2db;" horiz-adv-x="330" 
d="M128 0h85c-23 -25 -60 -75 -60 -111c0 -15 7 -23 20 -23c22 0 29 11 48 11c27 0 41 -22 41 -43c0 -29 -21 -45 -46 -51c-12 -3 -27 -6 -49 -6c-49 0 -100 25 -100 93c0 60 35 102 61 130z" />
    <glyph glyph-name="tilde" unicode="&#x2dc;" horiz-adv-x="435" 
d="M364 652c-13 -16 -28 -29 -45 -37c-18 -8 -37 -13 -56 -13c-26 0 -53 9 -75 26c-5 4 -11 6 -17 6c-11 0 -19 -5 -24 -12c-10 -12 -24 -20 -39 -20c-26 0 -47 24 -47 48c0 10 3 20 9 28c13 17 28 30 45 38c18 9 37 12 56 12c28 0 54 -12 75 -28c5 -4 11 -6 17 -6
c10 0 19 6 25 12c10 12 23 22 38 22c27 0 47 -23 47 -48c0 -10 -3 -20 -9 -28z" />
    <glyph glyph-name="hungarumlaut" unicode="&#x2dd;" horiz-adv-x="435" 
d="M189 645l-63 -62c-10 -10 -24 -18 -39 -18c-26 0 -49 21 -49 48c0 13 5 26 15 36l67 65c10 10 22 15 35 15c29 0 49 -24 49 -49c0 -13 -5 -25 -15 -35zM382 645l-63 -62c-10 -10 -24 -18 -39 -18c-26 0 -49 21 -49 48c0 13 5 26 15 36l67 65c10 10 22 15 35 15
c29 0 49 -24 49 -49c0 -13 -5 -25 -15 -35z" />
    <glyph glyph-name="gravecomb" unicode="&#x300;" horiz-adv-x="1" 
d="M-243 575l-104 63c-15 9 -24 25 -24 42c0 29 23 49 50 49c9 0 19 -3 27 -8l105 -64c16 -10 25 -26 25 -43c0 -29 -23 -49 -50 -49c-11 0 -21 5 -29 10z" />
    <glyph glyph-name="acutecomb" unicode="&#x301;" horiz-adv-x="1" 
d="M-165 638l-104 -63c-8 -5 -18 -10 -29 -10c-27 0 -50 20 -50 49c0 17 9 33 25 43l105 64c8 5 18 8 27 8c27 0 50 -20 50 -49c0 -17 -9 -33 -24 -42z" />
    <glyph glyph-name="uni0302" unicode="&#x302;" horiz-adv-x="1" 
d="M-186 575l-69 49l-70 -49c-9 -6 -17 -10 -30 -10c-27 0 -49 21 -49 49c0 16 7 31 22 41l90 62c10 7 23 12 37 12c13 0 26 -5 37 -12l89 -62c15 -10 22 -25 22 -41c0 -28 -22 -49 -49 -49c-13 0 -21 4 -30 10z" />
    <glyph glyph-name="tildecomb" unicode="&#x303;" horiz-adv-x="1" 
d="M-108 653c-13 -16 -28 -29 -45 -37c-18 -8 -37 -13 -56 -13c-26 0 -53 9 -75 26c-5 4 -11 6 -17 6c-11 0 -19 -5 -24 -12c-10 -12 -24 -20 -39 -20c-26 0 -47 24 -47 48c0 10 3 20 9 28c13 17 28 30 45 38c18 9 37 12 56 12c28 0 54 -12 75 -28c5 -4 11 -6 17 -6
c10 0 19 6 25 12c10 12 23 22 38 22c27 0 47 -23 47 -48c0 -10 -3 -20 -9 -28z" />
    <glyph glyph-name="uni0308" unicode="&#x308;" horiz-adv-x="1" 
d="M-291 661c0 -32 -26 -58 -58 -58s-58 26 -58 58s26 58 58 58s58 -26 58 -58zM-161 603c-33 0 -59 26 -59 58s26 58 59 58c32 0 58 -26 58 -58s-26 -58 -58 -58z" />
    <glyph glyph-name="uni030A" unicode="&#x30a;" horiz-adv-x="1" 
d="M-138 677c0 -64 -52 -116 -117 -116c-64 0 -116 52 -116 116s52 116 116 116c65 0 117 -52 117 -116zM-255 636c23 0 40 17 40 41s-17 41 -40 41c-22 0 -39 -18 -39 -41s17 -41 39 -41z" />
    <glyph glyph-name="uni030C" unicode="&#x30c;" horiz-adv-x="1" 
d="M-132 639l-89 -62c-11 -7 -24 -12 -37 -12c-14 0 -27 5 -37 12l-90 62c-15 10 -22 25 -22 41c0 28 22 49 49 49c13 0 21 -4 30 -10l70 -49l69 49c9 6 17 10 30 10c27 0 49 -21 49 -49c0 -16 -7 -31 -22 -41z" />
    <glyph glyph-name="uni0394" unicode="&#x394;" horiz-adv-x="545" 
d="M477 0h-409c-36 0 -65 30 -65 65c0 7 1 14 3 20l212 587c8 23 32 39 54 39c25 0 47 -16 55 -38l211 -587c3 -7 4 -14 4 -21c0 -36 -30 -65 -65 -65zM423 101l-151 418l-150 -418h301z" />
    <glyph glyph-name="uni03A9" unicode="&#x3a9;" horiz-adv-x="545" 
d="M450 0h-79c-36 0 -65 29 -65 65v93c0 24 13 45 34 57c38 21 58 59 58 111v155c0 81 -46 126 -126 126s-126 -45 -126 -126v-155c0 -52 21 -90 59 -111c21 -12 33 -33 33 -57v-93c0 -36 -29 -65 -64 -65h-79c-29 0 -52 23 -52 52c0 28 23 51 52 51h40v34
c-59 41 -92 109 -92 189v155c0 68 22 125 63 166c42 42 99 64 166 64s124 -22 166 -64s64 -98 64 -166v-155c0 -80 -33 -148 -92 -189v-34h40c29 0 52 -23 52 -51c0 -29 -23 -52 -52 -52z" />
    <glyph glyph-name="uni03BC" unicode="&#x3bc;" horiz-adv-x="556" 
d="M381 97v368c0 29 22 52 51 52s52 -23 52 -52v-388c0 -26 -18 -53 -44 -61c-49 -16 -102 -26 -157 -26c-35 0 -68 7 -97 30v-191c0 -29 -23 -52 -51 -52c-29 0 -52 23 -52 52v636c0 29 23 52 52 52c28 0 51 -23 51 -52v-283c0 -59 35 -97 97 -97c34 0 68 4 98 12z" />
    <glyph glyph-name="pi" unicode="&#x3c0;" horiz-adv-x="555" 
d="M316 139v270h-91v-367c0 -29 -23 -52 -51 -52c-29 0 -52 23 -52 52v367h-58c-29 0 -52 20 -52 49c0 28 23 49 52 49h421c28 0 50 -21 50 -49c0 -29 -22 -49 -50 -49h-66v-276c0 -23 19 -45 45 -45c29 0 52 -20 52 -49s-23 -49 -52 -49c-81 0 -148 64 -148 149z" />
    <glyph glyph-name="uni2007" unicode="&#x2007;" horiz-adv-x="577" 
 />
    <glyph glyph-name="uni2008" unicode="&#x2008;" horiz-adv-x="201" 
 />
    <glyph glyph-name="uni200B" unicode="&#x200b;" horiz-adv-x="0" 
 />
    <glyph glyph-name="endash" unicode="&#x2013;" horiz-adv-x="759" 
d="M602 249h-446c-27 0 -48 22 -48 49c0 26 20 49 48 49h446c27 0 49 -22 49 -49s-22 -49 -49 -49z" />
    <glyph glyph-name="emdash" unicode="&#x2014;" horiz-adv-x="1185" 
d="M1028 249h-872c-27 0 -48 22 -48 49c0 26 20 49 48 49h872c27 0 49 -22 49 -49s-22 -49 -49 -49z" />
    <glyph glyph-name="quoteleft" unicode="&#x2018;" horiz-adv-x="242" 
d="M199 642l-48 -142c-7 -21 -28 -35 -49 -35c-30 0 -52 26 -52 52c0 6 1 11 3 17l48 142c7 21 27 35 49 35c30 0 52 -26 52 -52c0 -6 -1 -11 -3 -17z" />
    <glyph glyph-name="quoteright" unicode="&#x2019;" horiz-adv-x="242" 
d="M189 642l-48 -142c-7 -21 -28 -35 -49 -35c-30 0 -52 26 -52 52c0 6 1 11 3 17l48 142c7 21 27 35 49 35c30 0 52 -26 52 -52c0 -6 -1 -11 -3 -17z" />
    <glyph glyph-name="quotesinglbase" unicode="&#x201a;" horiz-adv-x="242" 
d="M199 53l-48 -142c-7 -22 -28 -35 -49 -35c-32 0 -52 25 -52 51c0 6 1 11 3 17l48 142c7 21 28 35 49 35c29 0 52 -25 52 -51c0 -6 -1 -11 -3 -17z" />
    <glyph glyph-name="quotedblleft" unicode="&#x201c;" horiz-adv-x="448" 
d="M203 642l-48 -142c-7 -21 -28 -35 -49 -35c-30 0 -52 26 -52 52c0 6 1 11 3 17l48 142c7 21 27 35 49 35c30 0 52 -26 52 -52c0 -6 -1 -11 -3 -17zM391 642l-49 -142c-7 -21 -27 -35 -49 -35c-27 0 -52 23 -52 52c0 6 1 11 3 17l49 142c7 21 27 35 48 35
c27 0 53 -22 53 -52c0 -5 -1 -11 -3 -17z" />
    <glyph glyph-name="quotedblright" unicode="&#x201d;" horiz-adv-x="430" 
d="M189 642l-48 -142c-7 -21 -28 -35 -49 -35c-30 0 -52 26 -52 52c0 6 1 11 3 17l48 142c7 21 27 35 49 35c30 0 52 -26 52 -52c0 -6 -1 -11 -3 -17zM377 642l-49 -142c-7 -21 -27 -35 -49 -35c-27 0 -52 23 -52 52c0 6 1 11 3 17l49 142c7 21 27 35 48 35
c27 0 53 -22 53 -52c0 -5 -1 -11 -3 -17z" />
    <glyph glyph-name="quotedblbase" unicode="&#x201e;" horiz-adv-x="430" 
d="M199 53l-48 -142c-7 -22 -28 -35 -49 -35c-32 0 -52 25 -52 51c0 6 1 11 3 17l48 142c7 21 28 35 49 35c29 0 52 -25 52 -51c0 -6 -1 -11 -3 -17zM387 53l-49 -142c-8 -22 -27 -35 -49 -35c-28 0 -52 20 -52 51c0 6 1 11 3 17l49 142c7 21 27 35 48 35
c27 0 53 -22 53 -52c0 -5 -1 -11 -3 -16z" />
    <glyph glyph-name="dagger" unicode="&#x2020;" horiz-adv-x="545" 
d="M220 -171v577h-141c-29 0 -52 21 -52 50c0 28 23 51 52 51h141v152c0 29 24 52 53 52c28 0 53 -23 53 -52v-152h140c29 0 52 -22 52 -50c0 -29 -23 -51 -52 -51h-140v-577c0 -29 -25 -52 -53 -52c-29 0 -53 23 -53 52z" />
    <glyph glyph-name="daggerdbl" unicode="&#x2021;" horiz-adv-x="545" 
d="M466 0h-141v-171c0 -29 -24 -52 -52 -52c-29 0 -54 23 -54 52v171h-140c-29 0 -52 22 -52 51c0 28 23 50 52 50h140v305h-140c-29 0 -52 22 -52 51c0 28 23 50 52 50h140v152c0 29 25 52 54 52c28 0 52 -23 52 -52v-152h141c29 0 52 -22 52 -50c0 -29 -23 -51 -52 -51
h-141v-305h141c29 0 52 -22 52 -50c0 -29 -23 -51 -52 -51z" />
    <glyph glyph-name="bullet" unicode="&#x2022;" horiz-adv-x="514" 
d="M370 316c0 -63 -50 -113 -113 -113c-62 0 -113 50 -113 113c0 62 51 113 113 113c63 0 113 -51 113 -113z" />
    <glyph glyph-name="ellipsis" unicode="&#x2026;" horiz-adv-x="808" 
d="M469 57c0 -36 -29 -65 -65 -65s-65 29 -65 65c0 35 29 64 65 64s65 -29 65 -64zM675 -8c-35 0 -64 29 -64 65c0 35 29 64 64 64c36 0 65 -29 65 -64c0 -36 -29 -65 -65 -65zM133 -8c-36 0 -65 29 -65 65c0 35 29 64 65 64c35 0 64 -29 64 -64c0 -36 -29 -65 -64 -65z" />
    <glyph glyph-name="perthousand" unicode="&#x2030;" horiz-adv-x="1259" 
d="M369 560v-90c0 -87 -60 -151 -150 -151c-86 0 -151 59 -151 151v90c0 87 59 151 151 151c86 0 150 -60 150 -151zM285 470v90c0 43 -24 67 -66 67c-43 0 -67 -24 -67 -67v-90c0 -43 24 -67 67 -67c42 0 66 24 66 67zM193 51l446 643c7 11 20 17 32 17c19 0 38 -16 38 -38
c0 -8 -2 -16 -7 -23l-445 -643c-8 -11 -20 -17 -32 -17c-20 0 -39 17 -39 39c0 8 2 15 7 22zM827 231v-90c0 -87 -60 -151 -150 -151c-86 0 -151 59 -151 151v90c0 87 59 151 151 151c86 0 150 -60 150 -151zM743 141v90c0 43 -24 67 -66 67c-43 0 -67 -24 -67 -67v-90
c0 -43 24 -67 67 -67c42 0 66 24 66 67zM1191 231v-90c0 -87 -60 -151 -150 -151c-86 0 -151 59 -151 151v90c0 87 59 151 151 151c86 0 150 -60 150 -151zM1107 141v90c0 43 -24 67 -66 67c-43 0 -67 -24 -67 -67v-90c0 -43 24 -67 67 -67c42 0 66 24 66 67z" />
    <glyph glyph-name="guilsinglleft" unicode="&#x2039;" horiz-adv-x="312" 
d="M164 76l-98 137c-7 10 -12 23 -12 37s5 28 12 38l98 136c10 14 26 22 42 22c28 0 52 -23 52 -52c0 -11 -3 -21 -10 -30l-81 -114l81 -113c7 -9 10 -20 10 -31c0 -28 -23 -51 -52 -51c-16 0 -32 7 -42 21z" />
    <glyph glyph-name="guilsinglright" unicode="&#x203a;" horiz-adv-x="312" 
d="M246 213l-98 -137c-10 -14 -26 -21 -42 -21c-29 0 -52 23 -52 51c0 11 3 22 10 31l81 113l-81 114c-7 9 -10 19 -10 30c0 29 24 52 52 52c16 0 32 -8 42 -22l98 -136c7 -10 12 -24 12 -38s-5 -27 -12 -37z" />
    <glyph glyph-name="fraction" unicode="&#x2044;" horiz-adv-x="545" 
d="M102 61l244 617c8 20 29 33 49 33c29 0 51 -26 51 -51c0 -7 -1 -13 -4 -20l-244 -617c-8 -20 -29 -33 -49 -33c-28 0 -51 26 -51 51c0 7 1 13 4 20z" />
    <glyph glyph-name="Euro" unicode="&#x20ac;" 
d="M362 212h-157c13 -75 49 -127 133 -127c34 0 67 12 98 32c9 6 19 11 30 11c27 0 50 -21 50 -50c0 -17 -9 -31 -24 -41c-49 -32 -100 -47 -154 -47c-142 0 -221 88 -236 222h-42c-29 0 -51 21 -51 49c0 29 22 49 51 49h39v85h-39c-29 0 -51 20 -51 48c0 29 22 50 51 50h42
c18 130 96 218 236 218c54 0 105 -15 154 -47c15 -10 24 -23 24 -40c0 -27 -21 -50 -49 -50c-9 0 -22 5 -31 10c-32 19 -64 32 -98 32c-82 0 -117 -52 -132 -123h156c28 0 51 -21 51 -50c0 -28 -23 -48 -51 -48h-160v-85h160c28 0 51 -20 51 -49c0 -28 -23 -49 -51 -49z" />
    <glyph glyph-name="trademark" unicode="&#x2122;" horiz-adv-x="825" 
d="M148 302v325h-73c-22 0 -39 16 -39 37c0 22 17 37 39 37h224c22 0 39 -15 39 -37c0 -21 -17 -37 -39 -37h-73v-325c0 -21 -18 -38 -39 -38s-39 17 -39 38zM676 302v225l-67 -135c-7 -14 -21 -24 -38 -24c-16 0 -30 11 -37 24l-67 135v-225c0 -21 -17 -38 -39 -38
c-21 0 -38 17 -38 38v362c0 24 19 43 42 43c17 0 31 -10 38 -24l101 -202l102 202c7 14 21 24 38 24c23 0 42 -19 42 -43v-362c0 -21 -17 -38 -39 -38c-21 0 -38 17 -38 38z" />
    <glyph glyph-name="Omega" unicode="&#x2126;" horiz-adv-x="545" 
d="M450 0h-79c-36 0 -65 29 -65 65v93c0 24 13 45 34 57c38 21 58 59 58 111v155c0 81 -46 126 -126 126s-126 -45 -126 -126v-155c0 -52 21 -90 59 -111c21 -12 33 -33 33 -57v-93c0 -36 -29 -65 -64 -65h-79c-29 0 -52 23 -52 52c0 28 23 51 52 51h40v34
c-59 41 -92 109 -92 189v155c0 68 22 125 63 166c42 42 99 64 166 64s124 -22 166 -64s64 -98 64 -166v-155c0 -80 -33 -148 -92 -189v-34h40c29 0 52 -23 52 -51c0 -29 -23 -52 -52 -52z" />
    <glyph glyph-name="arrowleft" unicode="&#x2190;" horiz-adv-x="1310" 
d="M1144 351c0 -29 -23 -51 -52 -51h-754l224 -221c11 -10 15 -24 15 -37c0 -27 -22 -52 -52 -52c-13 0 -26 5 -36 15l-309 309c-10 10 -15 23 -15 36s5 27 15 37l309 309c10 10 23 15 36 15c27 0 52 -22 52 -52c0 -13 -5 -26 -15 -36l-224 -222h754c29 0 52 -22 52 -50z
" />
    <glyph glyph-name="arrowup" unicode="&#x2191;" horiz-adv-x="1310" 
d="M655 -168c-29 0 -51 23 -51 52v754l-221 -224c-10 -11 -24 -15 -37 -15c-27 0 -52 22 -52 52c0 13 5 26 15 36l309 309c10 10 23 15 36 15s27 -5 37 -15l309 -309c10 -10 15 -23 15 -36c0 -27 -22 -52 -52 -52c-13 0 -26 5 -36 15l-222 224v-754c0 -29 -22 -52 -50 -52z
" />
    <glyph glyph-name="arrowright" unicode="&#x2192;" horiz-adv-x="1310" 
d="M165 351c0 28 23 50 52 50h754l-224 222c-10 10 -15 23 -15 36c0 30 25 52 52 52c13 0 26 -5 36 -15l309 -309c10 -10 15 -24 15 -37s-5 -26 -15 -36l-309 -309c-10 -10 -23 -15 -36 -15c-30 0 -52 25 -52 52c0 13 4 27 15 37l224 221h-754c-29 0 -52 22 -52 51z" />
    <glyph glyph-name="arrowdown" unicode="&#x2193;" horiz-adv-x="1310" 
d="M655 811c28 0 50 -23 50 -52v-754l222 224c10 10 23 15 36 15c30 0 52 -25 52 -52c0 -13 -5 -26 -15 -36l-309 -309c-10 -10 -24 -15 -37 -15s-26 5 -36 15l-309 309c-10 10 -15 23 -15 36c0 30 25 52 52 52c13 0 27 -4 37 -15l221 -224v754c0 29 22 52 51 52z" />
    <glyph glyph-name="uni2196" unicode="&#x2196;" horiz-adv-x="1310" 
d="M958 -10c-13 0 -26 5 -36 15l-520 520v-312c0 -29 -23 -52 -51 -52c-29 0 -52 23 -52 52v436c0 29 23 52 52 52h436c30 0 52 -21 52 -50c0 -28 -22 -50 -52 -50h-315l523 -523c10 -10 15 -23 15 -36c0 -30 -25 -52 -52 -52z" />
    <glyph glyph-name="uni2197" unicode="&#x2197;" horiz-adv-x="1310" 
d="M351 -10c-27 0 -52 22 -52 52c0 13 5 26 15 36l523 523h-315c-30 0 -52 22 -52 50c0 29 22 50 52 50h436c29 0 52 -23 52 -52v-436c0 -29 -23 -52 -52 -52c-28 0 -51 23 -51 52v312l-520 -520c-10 -10 -23 -15 -36 -15z" />
    <glyph glyph-name="uni2198" unicode="&#x2198;" horiz-adv-x="1310" 
d="M351 711c13 0 26 -5 36 -15l520 -520v312c0 29 23 52 51 52c29 0 52 -23 52 -52v-436c0 -29 -23 -52 -52 -52h-436c-30 0 -52 21 -52 50c0 28 22 50 52 50h315l-523 523c-10 10 -15 23 -15 36c0 30 25 52 52 52z" />
    <glyph glyph-name="uni2199" unicode="&#x2199;" horiz-adv-x="1310" 
d="M958 711c27 0 52 -22 52 -52c0 -13 -5 -26 -15 -36l-523 -523h315c30 0 52 -22 52 -50c0 -29 -22 -50 -52 -50h-436c-29 0 -52 23 -52 52v436c0 29 23 52 52 52c28 0 51 -23 51 -52v-312l520 520c10 10 23 15 36 15z" />
    <glyph glyph-name="partialdiff" unicode="&#x2202;" horiz-adv-x="556" 
d="M482 294v-94c0 -61 -20 -114 -58 -152s-91 -58 -152 -58s-114 20 -152 58s-58 91 -58 152v94c0 61 20 114 58 152s91 58 152 58c24 0 47 -3 69 -9c-25 60 -80 105 -150 119c-24 5 -39 26 -39 48c0 26 21 49 49 49c4 0 11 -1 15 -2c108 -25 187 -93 229 -195
c33 -80 37 -164 37 -220zM379 191v111c0 63 -41 107 -107 107c-68 0 -107 -39 -107 -107v-111c0 -67 39 -106 107 -106s107 39 107 106z" />
    <glyph glyph-name="Delta" unicode="&#x2206;" horiz-adv-x="545" 
d="M477 0h-409c-36 0 -65 30 -65 65c0 7 1 14 3 20l212 587c8 23 32 39 54 39c25 0 47 -16 55 -38l211 -587c3 -7 4 -14 4 -21c0 -36 -30 -65 -65 -65zM423 101l-151 418l-150 -418h301z" />
    <glyph glyph-name="product" unicode="&#x220f;" horiz-adv-x="634" 
d="M447 -170v770h-260v-770c0 -29 -25 -53 -53 -53c-29 0 -53 24 -53 53v819c0 30 25 52 52 52h368c30 0 52 -25 52 -52v-819c0 -29 -24 -53 -53 -53s-53 24 -53 53z" />
    <glyph glyph-name="summation" unicode="&#x2211;" horiz-adv-x="690" 
d="M584 -213h-465c-36 0 -65 30 -65 64c0 14 4 27 11 37l252 356l-251 355c-8 11 -12 24 -12 38c0 36 31 64 65 64h465c28 0 52 -22 52 -51c0 -28 -24 -50 -52 -50h-392l225 -319c8 -11 12 -24 12 -37s-4 -26 -11 -36l-226 -320h392c28 0 52 -22 52 -51
c0 -28 -24 -50 -52 -50z" />
    <glyph glyph-name="minus" unicode="&#x2212;" 
d="M458 206h-397c-27 0 -48 22 -48 49c0 26 20 49 48 49h397c27 0 49 -22 49 -49s-22 -49 -49 -49z" />
    <glyph glyph-name="uni2219" unicode="&#x2219;" 
d="M373 255c0 -63 -50 -113 -113 -113c-62 0 -113 50 -113 113c0 62 51 113 113 113c63 0 113 -51 113 -113z" />
    <glyph glyph-name="radical" unicode="&#x221a;" horiz-adv-x="545" 
d="M113 32l-123 419c-1 5 -2 9 -2 14c0 29 24 52 51 52c22 0 44 -15 50 -37l79 -292l168 605c8 29 35 47 63 47h107c29 0 51 -21 51 -49s-22 -49 -51 -49h-77l-204 -710c-7 -25 -31 -42 -56 -42c-27 0 -49 19 -56 42z" />
    <glyph glyph-name="infinity" unicode="&#x221e;" horiz-adv-x="793" 
d="M396 163c-18 -21 -43 -43 -74 -61c-26 -15 -58 -26 -94 -26c-48 0 -92 20 -123 51s-51 75 -51 123s20 92 51 124c31 31 75 51 123 51c36 0 68 -11 94 -26s49 -32 74 -62c19 21 44 44 75 62c26 15 58 26 94 26c48 0 92 -20 123 -51c31 -32 51 -76 51 -124
s-20 -92 -51 -123s-75 -51 -123 -51c-36 0 -68 11 -94 26c-31 18 -54 37 -75 61zM453 250c26 -34 69 -79 112 -79c39 0 71 34 71 79c0 48 -33 80 -71 80c-44 0 -90 -49 -112 -80zM340 250c-26 36 -70 80 -112 80c-40 0 -71 -34 -71 -80s34 -79 71 -79c46 0 89 47 112 79z
" />
    <glyph glyph-name="integral" unicode="&#x222b;" horiz-adv-x="545" 
d="M221 -66v683c0 90 76 162 161 162c29 0 52 -20 52 -49s-23 -49 -52 -49c-33 0 -58 -28 -58 -58v-684c0 -91 -76 -162 -162 -162c-29 0 -51 20 -51 49c0 28 22 49 51 49c34 0 59 29 59 59z" />
    <glyph glyph-name="approxequal" unicode="&#x2248;" 
d="M439 305c-25 -14 -54 -21 -83 -21c-45 0 -86 19 -122 40c-24 13 -46 25 -70 25c-22 0 -46 -13 -58 -31c-11 -17 -25 -25 -44 -25c-29 0 -49 23 -49 50c0 37 40 66 68 81c26 14 54 21 83 21c45 0 87 -19 122 -40c24 -14 46 -25 70 -25c22 0 45 14 57 31s26 25 44 25
c29 0 50 -23 50 -50c0 -37 -40 -66 -68 -81zM439 94c-25 -14 -54 -21 -83 -21c-45 0 -86 19 -122 40c-24 13 -46 25 -70 25c-22 0 -46 -13 -58 -31c-11 -17 -25 -25 -44 -25c-29 0 -49 23 -49 50c0 37 40 66 68 81c26 14 54 21 83 21c45 0 87 -19 122 -40
c24 -14 46 -25 70 -25c22 0 45 14 57 31s26 25 44 25c29 0 50 -23 50 -50c0 -37 -40 -66 -68 -81z" />
    <glyph glyph-name="notequal" unicode="&#x2260;" 
d="M458 103h-221l-46 -86c-9 -17 -27 -27 -46 -27c-27 0 -51 25 -51 53c0 8 2 16 6 24l19 36h-58c-27 0 -48 22 -48 49c0 26 20 49 48 49h111l59 108h-167c-29 0 -51 21 -51 49c0 29 22 49 51 49h221l44 83c9 17 27 27 46 27c27 0 51 -22 51 -51c0 -9 -2 -17 -6 -25l-18 -34
h54c28 0 51 -20 51 -49c0 -28 -22 -49 -51 -49h-107l-59 -108h168c27 0 49 -22 49 -49s-22 -49 -49 -49z" />
    <glyph glyph-name="lessequal" unicode="&#x2264;" 
d="M396 164l-307 124c-22 9 -39 32 -39 59c0 24 14 49 40 60l306 124c6 3 13 4 19 4c26 0 52 -22 52 -52c0 -21 -12 -40 -32 -48l-217 -88l217 -87c20 -8 32 -27 32 -48c0 -27 -22 -52 -52 -52c-6 0 -13 1 -19 4zM418 0h-320c-27 0 -48 22 -48 49c0 26 20 49 48 49h320
c27 0 49 -22 49 -49s-22 -49 -49 -49z" />
    <glyph glyph-name="greaterequal" unicode="&#x2265;" 
d="M431 288l-309 -124c-6 -3 -13 -4 -19 -4c-29 0 -50 22 -50 47c0 21 10 39 30 47l247 93l-245 93c-20 8 -32 25 -32 46c0 30 24 49 50 49c6 0 13 -1 19 -4l308 -124c26 -11 40 -36 40 -60c0 -27 -17 -50 -39 -59zM422 0h-320c-27 0 -49 22 -49 49s22 49 49 49h320
c28 0 48 -23 48 -49c0 -27 -21 -49 -48 -49z" />
    <glyph glyph-name="dotmath" unicode="&#x22c5;" 
d="M260 190c-36 0 -65 29 -65 65c0 35 29 64 65 64c35 0 64 -29 64 -64c0 -36 -29 -65 -64 -65z" />
    <glyph glyph-name="lozenge" unicode="&#x25ca;" horiz-adv-x="545" 
d="M217 21l-181 296c-7 11 -9 22 -9 34c0 11 2 22 8 32l182 297c13 20 34 31 56 31c24 0 44 -14 55 -32l181 -295c7 -11 9 -22 9 -33c0 -12 -2 -23 -8 -33l-182 -296c-12 -19 -34 -32 -55 -32c-23 0 -45 13 -56 31zM273 129l135 222l-135 221l-136 -221z" />
    <glyph glyph-name="zero.tf" 
d="M489 481v-261c0 -67 -22 -125 -63 -166c-42 -42 -100 -64 -167 -64s-124 22 -166 64c-41 41 -63 99 -63 166v261c0 68 22 125 63 166c42 42 99 64 166 64s125 -22 166 -63c42 -42 64 -99 64 -167zM386 211v279c0 81 -47 126 -127 126s-126 -45 -126 -126v-279
c0 -80 46 -126 126 -126s127 46 127 126z" />
    <glyph glyph-name="one.tf" 
d="M244 42v538l-90 -52c-8 -5 -20 -9 -29 -9c-28 0 -49 22 -49 49c0 18 9 34 26 44l158 91c9 5 19 8 29 8c32 0 58 -26 58 -58v-611c0 -29 -23 -52 -51 -52c-29 0 -52 23 -52 52z" />
    <glyph glyph-name="two.tf" 
d="M404 0h-308c-32 0 -58 26 -58 58c0 13 5 27 13 37l252 303c29 35 42 67 42 110c0 59 -38 108 -103 108c-43 0 -75 -6 -118 -28c-8 -4 -16 -8 -26 -8c-26 0 -50 20 -50 47c0 18 10 36 28 45c61 32 110 39 166 39c60 0 112 -20 149 -58c38 -38 57 -90 57 -150
c0 -78 -37 -126 -70 -169c-17 -22 -128 -153 -196 -236h222c29 0 51 -21 51 -48c0 -29 -22 -50 -51 -50z" />
    <glyph glyph-name="three.tf" 
d="M228 313h-19c-29 0 -52 22 -52 51c0 28 23 51 52 51h13c66 0 120 44 120 97c0 61 -38 104 -104 104c-42 0 -77 -6 -120 -27c-7 -4 -16 -6 -24 -6c-25 0 -49 20 -49 47c0 19 10 36 28 45c61 30 110 36 165 36c60 0 111 -19 149 -55s58 -86 58 -144
c0 -57 -26 -107 -73 -144c58 -39 93 -98 93 -165c0 -125 -93 -213 -227 -213c-65 0 -119 13 -171 37c-18 9 -29 25 -29 45c0 27 23 48 52 48c7 0 15 -3 22 -6c38 -18 77 -29 126 -29c60 0 124 37 124 118c0 60 -60 110 -134 110z" />
    <glyph glyph-name="four.tf" 
d="M448 144h-60v-103c0 -29 -23 -51 -52 -51c-28 0 -51 22 -51 51v103h-198c-31 0 -58 22 -58 55c0 6 1 13 4 20l170 458c8 21 27 34 50 34c27 0 48 -23 48 -52c0 -6 -1 -12 -3 -18l-151 -399h138v100c0 29 23 52 51 52c29 0 52 -23 52 -52v-100h60c28 0 50 -21 50 -49
s-22 -49 -50 -49z" />
    <glyph glyph-name="five.tf" 
d="M467 237v-33c0 -118 -96 -214 -214 -214c-65 0 -120 13 -171 38c-19 9 -29 25 -29 44c0 27 22 49 51 49c8 0 17 -3 24 -7c37 -20 76 -29 125 -29c61 0 110 58 110 119v33c0 61 -49 119 -110 119c-36 0 -73 -9 -105 -26c-8 -4 -18 -7 -27 -7c-32 0 -58 26 -58 58v256
c0 35 29 64 64 64h271c27 0 49 -22 49 -49c0 -26 -21 -49 -49 -49h-232v-164c28 8 58 12 87 12c118 0 214 -96 214 -214z" />
    <glyph glyph-name="six.tf" 
d="M51 204v302c0 125 112 204 226 204c66 0 124 -22 168 -65c9 -9 14 -20 14 -32c0 -13 -6 -26 -16 -37c-9 -9 -21 -13 -34 -13c-14 0 -29 5 -38 15c-23 26 -61 37 -94 37c-62 1 -123 -38 -123 -104v-96c32 24 71 36 110 36c118 0 214 -96 214 -214v-33
c0 -118 -96 -214 -214 -214c-117 0 -213 96 -213 214zM375 195v51c0 61 -50 110 -111 110c-60 0 -110 -49 -110 -110v-51c0 -61 50 -110 110 -110c61 0 111 49 111 110z" />
    <glyph glyph-name="seven.tf" 
d="M129 61l227 542h-273c-29 0 -50 22 -50 48c0 28 21 50 50 50h335c33 0 58 -28 58 -58c0 -7 -1 -14 -4 -21l-249 -600c-8 -20 -28 -32 -48 -32c-29 0 -50 23 -50 51c0 7 1 13 4 20z" />
    <glyph glyph-name="eight.tf" 
d="M389 369c53 -39 94 -100 94 -168c0 -116 -100 -211 -223 -211s-223 95 -223 211c0 68 33 129 92 168c-48 36 -76 88 -76 147c0 108 93 195 207 195s207 -87 207 -195c0 -59 -34 -111 -78 -147zM364 516c0 56 -47 100 -104 100s-103 -44 -103 -100c0 -55 46 -101 103 -101
s104 46 104 101zM380 201c0 64 -54 118 -120 118s-120 -54 -120 -118s54 -116 120 -116s120 52 120 116z" />
    <glyph glyph-name="nine.tf" 
d="M468 496v-302c0 -125 -112 -204 -226 -204c-66 0 -124 22 -168 65c-9 9 -14 20 -14 32c0 13 6 26 16 37c9 9 21 13 34 13c14 0 29 -5 38 -15c23 -26 61 -37 94 -37c62 -1 123 38 123 104v96c-32 -24 -71 -36 -110 -36c-118 0 -214 96 -214 214v33c0 118 96 214 214 214
c117 0 213 -96 213 -214zM144 505v-51c0 -61 50 -110 111 -110c60 0 110 49 110 110v51c0 61 -50 110 -110 110c-61 0 -111 -49 -111 -110z" />
    <glyph glyph-name="uni2007.tf" 
 />
    <glyph glyph-name="parenleft.case" horiz-adv-x="311" 
d="M201 -107c-19 0 -37 10 -46 27c-67 127 -105 278 -105 435c0 156 39 306 105 434c9 18 27 28 46 28c29 0 51 -26 51 -52c0 -8 -2 -16 -6 -24c-57 -112 -93 -247 -93 -386c0 -140 32 -276 93 -387c4 -7 6 -15 6 -23c0 -29 -24 -52 -51 -52z" />
    <glyph glyph-name="parenright.case" horiz-adv-x="315" 
d="M160 -80c-9 -17 -27 -27 -46 -27c-27 0 -51 23 -51 52c0 8 2 16 6 23c61 111 93 247 93 387c0 139 -36 274 -93 386c-4 8 -6 16 -6 24c0 26 22 52 51 52c19 0 37 -10 46 -28c66 -128 105 -278 105 -434c0 -157 -38 -308 -105 -435z" />
    <glyph glyph-name="hyphen.case" horiz-adv-x="438" 
d="M335 306h-233c-27 0 -48 22 -48 49c0 26 20 49 48 49h233c27 0 49 -22 49 -49s-22 -49 -49 -49z" />
    <glyph glyph-name="bracketleft.case" horiz-adv-x="361" 
d="M247 -107h-136c-27 0 -52 21 -52 51v821c0 27 22 52 52 52h136c29 0 51 -21 51 -49c0 -29 -22 -49 -51 -49h-85v-728h85c29 0 51 -21 51 -49s-22 -49 -51 -49z" />
    <glyph glyph-name="bracketright.case" horiz-adv-x="366" 
d="M255 -107h-136c-29 0 -51 21 -51 49s22 49 51 49h85v728h-85c-29 0 -51 20 -51 49c0 28 22 49 51 49h136c30 0 52 -25 52 -52v-821c0 -30 -25 -51 -52 -51z" />
    <glyph glyph-name="braceleft.case" horiz-adv-x="418" 
d="M155 54v177c0 37 -28 68 -64 72c-26 3 -46 25 -46 52c0 26 20 48 46 51c36 4 64 35 64 72v177c0 89 72 162 161 162c30 0 52 -20 52 -49s-22 -49 -52 -49c-32 0 -58 -26 -58 -58v-183c0 -48 -19 -91 -60 -123c41 -32 60 -76 60 -124v-182c0 -32 26 -58 58 -58
c30 0 52 -20 52 -49c0 -28 -21 -49 -52 -49c-89 0 -161 72 -161 161z" />
    <glyph glyph-name="braceright.case" horiz-adv-x="418" 
d="M160 49v182c0 48 19 92 60 124c-41 32 -60 75 -60 123v183c0 32 -26 58 -58 58c-30 0 -52 20 -52 49s22 49 52 49c89 0 161 -73 161 -162v-177c0 -37 28 -68 64 -72c26 -3 46 -25 46 -51c0 -27 -20 -49 -46 -52c-36 -4 -64 -35 -64 -72v-177c0 -89 -72 -161 -161 -161
c-31 0 -52 21 -52 49c0 29 22 49 52 49c32 0 58 26 58 58z" />
    <glyph glyph-name="guillemotleft.case" horiz-adv-x="532" 
d="M165 180l-98 137c-7 10 -13 23 -13 37s5 28 12 38l99 136c10 14 26 22 42 22c27 0 51 -23 51 -52c0 -10 -3 -21 -9 -30l-82 -114l82 -113c6 -9 9 -20 9 -30c0 -27 -22 -52 -51 -52c-16 0 -32 7 -42 21zM384 180l-98 137c-7 10 -12 23 -12 37s5 28 12 38l98 136
c10 14 26 22 42 22c30 0 52 -25 52 -52c0 -11 -3 -21 -10 -30l-81 -114l81 -113c7 -9 10 -20 10 -31c0 -29 -25 -51 -52 -51c-16 0 -32 7 -42 21z" />
    <glyph glyph-name="uni00AD.case" horiz-adv-x="438" 
d="M335 306h-233c-27 0 -48 22 -48 49c0 26 20 49 48 49h233c27 0 49 -22 49 -49s-22 -49 -49 -49z" />
    <glyph glyph-name="guillemotright.case" horiz-adv-x="532" 
d="M465 317l-98 -137c-10 -14 -26 -21 -42 -21c-29 0 -51 25 -51 52c0 10 3 21 9 30l82 113l-82 114c-6 9 -9 20 -9 30c0 29 24 52 51 52c16 0 32 -8 42 -22l99 -136c7 -10 12 -24 12 -38s-6 -27 -13 -37zM246 317l-98 -137c-10 -14 -26 -21 -42 -21c-27 0 -52 22 -52 51
c0 11 3 22 10 31l81 113l-81 114c-7 9 -10 19 -10 30c0 27 22 52 52 52c16 0 32 -8 42 -22l98 -136c7 -10 12 -24 12 -38s-5 -27 -12 -37z" />
    <glyph glyph-name="gravecomb.case" horiz-adv-x="1" 
d="M-287 762l-104 63c-15 9 -24 25 -24 42c0 29 23 49 50 49c9 0 19 -3 27 -8l105 -64c16 -10 25 -26 25 -43c0 -29 -23 -49 -50 -49c-11 0 -21 5 -29 10z" />
    <glyph glyph-name="acutecomb.case" horiz-adv-x="1" 
d="M-198 825l-104 -63c-8 -5 -18 -10 -29 -10c-27 0 -50 20 -50 49c0 17 9 33 25 43l105 64c8 5 18 8 27 8c27 0 50 -20 50 -49c0 -17 -9 -33 -24 -42z" />
    <glyph glyph-name="uni0302.case" horiz-adv-x="1" 
d="M-226 762l-69 49l-70 -49c-9 -6 -17 -10 -30 -10c-27 0 -49 21 -49 49c0 16 7 31 22 41l90 62c10 7 23 12 37 12c13 0 26 -5 37 -12l89 -62c15 -10 22 -25 22 -41c0 -28 -22 -49 -49 -49c-13 0 -21 4 -30 10z" />
    <glyph glyph-name="tildecomb.case" horiz-adv-x="1" 
d="M-148 840c-13 -16 -28 -29 -45 -37c-18 -8 -37 -13 -56 -13c-26 0 -53 9 -75 26c-5 4 -11 6 -17 6c-11 0 -19 -5 -24 -12c-10 -12 -24 -20 -39 -20c-26 0 -47 24 -47 48c0 10 3 20 9 28c13 17 28 30 45 38c18 9 37 12 56 12c28 0 54 -12 75 -28c5 -4 11 -6 17 -6
c10 0 19 6 25 12c10 12 23 22 38 22c27 0 47 -23 47 -48c0 -10 -3 -20 -9 -28z" />
    <glyph glyph-name="uni0308.case" horiz-adv-x="1" 
d="M-331 848c0 -32 -26 -58 -58 -58s-58 26 -58 58s26 58 58 58s58 -26 58 -58zM-201 790c-33 0 -59 26 -59 58s26 58 59 58c32 0 58 -26 58 -58s-26 -58 -58 -58z" />
    <glyph glyph-name="uni030A.case" horiz-adv-x="1" 
d="M-179 865c0 -64 -52 -116 -117 -116c-64 0 -116 52 -116 116s52 116 116 116c65 0 117 -52 117 -116zM-296 824c23 0 40 17 40 41s-17 41 -40 41c-22 0 -39 -18 -39 -41s17 -41 39 -41z" />
    <glyph glyph-name="uni030C.case" horiz-adv-x="1" 
d="M-169 826l-89 -62c-11 -7 -24 -12 -37 -12c-14 0 -27 5 -37 12l-90 62c-15 10 -22 25 -22 41c0 28 22 49 49 49c13 0 21 -4 30 -10l70 -49l69 49c9 6 17 10 30 10c27 0 49 -21 49 -49c0 -16 -7 -31 -22 -41z" />
    <glyph glyph-name="endash.case" horiz-adv-x="759" 
d="M602 306h-446c-27 0 -48 22 -48 49c0 26 20 49 48 49h446c27 0 49 -22 49 -49s-22 -49 -49 -49z" />
    <glyph glyph-name="emdash.case" horiz-adv-x="1185" 
d="M1028 306h-872c-27 0 -48 22 -48 49c0 26 20 49 48 49h872c27 0 49 -22 49 -49s-22 -49 -49 -49z" />
    <glyph glyph-name="guilsinglleft.case" horiz-adv-x="312" 
d="M164 180l-98 137c-7 10 -12 23 -12 37s5 28 12 38l98 136c10 14 26 22 42 22c28 0 52 -23 52 -52c0 -11 -3 -21 -10 -30l-81 -114l81 -113c7 -9 10 -20 10 -31c0 -28 -23 -51 -52 -51c-16 0 -32 7 -42 21z" />
    <glyph glyph-name="guilsinglright.case" horiz-adv-x="312" 
d="M246 317l-98 -137c-10 -14 -26 -21 -42 -21c-29 0 -52 23 -52 51c0 11 3 22 10 31l81 113l-81 114c-7 9 -10 19 -10 30c0 29 24 52 52 52c16 0 32 -8 42 -22l98 -136c7 -10 12 -24 12 -38s-5 -27 -12 -37z" />
    <glyph glyph-name="l.ss01" horiz-adv-x="280" 
d="M68 126v533c0 29 23 52 52 52c28 0 51 -23 51 -52v-541c0 -18 15 -33 34 -33c6 0 13 2 20 2c26 0 50 -20 50 -48s-22 -46 -46 -48c-8 -1 -18 -1 -24 -1c-80 0 -137 54 -137 136z" />
    <glyph glyph-name="lslash.ss01" horiz-adv-x="337" 
d="M116 389v270c0 29 23 52 52 52c28 0 51 -23 51 -52v-202l20 14c9 6 18 11 30 11c27 0 50 -20 50 -49c0 -17 -8 -32 -23 -42l-77 -51v-222c0 -18 15 -33 34 -33c6 0 13 2 20 2c26 0 50 -20 50 -48s-22 -46 -46 -48c-8 -1 -18 -1 -24 -1c-80 0 -137 54 -137 136v146
l-19 -13c-8 -5 -19 -10 -29 -10c-27 0 -50 20 -50 49c0 17 8 32 23 42z" />
    <glyph glyph-name="fl.ss01" horiz-adv-x="609" 
d="M63 42v366h-28c-30 0 -52 20 -52 50c0 28 23 49 52 49h28v55c0 82 67 149 149 149c20 0 40 -2 60 -5c25 -4 43 -25 43 -50c0 -26 -22 -47 -50 -47c-14 0 -16 6 -53 6c-25 0 -46 -20 -46 -45v-63h98c29 0 51 -21 51 -49c0 -29 -23 -49 -51 -49h-98v-367
c0 -29 -23 -52 -51 -52c-29 0 -52 23 -52 52zM397 126v533c0 29 23 52 52 52c28 0 51 -23 51 -52v-541c0 -18 15 -33 34 -33c6 0 13 2 20 2c26 0 50 -20 50 -48s-22 -46 -46 -48c-8 -1 -18 -1 -24 -1c-80 0 -137 54 -137 136z" />
    <glyph glyph-name="ampersand.ss02" horiz-adv-x="700" 
d="M493 0h-203c-62 0 -114 20 -151 57c-38 37 -58 89 -58 151c0 66 29 126 90 162c-50 35 -72 85 -72 140c0 63 23 115 66 151c40 33 95 50 163 50c43 0 80 -7 112 -20c20 -8 33 -25 33 -46c0 -27 -21 -48 -50 -48c-7 0 -15 2 -22 5c-22 9 -44 14 -73 14
c-125 0 -126 -82 -126 -106c0 -59 53 -98 120 -98h303c29 0 52 -20 52 -48c0 -29 -23 -50 -52 -50h-67v-249c0 -36 -29 -65 -65 -65zM455 98v216h-149c-68 0 -122 -45 -122 -106c0 -73 37 -110 106 -110h165z" />
    <glyph glyph-name="commaaccent" horiz-adv-x="250" 
d="M198 -112l-48 -141c-7 -21 -28 -35 -49 -35c-27 0 -52 23 -52 52c0 6 1 11 3 17l48 140c7 21 28 35 49 35c26 0 52 -22 52 -51c0 -6 -1 -11 -3 -17z" />
    <glyph glyph-name="Abreve" unicode="&#x102;" horiz-adv-x="584" 
d="M469 24l-54 152h-246l-55 -152c-8 -21 -27 -34 -49 -34c-27 0 -51 23 -51 52c0 6 1 11 3 17l220 614c8 21 30 38 55 38c23 0 47 -16 55 -39l220 -613c2 -5 3 -12 3 -17c0 -27 -22 -52 -52 -52c-21 0 -41 13 -49 34zM379 277l-87 242l-87 -242h174zM418 827
c-31 -40 -78 -60 -126 -60s-95 20 -126 60c-7 9 -10 19 -10 30c0 28 23 49 49 49c15 0 28 -6 39 -20s31 -23 48 -23s37 9 48 23s24 20 39 20c26 0 49 -21 49 -49c0 -11 -3 -21 -10 -30z" />
    <glyph glyph-name="abreve" unicode="&#x103;" horiz-adv-x="496" 
d="M437 338v-270c0 -28 -18 -52 -44 -61c-49 -17 -106 -26 -162 -26c-61 0 -109 15 -143 44s-52 70 -52 119s18 87 52 115c34 29 82 44 143 44h103v35c0 42 -31 75 -83 75c-47 0 -73 -6 -108 -27c-8 -5 -19 -9 -28 -9c-27 0 -49 20 -49 45c0 18 8 36 25 46
c54 31 101 40 173 40c112 0 173 -81 173 -170zM334 89v119h-103c-87 0 -92 -47 -92 -64c0 -18 5 -68 92 -68c34 0 71 5 103 13zM374 640c-31 -40 -78 -60 -126 -60s-95 20 -126 60c-7 9 -10 19 -10 30c0 28 23 49 49 49c15 0 28 -6 39 -20s31 -23 48 -23s37 9 48 23
s24 20 39 20c26 0 49 -21 49 -49c0 -11 -3 -21 -10 -30z" />
    <glyph glyph-name="Amacron" unicode="&#x100;" horiz-adv-x="584" 
d="M469 24l-54 152h-246l-55 -152c-8 -21 -27 -34 -49 -34c-27 0 -51 23 -51 52c0 6 1 11 3 17l220 614c8 21 30 38 55 38c23 0 47 -16 55 -39l220 -613c2 -5 3 -12 3 -17c0 -27 -22 -52 -52 -52c-21 0 -41 13 -49 34zM379 277l-87 242l-87 -242h174zM372 790h-161
c-27 0 -48 21 -48 48c0 26 20 49 48 49h161c27 0 49 -22 49 -49s-22 -48 -49 -48z" />
    <glyph glyph-name="amacron" unicode="&#x101;" horiz-adv-x="496" 
d="M437 347v-270c0 -28 -18 -52 -44 -61c-49 -17 -106 -26 -162 -26c-61 0 -109 15 -143 44s-52 70 -52 119s18 87 52 115c34 29 82 44 143 44h103v35c0 42 -31 75 -83 75c-47 0 -73 -6 -108 -27c-8 -5 -19 -9 -28 -9c-27 0 -49 20 -49 45c0 18 8 36 25 46
c54 31 101 40 173 40c112 0 173 -81 173 -170zM334 98v119h-103c-87 0 -92 -47 -92 -64c0 -18 5 -68 92 -68c34 0 71 5 103 13zM328 604h-161c-27 0 -48 21 -48 48c0 26 20 49 48 49h161c27 0 49 -22 49 -49s-22 -48 -49 -48z" />
    <glyph glyph-name="Aogonek" unicode="&#x104;" horiz-adv-x="584" 
d="M474 9l-59 167h-246l-55 -152c-8 -21 -27 -34 -49 -34c-27 0 -51 23 -51 52c0 6 1 11 3 17l220 614c8 21 30 38 55 38c23 0 47 -16 55 -39l220 -613c2 -5 3 -12 3 -17c0 -16 -8 -30 -19 -41c-26 -28 -59 -81 -59 -112c0 -15 7 -23 20 -23c22 0 29 11 48 11
c27 0 41 -22 41 -43c0 -29 -21 -45 -46 -51c-12 -3 -27 -6 -49 -6c-49 0 -100 25 -100 93c0 58 42 111 68 139zM379 277l-87 242l-87 -242h174z" />
    <glyph glyph-name="aogonek" unicode="&#x105;" horiz-adv-x="496" 
d="M437 347v-270c0 -17 -5 -31 -20 -47c-22 -24 -83 -91 -83 -141c0 -15 7 -23 20 -23c22 0 29 11 48 11c27 0 41 -22 41 -43c0 -29 -21 -45 -46 -51c-12 -3 -27 -6 -49 -6c-49 0 -100 25 -100 93c0 50 28 93 53 124c-19 -2 -51 -4 -70 -4c-61 0 -109 15 -143 44
s-52 70 -52 119s18 87 52 115c34 29 82 44 143 44h103v35c0 42 -31 75 -83 75c-47 0 -73 -6 -108 -27c-8 -5 -19 -9 -28 -9c-27 0 -49 20 -49 45c0 18 8 36 25 46c54 31 101 40 173 40c112 0 173 -81 173 -170zM334 98v119h-103c-87 0 -92 -47 -92 -64c0 -18 5 -68 92 -68
c34 0 71 5 103 13z" />
    <glyph glyph-name="Ccaron" unicode="&#x10c;" horiz-adv-x="513" 
d="M50 249v203c0 155 104 259 258 259c54 0 106 -16 154 -47c15 -10 24 -26 24 -43c0 -27 -23 -49 -52 -49c-9 0 -18 3 -27 8c-32 20 -65 33 -99 33c-97 0 -152 -64 -152 -161v-203c0 -97 55 -161 152 -161c34 0 66 14 98 34c9 6 19 9 29 9c27 0 51 -21 51 -50
c0 -17 -9 -34 -24 -44c-48 -31 -100 -47 -154 -47c-154 0 -258 104 -258 259zM434 826l-89 -62c-11 -7 -24 -12 -37 -12c-14 0 -27 5 -37 12l-90 62c-15 10 -22 25 -22 41c0 28 22 49 49 49c13 0 21 -4 30 -10l70 -49l69 49c9 6 17 10 30 10c27 0 49 -21 49 -49
c0 -16 -7 -31 -22 -41z" />
    <glyph glyph-name="ccaron" unicode="&#x10d;" horiz-adv-x="440" 
d="M45 191v126c0 58 19 108 55 144c37 37 87 56 145 56c49 0 96 -11 139 -32c19 -9 29 -27 29 -46c0 -25 -21 -47 -49 -47c-9 0 -17 3 -24 6c-29 13 -62 24 -95 24c-61 0 -97 -36 -97 -97v-142c0 -62 36 -97 97 -97c33 0 69 11 98 25c7 4 14 5 22 5c25 0 48 -20 48 -48
c0 -19 -11 -37 -30 -46c-43 -21 -89 -32 -138 -32c-58 0 -108 19 -145 56c-36 36 -55 86 -55 145zM371 639l-89 -62c-11 -7 -24 -12 -37 -12c-14 0 -27 5 -37 12l-90 62c-15 10 -22 25 -22 41c0 28 22 49 49 49c13 0 21 -4 30 -10l70 -49l69 49c9 6 17 10 30 10
c27 0 49 -21 49 -49c0 -16 -7 -31 -22 -41z" />
    <glyph glyph-name="Cacute" unicode="&#x106;" horiz-adv-x="513" 
d="M50 249v203c0 155 104 259 258 259c54 0 106 -16 154 -47c15 -10 24 -26 24 -43c0 -27 -23 -49 -52 -49c-9 0 -18 3 -27 8c-32 20 -65 33 -99 33c-97 0 -152 -64 -152 -161v-203c0 -97 55 -161 152 -161c34 0 66 14 98 34c9 6 19 9 29 9c27 0 51 -21 51 -50
c0 -17 -9 -34 -24 -44c-48 -31 -100 -47 -154 -47c-154 0 -258 104 -258 259zM376 824l-104 -63c-8 -5 -18 -10 -29 -10c-27 0 -50 20 -50 49c0 17 9 33 25 43l105 64c8 5 18 8 27 8c27 0 50 -20 50 -49c0 -17 -9 -33 -24 -42z" />
    <glyph glyph-name="cacute" unicode="&#x107;" horiz-adv-x="440" 
d="M45 191v126c0 58 19 108 55 144c37 37 87 56 145 56c49 0 96 -11 139 -32c19 -9 29 -27 29 -46c0 -25 -21 -47 -49 -47c-9 0 -17 3 -24 6c-29 13 -62 24 -95 24c-61 0 -97 -36 -97 -97v-142c0 -62 36 -97 97 -97c33 0 69 11 98 25c7 4 14 5 22 5c25 0 48 -20 48 -48
c0 -19 -11 -37 -30 -46c-43 -21 -89 -32 -138 -32c-58 0 -108 19 -145 56c-36 36 -55 86 -55 145zM322 638l-104 -63c-8 -5 -18 -10 -29 -10c-27 0 -50 20 -50 49c0 17 9 33 25 43l105 64c8 5 18 8 27 8c27 0 50 -20 50 -49c0 -17 -9 -33 -24 -42z" />
    <glyph glyph-name="Zacute" unicode="&#x179;" horiz-adv-x="521" 
d="M451 0h-375c-33 0 -58 28 -58 58c0 11 3 22 9 31l336 511h-290c-29 0 -52 22 -52 50c0 29 23 51 52 51h368c33 0 58 -28 58 -58c0 -11 -3 -22 -8 -30l-336 -512h296c29 0 52 -22 52 -50c0 -29 -23 -51 -52 -51zM351 825l-104 -63c-8 -5 -18 -10 -29 -10
c-27 0 -50 20 -50 49c0 17 9 33 25 43l105 64c8 5 18 8 27 8c27 0 50 -20 50 -49c0 -17 -9 -33 -24 -42z" />
    <glyph glyph-name="zacute" unicode="&#x17a;" horiz-adv-x="455" 
d="M377 0h-292c-32 0 -58 26 -58 58c0 12 3 23 12 35l246 316h-204c-29 0 -51 21 -51 49s22 49 51 49h285c32 0 58 -26 58 -58c0 -12 -3 -24 -10 -33l-248 -318h210c29 0 52 -20 52 -48c0 -29 -22 -50 -51 -50zM324 638l-104 -63c-8 -5 -18 -10 -29 -10c-27 0 -50 20 -50 49
c0 17 9 33 25 43l105 64c8 5 18 8 27 8c27 0 50 -20 50 -49c0 -17 -9 -33 -24 -42z" />
    <glyph glyph-name="Dcroat" unicode="&#x110;" horiz-adv-x="590" 
d="M265 0h-132c-36 0 -65 29 -65 64v249h-46c-29 0 -51 22 -51 50c0 29 22 51 51 51h46v223c0 35 29 64 65 64h132c164 0 275 -109 275 -272v-157c0 -163 -111 -272 -275 -272zM434 270v161c0 106 -61 169 -168 169h-92v-186h94c29 0 52 -22 52 -51c0 -28 -23 -50 -52 -50
h-94v-212h92c107 0 168 64 168 169z" />
    <glyph glyph-name="dcroat" unicode="&#x111;" horiz-adv-x="509" 
d="M490 546h-44v-469c0 -28 -18 -52 -44 -61c-50 -17 -103 -26 -157 -26c-58 0 -108 19 -145 56c-36 36 -55 86 -55 145v126c0 58 18 109 54 145c37 37 88 55 146 55c34 0 71 -12 98 -26v55h-86c-27 0 -48 22 -48 49c0 26 20 49 48 49h86v15c0 29 22 52 51 52s52 -23 52 -52
v-15h44c27 0 49 -22 49 -49s-22 -49 -49 -49zM343 98v288c-27 23 -62 36 -98 36c-61 0 -97 -36 -97 -97v-143c0 -62 36 -97 97 -97c34 0 67 4 98 13z" />
    <glyph glyph-name="Dcaron" unicode="&#x10e;" horiz-adv-x="590" 
d="M265 0h-132c-36 0 -65 29 -65 64v573c0 35 29 64 65 64h132c164 0 275 -109 275 -272v-157c0 -163 -111 -272 -275 -272zM434 270v161c0 106 -61 169 -168 169h-92v-499h92c107 0 168 64 168 169zM421 826l-89 -62c-11 -7 -24 -12 -37 -12c-14 0 -27 5 -37 12l-90 62
c-15 10 -22 25 -22 41c0 28 22 49 49 49c13 0 21 -4 30 -10l70 -49l69 49c9 6 17 10 30 10c27 0 49 -21 49 -49c0 -16 -7 -31 -22 -41z" />
    <glyph glyph-name="dcaron" unicode="&#x10f;" horiz-adv-x="596" 
d="M45 191v126c0 58 18 109 54 145c37 37 88 55 146 55c34 0 71 -12 98 -26v168c0 29 22 52 51 52s52 -23 52 -52v-582c0 -28 -18 -52 -44 -61c-50 -17 -103 -26 -157 -26c-58 0 -108 19 -145 56c-36 36 -55 86 -55 145zM343 98v288c-27 23 -62 36 -98 36
c-61 0 -97 -36 -97 -97v-143c0 -62 36 -97 97 -97c34 0 67 4 98 13zM623 642l-48 -142c-7 -21 -28 -35 -49 -35c-30 0 -52 26 -52 52c0 6 1 11 3 17l48 142c7 21 27 35 49 35c30 0 52 -26 52 -52c0 -6 -1 -11 -3 -17z" />
    <glyph glyph-name="Emacron" unicode="&#x112;" horiz-adv-x="514" 
d="M430 0h-297c-34 0 -65 28 -65 64v573c0 34 29 64 65 64h290c29 0 52 -23 52 -52c0 -28 -23 -49 -52 -49h-249v-186h236c29 0 52 -22 52 -51c0 -28 -23 -50 -52 -50h-236v-212h256c28 0 52 -22 52 -50c0 -29 -24 -51 -52 -51zM356 790h-161c-27 0 -48 21 -48 48
c0 26 20 49 48 49h161c27 0 49 -22 49 -49s-22 -48 -49 -48z" />
    <glyph glyph-name="emacron" unicode="&#x113;" horiz-adv-x="491" 
d="M381 205h-233c0 -41 7 -68 20 -86c17 -22 43 -34 77 -34c38 0 74 11 108 26c7 3 14 5 21 5c25 0 49 -21 49 -47c0 -19 -8 -36 -26 -45c-48 -23 -99 -34 -152 -34c-58 0 -108 19 -145 56c-36 36 -55 86 -55 145v126c0 58 19 108 55 144c37 37 87 56 145 56
c59 0 109 -19 145 -56c36 -36 56 -86 56 -144v-47c0 -36 -29 -65 -65 -65zM148 300h195c0 83 -34 122 -98 122c-63 0 -97 -38 -97 -122zM325 604h-161c-27 0 -48 21 -48 48c0 26 20 49 48 49h161c27 0 49 -22 49 -49s-22 -48 -49 -48z" />
    <glyph glyph-name="Edotaccent" unicode="&#x116;" horiz-adv-x="514" 
d="M430 0h-297c-34 0 -65 28 -65 64v573c0 34 29 64 65 64h290c29 0 52 -23 52 -52c0 -28 -23 -49 -52 -49h-249v-186h236c29 0 52 -22 52 -51c0 -28 -23 -50 -52 -50h-236v-212h256c28 0 52 -22 52 -50c0 -29 -24 -51 -52 -51zM332 835c0 -32 -26 -58 -58 -58
s-58 26 -58 58s26 58 58 58s58 -26 58 -58z" />
    <glyph glyph-name="edotaccent" unicode="&#x117;" horiz-adv-x="491" 
d="M381 205h-233c0 -41 7 -68 20 -86c17 -22 43 -34 77 -34c38 0 74 11 108 26c7 3 14 5 21 5c25 0 49 -21 49 -47c0 -19 -8 -36 -26 -45c-48 -23 -99 -34 -152 -34c-58 0 -108 19 -145 56c-36 36 -55 86 -55 145v126c0 58 19 108 55 144c37 37 87 56 145 56
c59 0 109 -19 145 -56c36 -36 56 -86 56 -144v-47c0 -36 -29 -65 -65 -65zM148 300h195c0 83 -34 122 -98 122c-63 0 -97 -38 -97 -122zM303 653c0 -32 -26 -58 -58 -58s-58 26 -58 58s26 58 58 58s58 -26 58 -58z" />
    <glyph glyph-name="Ecaron" unicode="&#x11a;" horiz-adv-x="514" 
d="M430 0h-297c-34 0 -65 28 -65 64v573c0 34 29 64 65 64h290c29 0 52 -23 52 -52c0 -28 -23 -49 -52 -49h-249v-186h236c29 0 52 -22 52 -51c0 -28 -23 -50 -52 -50h-236v-212h256c28 0 52 -22 52 -50c0 -29 -24 -51 -52 -51zM410 826l-89 -62c-11 -7 -24 -12 -37 -12
c-14 0 -27 5 -37 12l-90 62c-15 10 -22 25 -22 41c0 28 22 49 49 49c13 0 21 -4 30 -10l70 -49l69 49c9 6 17 10 30 10c27 0 49 -21 49 -49c0 -16 -7 -31 -22 -41z" />
    <glyph glyph-name="ecaron" unicode="&#x11b;" horiz-adv-x="491" 
d="M381 205h-233c0 -41 7 -68 20 -86c17 -22 43 -34 77 -34c38 0 74 11 108 26c7 3 14 5 21 5c25 0 49 -21 49 -47c0 -19 -8 -36 -26 -45c-48 -23 -99 -34 -152 -34c-58 0 -108 19 -145 56c-36 36 -55 86 -55 145v126c0 58 19 108 55 144c37 37 87 56 145 56
c59 0 109 -19 145 -56c36 -36 56 -86 56 -144v-47c0 -36 -29 -65 -65 -65zM148 300h195c0 83 -34 122 -98 122c-63 0 -97 -38 -97 -122zM372 639l-89 -62c-11 -7 -24 -12 -37 -12c-14 0 -27 5 -37 12l-90 62c-15 10 -22 25 -22 41c0 28 22 49 49 49c13 0 21 -4 30 -10
l70 -49l69 49c9 6 17 10 30 10c27 0 49 -21 49 -49c0 -16 -7 -31 -22 -41z" />
    <glyph glyph-name="Gbreve" unicode="&#x11e;" horiz-adv-x="575" 
d="M419 106v185h-98c-28 0 -51 22 -51 51c0 28 23 51 51 51h139c36 0 65 -29 65 -65v-244c0 -26 -15 -49 -38 -59c-48 -21 -116 -35 -179 -35c-154 0 -258 104 -258 259v203c0 155 104 259 258 259c55 0 120 -17 166 -45c16 -10 25 -28 25 -46c0 -27 -23 -48 -52 -48
c-9 0 -19 3 -27 8c-26 16 -72 33 -112 33c-97 0 -152 -60 -152 -157v-212c0 -97 55 -156 152 -156c39 0 77 7 111 18zM435 827c-31 -40 -78 -60 -126 -60s-95 20 -126 60c-7 9 -10 19 -10 30c0 28 23 49 49 49c15 0 28 -6 39 -20s31 -23 48 -23s37 9 48 23s24 20 39 20
c26 0 49 -21 49 -49c0 -11 -3 -21 -10 -30z" />
    <glyph glyph-name="gbreve" unicode="&#x11f;" horiz-adv-x="509" 
d="M343 -23v39c-30 -15 -64 -26 -98 -26c-58 0 -108 19 -145 56c-36 36 -55 86 -55 145v126c0 58 19 108 55 144c37 37 87 56 145 56c55 0 107 -9 157 -26c26 -9 44 -33 44 -61v-453c0 -58 -20 -108 -56 -144c-36 -37 -86 -56 -145 -56c-50 0 -99 10 -145 31
c-19 9 -31 26 -31 46c0 26 22 48 50 48c7 0 16 -3 23 -6c33 -14 67 -24 103 -24c62 0 98 44 98 105zM343 121v288c-31 8 -64 13 -98 13c-61 0 -97 -36 -97 -97v-143c0 -62 36 -97 97 -97c36 0 71 13 98 36zM380 638c-31 -40 -78 -60 -126 -60s-95 20 -126 60
c-7 9 -10 19 -10 30c0 28 23 49 49 49c15 0 28 -6 39 -20s31 -23 48 -23s37 9 48 23s24 20 39 20c26 0 49 -21 49 -49c0 -11 -3 -21 -10 -30z" />
    <glyph glyph-name="Eogonek" unicode="&#x118;" horiz-adv-x="514" 
d="M348 0h-215c-34 0 -65 28 -65 64v573c0 34 29 64 65 64h290c29 0 52 -23 52 -52c0 -28 -23 -49 -52 -49h-249v-186h236c29 0 52 -22 52 -51c0 -28 -23 -50 -52 -50h-236v-212h256c28 0 52 -22 52 -50s-23 -50 -49 -51c-23 -25 -60 -75 -60 -111c0 -15 7 -23 20 -23
c22 0 29 11 48 11c27 0 41 -22 41 -43c0 -29 -21 -45 -46 -51c-12 -3 -27 -6 -49 -6c-49 0 -100 25 -100 93c0 60 35 102 61 130z" />
    <glyph glyph-name="eogonek" unicode="&#x119;" horiz-adv-x="491" 
d="M381 205h-233c0 -41 7 -68 20 -86c17 -22 43 -34 77 -34c38 0 74 11 108 26c7 3 14 5 21 5c25 0 49 -21 49 -47c0 -19 -8 -36 -26 -45c-19 -9 -37 -16 -57 -22c-23 -24 -61 -77 -61 -113c0 -15 7 -23 20 -23c22 0 29 11 48 11c27 0 41 -22 41 -43c0 -29 -21 -45 -46 -51
c-12 -3 -27 -6 -49 -6c-49 0 -100 25 -100 93c0 53 27 93 52 120c-58 0 -108 19 -145 56c-36 36 -55 86 -55 145v126c0 58 19 108 55 144c37 37 87 56 145 56c59 0 109 -19 145 -56c36 -36 56 -86 56 -144v-47c0 -36 -29 -65 -65 -65zM148 300h195c0 83 -34 122 -98 122
c-63 0 -97 -38 -97 -122z" />
    <glyph glyph-name="Gcommaaccent" unicode="&#x122;" horiz-adv-x="575" 
d="M419 106v185h-98c-28 0 -51 22 -51 51c0 28 23 51 51 51h139c36 0 65 -29 65 -65v-244c0 -26 -15 -49 -38 -59c-48 -21 -116 -35 -179 -35c-154 0 -258 104 -258 259v203c0 155 104 259 258 259c55 0 120 -17 166 -45c16 -10 25 -28 25 -46c0 -27 -23 -48 -52 -48
c-9 0 -19 3 -27 8c-26 16 -72 33 -112 33c-97 0 -152 -60 -152 -157v-212c0 -97 55 -156 152 -156c39 0 77 7 111 18zM360 -112l-48 -141c-7 -21 -28 -35 -49 -35c-27 0 -52 23 -52 52c0 6 1 11 3 17l48 140c7 21 28 35 49 35c26 0 52 -22 52 -51c0 -6 -1 -11 -3 -17z" />
    <glyph glyph-name="gcommaaccent" unicode="&#x123;" horiz-adv-x="509" 
d="M343 -23v39c-30 -15 -64 -26 -98 -26c-58 0 -108 19 -145 56c-36 36 -55 86 -55 145v126c0 58 19 108 55 144c37 37 87 56 145 56c55 0 107 -9 157 -26c26 -9 44 -33 44 -61v-453c0 -58 -20 -108 -56 -144c-36 -37 -86 -56 -145 -56c-50 0 -99 10 -145 31
c-19 9 -31 26 -31 46c0 26 22 48 50 48c7 0 16 -3 23 -6c33 -14 67 -24 103 -24c62 0 98 44 98 105zM343 121v288c-31 8 -64 13 -98 13c-61 0 -97 -36 -97 -97v-143c0 -62 36 -97 97 -97c36 0 71 13 98 36zM334 743l-48 -142c-7 -21 -28 -35 -49 -35c-30 0 -52 26 -52 52
c0 6 1 11 3 17l48 142c7 21 27 35 49 35c30 0 52 -26 52 -52c0 -6 -1 -11 -3 -17z" />
    <glyph glyph-name="Iogonek" unicode="&#x12e;" horiz-adv-x="242" 
d="M68 0v658c0 29 24 53 53 53c28 0 53 -24 53 -53v-615c0 -18 -9 -34 -23 -43h1c-23 -25 -60 -75 -60 -111c0 -15 7 -23 20 -23c22 0 29 11 48 11c27 0 41 -22 41 -43c0 -29 -21 -45 -46 -51c-12 -3 -27 -6 -49 -6c-49 0 -100 25 -100 93c0 60 36 102 62 130z" />
    <glyph glyph-name="iogonek" unicode="&#x12f;" horiz-adv-x="242" 
d="M179 653c0 -32 -26 -58 -58 -58s-58 26 -58 58s26 58 58 58s58 -26 58 -58zM172 42c0 -18 -9 -34 -23 -43c-19 -25 -56 -75 -56 -111c0 -15 7 -23 20 -23c22 0 29 11 48 11c27 0 41 -22 41 -43c0 -29 -21 -45 -46 -51c-12 -3 -27 -6 -49 -6c-49 0 -100 25 -100 93
c0 60 36 102 62 130v466c0 29 24 52 52 52c29 0 51 -23 51 -52v-423z" />
    <glyph glyph-name="imacron" unicode="&#x12b;" horiz-adv-x="242" 
d="M69 42v423c0 29 23 52 52 52c28 0 51 -23 51 -52v-423c0 -29 -23 -52 -51 -52c-29 0 -52 23 -52 52zM201 604h-161c-27 0 -48 21 -48 48c0 26 20 49 48 49h161c27 0 49 -22 49 -49s-22 -48 -49 -48z" />
    <glyph glyph-name="Kcommaaccent" unicode="&#x136;" horiz-adv-x="528" 
d="M423 8l-249 287v-252c0 -29 -25 -53 -53 -53c-29 0 -53 24 -53 53v615c0 29 24 53 53 53c28 0 53 -24 53 -53v-227l237 263c10 11 25 17 39 17c27 0 51 -22 51 -52c0 -12 -4 -24 -13 -34l-240 -262l253 -287c9 -10 13 -22 13 -34c0 -27 -23 -52 -52 -52
c-14 0 -29 6 -39 18zM337 -112l-48 -141c-7 -21 -28 -35 -49 -35c-27 0 -52 23 -52 52c0 6 1 11 3 17l48 140c7 21 28 35 49 35c26 0 52 -22 52 -51c0 -6 -1 -11 -3 -17z" />
    <glyph glyph-name="Lcommaaccent" unicode="&#x13b;" horiz-adv-x="496" 
d="M431 0h-298c-36 0 -65 31 -65 65v593c0 29 25 53 53 53c29 0 53 -25 53 -54v-556h256c29 0 52 -22 52 -50c0 -29 -22 -51 -51 -51zM321 -112l-48 -141c-7 -21 -28 -35 -49 -35c-27 0 -52 23 -52 52c0 6 1 11 3 17l48 140c7 21 28 35 49 35c26 0 52 -22 52 -51
c0 -6 -1 -11 -3 -17z" />
    <glyph glyph-name="lcommaaccent" unicode="&#x13c;" horiz-adv-x="239" 
d="M68 42v617c0 29 23 52 52 52c28 0 51 -23 51 -52v-617c0 -29 -23 -52 -51 -52c-29 0 -52 23 -52 52zM193 -112l-48 -141c-7 -21 -28 -35 -49 -35c-27 0 -52 23 -52 52c0 6 1 11 3 17l48 140c7 21 28 35 49 35c26 0 52 -22 52 -51c0 -6 -1 -11 -3 -17z" />
    <glyph glyph-name="Lcaron" unicode="&#x13d;" horiz-adv-x="496" 
d="M431 0h-298c-36 0 -65 31 -65 65v593c0 29 25 53 53 53c29 0 53 -25 53 -54v-556h256c29 0 52 -22 52 -50c0 -29 -22 -51 -51 -51zM351 641l-48 -142c-7 -21 -28 -35 -49 -35c-30 0 -52 26 -52 52c0 6 1 11 3 17l48 142c7 21 27 35 49 35c30 0 52 -26 52 -52
c0 -6 -1 -11 -3 -17z" />
    <glyph glyph-name="lcaron" unicode="&#x13e;" horiz-adv-x="321" 
d="M68 42v617c0 29 23 52 52 52c28 0 51 -23 51 -52v-617c0 -29 -23 -52 -51 -52c-29 0 -52 23 -52 52zM348 642l-48 -142c-7 -21 -28 -35 -49 -35c-30 0 -52 26 -52 52c0 6 1 11 3 17l48 142c7 21 27 35 49 35c30 0 52 -26 52 -52c0 -6 -1 -11 -3 -17z" />
    <glyph glyph-name="Lacute" unicode="&#x139;" horiz-adv-x="496" 
d="M431 0h-298c-36 0 -65 31 -65 65v593c0 29 25 53 53 53c29 0 53 -25 53 -54v-556h256c29 0 52 -22 52 -50c0 -29 -22 -51 -51 -51zM252 825l-104 -63c-8 -5 -18 -10 -29 -10c-27 0 -50 20 -50 49c0 17 9 33 25 43l105 64c8 5 18 8 27 8c27 0 50 -20 50 -49
c0 -17 -9 -33 -24 -42z" />
    <glyph glyph-name="lacute" unicode="&#x13a;" horiz-adv-x="239" 
d="M68 42v617c0 29 23 52 52 52c28 0 51 -23 51 -52v-617c0 -29 -23 -52 -51 -52c-29 0 -52 23 -52 52zM246 825l-104 -63c-8 -5 -18 -10 -29 -10c-27 0 -50 20 -50 49c0 17 9 33 25 43l105 64c8 5 18 8 27 8c27 0 50 -20 50 -49c0 -17 -9 -33 -24 -42z" />
    <glyph glyph-name="Ncommaaccent" unicode="&#x145;" horiz-adv-x="614" 
d="M438 20l-264 463v-441c0 -29 -24 -52 -52 -52c-29 0 -54 23 -54 52v611c0 32 28 58 58 58c22 0 41 -11 51 -29l263 -464v441c0 29 25 52 54 52c28 0 52 -23 52 -52v-611c0 -33 -28 -58 -58 -58c-22 0 -40 13 -50 30zM380 -112l-48 -141c-7 -21 -28 -35 -49 -35
c-27 0 -52 23 -52 52c0 6 1 11 3 17l48 140c7 21 28 35 49 35c26 0 52 -22 52 -51c0 -6 -1 -11 -3 -17z" />
    <glyph glyph-name="ncommaaccent" unicode="&#x146;" horiz-adv-x="523" 
d="M361 42v283c0 61 -36 97 -98 97c-33 0 -66 -5 -97 -13v-367c0 -29 -23 -52 -51 -52c-29 0 -52 23 -52 52v388c0 28 17 52 44 61c49 17 102 26 156 26c59 0 109 -19 145 -56c36 -36 56 -86 56 -144v-275c0 -29 -23 -52 -52 -52s-51 23 -51 52zM334 -112l-48 -141
c-7 -21 -28 -35 -49 -35c-27 0 -52 23 -52 52c0 6 1 11 3 17l48 140c7 21 28 35 49 35c26 0 52 -22 52 -51c0 -6 -1 -11 -3 -17z" />
    <glyph glyph-name="Nacute" unicode="&#x143;" horiz-adv-x="614" 
d="M438 20l-264 463v-441c0 -29 -24 -52 -52 -52c-29 0 -54 23 -54 52v611c0 32 28 58 58 58c22 0 41 -11 51 -29l263 -464v441c0 29 25 52 54 52c28 0 52 -23 52 -52v-611c0 -33 -28 -58 -58 -58c-22 0 -40 13 -50 30zM403 825l-104 -63c-8 -5 -18 -10 -29 -10
c-27 0 -50 20 -50 49c0 17 9 33 25 43l105 64c8 5 18 8 27 8c27 0 50 -20 50 -49c0 -17 -9 -33 -24 -42z" />
    <glyph glyph-name="nacute" unicode="&#x144;" horiz-adv-x="523" 
d="M361 42v283c0 61 -36 97 -98 97c-33 0 -66 -5 -97 -13v-367c0 -29 -23 -52 -51 -52c-29 0 -52 23 -52 52v388c0 28 17 52 44 61c49 17 102 26 156 26c59 0 109 -19 145 -56c36 -36 56 -86 56 -144v-275c0 -29 -23 -52 -52 -52s-51 23 -51 52zM341 638l-104 -63
c-8 -5 -18 -10 -29 -10c-27 0 -50 20 -50 49c0 17 9 33 25 43l105 64c8 5 18 8 27 8c27 0 50 -20 50 -49c0 -17 -9 -33 -24 -42z" />
    <glyph glyph-name="Ncaron" unicode="&#x147;" horiz-adv-x="614" 
d="M438 20l-264 463v-441c0 -29 -24 -52 -52 -52c-29 0 -54 23 -54 52v611c0 32 28 58 58 58c22 0 41 -11 51 -29l263 -464v441c0 29 25 52 54 52c28 0 52 -23 52 -52v-611c0 -33 -28 -58 -58 -58c-22 0 -40 13 -50 30zM433 826l-89 -62c-11 -7 -24 -12 -37 -12
c-14 0 -27 5 -37 12l-90 62c-15 10 -22 25 -22 41c0 28 22 49 49 49c13 0 21 -4 30 -10l70 -49l69 49c9 6 17 10 30 10c27 0 49 -21 49 -49c0 -16 -7 -31 -22 -41z" />
    <glyph glyph-name="ncaron" unicode="&#x148;" horiz-adv-x="523" 
d="M361 42v283c0 61 -36 97 -98 97c-33 0 -66 -5 -97 -13v-367c0 -29 -23 -52 -51 -52c-29 0 -52 23 -52 52v388c0 28 17 52 44 61c49 17 102 26 156 26c59 0 109 -19 145 -56c36 -36 56 -86 56 -144v-275c0 -29 -23 -52 -52 -52s-51 23 -51 52zM388 639l-89 -62
c-11 -7 -24 -12 -37 -12c-14 0 -27 5 -37 12l-90 62c-15 10 -22 25 -22 41c0 28 22 49 49 49c13 0 21 -4 30 -10l70 -49l69 49c9 6 17 10 30 10c27 0 49 -21 49 -49c0 -16 -7 -31 -22 -41z" />
    <glyph glyph-name="Ohungarumlaut" unicode="&#x150;" horiz-adv-x="591" 
d="M541 465v-229c0 -147 -99 -246 -245 -246c-147 0 -246 99 -246 246v229c0 147 99 246 246 246c146 0 245 -99 245 -246zM435 230v241c0 89 -50 142 -139 142s-140 -53 -140 -142v-241c0 -89 51 -142 140 -142s139 53 139 142zM277 831l-63 -62c-10 -10 -24 -18 -39 -18
c-26 0 -49 21 -49 48c0 13 5 26 15 36l67 65c10 10 22 15 35 15c29 0 49 -24 49 -49c0 -13 -5 -25 -15 -35zM470 831l-63 -62c-10 -10 -24 -18 -39 -18c-26 0 -49 21 -49 48c0 13 5 26 15 36l67 65c10 10 22 15 35 15c29 0 49 -24 49 -49c0 -13 -5 -25 -15 -35z" />
    <glyph glyph-name="ohungarumlaut" unicode="&#x151;" horiz-adv-x="510" 
d="M465 307v-107c0 -61 -20 -114 -58 -152s-91 -58 -152 -58s-114 20 -152 58s-58 91 -58 152v107c0 61 20 114 58 152s91 58 152 58s114 -20 152 -58s58 -91 58 -152zM362 191v124c0 63 -41 107 -107 107c-68 0 -107 -39 -107 -107v-124c0 -67 39 -106 107 -106
s107 39 107 106zM236 645l-63 -62c-10 -10 -24 -18 -39 -18c-26 0 -49 21 -49 48c0 13 5 26 15 36l67 65c10 10 22 15 35 15c29 0 49 -24 49 -49c0 -13 -5 -25 -15 -35zM429 645l-63 -62c-10 -10 -24 -18 -39 -18c-26 0 -49 21 -49 48c0 13 5 26 15 36l67 65
c10 10 22 15 35 15c29 0 49 -24 49 -49c0 -13 -5 -25 -15 -35z" />
    <glyph glyph-name="Omacron" unicode="&#x14c;" horiz-adv-x="591" 
d="M541 465v-229c0 -147 -99 -246 -245 -246c-147 0 -246 99 -246 246v229c0 147 99 246 246 246c146 0 245 -99 245 -246zM435 230v241c0 89 -50 142 -139 142s-140 -53 -140 -142v-241c0 -89 51 -142 140 -142s139 53 139 142zM375 790h-161c-27 0 -48 21 -48 48
c0 26 20 49 48 49h161c27 0 49 -22 49 -49s-22 -48 -49 -48z" />
    <glyph glyph-name="omacron" unicode="&#x14d;" horiz-adv-x="510" 
d="M465 307v-107c0 -61 -20 -114 -58 -152s-91 -58 -152 -58s-114 20 -152 58s-58 91 -58 152v107c0 61 20 114 58 152s91 58 152 58s114 -20 152 -58s58 -91 58 -152zM362 191v124c0 63 -41 107 -107 107c-68 0 -107 -39 -107 -107v-124c0 -67 39 -106 107 -106
s107 39 107 106zM335 604h-161c-27 0 -48 21 -48 48c0 26 20 49 48 49h161c27 0 49 -22 49 -49s-22 -48 -49 -48z" />
    <glyph glyph-name="Racute" unicode="&#x154;" horiz-adv-x="554" 
d="M431 15l-167 279h-90v-252c0 -29 -25 -52 -53 -52c-29 0 -53 23 -53 52v595c0 35 29 64 65 64h186c59 0 110 -19 147 -56c38 -38 58 -90 58 -150s-20 -111 -57 -147c-24 -23 -53 -38 -87 -47l139 -233c5 -8 8 -18 8 -27c0 -26 -24 -51 -52 -51c-18 0 -35 9 -44 25z
M174 395h145c46 0 99 19 99 100c0 60 -35 105 -99 105h-145v-205zM356 825l-104 -63c-8 -5 -18 -10 -29 -10c-27 0 -50 20 -50 49c0 17 9 33 25 43l105 64c8 5 18 8 27 8c27 0 50 -20 50 -49c0 -17 -9 -33 -24 -42z" />
    <glyph glyph-name="racute" unicode="&#x155;" horiz-adv-x="342" 
d="M63 42v326c0 85 64 149 149 149c25 0 50 -3 75 -8c24 -5 41 -25 41 -49c0 -27 -20 -48 -49 -48c-6 0 -9 0 -17 2c-16 4 -34 8 -50 8c-25 0 -46 -21 -46 -46v-334c0 -29 -23 -52 -51 -52c-29 0 -52 23 -52 52zM276 638l-104 -63c-8 -5 -18 -10 -29 -10
c-27 0 -50 20 -50 49c0 17 9 33 25 43l105 64c8 5 18 8 27 8c27 0 50 -20 50 -49c0 -17 -9 -33 -24 -42z" />
    <glyph glyph-name="Rcaron" unicode="&#x158;" horiz-adv-x="554" 
d="M431 15l-167 279h-90v-252c0 -29 -25 -52 -53 -52c-29 0 -53 23 -53 52v595c0 35 29 64 65 64h186c59 0 110 -19 147 -56c38 -38 58 -90 58 -150s-20 -111 -57 -147c-24 -23 -53 -38 -87 -47l139 -233c5 -8 8 -18 8 -27c0 -26 -24 -51 -52 -51c-18 0 -35 9 -44 25z
M174 395h145c46 0 99 19 99 100c0 60 -35 105 -99 105h-145v-205zM403 826l-89 -62c-11 -7 -24 -12 -37 -12c-14 0 -27 5 -37 12l-90 62c-15 10 -22 25 -22 41c0 28 22 49 49 49c13 0 21 -4 30 -10l70 -49l69 49c9 6 17 10 30 10c27 0 49 -21 49 -49c0 -16 -7 -31 -22 -41z
" />
    <glyph glyph-name="rcaron" unicode="&#x159;" horiz-adv-x="342" 
d="M63 42v326c0 85 64 149 149 149c25 0 50 -3 75 -8c24 -5 41 -25 41 -49c0 -27 -20 -48 -49 -48c-6 0 -9 0 -17 2c-16 4 -34 8 -50 8c-25 0 -46 -21 -46 -46v-334c0 -29 -23 -52 -51 -52c-29 0 -52 23 -52 52zM307 639l-89 -62c-11 -7 -24 -12 -37 -12c-14 0 -27 5 -37 12
l-90 62c-15 10 -22 25 -22 41c0 28 22 49 49 49c13 0 21 -4 30 -10l70 -49l69 49c9 6 17 10 30 10c27 0 49 -21 49 -49c0 -16 -7 -31 -22 -41z" />
    <glyph glyph-name="Rcommaaccent" unicode="&#x156;" horiz-adv-x="554" 
d="M431 15l-167 279h-90v-252c0 -29 -25 -52 -53 -52c-29 0 -53 23 -53 52v595c0 35 29 64 65 64h186c59 0 110 -19 147 -56c38 -38 58 -90 58 -150s-20 -111 -57 -147c-24 -23 -53 -38 -87 -47l139 -233c5 -8 8 -18 8 -27c0 -26 -24 -51 -52 -51c-18 0 -35 9 -44 25z
M174 395h145c46 0 99 19 99 100c0 60 -35 105 -99 105h-145v-205zM350 -112l-48 -141c-7 -21 -28 -35 -49 -35c-27 0 -52 23 -52 52c0 6 1 11 3 17l48 140c7 21 28 35 49 35c26 0 52 -22 52 -51c0 -6 -1 -11 -3 -17z" />
    <glyph glyph-name="rcommaaccent" unicode="&#x157;" horiz-adv-x="342" 
d="M63 42v326c0 85 64 149 149 149c25 0 50 -3 75 -8c24 -5 41 -25 41 -49c0 -27 -20 -48 -49 -48c-6 0 -9 0 -17 2c-16 4 -34 8 -50 8c-25 0 -46 -21 -46 -46v-334c0 -29 -23 -52 -51 -52c-29 0 -52 23 -52 52zM199 -112l-48 -141c-7 -21 -28 -35 -49 -35
c-27 0 -52 23 -52 52c0 6 1 11 3 17l48 140c7 21 28 35 49 35c26 0 52 -22 52 -51c0 -6 -1 -11 -3 -17z" />
    <glyph glyph-name="Scommaaccent" unicode="&#x218;" horiz-adv-x="503" 
d="M277 294l-120 53c-78 34 -118 95 -118 173c0 119 112 191 226 191c55 0 113 -10 165 -33c21 -9 39 -23 39 -51c0 -26 -22 -48 -50 -48c-6 0 -12 1 -19 4c-24 9 -59 30 -140 30c-49 0 -114 -20 -114 -88c0 -47 23 -68 63 -86l114 -50c76 -33 148 -80 148 -187
c0 -121 -87 -212 -222 -212c-59 0 -127 16 -179 38c-19 8 -31 25 -31 47c0 28 18 51 48 51c13 0 23 -3 32 -7c41 -18 83 -31 130 -31c72 0 115 35 115 101c0 50 -42 85 -87 105zM322 -112l-48 -141c-7 -21 -28 -35 -49 -35c-27 0 -52 23 -52 52c0 6 1 11 3 17l48 140
c7 21 28 35 49 35c26 0 52 -22 52 -51c0 -6 -1 -11 -3 -17z" />
    <glyph glyph-name="scommaaccent" unicode="&#x219;" horiz-adv-x="431" 
d="M220 199l-82 30c-54 20 -96 62 -96 137c0 88 73 151 173 151c68 0 103 -10 136 -25c20 -8 33 -26 33 -47c0 -26 -21 -48 -48 -48c-7 0 -17 2 -24 5c-25 12 -66 20 -99 20c-41 0 -68 -20 -68 -54c0 -26 20 -42 41 -49l98 -32c66 -22 106 -67 106 -140
c0 -88 -71 -157 -178 -157c-59 0 -107 11 -144 28c-19 9 -31 26 -31 46c0 26 22 50 50 50c7 0 16 -3 23 -6c27 -14 60 -23 104 -23c48 0 73 18 73 52c0 37 -30 49 -67 62zM288 -112l-48 -141c-7 -21 -28 -35 -49 -35c-27 0 -52 23 -52 52c0 6 1 11 3 17l48 140
c7 21 28 35 49 35c26 0 52 -22 52 -51c0 -6 -1 -11 -3 -17z" />
    <glyph glyph-name="Sacute" unicode="&#x15a;" horiz-adv-x="503" 
d="M277 294l-120 53c-78 34 -118 95 -118 173c0 119 112 191 226 191c55 0 113 -10 165 -33c21 -9 39 -23 39 -51c0 -26 -22 -48 -50 -48c-6 0 -12 1 -19 4c-24 9 -59 30 -140 30c-49 0 -114 -20 -114 -88c0 -47 23 -68 63 -86l114 -50c76 -33 148 -80 148 -187
c0 -121 -87 -212 -222 -212c-59 0 -127 16 -179 38c-19 8 -31 25 -31 47c0 28 18 51 48 51c13 0 23 -3 32 -7c41 -18 83 -31 130 -31c72 0 115 35 115 101c0 50 -42 85 -87 105zM357 824l-104 -63c-8 -5 -18 -10 -29 -10c-27 0 -50 20 -50 49c0 17 9 33 25 43l105 64
c8 5 18 8 27 8c27 0 50 -20 50 -49c0 -17 -9 -33 -24 -42z" />
    <glyph glyph-name="sacute" unicode="&#x15b;" horiz-adv-x="431" 
d="M220 199l-82 30c-54 20 -96 62 -96 137c0 88 73 151 173 151c68 0 103 -10 136 -25c20 -8 33 -26 33 -47c0 -26 -21 -48 -48 -48c-7 0 -17 2 -24 5c-25 12 -66 20 -99 20c-41 0 -68 -20 -68 -54c0 -26 20 -42 41 -49l98 -32c66 -22 106 -67 106 -140
c0 -88 -71 -157 -178 -157c-59 0 -107 11 -144 28c-19 9 -31 26 -31 46c0 26 22 50 50 50c7 0 16 -3 23 -6c27 -14 60 -23 104 -23c48 0 73 18 73 52c0 37 -30 49 -67 62zM320 638l-104 -63c-8 -5 -18 -10 -29 -10c-27 0 -50 20 -50 49c0 17 9 33 25 43l105 64
c8 5 18 8 27 8c27 0 50 -20 50 -49c0 -17 -9 -33 -24 -42z" />
    <glyph glyph-name="Scedilla" unicode="&#x15e;" horiz-adv-x="503" 
d="M305 -4l-8 -35c27 -16 50 -37 50 -74c0 -53 -38 -88 -97 -113c-15 -7 -39 -14 -52 -14c-22 0 -43 16 -43 42c0 24 15 36 33 41c16 4 69 12 69 34c0 13 -9 17 -32 25c-17 6 -23 21 -23 36c0 7 1 15 3 23l8 31c-49 5 -101 18 -143 36c-19 8 -31 25 -31 47c0 28 18 51 48 51
c13 0 23 -3 32 -7c41 -18 83 -31 130 -31c72 0 115 35 115 101c0 50 -42 85 -87 105l-120 53c-78 34 -118 95 -118 173c0 119 112 191 226 191c55 0 113 -10 165 -33c21 -9 39 -23 39 -51c0 -26 -22 -48 -50 -48c-6 0 -12 1 -19 4c-24 9 -59 30 -140 30
c-49 0 -114 -20 -114 -88c0 -47 23 -68 63 -86l114 -50c76 -33 148 -80 148 -187c0 -104 -64 -185 -166 -206z" />
    <glyph glyph-name="scedilla" unicode="&#x15f;" horiz-adv-x="431" 
d="M268 -16l-6 -21c27 -16 50 -37 50 -74c0 -53 -38 -88 -97 -113c-15 -7 -39 -14 -52 -14c-22 0 -43 16 -43 42c0 24 15 36 33 41c16 4 69 12 69 34c0 13 -9 17 -32 25c-17 6 -23 21 -23 36c0 7 1 15 3 23l7 28c-43 4 -80 13 -109 27c-19 9 -31 26 -31 46c0 26 22 50 50 50
c7 0 16 -3 23 -6c27 -14 60 -23 104 -23c48 0 73 18 73 52c0 37 -30 49 -67 62l-82 30c-54 20 -96 62 -96 137c0 88 73 151 173 151c68 0 103 -10 136 -25c20 -8 33 -26 33 -47c0 -26 -21 -48 -48 -48c-7 0 -17 2 -24 5c-25 12 -66 20 -99 20c-41 0 -68 -20 -68 -54
c0 -26 20 -42 41 -49l98 -32c66 -22 106 -67 106 -140c0 -71 -46 -130 -120 -149c0 -4 -1 -9 -2 -14z" />
    <glyph glyph-name="Tcaron" unicode="&#x164;" horiz-adv-x="514" 
d="M204 43v557h-148c-29 0 -51 22 -51 50c0 29 22 51 51 51h401c29 0 52 -22 52 -51c0 -28 -23 -50 -52 -50h-147v-557c0 -29 -24 -53 -53 -53s-53 24 -53 53zM383 826l-89 -62c-11 -7 -24 -12 -37 -12c-14 0 -27 5 -37 12l-90 62c-15 10 -22 25 -22 41c0 28 22 49 49 49
c13 0 21 -4 30 -10l70 -49l69 49c9 6 17 10 30 10c27 0 49 -21 49 -49c0 -16 -7 -31 -22 -41z" />
    <glyph glyph-name="tcaron" unicode="&#x165;" horiz-adv-x="342" 
d="M343 709l-48 -142c-7 -21 -28 -35 -49 -35c-30 0 -52 26 -52 52c0 6 1 11 3 17l48 142c7 21 27 35 49 35c30 0 52 -26 52 -52c0 -6 -1 -11 -3 -17zM63 146v262h-28c-30 0 -52 20 -52 50c0 28 23 49 52 49h28v152c0 29 23 52 52 52c28 0 51 -23 51 -52v-152h97
c29 0 52 -21 52 -49c0 -30 -22 -50 -52 -50h-97v-261c0 -38 20 -62 46 -62c29 0 34 8 53 8c25 0 50 -18 50 -48c0 -25 -19 -44 -44 -49c-20 -4 -39 -6 -59 -6c-82 0 -149 64 -149 156z" />
    <glyph glyph-name="Tcommaaccent" unicode="&#x162;" horiz-adv-x="514" 
d="M204 43v557h-148c-29 0 -51 22 -51 50c0 29 22 51 51 51h401c29 0 52 -22 52 -51c0 -28 -23 -50 -52 -50h-147v-557c0 -29 -24 -53 -53 -53s-53 24 -53 53zM330 -112l-48 -141c-7 -21 -28 -35 -49 -35c-27 0 -52 23 -52 52c0 6 1 11 3 17l48 140c7 21 28 35 49 35
c26 0 52 -22 52 -51c0 -6 -1 -11 -3 -17z" />
    <glyph glyph-name="tcommaaccent" unicode="&#x163;" horiz-adv-x="342" 
d="M244 -112l-48 -141c-7 -21 -28 -35 -49 -35c-27 0 -52 23 -52 52c0 6 1 11 3 17l48 140c7 21 28 35 49 35c26 0 52 -22 52 -51c0 -6 -1 -11 -3 -17zM63 146v262h-28c-30 0 -52 20 -52 50c0 28 23 49 52 49h28v152c0 29 23 52 52 52c28 0 51 -23 51 -52v-152h97
c29 0 52 -21 52 -49c0 -30 -22 -50 -52 -50h-97v-261c0 -38 20 -62 46 -62c29 0 34 8 53 8c25 0 50 -18 50 -48c0 -25 -19 -44 -44 -49c-20 -4 -39 -6 -59 -6c-82 0 -149 64 -149 156z" />
    <glyph glyph-name="Umacron" unicode="&#x16a;" horiz-adv-x="616" 
d="M451 233v425c0 29 24 53 53 53c28 0 53 -24 53 -53v-419c0 -149 -100 -249 -249 -249s-249 100 -249 249v419c0 29 25 53 54 53c28 0 52 -24 52 -53v-425c0 -91 52 -145 143 -145s143 54 143 145zM388 790h-161c-27 0 -48 21 -48 48c0 26 20 49 48 49h161
c27 0 49 -22 49 -49s-22 -48 -49 -48z" />
    <glyph glyph-name="umacron" unicode="&#x16b;" horiz-adv-x="523" 
d="M357 98v367c0 29 22 52 51 52s52 -23 52 -52v-388c0 -28 -18 -52 -44 -61c-49 -17 -102 -26 -157 -26c-58 0 -110 17 -147 54c-36 36 -53 88 -53 147v274c0 29 23 52 52 52c28 0 51 -23 51 -52v-282c0 -62 36 -97 97 -97c34 0 67 4 98 12zM341 604h-161
c-27 0 -48 21 -48 48c0 26 20 49 48 49h161c27 0 49 -22 49 -49s-22 -48 -49 -48z" />
    <glyph glyph-name="Uring" unicode="&#x16e;" horiz-adv-x="616" 
d="M451 233v425c0 29 24 53 53 53c28 0 53 -24 53 -53v-419c0 -149 -100 -249 -249 -249s-249 100 -249 249v419c0 29 25 53 54 53c28 0 52 -24 52 -53v-425c0 -91 52 -145 143 -145s143 54 143 145zM424 850c0 -64 -52 -116 -117 -116c-64 0 -116 52 -116 116
s52 116 116 116c65 0 117 -52 117 -116zM307 809c23 0 40 17 40 41s-17 41 -40 41c-22 0 -39 -18 -39 -41s17 -41 39 -41z" />
    <glyph glyph-name="uring" unicode="&#x16f;" horiz-adv-x="523" 
d="M357 98v367c0 29 22 52 51 52s52 -23 52 -52v-388c0 -28 -18 -52 -44 -61c-49 -17 -102 -26 -157 -26c-58 0 -110 17 -147 54c-36 36 -53 88 -53 147v274c0 29 23 52 52 52c28 0 51 -23 51 -52v-282c0 -62 36 -97 97 -97c34 0 67 4 98 12zM378 661
c0 -64 -52 -116 -117 -116c-64 0 -116 52 -116 116s52 116 116 116c65 0 117 -52 117 -116zM261 620c23 0 40 17 40 41s-17 41 -40 41c-22 0 -39 -18 -39 -41s17 -41 39 -41z" />
    <glyph glyph-name="Uhungarumlaut" unicode="&#x170;" horiz-adv-x="616" 
d="M451 233v425c0 29 24 53 53 53c28 0 53 -24 53 -53v-419c0 -149 -100 -249 -249 -249s-249 100 -249 249v419c0 29 25 53 54 53c28 0 52 -24 52 -53v-425c0 -91 52 -145 143 -145s143 54 143 145zM299 831l-63 -62c-10 -10 -24 -18 -39 -18c-26 0 -49 21 -49 48
c0 13 5 26 15 36l67 65c10 10 22 15 35 15c29 0 49 -24 49 -49c0 -13 -5 -25 -15 -35zM492 831l-63 -62c-10 -10 -24 -18 -39 -18c-26 0 -49 21 -49 48c0 13 5 26 15 36l67 65c10 10 22 15 35 15c29 0 49 -24 49 -49c0 -13 -5 -25 -15 -35z" />
    <glyph glyph-name="uhungarumlaut" unicode="&#x171;" horiz-adv-x="523" 
d="M357 98v367c0 29 22 52 51 52s52 -23 52 -52v-388c0 -28 -18 -52 -44 -61c-49 -17 -102 -26 -157 -26c-58 0 -110 17 -147 54c-36 36 -53 88 -53 147v274c0 29 23 52 52 52c28 0 51 -23 51 -52v-282c0 -62 36 -97 97 -97c34 0 67 4 98 12zM242 645l-63 -62
c-10 -10 -24 -18 -39 -18c-26 0 -49 21 -49 48c0 13 5 26 15 36l67 65c10 10 22 15 35 15c29 0 49 -24 49 -49c0 -13 -5 -25 -15 -35zM435 645l-63 -62c-10 -10 -24 -18 -39 -18c-26 0 -49 21 -49 48c0 13 5 26 15 36l67 65c10 10 22 15 35 15c29 0 49 -24 49 -49
c0 -13 -5 -25 -15 -35z" />
    <glyph glyph-name="Uogonek" unicode="&#x172;" horiz-adv-x="616" 
d="M451 233v425c0 29 24 53 53 53c28 0 53 -24 53 -53v-419c0 -114 -59 -199 -153 -233h1c-23 -25 -63 -81 -63 -117c0 -15 7 -23 20 -23c22 0 29 11 48 11c27 0 41 -22 41 -43c0 -29 -21 -45 -46 -51c-12 -3 -27 -6 -49 -6c-49 0 -100 25 -100 93c0 53 27 93 52 120
c-149 0 -249 100 -249 249v419c0 29 25 53 54 53c28 0 52 -24 52 -53v-425c0 -91 52 -145 143 -145s143 54 143 145z" />
    <glyph glyph-name="uogonek" unicode="&#x173;" horiz-adv-x="523" 
d="M357 98v367c0 29 22 52 51 52s52 -23 52 -52v-388c0 -25 -14 -47 -36 -58c-23 -25 -64 -94 -64 -130c0 -15 7 -23 20 -23c22 0 29 11 48 11c27 0 41 -22 41 -43c0 -29 -21 -45 -46 -51c-12 -3 -27 -6 -49 -6c-49 0 -100 25 -100 93c0 56 27 97 52 125
c-22 -3 -45 -5 -67 -5c-58 0 -110 17 -147 54c-36 36 -53 88 -53 147v274c0 29 23 52 52 52c28 0 51 -23 51 -52v-282c0 -62 36 -97 97 -97c34 0 67 4 98 12z" />
    <glyph glyph-name="kcommaaccent" unicode="&#x137;" horiz-adv-x="459" 
d="M351 8l-180 207v-173c0 -29 -23 -52 -51 -52c-29 0 -52 23 -52 52v617c0 29 23 52 52 52c28 0 51 -23 51 -52v-321l178 165c10 10 23 14 36 14c27 0 50 -23 50 -52c0 -14 -6 -27 -17 -37l-171 -152l182 -200c9 -9 12 -22 12 -34c0 -26 -21 -52 -50 -52
c-15 0 -30 6 -40 18zM302 -112l-48 -141c-7 -21 -28 -35 -49 -35c-27 0 -52 23 -52 52c0 6 1 11 3 17l48 140c7 21 28 35 49 35c26 0 52 -22 52 -51c0 -6 -1 -11 -3 -17z" />
    <glyph glyph-name="Zdotaccent" unicode="&#x17b;" horiz-adv-x="521" 
d="M451 0h-375c-33 0 -58 28 -58 58c0 11 3 22 9 31l336 511h-290c-29 0 -52 22 -52 50c0 29 23 51 52 51h368c33 0 58 -28 58 -58c0 -11 -3 -22 -8 -30l-336 -512h296c29 0 52 -22 52 -50c0 -29 -23 -51 -52 -51zM318 835c0 -32 -26 -58 -58 -58s-58 26 -58 58s26 58 58 58
s58 -26 58 -58z" />
    <glyph glyph-name="zdotaccent" unicode="&#x17c;" horiz-adv-x="455" 
d="M377 0h-292c-32 0 -58 26 -58 58c0 12 3 23 12 35l246 316h-204c-29 0 -51 21 -51 49s22 49 51 49h285c32 0 58 -26 58 -58c0 -12 -3 -24 -10 -33l-248 -318h210c29 0 52 -20 52 -48c0 -29 -22 -50 -51 -50zM285 653c0 -32 -26 -58 -58 -58s-58 26 -58 58s26 58 58 58
s58 -26 58 -58z" />
    <glyph glyph-name="Idotaccent" unicode="&#x130;" horiz-adv-x="242" 
d="M68 43v615c0 29 24 53 53 53c28 0 53 -24 53 -53v-615c0 -29 -25 -53 -53 -53c-29 0 -53 24 -53 53zM179 835c0 -32 -26 -58 -58 -58s-58 26 -58 58s26 58 58 58s58 -26 58 -58z" />
    <glyph glyph-name="uni021A" unicode="&#x21a;" horiz-adv-x="514" 
d="M204 43v557h-148c-29 0 -51 22 -51 50c0 29 22 51 51 51h401c29 0 52 -22 52 -51c0 -28 -23 -50 -52 -50h-147v-557c0 -29 -24 -53 -53 -53s-53 24 -53 53zM333 -112l-48 -141c-7 -21 -28 -35 -49 -35c-27 0 -52 23 -52 52c0 6 1 11 3 17l48 140c7 21 28 35 49 35
c26 0 52 -22 52 -51c0 -6 -1 -11 -3 -17z" />
    <glyph glyph-name="uni021B" unicode="&#x21b;" horiz-adv-x="342" 
d="M212 -112l-48 -141c-7 -21 -28 -35 -49 -35c-27 0 -52 23 -52 52c0 6 1 11 3 17l48 140c7 21 28 35 49 35c26 0 52 -22 52 -51c0 -6 -1 -11 -3 -17zM63 146v262h-28c-30 0 -52 20 -52 50c0 28 23 49 52 49h28v152c0 29 23 52 52 52c28 0 51 -23 51 -52v-152h97
c29 0 52 -21 52 -49c0 -30 -22 -50 -52 -50h-97v-261c0 -38 20 -62 46 -62c29 0 34 8 53 8c25 0 50 -18 50 -48c0 -25 -19 -44 -44 -49c-20 -4 -39 -6 -59 -6c-82 0 -149 64 -149 156z" />
    <glyph glyph-name="Imacron" unicode="&#x12a;" horiz-adv-x="242" 
d="M68 43v615c0 29 24 53 53 53c28 0 53 -24 53 -53v-615c0 -29 -25 -53 -53 -53c-29 0 -53 24 -53 53zM201 790h-161c-27 0 -48 21 -48 48c0 26 20 49 48 49h161c27 0 49 -22 49 -49s-22 -48 -49 -48z" />
    </font>
</defs>
</svg>
