<?xml version="1.0" standalone="no"?>
<!DOCTYPE svg PUBLIC "-//W3C//DTD SVG 1.1//EN" "http://www.w3.org/Graphics/SVG/1.1/DTD/svg11.dtd" >
<!--
2014-3-27: Created.
-->
<svg xmlns="http://www.w3.org/2000/svg">
<metadata>
Created by FontForge 20120731 at Thu Mar 27 16:44:50 2014
 By Daniel
Created by Daniel with FontForge 2.0 (http://fontforge.sf.net)
</metadata>
<defs>
<font id="eniro-icon" horiz-adv-x="451" >
  <font-face 
    font-family="eniro-icon"
    font-weight="500"
    font-stretch="normal"
    units-per-em="512"
    panose-1="2 0 6 3 0 0 0 0 0 0"
    ascent="448"
    descent="-64"
    bbox="-0.516786 -65 511.985 448"
    underline-thickness="25.6"
    underline-position="-51.2"
    unicode-range="U+002B-1F6B9"
  />
    <missing-glyph />
    <glyph glyph-name="house" unicode="&#x2302;" horiz-adv-x="448" 
d="M442 166l-200 205c-10 11 -26 11 -36 0l-200 -205c-10 -11 -6 -20 9 -20h50l-1 -156c0 -11 1 -22 22 -22h87v159h101v-159h93c16 0 17 11 17 22l-1 156h50c15 0 19 9 9 20z" />
    <glyph glyph-name="u1F4BC" unicode="&#x1f4bc;" 
d="M205 218v-48h-205s4 66 5 98s12 52 48 52h78c12 23 24 48 28 55c8 15 11 18 29 18h75c18 0 20 -3 28 -18c4 -7 17 -32 29 -55h78c36 0 47 -20 48 -52c1 -34 5 -98 5 -98h-207v48h-39zM185 346c-2 -4 -8 -14 -14 -26h109c-6 12 -12 22 -14 26c-6 10 -8 13 -20 13h-42
c-12 0 -13 -3 -19 -13zM244 98v30h195s-3 -42 -5 -80c-1 -15 -5 -41 -43 -41h-331c-38 0 -42 26 -43 41c-2 37 -5 80 -5 80h193v-30h39z" />
    <glyph glyph-name="u1F4CC" unicode="&#x1f4cc;" horiz-adv-x="374" 
d="M187 422c103 0 187 -84 187 -187s-183 -279 -189 -279s-185 176 -185 279s84 187 187 187z" />
    <glyph glyph-name="u1F4CD" unicode="&#x1f4cd;" horiz-adv-x="374" 
d="M187 422c103 0 187 -84 187 -187s-183 -279 -189 -279s-185 176 -185 279s84 187 187 187zM186 152c48 0 87 39 87 87s-39 87 -87 87s-86 -39 -86 -87s38 -87 86 -87z" />
    <glyph glyph-name="uniE000" unicode="&#xe000;" horiz-adv-x="374" 
d="M187 422c103 0 187 -84 187 -187s-183 -279 -189 -279s-185 176 -185 279s84 187 187 187zM251 139h48l-88 220h-47l-86 -220h47l18 50h88zM157 226l30 81l30 -81h-60z" />
    <glyph glyph-name="uniE001" unicode="&#xe001;" horiz-adv-x="374" 
d="M211 264c-4 -1 -14 0 -31 0h-28v48h25h36c7 -1 12 -4 16 -8s6 -9 6 -16s-2 -12 -6 -16s-11 -7 -18 -8zM226 225c6 -2 10 -6 13 -10s5 -10 5 -16c0 -7 -2 -18 -6 -23s-10 -8 -16 -9c-4 -1 -14 0 -30 0h-40v61h35c19 0 33 -1 39 -3zM187 422c103 0 187 -84 187 -187
s-183 -279 -189 -279s-185 176 -185 279s84 187 187 187zM282 164c4 9 6 23 6 33c0 12 -3 23 -10 32s-18 15 -31 19c9 4 17 11 22 19s8 17 8 27c0 9 -3 18 -7 25s-10 14 -16 18c-7 4 -14 8 -22 9s-21 2 -38 2h-85v-218h72c27 0 47 1 54 2c11 1 20 5 28 10c8 6 14 13 19 22z
" />
    <glyph glyph-name="uniE500" unicode="&#xe500;" horiz-adv-x="442" 
d="M436 353c5 -6 7 -14 6 -21l-31 -187c-2 -10 -9 -19 -19 -21c-1 0 -108 -26 -253 -26c-13 0 -24 10 -26 22l-33 211l-6 27v0s-1 1 -1 2c-1 2 -1 3 -2 5c-3 4 -4 6 -11 6h-34v0c-14 0 -26 11 -26 25s12 26 26 26h34c26 0 45 -15 53 -28c9 -13 11 -25 11 -26l1 -6h292
c8 0 14 -3 19 -9zM146 64c27 0 49 -21 49 -48s-22 -49 -49 -49s-49 22 -49 49s22 48 49 48zM356 64c27 0 49 -21 49 -48s-22 -49 -49 -49s-49 22 -49 49s22 48 49 48z" />
    <glyph glyph-name="uniEA31" unicode="&#xea31;" horiz-adv-x="384" 
d="M191 166c3 0 7 1 11 1h1v-35c-4 -4 -7 -9 -10 -13s-7 -7 -9 -8c-5 -3 -8 -4 -11 -4c-2 0 -4 0 -7 3c-2 2 -4 8 -4 16s1 14 3 20s6 11 11 15c2 2 6 3 9 4c1 0 3 1 6 1zM381 299c1 -90 2 -232 3 -320c0 -12 -7 -23 -19 -25c-69 -11 -107 -12 -173 -12c-63 0 -105 1 -174 12
c-12 2 -18 13 -18 25c-1 86 1 233 4 320c0 11 12 20 23 20h71c4 12 9 28 16 45c15 31 34 70 78 73c44 -3 63 -42 78 -73c7 -17 13 -33 16 -45h73c11 0 22 -9 22 -20zM152 348c-4 -10 -8 -20 -11 -29h101c-3 9 -6 19 -10 29c-12 29 -32 51 -40 48c-7 3 -28 -18 -40 -48z
M308 104c6 12 8 26 8 42c0 11 0 20 -3 30s-7 19 -12 28s-11 16 -18 23s-14 13 -23 18c-18 10 -40 15 -65 15c-27 0 -50 -6 -69 -17c-10 -6 -18 -12 -25 -20s-14 -17 -19 -28c-5 -10 -9 -22 -11 -33c-3 -11 -4 -23 -4 -35s1 -23 4 -34s6 -23 11 -33c5 -11 11 -20 19 -28
c7 -8 16 -15 26 -21c20 -11 41 -17 64 -17c11 0 22 1 32 4s20 7 30 12l3 4v33c0 2 -2 2 -3 3s-3 1 -4 0c-22 -14 -41 -21 -58 -21c-14 0 -29 4 -44 12h-1c-7 4 -13 9 -18 15c-6 6 -11 13 -14 21c-4 8 -6 17 -8 26s-3 17 -3 26c0 18 3 36 11 51s19 26 33 34c15 8 30 12 47 12
c16 0 31 -4 45 -11s24 -17 31 -29s11 -26 11 -43c0 -7 -1 -14 -2 -19c-1 -6 -3 -10 -6 -14c-6 -8 -12 -10 -18 -10c-4 0 -5 1 -8 4h-1c-2 3 -3 11 -3 23v70c0 1 -1 2 -2 3s-2 1 -3 1h-33c-21 0 -37 -2 -48 -8s-20 -16 -27 -29c-6 -12 -9 -25 -9 -38c0 -10 1 -20 5 -29
s10 -16 18 -22c8 -5 18 -8 27 -8s17 3 25 9c3 2 6 5 9 7l3 3c1 -2 2 -3 3 -5c3 -3 6 -6 10 -8c9 -5 19 -8 29 -8c12 0 24 4 34 11s18 16 24 28z" />
    <glyph glyph-name="u1F50D" unicode="&#x1f50d;" horiz-adv-x="511" 
d="M500 14c12 -12 16 -27 4 -39l-30 -30c-12 -12 -32 -12 -44 0l-123 123c-30 -17 -64 -27 -101 -27c-111 0 -206 95 -206 206s89 200 200 200s207 -95 207 -206c0 -38 -11 -74 -29 -104zM206 102c77 0 139 62 139 139s-68 145 -145 145s-138 -62 -138 -139
s67 -145 144 -145z" />
    <glyph glyph-name="uniF601" unicode="&#xf601;" horiz-adv-x="485" 
d="M0 -18c0 0 12 291 274 291v116l211 -196l-211 -200v133c-142 0 -200 -13 -274 -144z" />
    <glyph glyph-name="uni2699" unicode="&#x2699;" horiz-adv-x="392" 
d="M355 192c0 -24 14 -44 37 -57c-4 -14 -9 -27 -16 -39c-25 7 -46 -4 -63 -21s-23 -38 -16 -63c-12 -7 -25 -13 -39 -17c-13 23 -38 38 -62 38s-49 -15 -62 -38c-14 4 -27 10 -39 17c7 25 1 46 -16 63s-38 23 -63 16c-7 12 -12 25 -16 39c23 13 38 38 38 62s-15 44 -38 57
c4 14 9 27 16 39c25 -7 46 3 63 20s23 39 16 64c12 7 25 12 39 16c13 -23 38 -38 62 -38s49 15 62 38c14 -4 27 -9 39 -16c-7 -25 -1 -47 16 -64s38 -27 63 -20c7 -12 12 -25 16 -39c-23 -13 -37 -33 -37 -57zM196 106c47 0 86 39 86 86s-39 85 -86 85s-85 -38 -85 -85
s38 -86 85 -86z" />
    <glyph glyph-name="uni2421" unicode="&#x2421;" 
d="M225 417c124 0 226 -102 226 -226s-102 -225 -226 -225s-225 101 -225 225s101 226 225 226zM337 125l-66 67l73 73l-46 47l-73 -74l-66 67l-47 -46l67 -67l-66 -67l46 -46l66 66l66 -66z" />
    <glyph glyph-name="uniE002" unicode="&#xe002;" 
d="M225 417c124 0 226 -102 226 -226s-102 -225 -226 -225s-225 101 -225 225s101 226 225 226zM312 194c23 39 42 75 42 75l-57 30s-23 -45 -50 -89c-13 -22 -28 -44 -39 -60l-2 -2c-25 26 -62 65 -62 65l-46 -44l42 -44c11 -11 21 -22 29 -30c4 -4 7 -7 9 -10
c1 -1 2 -3 3 -4c0 0 1 0 2 -1l1 -1l2 -2c1 0 1 -1 3 -2s4 -3 16 -4c23 2 27 11 35 17c23 23 48 66 72 106z" />
    <glyph glyph-name="uniE003" unicode="&#xe003;" horiz-adv-x="317" 
d="M317 326l-136 -136l136 -136l-23 -22l-136 135l-135 -135l-23 22l136 136l-136 136l23 22l135 -135l136 135z" />
    <glyph glyph-name="plus" unicode="+" horiz-adv-x="416" 
d="M416 224v-96h-160v-160h-97v160h-159v96h159v160h97v-160h160z" />
    <glyph glyph-name="hyphen" unicode="-" horiz-adv-x="417" 
d="M417 128h-417v96h417v-96z" />
    <glyph glyph-name="uniE9A1" unicode="&#xe9a1;" horiz-adv-x="378" 
d="M345 224c18 0 33 -14 33 -32s-15 -32 -33 -32h-312c-18 0 -33 14 -33 32s15 32 33 32h312zM33 288c-18 0 -33 14 -33 32s15 32 33 32h312c18 0 33 -14 33 -32s-15 -32 -33 -32h-312zM345 96c18 0 33 -14 33 -32s-15 -32 -33 -32h-312c-18 0 -33 14 -33 32s15 32 33 32
h312z" />
    <glyph glyph-name="uniE9A2" unicode="&#xe9a2;" horiz-adv-x="320" 
d="M160 381c18 0 32 -15 32 -33v-312c0 -18 -14 -33 -32 -33s-32 15 -32 33v312c0 18 14 33 32 33zM288 381c18 0 32 -15 32 -33v-312c0 -18 -14 -33 -32 -33s-32 15 -32 33v312c0 18 14 33 32 33zM32 381c18 0 32 -15 32 -33v-312c0 -18 -14 -33 -32 -33s-32 15 -32 33v312
c0 18 14 33 32 33z" />
    <glyph glyph-name="uniED50" unicode="&#xed50;" horiz-adv-x="450" 
d="M417 227c18 0 33 -15 33 -33s-15 -32 -33 -32h-224c-18 0 -33 14 -33 32s15 33 33 33h224zM193 290c-18 0 -33 14 -33 32s15 33 33 33h224c18 0 33 -15 33 -33s-15 -32 -33 -32h-224zM417 99c18 0 33 -15 33 -33s-15 -32 -33 -32h-224c-18 0 -33 14 -33 32s15 33 33 33
h224zM64 355c18 0 33 -15 33 -33s-15 -32 -33 -32h-31c-18 0 -33 14 -33 32s15 33 33 33h31zM64 99c18 0 33 -15 33 -33s-15 -32 -33 -32h-31c-18 0 -33 14 -33 32s15 33 33 33h31zM64 227c18 0 33 -15 33 -33s-15 -32 -33 -32h-31c-18 0 -33 14 -33 32s15 33 33 33h31z" />
    <glyph glyph-name="uniE004" unicode="&#xe004;" horiz-adv-x="510" 
d="M449 253c34 0 61 -27 61 -61s-27 -61 -61 -61s-61 27 -61 61s27 61 61 61zM61 253c34 0 61 -27 61 -61s-27 -61 -61 -61s-61 27 -61 61s27 61 61 61zM256 253c34 0 60 -27 60 -61s-26 -61 -60 -61s-61 27 -61 61s27 61 61 61z" />
    <glyph glyph-name="uni2922" unicode="&#x2922;" horiz-adv-x="448" 
d="M144 160l47 -47l-76 -76l68 -68h-183v183l68 -68zM448 416v-183l-68 68l-77 -77l-47 47l78 77l-69 68h183z" />
    <glyph glyph-name="uniEE01" unicode="&#xee01;" horiz-adv-x="385" 
d="M8 192v0h183v-183l-67 68l-77 -76l-47 47l77 76zM385 337l-78 -77l68 -68h-183v183l68 -68l77 77z" />
    <glyph glyph-name="uniE005" unicode="&#xe005;" horiz-adv-x="452" 
d="M238 289v-65l-109 1v-97l-129 129l129 130v-97zM452 129l-129 -130v97l-109 1v65l109 -1v97z" />
    <glyph glyph-name="uniE006" unicode="&#xe006;" horiz-adv-x="387" 
d="M162 204l-1 -109h98l-129 -130l-130 130h97v109h65zM258 417l129 -129h-97v-109h-65l1 109h-98z" />
    <glyph glyph-name="uni25B6" unicode="&#x25b6;" horiz-adv-x="334" 
d="M324 208l-286 177c-21 14 -38 3 -38 -23v-343c0 -26 17 -37 38 -23l286 177s10 8 10 18s-10 17 -10 17z" />
    <glyph glyph-name="uniE670" unicode="&#xe670;" horiz-adv-x="453" 
d="M447 406c-15 15 -30 0 -80 -24c-134 -64 -367 -194 -367 -194l200 -29l29 -200s130 233 194 367c24 50 39 65 24 80z" />
    <glyph glyph-name="u1F30D" unicode="&#x1f30d;" 
d="M225 417c124 0 226 -101 226 -225s-102 -225 -226 -225s-225 101 -225 225s101 225 225 225zM327 335c-2 -6 -4 -11 -9 -11c2 -10 20 -2 26 -3h1c-6 5 -12 9 -18 14zM225 16c95 0 172 75 176 169c0 0 -1 0 -1 1c-4 8 -8 16 -17 20c-7 3 -20 8 -22 3c-2 -4 4 -8 1 -13
c-2 -4 -14 -10 -19 -11c-15 -2 -13 4 -18 11c-6 9 -6 27 -15 25h-5c2 -3 2 -5 3 -10c2 -9 7 -22 13 -30s9 -1 17 -7c12 -9 -5 -20 -12 -30c-15 -21 -22 -36 -22 -36c-4 -9 -11 -27 -15 -35c-6 -14 -14 -25 -23 -25c-7 1 -13 0 -16 8c-3 7 -8 15 -9 22c-1 13 -3 25 -6 37
c-2 10 -5 20 -11 28c-7 10 -27 10 -39 12c-36 6 -49 55 -22 76c5 4 17 12 17 18c0 5 -5 5 -7 9c-3 6 -3 11 2 17c5 7 20 1 21 11s-9 9 -13 3c-7 -1 -14 2 -9 10c2 4 3 5 6 8c1 2 5 5 6 5c8 5 12 -8 14 -13c3 -7 7 -12 17 -5c14 9 -1 11 1 19c1 6 5 9 10 13c4 3 12 5 16 7
c3 2 5 4 8 6c13 7 23 5 34 1l4 -10c3 -5 11 3 15 5c5 2 10 4 16 5c-27 18 -61 28 -96 28c-10 0 -20 -1 -30 -3c0 -10 -8 -26 -17 -29c-12 -4 -27 6 -36 11c-12 -6 -23 -14 -33 -23l6 -5c6 -19 11 -35 -11 -46c-9 -5 -18 -10 -28 -15c-6 -3 -12 -8 -18 -11
c-6 -17 -9 -36 -9 -55c0 -3 1 -6 1 -9v1c12 -25 66 -16 72 -44c4 -16 -2 -27 -10 -40c-3 -5 -5 -21 -4 -27c1 -7 6 -11 7 -18c30 -24 68 -39 110 -39zM292 232c0 1 -1 1 -1 2c-6 11 -6 21 -24 15c-9 -3 -13 0 -20 8c-6 6 -10 6 -20 7c-6 0 -20 0 -23 -6
c-5 -10 22 -12 27 -14c9 -3 8 -12 18 -14c9 -2 7 -2 17 -2c9 0 21 5 26 4zM331 115l6 1c12 -7 -5 -31 -12 -37c-3 -3 -12 1 -14 5s2 11 4 14c2 5 9 18 16 17z" />
    <glyph glyph-name="u1F4AC" unicode="&#x1f4ac;" horiz-adv-x="480" 
d="M301 414c98 1 178 -77 179 -175s-77 -178 -175 -179h-42l-140 -97h-3h-2c-1 1 -2 2 -2 4l15 98c-75 20 -130 87 -131 168c-1 98 77 178 175 179z" />
    <glyph glyph-name="u1F464" unicode="&#x1f464;" horiz-adv-x="448" 
d="M16 -19c-6 1 -10 3 -13 8c-3 4 -3 9 -2 15c9 42 36 77 74 101c10 6 22 10 34 15c22 9 46 18 50 33c4 12 -6 29 -14 42c-41 64 -48 119 -21 164c21 35 58 55 99 55c42 0 80 -20 101 -55c27 -45 19 -100 -22 -164c-8 -13 -18 -30 -14 -42c4 -15 29 -24 51 -33
c12 -5 24 -9 34 -15c38 -24 65 -59 75 -101c1 -6 -1 -11 -4 -15c-3 -5 -7 -7 -13 -8c-2 -1 -59 -7 -208 -7s-205 6 -207 7z" />
    <glyph glyph-name="u1F465" unicode="&#x1f465;" horiz-adv-x="486" 
d="M13 -3c-5 1 -7 3 -10 7s-3 7 -2 12c7 34 29 61 59 80c8 5 17 8 27 12c17 7 36 14 40 26c3 10 -4 24 -11 34c-33 51 -39 95 -17 131c17 28 46 44 79 44s63 -16 80 -44c22 -36 16 -80 -17 -131c-7 -10 -14 -24 -11 -34c4 -12 24 -19 41 -26c10 -4 19 -7 27 -12
c30 -19 51 -46 59 -80c1 -5 1 -8 -2 -12s-6 -6 -11 -7c-2 -1 -47 -5 -166 -5s-163 4 -165 5zM484 69c-3 -4 -7 -6 -11 -7c-1 -1 -26 -4 -87 -6c-14 30 -38 56 -68 75c-11 6 -22 11 -33 15c-2 1 -5 2 -8 3c50 80 42 139 21 173c-14 24 -30 40 -54 51c17 22 34 35 64 35
c33 0 62 -16 79 -44c22 -36 17 -80 -16 -131c-7 -10 -15 -24 -12 -34c4 -12 23 -19 40 -26c10 -4 19 -7 27 -12c31 -19 53 -47 60 -80c1 -5 0 -8 -2 -12z" />
    <glyph glyph-name="uniE672" unicode="&#xe672;" horiz-adv-x="512" 
d="M501 218c14 -14 14 -38 0 -52l-219 -219c-14 -14 -38 -14 -52 0l-219 219c-14 14 -14 38 0 52l219 219c14 14 38 14 52 0zM286 131l117 96l-117 97v-65h-37c-39 0 -70 -31 -70 -70v-123h64v113c0 9 8 16 17 16h26v-64z" />
    <glyph glyph-name="uniE007" unicode="&#xe007;" horiz-adv-x="490" 
d="M471 101c25 -13 25 -32 0 -45l-181 -90c-13 -6 -29 -10 -45 -10s-32 4 -45 10l-181 90c-25 13 -25 32 0 45l31 16l135 -68c19 -9 40 -13 60 -13s41 4 60 13l135 68zM471 213c25 -13 25 -32 0 -45l-181 -90c-13 -6 -29 -10 -45 -10s-32 4 -45 10l-181 90
c-25 13 -25 32 0 45l31 16l135 -68c19 -9 40 -13 60 -13s41 4 60 13l135 68zM19 280c-25 13 -25 32 0 45l181 91c13 6 29 9 45 9s32 -3 45 -9l181 -91c25 -13 25 -32 0 -45l-181 -90c-13 -6 -29 -10 -45 -10s-32 4 -45 10z" />
    <glyph glyph-name="u1F4C5" unicode="&#x1f4c5;" horiz-adv-x="416" 
d="M356 356h13c28 0 47 -22 47 -50v-253c0 -28 -22 -51 -50 -51h-316c-28 0 -50 23 -50 51v253c0 28 22 50 50 50h11v-61h89v61h117v-61h89v61zM357 63v0v160h-296v-160h296zM128 416v0v-99h-46v99h46zM336 416v0v-98h-45v98h45z" />
    <glyph glyph-name="uniE048" unicode="&#xe048;" horiz-adv-x="447" 
d="M440 357c9 -9 9 -24 0 -34l-179 -179l-6 -3l-135 -48c-6 -2 -13 0 -17 4s-5 11 -3 17l49 133l4 6l177 177l1 1c9 9 25 9 34 0zM174 146l61 21l-3 22l-33 -1c-1 0 -2 0 -3 1s-2 2 -2 3l1 34l-19 2l-23 -62zM352 40v0v127l48 48v-196c0 -15 -12 -27 -27 -27h-346
c-15 0 -27 12 -27 27v346c0 15 12 27 27 27h197l-48 -48h-128v-304h304z" />
    <glyph glyph-name="u1F4F7" unicode="&#x1f4f7;" horiz-adv-x="464" 
d="M231 221c36 0 65 -30 65 -66s-29 -65 -65 -65s-65 29 -65 65s29 66 65 66zM449 265c22 -64 20 -161 0 -225c-10 -34 -40 -34 -40 -34h-354s-29 -1 -40 34c-20 63 -20 160 0 226c10 32 40 32 40 32h88c2 18 28 48 60 48h57c31 0 57 -30 59 -48h90s29 -1 40 -33zM231 53
c57 0 103 45 103 102s-46 103 -103 103s-102 -46 -102 -103s45 -102 102 -102z" />
    <glyph glyph-name="uni23F2" unicode="&#x23f2;" 
d="M226 419c125 0 225 -101 225 -226s-100 -226 -225 -226s-226 101 -226 226s101 226 226 226zM226 26c92 0 166 75 166 167s-74 167 -166 167s-167 -75 -167 -167s75 -167 167 -167zM244 320v-119l69 -71l-26 -26l-80 81v135h37z" />
    <glyph glyph-name="uni2316" unicode="&#x2316;" horiz-adv-x="508" 
d="M254 448c140 0 254 -114 254 -254s-114 -254 -254 -254s-254 114 -254 254s114 254 254 254zM285 4c81 13 146 77 159 158h-95v64h95c-14 81 -77 145 -158 158v-95h-65v94c-80 -14 -144 -77 -157 -157h93v-64h-93c13 -81 77 -144 158 -158v96h63v-96z" />
    <glyph glyph-name="uni2709" unicode="&#x2709;" horiz-adv-x="452" 
d="M449 320v-256l-117 128zM0 352h452l-217 -203zM132 192l-131 -128v256zM242 96l68 71l142 -135h-452l151 134z" />
    <glyph glyph-name="u1F511" unicode="&#x1f511;" horiz-adv-x="442" 
d="M397 364c59 -59 59 -156 0 -215c-44 -44 -108 -55 -162 -34l-26 -26l-77 20l21 -75l-16 -16l-40 6l7 -39l-18 -18l-75 10l-11 76l149 148c-21 54 -10 119 34 163c59 59 155 59 214 0zM369 234c17 17 8 54 -20 82s-64 37 -81 20s-8 -53 20 -81s64 -38 81 -21z" />
    <glyph glyph-name="uniE008" unicode="&#xe008;" horiz-adv-x="448" 
d="M425 392c36 -36 23 -177 9 -206c-16 -35 -121 -142 -207 -214c-4 -4 -10 -5 -16 -5c-11 0 -15 4 -23 8c-17 9 -67 37 -105 75c-33 32 -57 73 -70 95c-8 15 -20 34 -8 49c69 88 180 189 215 206c18 8 65 15 108 15c34 0 78 -4 97 -23zM306 171c6 0 8 7 4 14
c-5 9 -12 18 -20 28l15 16c4 4 2 12 -4 18l-10 10c-6 6 -14 7 -18 3l-15 -15c-28 22 -54 29 -73 9c-22 -23 -8 -51 16 -85c15 -21 18 -27 10 -36c-8 -7 -18 -6 -36 11c-11 11 -21 24 -28 38c-4 7 -12 12 -17 11l-13 -2c-6 -1 -8 -8 -4 -15c7 -13 17 -27 30 -41l-15 -14
c-4 -4 -1 -12 5 -18l10 -10c6 -6 13 -8 17 -4l15 15c35 -29 61 -29 79 -11c25 25 5 56 -19 89c-14 21 -16 25 -9 33c6 6 16 5 29 -8c10 -9 16 -18 21 -26c4 -7 11 -12 18 -12zM382 290c15 16 13 42 -3 57c-16 14 -41 13 -56 -3s-13 -42 3 -57c16 -14 41 -13 56 3z" />
    <glyph glyph-name="u1F4EE" unicode="&#x1f4ee;" horiz-adv-x="320" 
d="M161 393c105 0 159 -27 159 -58v-287c0 -46 -32 -47 -32 -47h-256s-32 1 -32 46v289c0 32 56 57 161 57zM183 133l67 67l-23 24h-134zM288 256v32h-256v-32h256z" />
    <glyph glyph-name="u1F4DE" unicode="&#x1f4de;" horiz-adv-x="380" 
d="M262 145c3 3 5 6 10 6c2 0 8 -3 8 -3l93 -47c5 -3 7 -7 7 -12c-2 -23 -11 -46 -26 -61c-17 -17 -41 -26 -69 -26c-57 0 -131 36 -190 95c-89 89 -123 208 -71 260c15 15 40 23 63 25c5 0 9 -3 12 -8l52 -93c1 -2 2 -4 2 -7c0 -4 -2 -8 -5 -11l-40 -40
c-4 -5 -5 -12 -2 -17c11 -19 27 -39 44 -55c17 -17 37 -33 55 -44c5 -3 12 -3 17 2z" />
    <glyph glyph-name="uni2399" unicode="&#x2399;" horiz-adv-x="479" 
d="M32 262c-14 0 -12 15 -5 17s85 31 98 31h22v74h185v-74h22c13 0 91 -29 98 -31s9 -17 -5 -17h-415zM452 235c13 0 27 -17 27 -30v-85c0 -13 -14 -29 -27 -29h-48l21 -123h-371l21 123h-48c-13 0 -27 16 -27 29v85c0 13 14 30 27 30h425zM103 17h273l-34 159h-205z" />
    <glyph glyph-name="u1F4CF" unicode="&#x1f4cf;" horiz-adv-x="480" 
d="M450 319c17 0 30 -14 30 -31v-194c0 -17 -13 -31 -30 -31h-420c-17 0 -30 14 -30 31v194c0 17 13 31 30 31h420zM415 128v96h-30v-65h-66v33h-30v-33h-98v33h-30v-33h-67v64h-30v-95h351z" />
    <glyph glyph-name="uni2139" unicode="&#x2139;" 
d="M226 419c125 0 225 -101 225 -226s-100 -226 -225 -226s-226 101 -226 226s101 226 226 226zM225 325c-20 0 -36 -16 -36 -36s16 -36 36 -36s36 16 36 36s-16 36 -36 36zM288 64v34h-30v123h-95v-27h29v-96h-29v-34h125z" />
    <glyph glyph-name="uniE051" unicode="&#xe051;" horiz-adv-x="245" 
d="M184 35h36c-31 -66 -74 -99 -129 -99c-22 0 -39 5 -50 14s-17 24 -17 42c0 11 5 30 14 57l43 125c3 10 5 16 5 19s-1 5 -2 6s-3 2 -6 2c-12 0 -26 -16 -43 -47h-35c31 67 74 101 131 101c20 0 36 -5 47 -15s16 -23 16 -40c0 -13 -4 -33 -14 -60l-42 -114
c-6 -16 -9 -26 -9 -30c0 -3 0 -5 2 -6s4 -2 7 -2c6 0 14 5 24 16s17 21 22 31zM245 391c0 -15 -6 -29 -17 -40s-25 -17 -40 -17s-28 6 -39 17s-17 25 -17 40c0 16 6 28 17 39s24 17 39 17s29 -6 40 -17s17 -23 17 -39z" />
    <glyph glyph-name="uni26A0" unicode="&#x26a0;" horiz-adv-x="454" 
d="M447 70c9 -16 10 -36 1 -52s-27 -26 -45 -26h-352c-18 0 -35 10 -44 26s-9 36 0 52l176 296c9 16 26 26 44 26s35 -9 44 -25zM227 283c-18 0 -38 -14 -38 -32c0 0 13 -52 16 -72c4 -30 15 -30 22 -30s18 1 22 30l16 72c0 18 -20 32 -38 32zM228 39c22 0 40 18 40 40
s-18 40 -40 40s-40 -18 -40 -40s18 -40 40 -40z" />
    <glyph glyph-name="uniE009" unicode="&#xe009;" horiz-adv-x="454" 
d="M198 233c0 14 16 26 30 26s30 -12 30 -26l-12 -57c-3 -24 -13 -24 -18 -24c-6 0 -15 0 -18 24c-2 16 -12 57 -12 57zM447 70c9 -16 10 -36 1 -52s-27 -26 -45 -26h-352c-18 0 -35 10 -44 26s-9 36 0 52l176 296c9 16 26 26 44 26s35 -9 44 -25zM51 44h352l-176 296z
M229 127c18 0 32 -14 32 -32s-14 -32 -32 -32s-32 14 -32 32s14 32 32 32z" />
    <glyph glyph-name="uni2708" unicode="&#x2708;" horiz-adv-x="435" 
d="M295 -40l-80 26l-79 -25v39s47 41 48 42v95l-184 -63v66l184 116l1 104s-1 43 32 43c30 0 30 -43 30 -43v-105l188 -114v-67l-188 63v-94l48 -43v-40z" />
    <glyph glyph-name="u1F68D" unicode="&#x1f68d;" horiz-adv-x="403" 
d="M314 358c49 0 89 -40 89 -87v-224c0 -32 -25 -32 -25 -32v-17s-1 -30 -33 -30s-33 30 -33 30v17h-223v-17s1 -30 -32 -30c-32 0 -32 30 -32 30v17s-25 0 -25 32v224c0 47 40 87 88 87c91 1 111 0 226 0zM42 255v-111h319v112c0 31 -32 32 -32 32h-256s-31 -2 -31 -33z
M73 46c18 0 32 14 32 32s-14 32 -32 32s-32 -14 -32 -32s14 -32 32 -32zM330 46c18 0 32 14 32 32s-14 32 -32 32s-32 -14 -32 -32s14 -32 32 -32z" />
    <glyph glyph-name="u1F686" unicode="&#x1f686;" horiz-adv-x="403" 
d="M331 342c46 0 72 -25 72 -74v-238s-2 -32 -27 -32h-31v-30h-85l-1 30h-116v-30h-85l-1 30h-33c-25 0 -24 31 -24 31v242c0 46 26 71 74 71c25 0 27 1 64 1v40h-24v30h174v-30h-23v-41h66zM169 383v-40c23 0 44 -1 64 -1v41h-64zM90 48c18 0 32 14 32 32s-14 32 -32 32
s-32 -14 -32 -32s14 -32 32 -32zM186 200v85h-114c-30 0 -30 -30 -30 -30v-55h144zM312 48c18 0 32 14 32 32s-14 32 -32 32s-32 -14 -32 -32s14 -32 32 -32zM361 200v55s0 30 -33 30h-110v-85h143z" />
    <glyph glyph-name="u1F68A" unicode="&#x1f68a;" horiz-adv-x="353" 
d="M306 318c26 -51 47 -126 47 -174v-80c0 -78 -48 -96 -83 -96h-142h15c-1 4 -2 7 -2 11c0 20 17 36 37 36s36 -16 36 -36c0 -4 -1 -8 -2 -11h18c1 4 1 7 1 11c0 30 -23 53 -53 53s-54 -23 -54 -53c0 -4 0 -7 1 -11h-26c-33 0 -99 17 -99 99c0 47 1 42 1 75
c0 50 20 131 45 176c11 20 42 34 68 34v34h-25v32h176v-32h-25v-35v0c21 0 53 -8 66 -33zM144 386v-34c22 0 43 -1 66 -1v35h-66zM75 289c-35 -46 -27 -130 -27 -130h32v135c-2 -1 -4 -3 -5 -5zM105 40v0v2c6 6 9 13 9 22s-3 16 -9 22v3h-5c-5 4 -11 7 -18 7s-14 -3 -19 -7
h-7v-8c-4 -5 -6 -10 -6 -17s2 -13 6 -18v-6h5c6 -5 13 -8 21 -8s15 3 21 8h2zM113 159h128v145c-9 1 -18 2 -29 2c-18 0 -49 -1 -69 -1c-12 0 -21 0 -30 -1v-145zM297 44c4 6 7 12 7 20s-3 14 -7 20v5h-6c-5 4 -12 7 -19 7s-13 -3 -18 -7h-6v-5c-4 -6 -8 -12 -8 -20
s4 -14 8 -20v-4h3c6 -5 13 -8 21 -8s15 3 21 8h4v4zM306 159c0 0 6 82 -29 131c-1 2 -2 3 -4 4v-135h33z" />
    <glyph glyph-name="u1F687" unicode="&#x1f687;" horiz-adv-x="449" 
d="M224 418c128 0 225 -112 225 -256v-148s-3 -46 -47 -46h-67v0c35 0 67 19 67 97v63c0 48 -21 125 -49 175c-10 19 -49 16 -70 16h-116c-26 0 -58 4 -69 -17c-25 -45 -50 -126 -50 -176c0 -33 -1 -12 -1 -59c0 -65 32 -91 61 -98h-61c-46 0 -47 47 -47 47v146
c1 144 99 256 224 256zM352 62c0 -18 -14 -32 -32 -32s-32 14 -32 32s14 32 32 32s32 -14 32 -32zM195 127c-29 0 -48 4 -56 16c-30 49 -25 127 -25 127h223s6 -80 -24 -126c-8 -13 -27 -16 -58 -16c-18 0 -44 -1 -60 -1zM130 94c18 0 32 -14 32 -32s-14 -32 -32 -32
s-32 14 -32 32s14 32 32 32zM226 31c30 0 53 -23 53 -53c0 -4 0 -8 -1 -11h-18c1 3 2 7 2 11c0 20 -16 36 -36 36s-37 -16 -37 -36c0 -4 1 -8 2 -11h-18c-1 3 -1 8 -1 11c0 30 24 53 54 53z" />
    <glyph glyph-name="uni26F4" unicode="&#x26f4;" horiz-adv-x="396" 
d="M124 17c-88 59 -151 198 -113 198c10 0 27 5 47 12c-16 30 -33 67 -33 77c0 15 67 46 130 56v31s21 7 42 7c22 0 45 -7 45 -7v-33c63 -12 129 -43 129 -54c0 -8 -18 -45 -34 -77c21 -7 38 -12 48 -12c25 0 5 -63 -37 -122v0l-1 -1c-21 -29 -46 -56 -75 -75
c-28 7 -63 80 -63 80v144c0 20 -22 18 -22 1v-145s-30 -73 -63 -80zM66 290c0 -6 11 -30 21 -52c-5 -2 109 47 109 47s60 -27 114 -48c11 22 23 48 23 54c0 11 -79 41 -137 41s-130 -30 -130 -42zM273 -8c39 0 85 81 85 81s10 -25 25 -48v-44c-14 17 -25 33 -25 33
s-23 -27 -47 -48h-72c-21 23 -41 54 -41 54s-19 -32 -40 -54h-73c-23 21 -44 51 -44 51s-14 -29 -31 -51h-2v40c20 25 32 67 32 67s45 -81 83 -81c11 0 23 7 33 18c24 26 43 66 43 66s22 -48 49 -73v0c8 -7 16 -11 25 -11z" />
    <glyph glyph-name="u1F698" unicode="&#x1f698;" horiz-adv-x="415" 
d="M415 108c0 -31 -26 -46 -40 -51v0v-47c0 -32 -53 -32 -53 0v39c-79 -9 -150 -8 -231 0v-39c0 -32 -53 -32 -53 0v46c-12 5 -38 26 -38 55v74s46 62 46 62s0 32 2 72s42 64 70 64h172c36 0 74 -29 77 -67s3 -71 3 -71s45 -25 45 -69v-68zM73 111c20 0 37 16 37 36
s-17 36 -37 36s-36 -16 -36 -36s16 -36 36 -36zM85 237h245v55c0 30 -23 50 -42 50h-164c-25 0 -39 -18 -39 -50v-55zM342 111c20 0 36 16 36 36s-16 36 -36 36s-36 -16 -36 -36s16 -36 36 -36z" />
    <glyph glyph-name="u1F6B2" unicode="&#x1f6b2;" horiz-adv-x="488" 
d="M390 225c54 0 98 -44 98 -98s-44 -98 -98 -98s-97 44 -97 98c0 27 10 51 28 69v0l-16 24l-42 -98c0 -1 -1 -2 -2 -3l-1 -1c-1 -2 -3 -4 -5 -5v0c-1 -1 -2 -1 -3 -1s0 -1 -1 -1c-2 0 -4 -1 -6 -1v0h-51v0c-8 -46 -48 -81 -96 -81c-54 0 -98 44 -98 98s44 98 98 98
c8 0 16 -2 24 -4l21 44l-21 35h-19c-11 0 -19 8 -19 19s8 19 19 19h71c11 0 19 -8 19 -19s-8 -19 -19 -19h-8l12 -20h104v34h-20v0c-11 0 -19 9 -19 20s8 19 19 19h20s38 0 38 -38v-49l33 -49v0c12 5 24 8 37 8zM98 69c32 0 57 26 57 58s-25 58 -57 58s-58 -26 -58 -58
s26 -58 58 -58zM149 210v0v0zM193 149v-1h19l-46 77l-9 -20v0c18 -14 31 -33 36 -56v0zM195 138v0v0zM242 172l30 69h-71zM390 69c32 0 58 26 58 58s-26 58 -58 58s-57 -26 -57 -58s25 -58 57 -58z" />
    <glyph glyph-name="u1F6B4" unicode="&#x1f6b4;" horiz-adv-x="488" 
d="M98 168c54 0 98 -44 98 -98s-44 -97 -98 -97s-98 43 -98 97s44 98 98 98zM98 13c32 0 57 25 57 57s-25 58 -57 58s-58 -26 -58 -58s26 -57 58 -57zM290 315c-22 0 -41 19 -41 41s19 41 41 41s41 -19 41 -41s-19 -41 -41 -41zM390 168c54 0 98 -44 98 -98s-44 -97 -98 -97
s-97 43 -97 97s43 98 97 98zM390 13c32 0 58 25 58 57s-26 58 -58 58s-57 -26 -57 -58s25 -57 57 -57zM271 173c0 -32 2 -57 2 -81s1 -47 -2 -59s-11 -12 -18 -12s-22 3 -26 12s-2 23 -2 41v66c-21 11 -36 21 -51 30s-28 15 -36 24s-10 15 -10 24s-2 16 5 26s12 14 25 27
s33 36 45 45c12 10 18 12 26 12s16 -6 23 -12s11 -11 18 -23s25 -29 46 -47c19 0 32 -2 43 -4c10 -2 17 -5 19 -11s1 -17 -9 -21s-38 -1 -50 -1c-13 0 -19 0 -25 3s-23 12 -28 19s-17 9 -24 21l-34 -39z" />
    <glyph glyph-name="u1F6B6" unicode="&#x1f6b6;" horiz-adv-x="272" 
d="M153 324c-24 0 -43 19 -43 43s19 43 43 43s43 -19 43 -43s-19 -43 -43 -43zM257 194c16 0 17 -17 12 -26c-6 -10 -15 -10 -23 -10c-36 0 -60 13 -76 30c-4 -16 -9 -34 -9 -34l46 -65l27 -74c7 -14 7 -30 -7 -38c-2 -1 -2 -1 -4 -1s-5 -1 -7 -1c-10 0 -21 5 -26 15l-33 71
l-33 48l-63 -126c-9 -12 -22 -15 -35 -6s-7 31 2 44l28 64s11 29 14 60c3 24 6 51 10 75c-17 -13 -36 -32 -55 -63c-3 -5 -9 -5 -14 -4c-2 1 -7 4 -8 6c-4 6 -4 15 2 27c40 81 93 103 111 108c4 2 8 2 13 3c20 3 50 -8 52 -22c0 -2 1 -5 1 -8c4 -22 20 -72 75 -73z" />
    <glyph glyph-name="uniE00A" unicode="&#xe00a;" horiz-adv-x="507" 
d="M226 301c-22 0 -41 19 -41 41s19 40 41 40s40 -18 40 -40s-18 -41 -40 -41zM462 118c-19 -34 -56 -38 -56 -38h-406c11 75 61 102 61 102h5c-1 3 -3 6 -4 10c-5 17 3 37 15 49c14 14 27 28 41 42c10 11 23 25 38 29c18 5 35 -11 44 -25c10 -15 38 -46 46 -48
c3 -1 32 11 42 10c15 -1 23 -23 9 -31c-21 -12 -63 -19 -71 -16s-41 27 -48 36c-12 -13 -23 -24 -35 -37c20 -5 41 -7 57 -17c4 -3 7 -4 9 -7c26 -1 47 -2 52 -2c18 0 38 4 49 22s36 53 36 53s48 -15 82 -41c45 -35 49 -64 34 -91zM507 98c0 0 2 -50 -9 -65
c0 0 -9 -31 -73 -31h-2h-150c-24 0 -22 24 -22 24s0 20 22 20h150c42 0 58 19 84 52zM53 2c-42 0 -51 44 -51 44h218s-4 -44 -55 -44h-112z" />
    <glyph glyph-name="uniE00B" unicode="&#xe00b;" horiz-adv-x="512" 
d="M290 331c-24 0 -43 20 -43 44s19 43 43 43s43 -19 43 -43s-19 -44 -43 -44zM103 186l-95 48c-7 3 -10 11 -7 17s12 10 18 7l90 -46l-1 -1c-4 -9 -5 -18 -5 -25zM501 33c9 -3 13 -14 10 -23c-10 -24 -34 -43 -63 -43h-427c-10 0 -17 7 -17 17s7 18 17 18h103h1l52 93
s18 26 25 57c6 27 11 59 16 86c-20 -11 -44 -31 -66 -67c-3 -5 -9 -5 -14 -4c-2 1 -7 4 -8 6c-4 6 -4 15 2 27c48 98 122 103 122 103l1 -1c4 1 7 3 11 3c14 2 31 -3 42 -10h1l3 -3v0c10 -9 47 -37 105 -38c12 0 15 -9 14 -18c0 -2 0 -4 -1 -6l-66 -177l15 -51h69
c13 0 27 10 31 21v0c3 9 13 13 22 10zM317 2l4 12l-20 59l-40 43s-57 -83 -79 -114h135zM351 100l1 -5l47 125c-36 1 -64 7 -84 14c-1 -6 -2 -13 -4 -20c-3 -15 -13 -52 -13 -52z" />
    <glyph glyph-name="uniE00C" unicode="&#xe00c;" horiz-adv-x="473" 
d="M104 179c-21 6 -33 29 -33 58c0 12 3 25 7 38c14 40 43 68 70 68c4 0 8 0 11 -1c11 -3 19 -12 25 -24c-10 -8 -18 -19 -23 -32c-9 -25 -15 -63 -18 -99c-13 -7 -26 -12 -39 -8zM251 328c-24 0 -43 20 -43 44s19 43 43 43s44 -19 44 -43s-20 -44 -44 -44zM462 34
c9 -3 13 -13 10 -22c-10 -24 -34 -44 -63 -44h-392c-10 0 -17 8 -17 18s7 17 17 17h97l40 89s6 26 10 57c10 40 14 91 25 122c7 20 21 29 38 31c14 2 32 -3 43 -10v0l3 -3v0c10 -9 47 -37 105 -38c12 0 16 -10 14 -19c0 -2 1 -3 0 -5l-67 -177l14 -47h70c13 0 27 10 31 21v0
c3 9 13 13 22 10zM279 3l4 8l-21 59l-40 43s-33 -76 -48 -110h105zM312 97l1 -5l47 125c-36 1 -64 7 -84 14c-1 -6 -1 -13 -3 -20c-3 -15 -13 -52 -13 -52z" />
    <glyph glyph-name="uni26F7" unicode="&#x26f7;" horiz-adv-x="432" 
d="M355 315c-22 11 -30 38 -19 60s37 30 59 19s31 -37 20 -59s-38 -31 -60 -20zM76 341c-6 3 -8 12 -5 18s12 9 18 5l9 -5c7 8 16 11 21 8s6 -12 3 -22l76 -42c1 0 2 2 2 2c4 3 36 25 61 29c48 8 54 -6 66 -39c5 -14 7 -40 12 -55l40 -21c11 -6 16 -19 10 -30
c-1 -2 -2 -4 -3 -5v0c-3 -5 -8 -7 -13 -7c-2 0 -3 1 -5 2l-258 143c-8 -9 -16 -13 -22 -10s-7 13 -3 24zM286 259l-4 -3l6 -3c-1 2 -1 4 -2 6zM429 -9c6 -8 5 -18 -3 -24c-21 -16 -52 -19 -77 -4l-341 210c-8 5 -10 16 -5 24s15 11 23 6l152 -94c1 2 1 3 2 5l45 51
c-32 18 -63 37 -70 60c-6 20 1 37 11 50l76 -42l-7 -4s32 -29 42 -46c5 -9 4 -20 -1 -29c-17 -27 -36 -50 -55 -69c-1 -1 -1 0 -2 -1l148 -92c11 -7 29 -5 38 2v0c8 6 18 5 24 -3z" />
    <glyph glyph-name="u1F6B9" unicode="&#x1f6b9;" horiz-adv-x="273" 
d="M139 345c-28 0 -51 23 -51 51s23 51 51 51s51 -23 51 -51s-23 -51 -51 -51zM273 143c0 -4 3 -20 -12 -25c-12 -4 -22 3 -25 15c-6 25 -19 81 -32 93c-2 -29 2 -69 4 -90c3 -35 17 -161 17 -175c0 -13 -10 -25 -26 -25c-14 0 -22 7 -26 21c-5 18 -20 139 -36 139
s-31 -121 -36 -139c-4 -14 -13 -21 -27 -21c-16 0 -25 12 -25 25c0 14 14 140 17 175c2 21 5 61 3 90c-13 -12 -26 -68 -32 -93c-3 -12 -12 -19 -24 -15c-15 5 -13 21 -13 25c4 47 23 143 70 163c15 6 36 12 67 12c32 0 52 -6 67 -12c47 -19 65 -116 69 -163z" />
    <glyph glyph-name="uni26BD" unicode="&#x26bd;" horiz-adv-x="496" 
d="M342 278c14 -11 32 -32 32 -32s-3 -30 -8 -47s-18 -41 -18 -41s-20 -1 -44 0s-48 5 -48 5s-8 28 -14 45s-14 46 -14 46s23 19 37 28s38 23 38 23s25 -16 39 -27zM248 440c137 0 248 -111 248 -248s-111 -248 -248 -248s-248 111 -248 248s111 248 248 248zM402 95
c12 3 19 6 23 8c14 27 21 57 21 89c0 5 -1 11 -1 16l-21 47l-8 42c-21 34 -51 61 -88 77c-4 0 -9 -1 -15 -2c-18 -3 -25 -5 -25 -5s-19 7 -40 11s-44 5 -44 5l2 3c-41 -9 -77 -31 -104 -61l1 1c14 7 33 13 33 13l10 -67l-57 -68s-19 5 -26 11c-4 3 -7 7 -10 11
c-2 -11 -3 -23 -3 -34c0 -50 18 -95 48 -130c0 0 1 14 5 28s11 28 11 28l85 -20l33 -72s-14 -9 -29 -14c-9 -3 -18 -4 -25 -5c22 -8 45 -13 70 -13c28 0 54 6 78 16l-11 13s20 15 34 32s24 35 24 35s13 1 29 5z" />
    <glyph glyph-name="uniE050" unicode="&#xe050;" horiz-adv-x="507" 
d="M507 77c0 -2 -1 -3 -2 -5v-6l-4 1c-5 -6 -12 -9 -19 -9h-5l-83 18c2 -20 7 -52 11 -79c4 -26 -24 -31 -33 -2c-11 34 -18 69 -23 91l-96 21l66 -139h-151l68 142l-86 19c-15 -17 -37 -43 -61 -66c-22 -21 -44 -4 -28 17c15 19 31 43 43 59l-84 18c-14 3 -22 16 -19 30
c2 9 8 15 16 18c26 36 89 123 113 118c23 -5 32 -98 35 -146l197 -43c26 41 77 116 99 109c21 -6 35 -96 41 -145c4 -6 7 -13 5 -21zM182 322c-27 0 -49 22 -49 49s22 48 49 48s48 -21 48 -48s-21 -49 -48 -49zM437 261c-27 0 -48 21 -48 48s21 49 48 49s49 -22 49 -49
c0 -6 -1 -11 -3 -16c-3 -10 -8 -18 -17 -23c-8 -6 -18 -9 -29 -9z" />
    <glyph glyph-name="u1F337" unicode="&#x1f337;" horiz-adv-x="506" 
d="M270 240v-224h2v3c13 13 20 32 31 46c7 10 19 19 29 27l17 17c41 30 89 53 157 38v-4c-11 -12 -21 -41 -30 -56c-30 -47 -74 -94 -124 -120c-15 -8 -33 -14 -50 -19c-120 -33 -215 60 -258 122c-14 20 -40 50 -44 77h3c15 11 67 6 84 0c48 -17 87 -47 115 -85
c10 -14 27 -27 32 -46h1v224c-64 -1 -114 25 -131 71c-7 20 -3 54 -3 79c0 18 0 37 3 51c4 2 6 3 13 3c21 -22 51 -41 68 -67c1 1 0 1 1 2c11 8 21 22 29 33c11 11 21 21 31 32h13c20 -21 45 -42 60 -67l2 2c21 14 49 64 77 65c9 -15 6 -44 6 -68v-52
c-14 -56 -64 -84 -134 -84z" />
    <glyph glyph-name="heart" unicode="&#x2665;" horiz-adv-x="479" 
d="M439 375c158 -146 -199 -406 -199 -406s-358 260 -200 406c91 84 200 -30 200 -30s108 114 199 30z" />
    <glyph glyph-name="uniE00D" unicode="&#xe00d;" horiz-adv-x="455" 
d="M224 330c0 0 16 2 37 -19c48 -48 127 -123 127 -123v-220h-318l-2 218s72 76 120 125c21 22 36 19 36 19zM292 62l2 98h-130v-99zM375 311l-62 64l-1 40l63 1v-105zM449 207c19 -19 -10 -41 -24 -27l-153 153c-25 25 -45 21 -45 21s-22 2 -46 -22l-151 -151
c-15 -15 -41 11 -25 27c19 19 90 89 151 150c37 37 73 33 73 33s33 4 71 -34c60 -60 130 -131 149 -150z" />
    <glyph glyph-name="u1F3E2" unicode="&#x1f3e2;" horiz-adv-x="319" 
d="M160 447l159 -63v-448h-127v129h-64v-129h-128v444zM128 128v65h-65v-65h65zM128 256v65h-65v-65h65zM256 128v65h-65v-65h65zM256 256v65h-65v-65h65z" />
    <glyph glyph-name="uniE010" unicode="&#xe010;" horiz-adv-x="465" 
d="M0 378l213 -116l252 112l-124 -329l-263 -65z" />
    <glyph glyph-name="uniE011" unicode="&#xe011;" horiz-adv-x="509" 
d="M418 369c50 0 91 -41 91 -91s-41 -91 -91 -91c-3 0 -5 1 -8 1l-96 -194c-5 -10 -15 -17 -27 -18h-2c-11 0 -21 6 -27 15l-110 179l-97 -127l-51 39l126 163c6 8 16 14 26 13s20 -6 26 -15l104 -169l70 142c-16 16 -25 38 -25 62c0 50 41 91 91 91z" />
    <glyph glyph-name="uniF500" unicode="&#xf500;" horiz-adv-x="353" 
d="M353 129l-51 -52l-125 125l-125 -125l-52 52l125 125v0l51 52l1 -1v1l52 -52h-1z" />
    <glyph glyph-name="uni25BB" unicode="&#x25bb;" horiz-adv-x="228" 
d="M228 192v-1v0l-51 -51v0l-125 -125l-52 51l125 125l-125 126l52 51l125 -125v0z" />
    <glyph glyph-name="uniF501" unicode="&#xf501;" horiz-adv-x="353" 
d="M353 254l-125 -125h1l-52 -51v0h-1l-51 51v0l-125 125l52 52l125 -125l125 125z" />
    <glyph glyph-name="uni25C5" unicode="&#x25c5;" horiz-adv-x="229" 
d="M229 317l-126 -126l126 -125l-52 -51l-125 125v0l-52 51v0v1l52 51v0l125 125z" />
    <glyph glyph-name="uniE046" unicode="&#xe046;" horiz-adv-x="368" 
d="M38 364l170 -171l-172 -171l-36 36l137 135l-135 136zM198 364l170 -171l-172 -171l-36 36l136 135l-134 136z" />
    <glyph glyph-name="uniE047" unicode="&#xe047;" horiz-adv-x="368" 
d="M368 328l-137 -135l135 -136l-36 -35l-170 171l172 171zM208 328l-137 -135l135 -136l-36 -35l-170 171l172 171z" />
    <glyph glyph-name="uni25BE" unicode="&#x25be;" horiz-adv-x="328" 
d="M0 256h328l-165 -157z" />
    <glyph glyph-name="uniE020" unicode="&#xe020;" horiz-adv-x="434" 
d="M434 223l-64 -65l38 -84l-91 -8l-24 -89l-76 53l-75 -53l-24 89l-92 8l39 84l-65 65l83 39l-8 91l89 -23l53 75l53 -75l89 23l-8 -91zM218 60c70 0 126 56 126 126s-56 126 -126 126s-126 -56 -126 -126s56 -126 126 -126zM218 278c51 0 91 -41 91 -92s-40 -92 -91 -92
s-92 41 -92 92s41 92 92 92z" />
    <glyph glyph-name="uniE021" unicode="&#xe021;" horiz-adv-x="434" 
d="M434 223l-64 -65l38 -84l-91 -8l-24 -89l-76 53l-75 -53l-24 89l-92 8l39 84l-65 65l83 39l-8 91l89 -23l53 75l53 -75l89 23l-8 -91zM292 96l68 6l-29 62l49 49l-63 29l6 69l-66 -18l-40 56l-39 -56l-67 18l6 -69l-62 -29l48 -49l-29 -62l69 -6l18 -66l38 26l18 13
l57 -40z" />
    <glyph glyph-name="uniE022" unicode="&#xe022;" horiz-adv-x="434" 
d="M434 223l-64 -65l38 -84l-91 -8l-24 -89l-69 48l-7 5l-75 -53l-24 89l-92 8l39 84l-65 65l83 39l-8 91l89 -23l53 75l8 -11l45 -64l89 23l-8 -91zM292 96l68 6l-29 62l49 49l-63 29l6 69l-66 -18l-32 46v-28c-2 0 -5 1 -7 1c-70 0 -126 -56 -126 -126s56 -126 126 -126
c2 0 5 1 7 1v2l49 -34zM126 186c0 51 41 92 92 92c2 0 5 -1 7 -1v-182c-2 0 -5 -1 -7 -1c-51 0 -92 41 -92 92z" />
    <glyph glyph-name="uniE023" unicode="&#xe023;" horiz-adv-x="400" 
d="M277 225c0 0 -211 -138 -199 -220c0 0 -69 93 -76 115c-7 25 4 44 21 71c14 22 178 154 178 154l-28 39h227l-93 -202zM101 -14c-54 55 173 188 173 188l65 -108s-201 -118 -238 -80z" />
    <glyph glyph-name="uniE024" unicode="&#xe024;" horiz-adv-x="416" 
d="M200 184v0v0zM390 366c15 -3 26 -17 26 -32v-320c0 -16 -11 -29 -27 -31c0 0 -42 -6 -104 -10v155h65v56h-65v30c0 13 8 26 25 26h33l1 63s-32 2 -64 1c-47 -1 -79 -27 -80 -72v-48h-50l-1 -55l52 -1v-158c-99 1 -174 13 -174 13c-16 2 -27 15 -27 31v320
c0 15 11 29 26 32c0 0 76 16 182 16s182 -16 182 -16z" />
    <glyph glyph-name="uniE025" unicode="&#xe025;" horiz-adv-x="260" 
d="M176 261l84 1v-73h-84v-221h-109v222h-67v72h65c0 -2 1 0 1 0h-1v61c1 59 44 92 105 94c41 1 82 -1 82 -1v-82h-44c-21 0 -32 -17 -32 -34v-39z" />
    <glyph glyph-name="uniE026" unicode="&#xe026;" horiz-adv-x="453" 
d="M453 338v0c-12 -19 -28 -35 -46 -48v-12c0 -123 -94 -264 -265 -264c-53 0 -101 16 -142 42c7 -1 15 -2 22 -2c44 0 84 15 116 40c-41 1 -75 28 -87 65c6 -1 11 -2 17 -2c8 0 17 1 25 3c-42 9 -75 46 -75 91v1c13 -7 27 -11 42 -11c-25 17 -41 45 -41 77c0 17 5 33 13 47
c46 -56 114 -93 191 -97c-2 7 -2 14 -2 21c0 51 42 93 93 93c27 0 50 -12 67 -30c21 4 41 12 59 23c-7 -22 -21 -40 -40 -51c19 2 36 7 53 14z" />
    <glyph glyph-name="uniE027" unicode="&#xe027;" horiz-adv-x="417" 
d="M334 177c0 8 0 16 -2 24h85v-167c0 -36 -30 -65 -66 -65h-286c-36 0 -65 29 -65 65v167h85c-2 -8 -3 -16 -3 -24c0 -70 56 -126 126 -126s126 56 126 126zM351 385c36 0 65 -29 65 -65v-70h-105c-23 32 -61 53 -103 53s-80 -21 -103 -53h-105v70c0 36 29 65 65 65h286z
M383 305v35c0 6 -5 12 -11 12h-35c-6 0 -12 -6 -12 -12v-35c0 -6 6 -12 12 -12h35c6 0 11 6 11 12zM286 177c0 43 -35 78 -78 78s-77 -35 -77 -78s34 -77 77 -77s78 34 78 77z" />
    <glyph glyph-name="uniE028" unicode="&#xe028;" horiz-adv-x="333" 
d="M137 103c-11 -59 -25 -115 -66 -145c-13 89 19 156 33 227c-25 41 3 125 55 104c64 -25 -55 -154 25 -170c83 -17 117 145 65 197c-75 76 -218 3 -200 -106c4 -27 32 -35 11 -72c-48 11 -62 49 -60 99c3 82 74 140 145 148c90 10 174 -33 186 -118
c13 -96 -40 -199 -136 -192c-26 2 -38 16 -58 28z" />
    <glyph glyph-name="uniE029" unicode="&#xe029;" horiz-adv-x="375" 
d="M0 373c207 0 375 -168 375 -375h-59c0 175 -141 316 -316 316v59zM0 256c142 0 258 -115 258 -258h-58c0 110 -90 199 -200 199v59zM56 110c-31 0 -56 -25 -56 -56s25 -56 56 -56s56 25 56 56s-25 56 -56 56z" />
    <glyph glyph-name="uniE02A" unicode="&#xe02a;" horiz-adv-x="427" 
d="M361 74h-28v16c0 7 6 13 13 13h2c7 0 13 -6 13 -13v-16zM256 109c7 0 13 -5 13 -11v-80c0 -6 -6 -10 -13 -10s-13 4 -13 10v80c0 6 6 11 13 11zM427 153v-151c0 -36 -32 -66 -70 -66h-287c-38 0 -70 30 -70 66v151c0 36 32 66 70 66h287c38 0 70 -30 70 -66zM89 -14v159
h36v23h-95v-23h29v-159h30zM196 121h-30v-85c0 -12 1 -19 0 -21c-2 -7 -14 -13 -18 0c-1 2 0 8 0 20v86h-29v-84v-27c1 -8 1 -17 8 -22c13 -10 39 1 45 15v-17h24v135zM291 24l-1 70c0 27 -20 44 -47 22v52h-30v-181h25l2 11c31 -29 51 -8 51 26zM383 33h-22v-3v-13
c0 -7 -5 -12 -12 -12h-4c-7 0 -13 5 -13 12v2v13v18h51v19c0 14 0 28 -1 36c-4 25 -39 30 -57 17c-6 -4 -11 -10 -13 -17c-3 -7 -4 -17 -4 -30v-42c0 -70 85 -60 75 0zM269 262c-2 4 -3 8 -3 12v24v95h27v-110c0 -6 5 -11 11 -11s11 5 11 11v110h26v-141h-33v12
c-2 -5 -5 -9 -8 -11s-7 -4 -11 -4c-5 0 -10 2 -13 4s-5 5 -7 9zM169 341c0 14 1 24 3 32s7 13 13 18s13 7 22 7c8 0 15 -1 20 -4c6 -3 9 -7 12 -12s5 -10 6 -15s2 -13 2 -23v-35c0 -13 0 -23 -1 -29s-4 -12 -7 -17s-8 -10 -13 -12c-5 -3 -11 -3 -18 -3c-8 0 -14 1 -19 3
s-9 6 -12 10s-5 9 -6 15s-2 16 -2 28v37zM195 285c0 -8 6 -14 13 -14s13 6 13 14v75c0 8 -6 15 -13 15s-13 -7 -13 -15v-75zM103 248v107l-39 93h34l20 -69l19 69h35l-37 -93v-107h-32z" />
    <glyph glyph-name="uniE02B" unicode="&#xe02b;" horiz-adv-x="446" 
d="M446 281v-179c0 -37 -30 -66 -67 -66h-312c-37 0 -67 29 -67 66v179c0 37 30 67 67 67h312c37 0 67 -30 67 -67zM178 116l128 84l-128 84v-168z" />
    <glyph glyph-name="uniE02C" unicode="&#xe02c;" horiz-adv-x="442" 
d="M429 145c8 -16 13 -35 13 -55c0 -68 -54 -122 -122 -122c-21 0 -41 5 -58 14c-13 -2 -26 -3 -39 -3c-116 0 -210 94 -210 211c0 14 1 28 4 42c-11 18 -17 39 -17 62c0 68 54 122 122 122c24 0 46 -6 65 -18c12 2 24 3 36 3c117 0 211 -95 211 -211c0 -16 -2 -30 -5 -45z
M332 89c10 14 14 30 14 47c0 15 -2 27 -8 37s-14 18 -24 25c-10 6 -22 12 -36 17c-14 4 -30 8 -47 12c-14 3 -23 5 -29 7s-11 4 -17 7c-5 3 -9 5 -12 9c-3 3 -5 8 -5 13c0 8 4 14 13 20s22 9 37 9c16 0 28 -3 35 -8c7 -6 14 -14 19 -24c5 -8 9 -12 13 -16s10 -6 18 -6
c9 0 16 3 22 9s8 12 8 20s-2 16 -6 24s-12 16 -21 23s-21 14 -35 18s-30 6 -49 6c-24 0 -45 -3 -62 -9c-18 -7 -32 -17 -41 -29c-10 -12 -14 -27 -14 -43c0 -17 5 -31 14 -42s21 -20 36 -26s33 -12 55 -17c16 -3 29 -7 39 -10c9 -3 16 -7 22 -12c5 -5 8 -12 8 -20
c0 -11 -4 -19 -15 -26s-26 -11 -43 -11c-13 0 -22 1 -30 5s-14 8 -18 14s-8 12 -12 21c-3 8 -7 14 -12 18s-12 7 -19 7c-9 0 -16 -2 -22 -8c-6 -5 -9 -12 -9 -20c0 -12 5 -25 14 -38s20 -23 34 -31c20 -10 46 -16 76 -16c25 0 48 4 66 12c19 8 33 18 43 32z" />
    <glyph glyph-name="uniE02D" unicode="&#xe02d;" horiz-adv-x="446" 
d="M240 214v1l-1 -1h1zM413 416c18 0 33 -14 33 -32v-384c0 -18 -15 -32 -33 -32h-380c-18 0 -33 14 -33 32v384c0 18 15 32 33 32h380zM135 41v202h-67v-202h67zM101 271c23 0 39 16 39 35c0 20 -15 35 -38 35s-38 -15 -38 -35c0 -19 14 -35 37 -35v0zM378 41v0v116
c0 62 -34 91 -78 91c-36 0 -51 -19 -60 -33v28h-68c1 -19 0 -202 0 -202h68v113c0 6 0 12 2 16c5 12 15 25 34 25c24 0 35 -19 35 -46v-108h67z" />
    <glyph glyph-name="uniE02E" unicode="&#xe02e;" horiz-adv-x="463" 
d="M103 294c57 0 102 -46 102 -103s-45 -102 -102 -102s-103 45 -103 102s46 103 103 103zM360 294c57 0 103 -46 103 -103s-46 -102 -103 -102s-103 45 -103 102s46 103 103 103z" />
    <glyph glyph-name="uniE02F" unicode="&#xe02f;" horiz-adv-x="491" 
d="M481 228c6 0 10 -4 10 -10v-21c0 -6 -4 -10 -10 -10h-74v-74c0 -6 -4 -10 -10 -10h-22c-6 0 -10 4 -10 10v74h-74c-6 0 -10 4 -10 10v21c0 6 4 10 10 10h74v74c0 6 5 11 11 11h21c6 0 10 -5 10 -11v-74h74zM232 163c36 -26 50 -51 50 -93c0 -44 -33 -81 -85 -96
c-17 -5 -34 -8 -53 -8c-21 0 -41 3 -60 8c-36 9 -63 26 -76 48c-5 10 -8 20 -8 31s3 22 8 33c20 42 72 71 130 71h2c-5 8 -7 17 -7 26c0 5 1 9 2 14c-61 1 -107 46 -107 105c0 42 34 82 81 98c14 5 29 7 43 7h130c4 0 9 -3 10 -7s0 -8 -4 -11l-29 -21c-2 -1 -4 -2 -6 -2h-11
c13 -16 22 -39 22 -65c0 -29 -15 -55 -41 -76c-20 -16 -21 -20 -21 -29c0 -5 14 -22 30 -33zM95 303c5 -39 34 -71 62 -72v0c11 0 20 4 27 12c11 12 16 32 13 54c-5 39 -33 71 -62 72h-1c-10 0 -19 -4 -26 -12c-11 -12 -16 -32 -13 -54zM143 8c56 0 85 19 85 57
c0 4 0 7 -1 11c-4 15 -17 24 -38 38l-9 6c-9 3 -18 5 -28 5h-1c-44 0 -84 -27 -84 -58c0 -33 33 -59 76 -59z" />
    <glyph glyph-name="uniE030" unicode="&#xe030;" horiz-adv-x="455" 
d="M0 272l173 150v-107h66v0h1h2v-1c118 -6 211 -100 213 -219h-1v-126h-84v126v0c-2 72 -59 131 -131 135v0h-66v-110z" />
    <glyph glyph-name="uniE031" unicode="&#xe031;" horiz-adv-x="455" 
d="M455 272l-174 -152v110h-65v0c-72 -4 -129 -63 -131 -135v0v-126h-85v126v0c2 119 95 213 213 219v1h1h2v0h65v107z" />
    <glyph glyph-name="uniE032" unicode="&#xe032;" horiz-adv-x="463" 
d="M34 186l-34 229h229l-68 -80c47 -41 87 -92 115 -155c31 70 76 122 129 166l58 -68c-81 -71 -134 -144 -142 -306c0 -12 1 -24 1 -36h-92c0 12 1 24 1 36c-8 152 -56 227 -129 294zM313 56c19 104 64 168 125 224l-35 42c-49 -43 -89 -96 -117 -165
c12 -30 21 -64 27 -101z" />
    <glyph glyph-name="uniE033" unicode="&#xe033;" horiz-adv-x="463" 
d="M463 415l-34 -229l-69 80c-73 -67 -120 -142 -128 -294v-36h-91c0 12 1 24 1 36c-8 162 -61 235 -142 306l58 69c53 -44 98 -97 129 -167c28 63 68 114 115 155l-68 80h229zM25 280c61 -56 106 -120 125 -224c6 37 15 71 27 101c-28 69 -68 122 -117 165z" />
    <glyph glyph-name="uniE034" unicode="&#xe034;" horiz-adv-x="397" 
d="M0 347l223 52l-49 -94c28 -15 85 -50 131 -103v214h92v-445h-3v-1h-90s-21 105 -56 157c-34 50 -93 88 -114 101l-50 -96zM379 398h-56v-219c5 -8 11 -16 16 -24c18 -32 31 -73 40 -108v351v0z" />
    <glyph glyph-name="uniE035" unicode="&#xe035;" horiz-adv-x="397" 
d="M397 347l-84 -215l-50 96c-21 -13 -80 -51 -114 -101c-35 -52 -57 -157 -57 -157h-89v1h-3v445h92v-214c46 53 103 88 131 103l-49 94zM18 398v-351c9 35 22 76 40 108c5 8 9 16 15 24v219h-55z" />
    <glyph glyph-name="uniE036" unicode="&#xe036;" horiz-adv-x="500" 
d="M459 86c-2 -3 -5 -5 -7 -7c-5 -5 -10 -9 -16 -13c-2 -1 -3 -4 -5 -5c-8 -5 -16 -9 -25 -13c-2 -1 -4 -1 -6 -2c-5 -2 -11 -5 -17 -6v-40h-77v41c-55 14 -97 56 -111 111h-42v-93l-153 132l154 134v-96h41c1 6 3 11 5 16c1 2 1 5 2 7c4 9 9 16 14 24c1 2 3 3 4 5
c4 6 8 12 13 17l7 7c4 4 9 7 14 11l9 6c5 3 11 5 16 8c3 2 6 4 9 5c6 2 13 3 19 5l9 3c10 2 19 3 29 3c17 0 33 -4 49 -9c61 -21 106 -79 106 -147c0 -10 -1 -20 -3 -29c-1 -3 -1 -6 -2 -9l-6 -18c-1 -3 -2 -7 -4 -10c-2 -5 -6 -10 -9 -15l-6 -9c-3 -5 -7 -10 -11 -14z
M301 255c-21 -14 -34 -38 -34 -65c0 -43 35 -78 78 -78v0c43 0 78 35 78 78c0 8 -1 15 -3 22l-3 9c-12 28 -40 48 -72 48c-16 0 -31 -6 -44 -14zM212 152c13 -46 48 -82 94 -95v17c0 10 5 20 12 27c-30 9 -54 32 -63 62c-7 -7 -17 -11 -27 -11h-16z" />
    <glyph glyph-name="uniE037" unicode="&#xe037;" horiz-adv-x="310" 
d="M269 12c-2 -2 -4 -5 -6 -7c-5 -5 -11 -9 -17 -13c-2 -1 -3 -3 -5 -4c-8 -5 -15 -10 -24 -14c-2 -1 -5 -1 -7 -2c-5 -2 -10 -4 -16 -5v-32h-77v32c-67 17 -117 78 -117 150s50 133 117 150v27h-94l132 153l135 -153h-96v-27c6 -1 11 -3 16 -5c2 -1 5 -2 7 -3
c9 -4 16 -8 24 -13c2 -1 4 -3 6 -4c6 -4 11 -8 16 -13c2 -2 5 -5 7 -8c4 -4 8 -8 11 -13c2 -3 4 -7 6 -10c3 -5 6 -10 8 -15c2 -3 3 -7 4 -10l6 -18c1 -3 1 -6 2 -9c2 -9 3 -19 3 -29s-1 -19 -3 -29c-1 -3 -1 -6 -2 -9c-2 -7 -4 -13 -6 -19c-1 -3 -3 -6 -4 -9
c-3 -6 -5 -11 -8 -16l-6 -9c-4 -5 -8 -9 -12 -14zM155 195c-43 0 -78 -35 -78 -78s35 -79 78 -79v1c11 0 21 2 30 6h1v0c28 12 48 40 48 72c0 6 -2 12 -3 18c-8 34 -39 60 -76 60v0zM16 117c0 -63 43 -116 101 -133v16c0 10 4 20 11 27c-39 12 -67 47 -67 90
c0 42 28 78 67 90c-7 7 -11 17 -11 27v16c-58 -17 -101 -70 -101 -133z" />
    <glyph glyph-name="uniE038" unicode="&#xe038;" horiz-adv-x="501" 
d="M501 193l-154 -135v94h-41c-2 -7 -5 -14 -8 -21c-1 -1 0 -3 -1 -4c-3 -7 -7 -14 -11 -20c-1 -2 -3 -4 -4 -6c-5 -7 -11 -14 -17 -20v0c-6 -6 -14 -12 -21 -17c-2 -1 -3 -3 -5 -4c-7 -4 -14 -8 -21 -11c-1 0 -2 -2 -3 -2c-7 -3 -14 -5 -21 -7v-39h-77v40
c-67 17 -117 77 -117 149c0 86 69 156 155 156c72 0 133 -50 150 -117h42v96zM182 117c30 11 52 39 52 73c0 43 -36 79 -79 79s-78 -36 -78 -79s35 -78 78 -78v0c10 0 18 2 27 5zM16 190c0 -63 43 -116 101 -133v17c0 10 4 20 11 27c-39 12 -67 46 -67 89c0 52 42 95 94 95
c43 0 78 -28 90 -67c7 7 17 11 27 11h16c-17 58 -70 101 -133 101c-77 0 -139 -63 -139 -140z" />
    <glyph glyph-name="uniE040" unicode="&#xe040;" horiz-adv-x="444" 
d="M391 382c38 -39 53 -95 53 -162v-66c0 -66 -15 -119 -53 -156c-38 -36 -94 -52 -169 -52c-74 0 -131 15 -169 52s-53 91 -53 158v63c0 67 15 123 52 162c38 39 95 57 170 57s131 -17 169 -56zM401 154v66c0 62 -14 105 -41 132s-69 43 -138 43s-112 -16 -139 -44
s-40 -71 -40 -132v-63c0 -62 14 -102 40 -127s70 -40 139 -40s113 15 139 40s40 65 40 125zM293 86l-19 17l102 44l-33 -104l-19 16c-33 -25 -66 -36 -96 -36h-1c-45 1 -79 21 -101 37l-20 -17l-32 104l102 -44l-19 -16c1 0 1 -2 2 -2c12 -8 29 -15 46 -19v138h-58
c-11 0 -20 9 -20 20s9 20 20 20h58v12c-24 8 -42 32 -42 59c0 34 28 62 62 62s62 -28 62 -62c0 -27 -18 -51 -42 -59v-12h54c11 0 20 -9 20 -20s-9 -20 -20 -20h-54v-139c15 3 31 9 48 21zM225 293c12 0 22 10 22 22s-10 22 -22 22s-22 -10 -22 -22s10 -22 22 -22z" />
    <glyph glyph-name="uniE041" unicode="&#xe041;" horiz-adv-x="492" 
d="M246 438c136 0 246 -110 246 -246s-110 -246 -246 -246s-246 110 -246 246s110 246 246 246zM203 47v0v343c-91 -20 -160 -101 -160 -198c0 -57 24 -108 61 -145h99zM388 47c38 37 61 88 61 145c0 112 -91 203 -203 203h-3v-102c12 6 35 20 77 50c1 -149 79 -261 79 -261
h-156v-35h145zM84 111c0 0 -28 148 114 231c-44 -91 -27 -166 -27 -166z" />
    <glyph glyph-name="uniE042" unicode="&#xe042;" horiz-adv-x="416" 
d="M390 381c15 -3 26 -16 26 -31v-320c0 -16 -11 -30 -27 -32c0 0 -79 -12 -181 -12s-181 12 -181 12c-16 2 -27 16 -27 32v320c0 15 11 28 26 31c0 0 76 17 182 17s182 -17 182 -17zM113 142c11 10 19 20 19 20s-4 9 -10 19c-8 13 -15 24 -16 24c-2 0 -72 -19 -73 -20
c0 0 41 -74 43 -76c0 0 4 2 9 7c5 4 17 16 28 26zM272 25v145l-36 -21v-124h36zM340 236c23 13 28 30 15 53l-22 40c-13 23 -29 28 -52 15l-137 -75c-23 -13 -28 -29 -15 -52l22 -40c13 -23 29 -29 52 -16z" />
    <glyph glyph-name="uniE043" unicode="&#xe043;" horiz-adv-x="416" 
d="M366 147l50 -65v-52c0 -16 -11 -29 -27 -31c0 0 -79 -13 -181 -13s-181 13 -181 13c-16 2 -27 15 -27 31v320c0 15 11 29 26 32c0 0 60 13 148 16l46 -60c7 5 14 8 22 11c3 15 13 24 20 29c9 6 18 8 28 8v0h14c10 0 19 -2 29 -8c7 -4 17 -14 20 -27c3 -1 6 -1 9 -2v0h1
c7 -2 15 -5 21 -12c6 -6 12 -17 12 -30c0 -10 -4 -20 -9 -26l-6 -6c16 -12 31 -35 30 -59c1 -20 -9 -43 -27 -57c-6 -5 -12 -9 -18 -12zM75 380l9 -28h34l-13 28h-30zM92 325l12 -38h44l-18 38h-38zM116 248l18 -57h49c1 4 1 8 3 12l-21 45h-49zM182 37h80l-43 94h-66z
M316 170c43 4 60 21 60 46c0 34 -35 41 -73 47c-23 4 -27 7 -27 17c0 8 7 13 24 13c13 0 23 -1 32 -3c8 -2 16 -1 20 4l7 9c4 4 0 10 -7 12c-9 3 -21 5 -33 6v21c0 5 -7 9 -15 9h-13c-8 0 -14 -4 -14 -9v-21c-34 -4 -55 -18 -55 -44c0 -30 28 -38 67 -45c24 -4 31 -6 31 -18
c0 -10 -7 -16 -31 -16c-15 0 -31 2 -45 6c-7 2 -16 0 -18 -4l-7 -10c-3 -5 -1 -10 7 -12c13 -4 29 -7 47 -8v-19c0 -5 7 -9 15 -9h13c8 0 15 4 15 9v19z" />
    <glyph glyph-name="uniE044" unicode="&#xe044;" horiz-adv-x="454" 
d="M447 70c9 -16 10 -36 1 -52s-27 -26 -45 -26h-352c-18 0 -35 10 -44 26s-9 36 0 52l176 296c9 16 26 26 44 26v0c18 0 35 -9 44 -25zM51 44h352l-176 296zM200 232c0 15 12 27 27 27s27 -12 27 -27l1 -134c0 -15 -12 -28 -27 -28v0c-15 0 -28 12 -28 27v135z" />
    <glyph glyph-name="uniE045" unicode="&#xe045;" horiz-adv-x="407" 
d="M137 78c-33 0 -29 0 -29 0v-60h142v142s-106 -6 -106 7c0 28 103 67 103 67s-83 -4 -82 8c2 23 85 47 85 47c-28 -1 -61 -3 -61 16c1 7 26 25 45 49c20 25 22 51 42 51c20 -1 22 -29 41 -53c18 -22 42 -33 41 -47c-1 -17 -36 -18 -62 -16c0 0 89 -24 89 -48
c0 -11 -81 -7 -81 -7s103 -37 103 -67c0 -13 -107 -7 -107 -7v-142h61s40 -50 0 -50h-327s-35 50 0 50s24 0 24 0v60h-29c-39 0 -39 50 0 50h108c42 0 41 -50 0 -50z" />
  </font>
</defs>
</svg>
