<?xml version="1.0" standalone="no"?>
<!DOCTYPE svg PUBLIC "-//W3C//DTD SVG 1.1//EN" "http://www.w3.org/Graphics/SVG/1.1/DTD/svg11.dtd" >
<svg xmlns="http://www.w3.org/2000/svg" xmlns:xlink="http://www.w3.org/1999/xlink" version="1.1">
<metadata>
Created by FontForge 20141024 at Mon Nov  3 10:05:29 2014
 By Jimmy Warting
2008 Daniel Utz published by FSI FontShop International GmbH. Customized 2010
</metadata>
<defs>
<font id="EniroNetto-Light" horiz-adv-x="520" >
  <font-face 
    font-family="Eniro Netto Light"
    font-weight="300"
    font-stretch="normal"
    units-per-em="1000"
    panose-1="2 1 5 4 1 1 1 1 1 4"
    ascent="777"
    descent="-223"
    x-height="494"
    cap-height="711"
    bbox="-400 -234 1144 959"
    underline-thickness="37"
    underline-position="-78"
    stemh="36"
    stemv="39"
    unicode-range="U+000D-FB02"
  />
<missing-glyph horiz-adv-x="500" 
d="M362 0h-226c-18 0 -32 14 -32 32v637c0 18 14 32 32 32h226c18 0 33 -14 33 -32v-637c0 -18 -15 -32 -33 -32zM356 37v627h-213v-627h213z" />
    <glyph glyph-name="fi" unicode="fi" horiz-adv-x="479" 
d="M77 10v448h-58c-11 0 -19 7 -19 18s8 18 19 18h58v101c0 64 52 116 116 116c19 0 35 -2 53 -5c10 -2 18 -8 18 -19c0 -10 -9 -17 -19 -17c-14 0 -28 5 -52 5c-42 0 -77 -35 -77 -77v-104h129c11 0 19 -7 19 -18s-8 -18 -19 -18h-129v-448c0 -11 -9 -20 -20 -20
c-10 0 -19 9 -19 20zM352 10v475c0 10 9 19 20 19c10 0 19 -9 19 -19v-475c0 -11 -9 -20 -19 -20c-11 0 -20 9 -20 20zM372 649c-17 0 -31 14 -31 31s14 31 31 31s30 -14 30 -31s-13 -31 -30 -31z" />
    <glyph glyph-name="fl" unicode="fl" horiz-adv-x="483" 
d="M77 10v448h-58c-11 0 -19 7 -19 18s8 18 19 18h58v101c0 64 52 116 116 116c19 0 35 -2 53 -5c10 -2 18 -8 18 -19c0 -10 -9 -17 -19 -17c-14 0 -28 5 -52 5c-42 0 -77 -35 -77 -77v-104h129c11 0 19 -7 19 -18s-8 -18 -19 -18h-129v-448c0 -11 -9 -20 -20 -20
c-10 0 -19 9 -19 20zM362 10v681c0 11 9 20 19 20c11 0 20 -9 20 -20v-681c0 -11 -9 -20 -20 -20c-10 0 -19 9 -19 20z" />
    <glyph glyph-name=".notdef" horiz-adv-x="500" 
d="M362 0h-226c-18 0 -32 14 -32 32v637c0 18 14 32 32 32h226c18 0 33 -14 33 -32v-637c0 -18 -15 -32 -33 -32zM356 37v627h-213v-627h213z" />
    <glyph glyph-name=".null" horiz-adv-x="0" 
 />
    <glyph glyph-name=".null" horiz-adv-x="0" 
 />
    <glyph glyph-name="CR" unicode="&#xd;" horiz-adv-x="250" 
 />
    <glyph glyph-name="space" unicode=" " horiz-adv-x="250" 
 />
    <glyph glyph-name="exclam" unicode="!" horiz-adv-x="351" 
d="M156 199v492c0 11 9 20 19 20c11 0 20 -9 20 -20v-492c0 -11 -9 -20 -20 -20c-10 0 -19 9 -19 20zM175 -10c-18 0 -32 15 -32 33c0 17 14 32 32 32s33 -15 33 -32c0 -18 -15 -33 -33 -33z" />
    <glyph glyph-name="quotedbl" unicode="&#x22;" horiz-adv-x="353" 
d="M99 546v145c0 11 9 20 19 20c11 0 20 -9 20 -20v-145c0 -11 -9 -19 -20 -19c-10 0 -19 8 -19 19zM215 546v145c0 11 9 20 20 20c10 0 19 -9 19 -20v-145c0 -11 -9 -19 -19 -19c-11 0 -20 8 -20 19z" />
    <glyph glyph-name="numbersign" unicode="#" 
d="M292 26l27 186h-161l-30 -205c-1 -9 -8 -17 -19 -17c-12 0 -19 8 -19 19c0 5 1 11 2 17l27 186h-87c-11 0 -20 7 -20 17c0 11 8 19 19 19h94l30 206h-88c-11 0 -20 7 -20 17c0 11 8 19 19 19h95l30 204c2 10 8 17 20 17c8 0 18 -9 18 -19c0 -3 0 -4 -1 -10l-28 -192h161
l30 204c2 10 8 17 20 17c8 0 18 -9 18 -19c0 -3 0 -4 -1 -10l-28 -192h87c11 0 20 -7 20 -18s-8 -18 -19 -18h-94l-30 -206h88c11 0 20 -7 20 -18s-8 -18 -19 -18h-95l-30 -205c-1 -9 -8 -17 -19 -17c-12 0 -19 8 -19 19c0 5 1 11 2 17zM325 248l30 206h-161l-30 -206h161z
" />
    <glyph glyph-name="dollar" unicode="$" 
d="M240 -120v110c-56 2 -106 15 -158 38c-7 3 -11 10 -11 17c0 9 8 20 19 20c3 0 5 -1 8 -2c52 -20 100 -36 155 -36c79 0 155 52 155 146c0 76 -52 120 -112 150l-109 55c-76 38 -116 94 -116 171c0 84 70 154 169 161v111c0 10 9 19 19 19c11 0 20 -9 20 -19v-111
c52 -2 97 -14 143 -31c8 -3 12 -11 12 -19c0 -10 -7 -18 -19 -18c-2 0 -4 0 -7 1c-49 18 -98 31 -150 31c-98 0 -147 -63 -147 -125c0 -67 35 -105 93 -135l109 -56c71 -37 135 -83 135 -185c0 -110 -81 -172 -169 -181v-112c0 -10 -9 -19 -20 -19c-10 0 -19 9 -19 19z" />
    <glyph glyph-name="percent" unicode="%" horiz-adv-x="868" 
d="M786 213v-97c0 -75 -50 -126 -126 -126c-75 0 -126 51 -126 126v97c0 75 51 126 126 126c76 0 126 -51 126 -126zM751 113v103c0 56 -34 91 -91 91c-56 0 -91 -35 -91 -91v-103c0 -56 35 -91 91 -91c57 0 91 35 91 91zM334 585v-97c0 -75 -51 -126 -126 -126
s-126 51 -126 126v97c0 75 51 126 126 126s126 -51 126 -126zM299 485v103c0 56 -35 91 -91 91s-91 -35 -91 -91v-103c0 -56 35 -91 91 -91s91 35 91 91zM183 18l474 684c3 5 8 9 14 9c9 0 17 -7 17 -18c0 -4 -2 -7 -4 -10l-475 -685c-3 -5 -8 -8 -14 -8c-10 0 -16 7 -16 17
c0 4 2 8 4 11z" />
    <glyph glyph-name="ampersand" unicode="&#x26;" horiz-adv-x="656" 
d="M566 -3l-100 116c-53 -61 -115 -123 -216 -123c-96 0 -173 81 -173 180c0 36 10 72 29 103c34 55 89 91 125 113l-46 53c-34 40 -52 82 -52 124c0 82 64 148 142 148c79 0 143 -66 143 -148c0 -10 -9 -19 -20 -19c-10 0 -19 9 -19 19c0 60 -47 112 -104 112
s-103 -52 -103 -112c0 -33 14 -66 43 -99l251 -291c36 43 99 125 100 126c4 5 9 8 15 8c10 0 19 -8 19 -20c0 -4 -1 -7 -4 -11s-70 -91 -104 -133l104 -121c3 -4 5 -8 5 -12c0 -10 -9 -20 -20 -20c-6 0 -11 3 -15 7zM441 143l-185 214c-33 -19 -85 -52 -117 -103
c-15 -24 -23 -56 -23 -84c0 -78 60 -144 134 -144c81 0 130 48 191 117z" />
    <glyph glyph-name="quotesingle" unicode="'" horiz-adv-x="237" 
d="M99 546v145c0 11 9 20 19 20c11 0 20 -9 20 -20v-145c0 -11 -9 -19 -20 -19c-10 0 -19 8 -19 19z" />
    <glyph glyph-name="parenleft" unicode="(" horiz-adv-x="273" 
d="M202 -126c0 -12 -10 -19 -20 -19c-7 0 -14 4 -17 10c-67 131 -105 291 -105 452c0 160 37 316 105 451c4 8 11 11 18 11c12 0 19 -10 19 -20c0 -3 -1 -5 -2 -8c-67 -135 -101 -280 -101 -434s33 -300 101 -434c1 -3 2 -6 2 -9z" />
    <glyph glyph-name="parenright" unicode=")" horiz-adv-x="279" 
d="M114 -135c-3 -6 -10 -10 -17 -10c-10 0 -20 7 -20 19c0 3 1 6 2 9c68 134 101 280 101 434s-34 299 -101 434c-1 3 -2 5 -2 8c0 10 7 20 19 20c7 0 14 -3 18 -11c68 -135 105 -291 105 -451c0 -161 -38 -321 -105 -452z" />
    <glyph glyph-name="asterisk" unicode="*" horiz-adv-x="415" 
d="M277 426l-69 96l-70 -96c-3 -5 -9 -7 -14 -7c-9 0 -17 7 -17 17c0 3 1 7 3 10l69 96l-112 37c-7 2 -12 8 -12 16c0 9 6 18 17 18c2 0 4 0 6 -1l112 -37v118c0 10 8 18 18 18c9 0 17 -8 17 -18v-118l112 37c2 1 5 1 7 1c8 0 16 -7 16 -18c0 -8 -5 -14 -12 -16l-112 -37
l69 -96c2 -3 3 -7 3 -10c0 -8 -7 -17 -17 -17c-5 0 -10 2 -14 7z" />
    <glyph glyph-name="plus" unicode="+" 
d="M487 229h-207v-219c0 -11 -9 -20 -20 -20s-19 9 -19 20v219h-209c-10 0 -19 7 -19 18s9 19 19 19h209v219c0 10 8 19 19 19s20 -9 20 -19v-219h207c11 0 20 -8 20 -19s-9 -18 -20 -18z" />
    <glyph glyph-name="comma" unicode="," horiz-adv-x="201" 
d="M33 -97l48 142c3 8 11 13 19 13c10 0 19 -8 19 -19c0 -2 0 -5 -1 -7l-48 -142c-3 -8 -11 -13 -19 -13c-10 0 -19 9 -19 20c0 2 0 4 1 6z" />
    <glyph glyph-name="hyphen" unicode="-" horiz-adv-x="397" 
d="M312 277h-227c-10 0 -19 7 -19 18s9 19 19 19h227c10 0 19 -9 19 -19s-9 -18 -19 -18z" />
    <glyph glyph-name="period" unicode="." horiz-adv-x="201" 
d="M133 23c0 -18 -15 -33 -33 -33s-32 15 -32 33c0 17 14 32 32 32s33 -15 33 -32z" />
    <glyph glyph-name="slash" unicode="/" horiz-adv-x="550" 
d="M122 17l270 682c3 8 11 12 19 12c10 0 18 -8 18 -20c0 -2 0 -4 -1 -7l-270 -681c-3 -8 -10 -12 -18 -12c-10 0 -19 7 -19 19c0 2 0 4 1 7z" />
    <glyph glyph-name="zero" unicode="0" horiz-adv-x="536" 
d="M465 514v-327c0 -58 -18 -107 -54 -143c-35 -35 -85 -54 -143 -54s-108 19 -143 54c-35 36 -54 85 -54 143v327c0 58 19 108 54 143s85 54 143 54s108 -19 143 -54c36 -35 54 -85 54 -143zM426 184v333c0 97 -60 158 -158 158s-158 -61 -158 -158v-333
c0 -97 60 -158 158 -158s158 61 158 158z" />
    <glyph glyph-name="one" unicode="1" horiz-adv-x="329" 
d="M190 10v654l-139 -81c-4 -2 -7 -3 -10 -3c-9 0 -19 8 -19 20c0 6 3 12 10 16l158 91c4 3 8 4 13 4c14 0 26 -12 26 -26v-675c0 -11 -9 -20 -20 -20c-10 0 -19 9 -19 20z" />
    <glyph glyph-name="two" unicode="2" horiz-adv-x="445" 
d="M366 0h-307c-14 0 -26 12 -26 26c0 6 2 11 5 15l249 350c24 34 53 86 53 144c0 85 -52 141 -136 141c-46 0 -86 -7 -133 -33c-3 -2 -6 -2 -9 -2c-10 0 -19 6 -19 18c0 7 4 14 10 17c58 30 101 35 151 35c52 0 96 -17 127 -48c31 -32 48 -76 48 -128
c0 -69 -36 -128 -63 -166l-236 -332h286c11 0 19 -8 19 -19c0 -10 -8 -18 -19 -18z" />
    <glyph glyph-name="three" unicode="3" horiz-adv-x="461" 
d="M191 346h-20c-10 0 -19 7 -19 18s9 18 19 18h13c41 0 80 14 108 41c29 27 44 65 44 103c0 92 -50 149 -135 149c-46 0 -83 -6 -134 -34c-3 -2 -6 -2 -8 -2c-9 0 -19 8 -19 19c0 7 3 12 10 16c57 32 100 37 151 37c52 0 96 -17 127 -50s47 -79 47 -135
c0 -49 -20 -95 -56 -129c-13 -12 -28 -23 -43 -31c21 -9 41 -22 59 -38c40 -36 60 -87 60 -141c0 -60 -19 -110 -55 -145c-34 -34 -83 -52 -139 -52c-60 0 -112 12 -158 36c-6 3 -10 11 -10 18c0 9 9 18 19 18c3 0 6 -1 9 -2c44 -23 85 -34 140 -34c96 0 155 63 155 161
c0 43 -17 85 -48 115c-31 29 -72 44 -117 44z" />
    <glyph glyph-name="four" unicode="4" horiz-adv-x="436" 
d="M283 10v164h-230c-14 0 -26 10 -26 25c0 1 0 4 1 8l172 491c3 8 10 13 18 13c12 0 22 -12 17 -26l-165 -474h213v164c0 11 8 19 19 19s20 -8 20 -19v-164h90c10 0 19 -8 19 -19c0 -10 -9 -18 -19 -18h-90v-164c0 -11 -9 -20 -20 -20s-19 9 -19 20z" />
    <glyph glyph-name="five" unicode="5" horiz-adv-x="481" 
d="M376 171v66c0 79 -64 145 -142 145c-42 0 -84 -12 -120 -31c-4 -2 -8 -3 -13 -3c-14 0 -25 11 -25 25v296c0 18 14 32 32 32h268c11 0 20 -8 20 -19s-9 -18 -20 -18h-261v-271c38 17 78 25 119 25c100 0 181 -81 181 -181v-66c0 -100 -81 -181 -181 -181
c-61 0 -110 11 -157 35c-7 4 -11 10 -11 17c0 10 8 19 19 19c3 0 6 0 9 -2c44 -23 85 -33 140 -33c78 0 142 67 142 145z" />
    <glyph glyph-name="six" unicode="6" horiz-adv-x="482" 
d="M71 171v316c0 155 92 224 193 224c79 0 126 -40 147 -63c7 -7 8 -19 0 -27s-21 -6 -28 1c-29 35 -77 52 -119 52c-80 1 -154 -59 -154 -187v-138c33 42 84 69 142 69c100 0 181 -81 181 -181v-66c0 -100 -81 -181 -181 -181s-181 81 -181 181zM394 168v71
c0 79 -64 143 -142 143s-142 -64 -142 -143v-71c0 -78 64 -142 142 -142s142 64 142 142z" />
    <glyph glyph-name="seven" unicode="7" horiz-adv-x="417" 
d="M104 17l243 647h-317c-10 0 -19 7 -19 18s9 19 19 19h333c15 0 27 -11 27 -26c0 -1 0 -5 -2 -9l-249 -663c-3 -8 -11 -13 -19 -13c-10 0 -18 8 -18 19c0 2 1 6 2 8z" />
    <glyph glyph-name="eight" unicode="8" horiz-adv-x="507" 
d="M328 371c22 -9 41 -23 58 -40c35 -36 55 -87 55 -143s-20 -107 -55 -143c-34 -35 -82 -55 -133 -55s-98 20 -132 55c-36 36 -55 87 -55 143s20 106 55 143c16 17 36 31 58 40c-18 8 -33 20 -47 34c-32 33 -50 78 -50 127c0 50 18 95 50 128s75 51 121 51
c47 0 90 -18 122 -51s50 -78 50 -128c0 -49 -18 -94 -50 -127c-14 -14 -30 -26 -47 -34zM253 388c76 0 133 63 133 144c0 82 -57 143 -133 143c-75 0 -132 -61 -132 -143c0 -81 57 -144 132 -144zM253 26c87 0 149 68 149 162s-62 164 -149 164c-86 0 -148 -70 -148 -164
s62 -162 148 -162z" />
    <glyph glyph-name="nine" unicode="9" horiz-adv-x="482" 
d="M411 530v-316c0 -155 -92 -224 -193 -224c-79 0 -126 40 -147 63c-7 7 -8 19 0 27s21 6 28 -1c29 -35 77 -52 119 -52c80 -1 154 59 154 187v138c-33 -42 -84 -69 -142 -69c-100 0 -181 81 -181 181v66c0 100 81 181 181 181s181 -81 181 -181zM88 533v-71
c0 -79 64 -143 142 -143s142 64 142 143v71c0 78 -64 142 -142 142s-142 -64 -142 -142z" />
    <glyph glyph-name="colon" unicode=":" horiz-adv-x="201" 
d="M133 23c0 -18 -15 -33 -33 -33s-32 15 -32 33c0 17 14 32 32 32s33 -15 33 -32zM100 439c-18 0 -32 15 -32 33s14 32 32 32s33 -14 33 -32s-15 -33 -33 -33z" />
    <glyph glyph-name="semicolon" unicode=";" horiz-adv-x="201" 
d="M33 -97l48 142c3 8 11 13 19 13c12 0 19 -10 19 -19c0 -2 0 -5 -1 -7l-48 -142c-3 -8 -11 -13 -19 -13c-12 0 -19 11 -19 20c0 2 0 4 1 6zM100 439c-18 0 -33 15 -33 33s15 32 33 32s32 -14 32 -32s-14 -33 -32 -33z" />
    <glyph glyph-name="less" unicode="&#x3c;" 
d="M433 -7l-361 227c-9 6 -15 16 -15 27s6 21 15 27l361 227c3 2 7 3 11 3c10 0 19 -9 19 -19c0 -7 -4 -12 -10 -16l-354 -222l355 -223c6 -4 9 -10 9 -16c0 -11 -10 -18 -19 -18c-4 0 -8 1 -11 3z" />
    <glyph glyph-name="equal" unicode="=" 
d="M488 311h-456c-10 0 -19 7 -19 18s9 19 19 19h456c11 0 19 -9 19 -19s-8 -18 -19 -18zM488 147h-456c-10 0 -19 7 -19 18s9 19 19 19h456c11 0 19 -9 19 -19s-8 -18 -19 -18z" />
    <glyph glyph-name="greater" unicode="&#x3e;" 
d="M448 220l-361 -227c-3 -2 -7 -3 -11 -3c-9 0 -19 7 -19 18c0 6 3 12 9 16l355 223l-354 222c-6 4 -10 9 -10 16c0 10 9 19 19 19c4 0 8 -1 11 -3l361 -227c9 -6 15 -16 15 -27s-6 -21 -15 -27z" />
    <glyph glyph-name="question" unicode="?" horiz-adv-x="438" 
d="M189 199v86c0 38 14 75 43 97l66 51c31 24 46 64 46 104c0 75 -58 138 -129 138c-43 0 -82 -12 -121 -28c-3 -1 -6 -2 -9 -2c-12 0 -19 8 -19 18c0 7 5 15 12 18c44 20 89 30 137 30c92 0 168 -78 168 -174c0 -51 -20 -100 -60 -131l-65 -51c-20 -16 -30 -42 -30 -68v-88
c0 -11 -9 -20 -20 -20s-19 9 -19 20zM208 -10c-18 0 -32 15 -32 33c0 17 14 32 32 32s32 -15 32 -32c0 -18 -14 -33 -32 -33z" />
    <glyph glyph-name="at" unicode="@" horiz-adv-x="718" 
d="M558 425v56c0 107 -86 194 -193 194s-194 -87 -194 -194v-409c0 -47 17 -92 47 -127s71 -57 116 -63c10 -1 17 -9 17 -18c0 -11 -9 -19 -20 -19c-8 0 -17 2 -26 4c-43 10 -87 40 -116 74c-37 42 -57 96 -57 152v403c0 129 104 233 233 233c128 0 232 -104 232 -233v-299
c0 -14 -8 -25 -20 -30c-37 -15 -75 -21 -115 -21c-82 0 -149 66 -149 148s67 149 149 149h96zM558 181v207h-96c-61 0 -110 -49 -110 -112c0 -62 49 -112 110 -112c33 0 65 6 96 17z" />
    <glyph glyph-name="A" unicode="A" horiz-adv-x="523" 
d="M403 208h-283l-66 -204c-3 -9 -11 -14 -19 -14c-10 0 -19 9 -19 20c0 1 0 3 1 6l220 677c3 10 14 18 25 18s20 -7 24 -18l220 -677c1 -3 1 -5 1 -7c0 -9 -8 -19 -19 -19c-8 0 -16 5 -19 14c0 0 -29 91 -66 204zM390 246l-128 397l-129 -397h257z" />
    <glyph glyph-name="B" unicode="B" horiz-adv-x="517" 
d="M268 0h-154c-18 0 -32 14 -32 32v637c0 18 14 32 32 32h148c109 0 180 -70 180 -178c0 -49 -20 -95 -58 -128c-14 -12 -29 -21 -48 -29c25 -10 46 -22 64 -38c40 -36 62 -85 62 -137c0 -116 -76 -191 -194 -191zM122 383h123c88 0 157 61 157 140c0 87 -52 140 -140 140
h-140v-280zM122 38h146c48 0 86 14 113 41c27 26 41 66 41 112c0 41 -18 81 -49 109c-33 29 -75 45 -122 45h-129v-307z" />
    <glyph glyph-name="C" unicode="C" horiz-adv-x="465" 
d="M60 216v269c0 67 21 123 62 164c40 40 97 62 164 62c48 0 93 -14 137 -42c6 -4 9 -11 9 -17c0 -10 -8 -18 -19 -18c-4 0 -8 1 -11 3c-37 24 -76 37 -116 37c-115 0 -186 -74 -186 -189v-269c0 -115 71 -189 186 -189c40 0 79 14 116 38c3 2 6 3 10 3c9 0 20 -7 20 -19
c0 -6 -3 -13 -9 -17c-44 -28 -89 -42 -137 -42c-67 0 -124 22 -164 62c-41 41 -62 97 -62 164z" />
    <glyph glyph-name="D" unicode="D" horiz-adv-x="549" 
d="M247 0h-133c-18 0 -32 14 -32 32v637c0 18 14 32 32 32h133c72 0 132 -22 176 -65c43 -43 66 -104 66 -175v-221c0 -71 -23 -132 -66 -174c-44 -43 -104 -66 -176 -66zM449 240v221c0 61 -18 112 -53 147c-36 36 -88 55 -149 55h-125v-625h125c61 0 113 20 148 55
c36 36 54 86 54 147z" />
    <glyph glyph-name="E" unicode="E" horiz-adv-x="469" 
d="M412 0h-298c-18 0 -32 14 -32 32v637c0 18 14 32 32 32h291c11 0 19 -8 19 -19s-8 -19 -19 -19h-283v-281h270c11 0 20 -8 20 -19c0 -10 -9 -19 -20 -19h-270v-306h290c10 0 19 -8 19 -19c0 -10 -9 -19 -19 -19z" />
    <glyph glyph-name="F" unicode="F" horiz-adv-x="437" 
d="M82 10v659c0 18 14 32 32 32h287c11 0 20 -8 20 -19s-9 -19 -20 -19h-279v-281h267c10 0 19 -8 19 -19c0 -10 -8 -19 -19 -19h-267v-334c0 -11 -9 -20 -20 -20s-20 9 -20 20z" />
    <glyph glyph-name="G" unicode="G" horiz-adv-x="530" 
d="M430 56v266h-131c-11 0 -19 8 -19 19s8 19 19 19h139c18 0 32 -14 32 -32v-276c0 -13 -7 -25 -19 -30c-44 -19 -107 -32 -165 -32c-67 0 -124 22 -164 62c-41 41 -62 97 -62 164v269c0 67 21 123 62 164c40 40 97 62 164 62c56 0 114 -23 149 -42c6 -3 9 -10 9 -17
c0 -10 -8 -18 -20 -18c-2 0 -5 0 -9 2c-29 16 -81 38 -129 38c-115 0 -186 -72 -186 -187v-273c0 -115 71 -187 186 -187c50 0 105 13 144 29z" />
    <glyph glyph-name="H" unicode="H" horiz-adv-x="571" 
d="M449 10v335h-327v-335c0 -11 -9 -20 -20 -20c-10 0 -20 9 -20 20v681c0 11 10 20 20 20c11 0 20 -9 20 -20v-308h327v308c0 11 9 20 20 20c10 0 20 -9 20 -20v-681c0 -11 -10 -20 -20 -20c-11 0 -20 9 -20 20z" />
    <glyph glyph-name="I" unicode="I" horiz-adv-x="204" 
d="M82 10v681c0 11 10 20 20 20c11 0 20 -9 20 -20v-681c0 -11 -9 -20 -20 -20c-10 0 -20 9 -20 20z" />
    <glyph glyph-name="J" unicode="J" horiz-adv-x="346" 
d="M229 155v536c0 11 9 20 20 20s20 -9 20 -20v-536c0 -91 -74 -165 -164 -165c-21 0 -40 3 -61 7c-11 2 -17 9 -17 18s7 19 19 19c11 0 30 -7 59 -7c69 0 124 59 124 128z" />
    <glyph glyph-name="K" unicode="K" horiz-adv-x="479" 
d="M429 -3l-307 346v-333c0 -11 -9 -20 -20 -20c-10 0 -20 9 -20 20v681c0 11 10 20 20 20c11 0 20 -9 20 -20v-308l295 322c4 4 9 6 14 6c10 0 19 -8 19 -20c0 -4 -1 -9 -5 -13l-290 -315l303 -340c4 -4 5 -9 5 -13c0 -10 -7 -20 -19 -20c-5 0 -11 3 -15 7z" />
    <glyph glyph-name="L" unicode="L" horiz-adv-x="447" 
d="M412 0h-298c-18 0 -32 14 -32 32v659c0 11 10 20 20 20c11 0 20 -9 20 -20v-653h290c10 0 19 -8 19 -19c0 -10 -9 -19 -19 -19z" />
    <glyph glyph-name="M" unicode="M" horiz-adv-x="713" 
d="M591 10v614l-211 -432c-4 -9 -13 -14 -23 -14s-20 5 -24 14l-211 432v-614c0 -11 -9 -20 -20 -20c-10 0 -20 9 -20 20v675c0 14 12 26 26 26c10 0 18 -6 23 -15l226 -465l225 465c4 9 13 15 23 15c15 0 26 -12 26 -26v-675c0 -11 -9 -20 -20 -20s-20 9 -20 20z" />
    <glyph glyph-name="N" unicode="N" horiz-adv-x="578" 
d="M447 4l-325 624v-618c0 -13 -9 -20 -20 -20c-10 0 -20 7 -20 20v675c0 14 12 26 26 26c10 0 19 -6 23 -14l325 -624v617c0 12 7 21 19 21s21 -9 21 -21v-674c0 -14 -12 -26 -26 -26c-10 0 -18 5 -23 14z" />
    <glyph glyph-name="O" unicode="O" horiz-adv-x="547" 
d="M487 498v-294c0 -64 -21 -117 -59 -155c-38 -39 -92 -59 -155 -59s-116 20 -155 59c-38 38 -58 91 -58 155v294c0 63 19 116 58 155s92 58 155 58s117 -20 155 -58c38 -39 59 -92 59 -155zM447 203v296c0 107 -66 175 -174 175c-107 0 -173 -68 -173 -175v-296
c0 -108 66 -176 173 -176c108 0 174 68 174 176z" />
    <glyph glyph-name="P" unicode="P" horiz-adv-x="500" 
d="M82 10v659c0 18 14 32 32 32h151c59 0 108 -19 143 -55c35 -35 54 -85 54 -144c0 -57 -18 -105 -52 -139c-35 -34 -85 -53 -145 -53h-143v-300c0 -11 -9 -20 -20 -20c-10 0 -20 9 -20 20zM122 348h143c50 0 89 15 117 43c26 26 40 65 40 111c0 49 -15 90 -42 118
s-67 43 -115 43h-143v-315z" />
    <glyph glyph-name="Q" unicode="Q" horiz-adv-x="551" 
d="M561 -101l-354 99c-34 10 -65 27 -89 51c-38 38 -58 91 -58 155v294c0 63 20 116 58 154c39 39 92 59 155 59s117 -20 155 -58c38 -39 59 -92 59 -155v-294c0 -64 -21 -117 -59 -155c-23 -23 -56 -41 -89 -49l233 -64c9 -2 15 -9 15 -18c0 -10 -8 -20 -18 -20
c-2 0 -5 0 -8 1zM447 204v294c0 107 -66 176 -174 176c-107 0 -173 -69 -173 -176v-294c0 -108 66 -177 173 -177c108 0 174 69 174 177z" />
    <glyph glyph-name="R" unicode="R" horiz-adv-x="509" 
d="M440 0l-176 326h-142v-316c0 -11 -9 -20 -20 -20c-10 0 -20 9 -20 20v659c0 18 14 32 32 32h171c55 0 102 -18 135 -51c35 -35 53 -83 53 -140c0 -55 -18 -101 -52 -134c-28 -28 -67 -45 -113 -49l166 -308c1 -3 2 -6 2 -9c0 -9 -8 -20 -19 -20c-7 0 -14 4 -17 10z
M122 663v-299h163c46 0 84 13 110 38c25 25 39 63 39 108c0 47 -14 86 -41 113c-26 27 -64 40 -108 40h-163z" />
    <glyph glyph-name="S" unicode="S" horiz-adv-x="451" 
d="M263 323l-109 55c-76 38 -116 94 -116 171c0 89 79 162 187 162c61 0 112 -12 164 -32c8 -3 12 -11 12 -19c0 -10 -7 -18 -19 -18c-2 0 -4 0 -7 1c-49 18 -98 31 -150 31c-98 0 -147 -63 -147 -125c0 -67 35 -105 93 -135l109 -56c71 -37 135 -83 135 -185
c0 -120 -97 -183 -195 -183c-61 0 -115 13 -171 38c-7 3 -11 10 -11 17c0 9 8 20 19 20c3 0 5 -1 8 -2c52 -20 100 -36 155 -36c79 0 155 52 155 146c0 76 -52 120 -112 150z" />
    <glyph glyph-name="T" unicode="T" horiz-adv-x="449" 
d="M204 10v653h-180c-10 0 -19 8 -19 19s9 19 19 19h401c11 0 19 -8 19 -19s-8 -19 -19 -19h-181v-653c0 -11 -10 -20 -20 -20c-11 0 -20 9 -20 20z" />
    <glyph glyph-name="U" unicode="U" horiz-adv-x="575" 
d="M464 206v485c0 11 9 20 20 20c10 0 20 -9 20 -20v-484c0 -64 -21 -119 -59 -157c-39 -39 -93 -60 -158 -60c-64 0 -118 21 -157 60c-39 38 -59 93 -59 157v484c0 11 10 20 20 20c11 0 20 -9 20 -20v-485c0 -110 67 -179 176 -179c110 0 177 69 177 179z" />
    <glyph glyph-name="V" unicode="V" horiz-adv-x="494" 
d="M222 8l-209 674c-2 6 -2 8 -2 10c0 9 6 19 19 19c10 0 18 -6 20 -14l197 -637l198 637c2 8 10 14 20 14c13 0 19 -10 19 -19c0 -2 0 -4 -2 -10l-211 -674c-3 -11 -13 -18 -24 -18s-21 6 -25 18z" />
    <glyph glyph-name="W" unicode="W" horiz-adv-x="743" 
d="M514 10l-143 629l-143 -630c-3 -11 -13 -19 -25 -19s-22 9 -25 20l-160 672c-1 4 -2 8 -2 10c0 10 6 19 19 19c11 0 18 -6 20 -14l148 -631l143 626c3 11 14 19 25 19s23 -8 26 -20l143 -625l148 631c2 8 9 14 20 14c13 0 19 -9 19 -19c0 -2 -1 -6 -2 -10l-160 -673
c-3 -11 -14 -19 -26 -19c-11 0 -22 8 -25 20z" />
    <glyph glyph-name="X" unicode="X" horiz-adv-x="481" 
d="M433 0l-193 316l-192 -316c-4 -7 -10 -10 -18 -10c-10 0 -19 9 -19 20c0 4 1 7 3 10l204 333l-201 328c-2 4 -3 7 -3 11c0 10 9 19 20 19c9 0 13 -3 17 -9l189 -312l190 312c4 6 9 9 17 9c10 0 19 -9 19 -20c0 -3 0 -6 -2 -10l-201 -328l204 -333c2 -3 3 -6 3 -10
c0 -10 -8 -20 -20 -20c-8 0 -13 4 -17 10z" />
    <glyph glyph-name="Y" unicode="Y" horiz-adv-x="461" 
d="M211 10v306l-198 366c-2 4 -2 6 -2 9c0 10 7 20 19 20c9 0 15 -4 18 -10l183 -341l182 341c3 6 9 10 18 10c10 0 19 -8 19 -19c0 -2 0 -6 -2 -10l-198 -366v-306c0 -11 -9 -20 -19 -20c-11 0 -20 9 -20 20z" />
    <glyph glyph-name="Z" unicode="Z" horiz-adv-x="464" 
d="M423 0h-375c-14 0 -26 12 -26 26c0 4 1 7 4 13l365 624h-346c-11 0 -20 8 -20 19s9 19 20 19h368c14 0 26 -11 26 -26c0 -4 -1 -8 -4 -13l-366 -624h354c10 0 19 -8 19 -19c0 -10 -9 -19 -19 -19z" />
    <glyph glyph-name="bracketleft" unicode="[" horiz-adv-x="322" 
d="M226 -145h-136c-11 0 -19 8 -19 19v885c0 11 8 20 19 20h136c10 0 19 -8 19 -18s-9 -19 -19 -19h-116v-850h116c10 0 19 -7 19 -18s-9 -19 -19 -19z" />
    <glyph glyph-name="backslash" unicode="\" horiz-adv-x="550" 
d="M392 3l-270 681c-1 3 -1 5 -1 7c0 12 8 20 18 20c8 0 16 -4 19 -12l270 -682c1 -3 1 -5 1 -7c0 -12 -9 -19 -19 -19c-8 0 -15 4 -18 12z" />
    <glyph glyph-name="bracketright" unicode="]" horiz-adv-x="327" 
d="M237 -145h-136c-10 0 -19 8 -19 19s9 18 19 18h116v850h-116c-10 0 -19 9 -19 19s9 18 19 18h136c11 0 19 -9 19 -20v-885c0 -11 -8 -19 -19 -19z" />
    <glyph glyph-name="asciicircum" unicode="^" horiz-adv-x="500" 
d="M415 397l-166 261l-165 -261c-4 -6 -10 -9 -16 -9c-11 0 -19 10 -19 19c0 4 1 7 3 11l181 284c3 5 10 9 16 9c7 0 14 -4 17 -9l181 -284c2 -4 3 -7 3 -11c0 -11 -10 -19 -19 -19c-6 0 -12 3 -16 9z" />
    <glyph glyph-name="underscore" unicode="_" horiz-adv-x="522" 
d="M480 -133h-439c-10 0 -19 8 -19 19s9 18 19 18h439c11 0 20 -7 20 -18s-9 -19 -20 -19z" />
    <glyph glyph-name="grave" unicode="`" horiz-adv-x="395" 
d="M239 613l-104 63c-6 4 -9 9 -9 16c0 10 8 19 18 19c4 0 7 -1 11 -3l104 -64c6 -4 9 -10 9 -16c0 -9 -8 -18 -19 -18c-4 0 -6 1 -10 3z" />
    <glyph glyph-name="a" unicode="a" horiz-adv-x="451" 
d="M341 281v76c0 75 -53 111 -117 111c-41 0 -81 -12 -120 -34c-3 -2 -8 -3 -11 -3c-9 0 -18 7 -18 18c0 7 3 13 10 17c48 27 89 38 136 38c86 0 159 -47 159 -137v-322c0 -14 -9 -26 -22 -31c-43 -16 -96 -24 -137 -24c-60 0 -106 14 -136 41c-27 25 -41 61 -41 105
c0 46 14 80 41 105c30 27 76 40 136 40h120zM341 47v198h-120c-50 0 -87 -10 -110 -31c-19 -17 -28 -43 -28 -78c0 -34 9 -61 28 -78c23 -21 60 -32 110 -32c36 0 82 9 120 21z" />
    <glyph glyph-name="b" unicode="b" horiz-adv-x="473" 
d="M413 336v-178c0 -49 -16 -92 -46 -122s-72 -46 -122 -46c-51 0 -100 7 -146 24c-13 5 -22 17 -22 31v646c0 11 9 20 19 20c11 0 20 -9 20 -20v-229c37 27 82 42 129 42c50 0 92 -16 122 -46s46 -72 46 -122zM374 155v184c0 80 -49 129 -129 129c-48 0 -94 -18 -129 -52
v-370c41 -13 84 -20 129 -20c80 0 129 50 129 129z" />
    <glyph glyph-name="c" unicode="c" horiz-adv-x="392" 
d="M55 158v178c0 50 16 92 46 122s72 46 122 46c44 0 86 -11 125 -29c7 -3 11 -10 11 -17c0 -10 -8 -18 -19 -18c-3 0 -5 1 -8 2c-35 14 -71 26 -109 26c-80 0 -129 -52 -129 -132v-178c0 -79 49 -132 129 -132c38 0 75 10 109 27c2 1 5 2 8 2c9 0 19 -8 19 -19
c0 -7 -4 -13 -11 -17c-38 -20 -81 -29 -125 -29c-50 0 -92 16 -122 46s-46 73 -46 122z" />
    <glyph glyph-name="d" unicode="d" horiz-adv-x="468" 
d="M55 158v178c0 50 16 92 46 122s72 46 122 46c47 0 92 -15 129 -42v229c0 11 9 20 20 20c10 0 19 -9 19 -20v-646c0 -14 -9 -26 -22 -31c-46 -17 -95 -24 -146 -24c-50 0 -92 16 -122 46s-46 73 -46 122zM352 46v369c-35 34 -81 53 -129 53c-80 0 -129 -49 -129 -129v-184
c0 -79 49 -129 129 -129c45 0 88 7 129 20z" />
    <glyph glyph-name="e" unicode="e" horiz-adv-x="446" 
d="M359 244h-265v-86c0 -79 49 -132 129 -132c42 0 82 13 121 29c3 1 6 2 9 2c9 0 19 -8 19 -18c0 -8 -5 -15 -12 -18c-43 -19 -89 -31 -137 -31c-50 0 -92 16 -122 46s-46 73 -46 122v178c0 50 16 92 46 122s72 46 122 46s92 -16 122 -46s46 -72 46 -122v-60
c0 -18 -14 -32 -32 -32zM352 280v59c0 80 -49 129 -129 129s-129 -49 -129 -129v-59h258z" />
    <glyph glyph-name="f" unicode="f" horiz-adv-x="280" 
d="M77 10v448h-58c-11 0 -19 7 -19 18s8 18 19 18h58v101c0 64 52 116 116 116c19 0 35 -2 53 -5c10 -2 18 -8 18 -19c0 -10 -9 -17 -19 -17c-14 0 -28 5 -52 5c-42 0 -77 -35 -77 -77v-104h129c11 0 19 -7 19 -18s-8 -18 -19 -18h-129v-448c0 -11 -9 -20 -20 -20
c-10 0 -19 9 -19 20z" />
    <glyph glyph-name="g" unicode="g" horiz-adv-x="468" 
d="M352 -55v87c-37 -27 -82 -42 -129 -42c-50 0 -93 15 -123 45s-45 74 -45 123v178c0 50 15 93 45 123s73 45 123 45c51 0 100 -9 146 -24c13 -4 22 -17 22 -30v-505c0 -50 -16 -92 -46 -122s-72 -46 -122 -46c-46 0 -94 6 -133 28c-7 4 -11 11 -11 18c0 12 10 18 19 18
c3 0 5 -1 8 -2c37 -15 76 -26 117 -26c80 0 129 52 129 132zM352 76v372c-41 13 -84 20 -129 20c-80 0 -129 -49 -129 -129v-184c0 -79 49 -129 129 -129c47 0 92 16 129 50z" />
    <glyph glyph-name="h" unicode="h" horiz-adv-x="484" 
d="M374 10v329c0 80 -49 129 -129 129c-48 0 -94 -18 -129 -52v-406c0 -11 -9 -20 -20 -20c-10 0 -19 9 -19 20v681c0 11 9 20 19 20c11 0 20 -9 20 -20v-230c37 27 82 43 129 43c50 0 93 -15 123 -45s45 -73 45 -123v-326c0 -11 -9 -20 -19 -20c-11 0 -20 9 -20 20z" />
    <glyph glyph-name="i" unicode="i" horiz-adv-x="215" 
d="M88 10v475c0 10 9 19 20 19c10 0 19 -9 19 -19v-475c0 -11 -9 -20 -19 -20c-11 0 -20 9 -20 20zM108 649c-17 0 -31 14 -31 31s14 31 31 31s30 -14 30 -31s-13 -31 -30 -31z" />
    <glyph glyph-name="j" unicode="j" horiz-adv-x="217" 
d="M96 -47v532c0 10 9 19 19 19c11 0 20 -9 20 -19v-532c0 -89 -47 -150 -123 -171c-4 -1 -8 -2 -11 -2c-10 0 -19 8 -19 17c0 12 8 18 18 20c61 14 96 65 96 136zM115 649c-17 0 -30 14 -30 31s13 31 30 31s31 -14 31 -31s-14 -31 -31 -31z" />
    <glyph glyph-name="k" unicode="k" horiz-adv-x="412" 
d="M358 -3l-237 263v-250c0 -11 -9 -20 -20 -20c-10 0 -19 9 -19 20v681c0 11 9 20 19 20c11 0 20 -9 20 -20v-393l233 201c4 3 8 5 12 5c9 0 20 -8 20 -19c0 -6 -3 -11 -7 -15l-223 -192l231 -255c4 -4 5 -9 5 -13c0 -10 -7 -20 -19 -20c-5 0 -11 3 -15 7z" />
    <glyph glyph-name="l" unicode="l" horiz-adv-x="203" 
d="M82 10v681c0 11 9 20 19 20c11 0 20 -9 20 -20v-681c0 -11 -9 -20 -20 -20c-10 0 -19 9 -19 20z" />
    <glyph glyph-name="m" unicode="m" horiz-adv-x="736" 
d="M626 10v340c0 65 -53 118 -118 118c-43 0 -85 -16 -117 -46v-412c0 -11 -9 -20 -20 -20s-19 9 -19 20v373c0 50 -44 85 -104 85c-48 0 -90 -7 -132 -23v-435c0 -11 -9 -20 -20 -20c-10 0 -19 9 -19 20v437c0 13 8 25 21 30c48 18 96 27 150 27c46 0 94 -15 122 -50
c36 33 86 50 138 50c89 0 157 -68 157 -157v-337c0 -11 -9 -20 -19 -20c-11 0 -20 9 -20 20z" />
    <glyph glyph-name="n" unicode="n" horiz-adv-x="484" 
d="M374 10v329c0 80 -49 129 -129 129c-45 0 -89 -7 -129 -20v-438c0 -11 -9 -20 -20 -20c-10 0 -19 9 -19 20v440c0 13 9 26 22 30c46 15 95 24 146 24c50 0 93 -15 123 -45s45 -73 45 -123v-326c0 -11 -9 -20 -19 -20c-11 0 -20 9 -20 20z" />
    <glyph glyph-name="o" unicode="o" horiz-adv-x="465" 
d="M410 326v-158c0 -53 -16 -97 -48 -129s-77 -49 -129 -49c-53 0 -97 17 -129 49s-49 76 -49 129v158c0 53 17 97 49 129s76 49 129 49c52 0 97 -17 129 -49s48 -76 48 -129zM371 165v164c0 84 -51 139 -138 139c-86 0 -139 -53 -139 -139v-164c0 -86 53 -139 139 -139
c85 0 138 53 138 139z" />
    <glyph glyph-name="p" unicode="p" horiz-adv-x="473" 
d="M77 -204v654c0 13 9 26 22 30c46 15 96 24 146 24s93 -15 123 -45s45 -73 45 -123v-178c0 -49 -16 -92 -46 -122s-72 -46 -122 -46c-47 0 -92 15 -129 42v-236c0 -10 -9 -19 -20 -19c-10 0 -19 9 -19 19zM374 155v184c0 80 -49 129 -129 129c-45 0 -88 -7 -129 -20v-369
c35 -34 81 -53 129 -53c80 0 129 50 129 129z" />
    <glyph glyph-name="q" unicode="q" horiz-adv-x="468" 
d="M352 -204v236c-37 -27 -82 -42 -129 -42c-50 0 -92 16 -122 46s-46 73 -46 122v178c0 50 15 92 45 122s73 46 123 46s99 -9 146 -24c13 -4 22 -17 22 -30v-654c0 -10 -9 -19 -19 -19c-11 0 -20 9 -20 19zM352 79v369c-41 13 -84 20 -129 20c-80 0 -129 -49 -129 -129
v-184c0 -79 49 -129 129 -129c47 0 92 19 129 53z" />
    <glyph glyph-name="r" unicode="r" horiz-adv-x="293" 
d="M77 10v368c0 78 52 126 116 126c23 0 46 -2 68 -7c9 -2 16 -9 16 -20c0 -9 -9 -17 -18 -17c-14 0 -25 8 -66 8c-42 0 -77 -31 -77 -87v-371c0 -11 -9 -20 -20 -20c-10 0 -19 9 -19 20z" />
    <glyph glyph-name="s" unicode="s" horiz-adv-x="382" 
d="M217 222l-85 42c-46 23 -83 52 -83 117c0 71 67 123 140 123c42 0 85 -9 124 -24c8 -3 12 -10 12 -18c0 -10 -8 -19 -20 -19c-2 0 -7 1 -9 2c-34 14 -70 23 -107 23c-45 0 -101 -29 -101 -89c0 -49 36 -69 64 -82l85 -40c55 -26 97 -70 97 -127c0 -79 -63 -140 -148 -140
c-45 0 -84 9 -125 27c-7 3 -12 10 -12 17c0 9 8 20 19 20c3 0 5 -1 8 -2c37 -16 70 -27 110 -27c59 0 109 34 109 94c0 53 -27 78 -78 103z" />
    <glyph glyph-name="t" unicode="t" horiz-adv-x="297" 
d="M77 117v341h-58c-11 0 -19 7 -19 18s8 18 19 18h58v197c0 11 9 20 19 20c11 0 20 -9 20 -20v-197h129c11 0 19 -7 19 -18s-8 -18 -19 -18h-129v-341c0 -56 33 -91 77 -91c17 0 43 5 53 5c9 0 18 -7 18 -18c0 -9 -6 -16 -16 -18c-18 -3 -36 -5 -55 -5
c-68 0 -116 48 -116 127z" />
    <glyph glyph-name="u" unicode="u" horiz-adv-x="484" 
d="M368 46v438c0 11 9 20 20 20c10 0 19 -9 19 -20v-440c0 -13 -9 -26 -22 -30c-46 -15 -95 -24 -146 -24c-50 0 -93 15 -123 45s-45 73 -45 123v326c0 11 9 20 19 20c11 0 20 -9 20 -20v-329c0 -80 49 -129 129 -129c45 0 89 7 129 20z" />
    <glyph glyph-name="v" unicode="v" horiz-adv-x="378" 
d="M169 8l-152 471c-1 3 -1 4 -1 6c0 9 7 19 19 19c8 0 16 -5 19 -13l139 -442l131 441c3 9 10 14 18 14c10 0 20 -8 20 -19c0 -2 0 -3 -1 -6l-143 -471c-3 -10 -13 -18 -24 -18c-12 0 -22 8 -25 18z" />
    <glyph glyph-name="w" unicode="w" horiz-adv-x="649" 
d="M438 9l-114 428l-114 -428c-3 -11 -13 -19 -25 -19c-11 0 -21 8 -24 19l-133 470c-1 3 -1 5 -1 7c0 9 8 18 19 18c8 0 17 -6 19 -14l120 -435l114 430c3 11 14 19 25 19c12 0 22 -8 25 -19l114 -430l121 435c2 8 10 14 19 14s19 -7 19 -18c0 -2 0 -4 -1 -7l-133 -470
c-3 -11 -13 -19 -25 -19c-11 0 -22 8 -25 19z" />
    <glyph glyph-name="x" unicode="x" horiz-adv-x="390" 
d="M327 -1l-132 215l-132 -215c-4 -6 -11 -9 -17 -9c-10 0 -19 9 -19 20c0 4 1 7 3 10l143 230l-140 224c-2 4 -3 7 -3 11c0 9 8 19 19 19c6 0 13 -3 17 -9l129 -209l129 209c4 6 11 9 17 9c10 0 19 -8 19 -19c0 -4 -1 -7 -3 -11l-140 -224l143 -230c2 -3 3 -6 3 -10
c0 -9 -7 -20 -19 -20c-6 0 -13 3 -17 9z" />
    <glyph glyph-name="y" unicode="y" horiz-adv-x="398" 
d="M165 -97l27 90l-168 485c-1 3 -1 5 -1 7c0 9 7 19 19 19c8 0 16 -5 19 -13l150 -443l133 442c3 9 10 14 18 14c10 0 20 -7 20 -19c0 -2 0 -3 -1 -6l-179 -587c-21 -69 -86 -115 -161 -115c-11 0 -19 7 -19 18c0 10 7 17 18 18c32 2 52 8 71 19c27 15 45 42 54 71z" />
    <glyph glyph-name="z" unicode="z" horiz-adv-x="402" 
d="M350 0h-291c-14 0 -26 12 -26 26c0 5 1 10 4 14l282 417h-264c-12 0 -19 8 -19 19s9 18 20 18h284c14 0 26 -11 26 -25c0 -6 -2 -11 -5 -15l-282 -417h271c10 0 19 -8 19 -19c0 -10 -9 -18 -19 -18z" />
    <glyph glyph-name="braceleft" unicode="{" horiz-adv-x="373" 
d="M164 -16v209c0 53 -39 96 -92 104c-10 2 -17 10 -17 20c0 9 7 18 17 19c53 6 92 51 92 104v209c0 72 59 130 131 130c10 0 18 -8 18 -19c0 -10 -9 -17 -19 -17c-50 0 -91 -44 -91 -94v-209c0 -52 -26 -98 -78 -123c52 -26 78 -72 78 -124v-209c0 -50 41 -93 91 -93
c10 0 19 -7 19 -18s-9 -18 -19 -18c-72 0 -130 57 -130 129z" />
    <glyph glyph-name="bar" unicode="|" horiz-adv-x="303" 
d="M132 -204v963c0 11 9 20 19 20c11 0 20 -9 20 -20v-963c0 -10 -9 -19 -20 -19c-10 0 -19 9 -19 19z" />
    <glyph glyph-name="braceright" unicode="}" horiz-adv-x="373" 
d="M170 -16v209c0 52 26 98 78 124c-52 25 -78 71 -78 123v209c0 50 -41 94 -91 94c-10 0 -19 7 -19 17c0 11 8 19 18 19c72 0 131 -58 131 -130v-209c0 -53 39 -98 92 -104c10 -1 17 -10 17 -19c0 -10 -7 -18 -17 -20c-53 -8 -92 -51 -92 -104v-209
c0 -72 -58 -129 -130 -129c-10 0 -19 7 -19 18s9 18 19 18c50 0 91 43 91 93z" />
    <glyph glyph-name="asciitilde" unicode="~" horiz-adv-x="500" 
d="M494 271c-24 -46 -77 -73 -132 -73c-42 0 -83 18 -122 41c-29 17 -63 37 -102 37c-41 0 -82 -22 -100 -56c-4 -6 -10 -10 -17 -10c-10 0 -18 8 -18 19c0 3 1 6 2 9c25 46 79 74 134 74c41 0 82 -18 121 -41c29 -17 64 -37 102 -37c41 0 82 22 100 56c4 6 9 10 16 10
c10 0 19 -8 19 -19c0 -3 -1 -7 -3 -10z" />
    <glyph glyph-name="uni00A0" unicode="&#xa0;" horiz-adv-x="250" 
 />
    <glyph glyph-name="exclamdown" unicode="&#xa1;" horiz-adv-x="351" 
d="M156 -204v513c0 10 9 19 19 19c11 0 20 -9 20 -19v-513c0 -10 -9 -19 -20 -19c-10 0 -19 9 -19 19zM175 452c-18 0 -32 15 -32 33s14 32 32 32s33 -14 33 -32s-15 -33 -33 -33z" />
    <glyph glyph-name="cent" unicode="&#xa2;" 
d="M250 10v108c-35 4 -65 18 -87 40c-28 28 -42 66 -42 111v163c0 45 14 83 42 111c22 22 52 36 87 40v108c0 11 9 20 19 20c11 0 20 -9 20 -20v-107c34 -1 68 -9 98 -25c7 -4 11 -10 11 -17c0 -9 -8 -18 -19 -18c-3 0 -6 1 -9 2c-31 15 -62 23 -96 23
c-70 0 -114 -44 -114 -114v-169c0 -70 44 -114 114 -114c32 0 61 7 91 21c4 2 9 5 14 5c10 0 19 -8 19 -19c0 -7 -4 -13 -11 -17c-30 -16 -64 -23 -98 -25v-107c0 -11 -9 -20 -20 -20c-10 0 -19 9 -19 20z" />
    <glyph glyph-name="sterling" unicode="&#xa3;" 
d="M424 0h-329c-9 0 -19 7 -19 19c0 5 2 10 6 14c53 53 84 125 84 202v149h-70c-11 0 -20 9 -20 19s9 19 20 19h70v132c0 46 15 86 44 114c28 28 67 43 114 43c33 0 64 -10 94 -29c6 -4 9 -10 9 -16c0 -10 -8 -19 -18 -19c-4 0 -8 1 -11 3c-23 15 -49 24 -74 24
c-73 0 -118 -44 -118 -117v-135h202c10 0 19 -9 19 -19s-9 -19 -19 -19h-202v-149c0 -73 -26 -141 -70 -197h288c11 0 20 -8 20 -19c0 -10 -8 -19 -20 -19z" />
    <glyph glyph-name="currency" unicode="&#xa4;" 
d="M450 133l-76 77c-32 -25 -71 -40 -114 -40s-82 15 -113 40l-78 -78c-4 -4 -9 -5 -14 -5c-10 0 -19 7 -19 19c0 5 2 10 6 14l77 77c-25 31 -40 71 -40 114c0 42 15 82 40 113l-77 78c-4 4 -6 8 -6 13c0 9 8 20 19 20c5 0 10 -2 14 -6l78 -78c31 25 70 41 113 41
s82 -16 114 -41l77 78c4 4 9 6 14 6c10 0 19 -9 19 -20c0 -5 -2 -10 -5 -13l-78 -78c25 -31 40 -71 40 -113c0 -43 -15 -83 -40 -114l77 -77c4 -4 5 -9 5 -14c0 -10 -8 -19 -19 -19c-5 0 -10 2 -14 6zM260 206c78 0 142 65 142 145c0 79 -64 144 -142 144
s-142 -65 -142 -144c0 -80 64 -145 142 -145z" />
    <glyph glyph-name="yen" unicode="&#xa5;" 
d="M414 163h-134v-153c0 -11 -9 -20 -20 -20s-20 9 -20 20v153h-135c-11 0 -20 8 -20 19s9 19 20 19h135v110h-135c-11 0 -20 8 -20 19c0 10 9 19 20 19h121l-184 333c-2 4 -2 8 -2 11c0 9 8 18 19 18c7 0 14 -4 17 -10l184 -335l183 335c3 6 10 10 17 10c9 0 19 -8 19 -19
c0 -3 0 -6 -2 -10l-183 -333h121c11 0 19 -9 19 -19s-8 -19 -19 -19h-135v-110h134c11 0 20 -8 20 -19s-9 -19 -20 -19z" />
    <glyph glyph-name="brokenbar" unicode="&#xa6;" horiz-adv-x="303" 
d="M132 -204v372c0 11 9 19 19 19c11 0 20 -8 20 -19v-372c0 -10 -9 -19 -20 -19c-10 0 -19 9 -19 19zM132 388v371c0 11 9 20 19 20c11 0 20 -9 20 -20v-371c0 -11 -9 -20 -20 -20c-10 0 -19 9 -19 20z" />
    <glyph glyph-name="section" unicode="&#xa7;" 
d="M295 100l-92 47c-72 37 -108 89 -108 147c0 51 28 108 86 162c-36 24 -62 59 -62 119c0 79 68 138 149 138c57 0 91 -9 132 -28c6 -3 11 -9 11 -17c0 -10 -8 -19 -19 -19c-2 0 -6 1 -8 2c-38 16 -62 30 -116 30c-57 0 -113 -37 -113 -109c0 -58 39 -81 70 -97l92 -47
c72 -37 108 -89 108 -147c0 -52 -29 -108 -87 -162c37 -24 64 -56 64 -119c0 -79 -69 -138 -150 -138c-57 0 -91 8 -132 28c-7 4 -11 9 -11 17c0 10 8 19 19 19c2 0 6 -1 8 -2c38 -16 62 -30 116 -30c57 0 113 37 113 109c0 58 -39 81 -70 97zM223 180l86 -45
c52 48 80 100 80 143c0 45 -30 85 -92 117l-87 45c-52 -48 -79 -101 -79 -143c0 -45 30 -85 92 -117z" />
    <glyph glyph-name="dieresis" unicode="&#xa8;" horiz-adv-x="395" 
d="M147 683c0 -15 -13 -27 -28 -27s-27 12 -27 27c0 16 12 28 27 28s28 -12 28 -28zM302 683c0 -15 -13 -27 -28 -27s-27 12 -27 27c0 16 12 28 27 28s28 -12 28 -28z" />
    <glyph glyph-name="copyright" unicode="&#xa9;" horiz-adv-x="853" 
d="M295 302v97c0 43 14 79 40 105s62 40 105 40c30 0 61 -8 87 -26c5 -4 8 -9 8 -15c0 -9 -7 -18 -17 -18c-3 0 -7 1 -10 3c-21 14 -44 21 -68 21c-68 0 -110 -42 -110 -110v-97c0 -68 42 -110 110 -110c24 0 47 7 68 21c3 2 7 3 10 3c8 0 17 -7 17 -17c0 -6 -3 -12 -8 -15
c-27 -17 -57 -27 -87 -27c-43 0 -79 14 -105 40s-40 62 -40 105zM426 -10c-198 0 -360 162 -360 361c0 198 162 360 360 360c199 0 361 -162 361 -360c0 -199 -162 -361 -361 -361zM426 25c180 0 326 146 326 326c0 179 -146 325 -326 325c-179 0 -325 -146 -325 -325
c0 -180 146 -326 325 -326z" />
    <glyph glyph-name="ordfeminine" unicode="&#xaa;" horiz-adv-x="348" 
d="M234 590v39c0 27 -28 51 -59 51c-22 0 -44 -6 -65 -18c-3 -2 -7 -3 -10 -3c-9 0 -17 5 -17 16c0 7 4 13 10 16c27 15 53 21 80 21c60 0 96 -40 96 -85v-167c0 -12 -7 -22 -18 -25c-27 -9 -53 -14 -82 -14c-83 0 -101 51 -101 83s19 86 101 86h65zM234 464v93h-65
c-57 0 -66 -31 -66 -53s11 -51 66 -51c22 0 45 5 65 11z" />
    <glyph glyph-name="guillemotleft" unicode="&#xab;" horiz-adv-x="456" 
d="M193 63l-121 169c-4 5 -6 12 -6 18c0 7 2 14 6 19l121 169c4 5 10 8 16 8c11 0 19 -10 19 -20c0 -3 0 -7 -3 -11l-119 -165l119 -164c3 -4 3 -8 3 -12c0 -11 -10 -19 -19 -19c-6 0 -12 3 -16 8zM355 63l-121 169c-4 5 -6 12 -6 18c0 7 2 14 6 19l121 169c4 5 10 8 16 8
c11 0 19 -10 19 -20c0 -3 0 -7 -3 -11l-119 -165l119 -164c3 -4 3 -8 3 -12c0 -11 -10 -19 -19 -19c-6 0 -12 3 -16 8z" />
    <glyph glyph-name="logicalnot" unicode="&#xac;" 
d="M449 62v167h-399c-11 0 -19 8 -19 18c0 11 9 19 19 19h406c18 0 32 -15 32 -32v-172c0 -10 -9 -19 -19 -19c-11 0 -20 9 -20 19z" />
    <glyph glyph-name="uni00AD" unicode="&#xad;" horiz-adv-x="397" 
d="M312 277h-227c-10 0 -19 7 -19 18s9 19 19 19h227c10 0 19 -9 19 -19s-9 -18 -19 -18z" />
    <glyph glyph-name="registered" unicode="&#xae;" horiz-adv-x="853" 
d="M426 -10c-198 0 -360 162 -360 361c0 198 162 360 360 360c199 0 361 -162 361 -360c0 -199 -162 -361 -361 -361zM426 23c180 0 326 148 326 328c0 179 -146 327 -326 327c-179 0 -325 -148 -325 -327c0 -180 146 -328 325 -328zM523 166l-94 166h-68v-158
c0 -10 -8 -17 -18 -17s-17 7 -17 17v343c0 14 11 25 24 25h97c60 0 105 -44 105 -107c0 -56 -33 -94 -85 -102l85 -150c2 -3 3 -6 3 -9c0 -8 -6 -17 -17 -17c-6 0 -12 3 -15 9zM361 365h86c45 0 70 25 70 70c0 43 -26 74 -70 74h-86v-144z" />
    <glyph glyph-name="macron" unicode="&#xaf;" horiz-adv-x="387" 
d="M271 664h-155c-10 0 -19 7 -19 18s9 19 19 19h155c11 0 20 -8 20 -19s-9 -18 -20 -18z" />
    <glyph glyph-name="degree" unicode="&#xb0;" horiz-adv-x="365" 
d="M182 456c-70 0 -127 57 -127 128c0 70 57 127 127 127s128 -57 128 -127c0 -71 -58 -128 -128 -128zM182 489c51 0 93 43 93 95s-42 94 -93 94s-92 -42 -92 -94s41 -95 92 -95z" />
    <glyph glyph-name="plusminus" unicode="&#xb1;" 
d="M487 0h-455c-10 0 -19 7 -19 18s9 19 19 19h455c11 0 20 -8 20 -19s-9 -18 -20 -18zM487 269h-207v-179c0 -11 -9 -20 -20 -20s-19 9 -19 20v179h-209c-10 0 -19 7 -19 18s9 19 19 19h209v179c0 10 8 19 19 19s20 -9 20 -19v-179h207c11 0 20 -8 20 -19s-9 -18 -20 -18z
" />
    <glyph glyph-name="twosuperior" unicode="&#xb2;" horiz-adv-x="347" 
d="M262 292h-172c-12 0 -21 9 -21 21c0 5 1 9 4 13l137 191c14 19 31 49 31 83c0 48 -26 79 -70 79c-25 0 -51 -6 -72 -19c-2 -1 -5 -2 -8 -2c-8 0 -16 6 -16 16c0 6 3 12 8 15c33 19 59 22 88 22c63 0 105 -45 105 -111c0 -43 -22 -79 -38 -102l-124 -173h148
c10 0 17 -7 17 -17s-7 -16 -17 -16z" />
    <glyph glyph-name="threesuperior" unicode="&#xb3;" horiz-adv-x="348" 
d="M161 490h-11c-10 0 -17 7 -17 16c0 10 7 16 17 16h7c44 0 79 36 79 78c0 48 -26 79 -69 79c-26 0 -45 -3 -71 -18c-3 -2 -7 -3 -10 -3c-8 0 -16 5 -16 16c0 6 3 12 9 15c32 17 58 22 88 22c62 0 104 -45 104 -111c0 -38 -20 -72 -50 -92c36 -20 61 -59 61 -103
c0 -70 -48 -119 -115 -119c-35 0 -64 7 -92 21c-6 3 -9 9 -9 15c0 9 6 17 16 17c3 0 7 -1 10 -3c21 -13 45 -18 75 -18c48 0 80 36 80 87c0 46 -39 85 -86 85z" />
    <glyph glyph-name="acute" unicode="&#xb4;" horiz-adv-x="395" 
d="M259 677l-104 -64c-4 -2 -7 -3 -11 -3c-10 0 -18 9 -18 19c0 7 3 12 9 16l104 63c4 2 6 3 10 3c11 0 19 -9 19 -18c0 -6 -3 -12 -9 -16z" />
    <glyph glyph-name="mu" unicode="&#xb5;" horiz-adv-x="500" 
d="M385 46v439c0 10 9 19 20 19c10 0 19 -9 19 -19v-440c0 -14 -9 -26 -22 -31c-46 -17 -95 -24 -146 -24c-54 0 -99 23 -129 64v-258c0 -10 -9 -19 -20 -19c-10 0 -19 9 -19 19v689c0 10 9 19 19 19c11 0 20 -9 20 -19v-315c0 -79 47 -144 129 -144c45 0 88 7 129 20z" />
    <glyph glyph-name="paragraph" unicode="&#xb6;" horiz-adv-x="500" 
d="M432 -204v867h-139v-867c0 -10 -9 -19 -19 -19c-11 0 -21 9 -21 19v550h-48c-53 0 -97 17 -129 48c-32 32 -49 77 -49 129c0 53 17 98 49 129c32 32 76 49 129 49h235c18 0 32 -14 32 -32v-873c0 -10 -9 -19 -20 -19s-20 9 -20 19z" />
    <glyph glyph-name="periodcentered" unicode="&#xb7;" horiz-adv-x="263" 
d="M164 296c0 -18 -15 -33 -33 -33s-32 15 -32 33c0 17 14 32 32 32s33 -15 33 -32z" />
    <glyph glyph-name="cedilla" unicode="&#xb8;" horiz-adv-x="395" 
d="M224 -1l-9 -42c34 -16 56 -35 56 -67c0 -52 -40 -84 -102 -105c-7 -2 -20 -6 -27 -6c-10 0 -19 4 -19 16c0 11 7 17 15 18c27 5 96 25 96 69c0 26 -19 35 -52 51c-6 4 -8 8 -8 13c0 6 3 15 4 20l9 40c2 9 7 18 21 18c9 0 17 -6 17 -18c0 -2 0 -3 -1 -7z" />
    <glyph glyph-name="onesuperior" unicode="&#xb9;" horiz-adv-x="356" 
d="M176 304v364l-68 -39c-3 -2 -7 -3 -10 -3c-10 0 -16 8 -16 16c0 6 3 12 9 15l88 51c4 3 9 3 11 3c12 0 21 -10 21 -21v-386c0 -10 -8 -18 -17 -18c-10 0 -18 8 -18 18z" />
    <glyph glyph-name="ordmasculine" unicode="&#xba;" horiz-adv-x="388" 
d="M320 585v-97c0 -75 -51 -126 -126 -126s-126 51 -126 126v97c0 75 51 126 126 126s126 -51 126 -126zM285 485v103c0 56 -35 91 -91 91s-91 -35 -91 -91v-103c0 -56 35 -91 91 -91s91 35 91 91z" />
    <glyph glyph-name="guillemotright" unicode="&#xbb;" horiz-adv-x="456" 
d="M384 232l-121 -169c-4 -5 -10 -8 -16 -8c-9 0 -19 8 -19 19c0 4 0 8 3 12l119 164l-119 165c-3 4 -3 8 -3 11c0 10 8 20 19 20c6 0 12 -3 16 -8l121 -169c4 -5 6 -12 6 -19c0 -6 -2 -13 -6 -18zM222 232l-121 -169c-4 -5 -10 -8 -16 -8c-9 0 -19 8 -19 19c0 4 0 8 3 12
l119 164l-119 165c-3 4 -3 8 -3 11c0 10 8 20 19 20c6 0 12 -3 16 -8l121 -169c4 -5 6 -12 6 -19c0 -6 -2 -13 -6 -18z" />
    <glyph glyph-name="onequarter" unicode="&#xbc;" horiz-adv-x="782" 
d="M630 8v84h-122c-11 0 -21 7 -21 20c0 3 1 6 2 10l95 281c3 8 9 12 16 12c9 0 17 -6 17 -17c0 -2 0 -4 -1 -6l-91 -267h105v84c0 9 8 17 18 17c9 0 17 -8 17 -17v-84h44c10 0 18 -7 18 -17s-8 -16 -18 -16h-44v-84c0 -10 -7 -18 -18 -18s-17 8 -17 18zM138 304v364
l-68 -39c-3 -2 -7 -3 -10 -3c-10 0 -16 8 -16 16c0 6 3 12 9 15l88 51c4 3 9 3 11 3c12 0 21 -10 21 -21v-386c0 -10 -8 -18 -17 -18c-10 0 -18 8 -18 18zM125 18l474 684c3 5 8 9 14 9c9 0 17 -7 17 -18c0 -4 -2 -7 -4 -10l-475 -685c-3 -5 -8 -8 -14 -8
c-10 0 -16 7 -16 17c0 4 2 8 4 11z" />
    <glyph glyph-name="onehalf" unicode="&#xbd;" horiz-adv-x="837" 
d="M138 304v364l-68 -39c-3 -2 -7 -3 -10 -3c-10 0 -16 8 -16 16c0 6 3 12 9 15l88 51c4 3 9 3 11 3c12 0 21 -10 21 -21v-386c0 -10 -8 -18 -17 -18c-10 0 -18 8 -18 18zM738 0h-172c-12 0 -21 9 -21 21c0 5 1 9 4 13l137 187c14 19 31 49 31 83c0 48 -26 79 -70 79
c-25 0 -51 -6 -72 -19c-2 -1 -5 -2 -8 -2c-8 0 -16 6 -16 16c0 6 3 12 8 15c33 19 59 22 88 22c63 0 105 -45 105 -111c0 -43 -22 -79 -38 -102l-124 -169h148c10 0 17 -7 17 -17s-7 -16 -17 -16zM117 18l474 684c3 5 8 9 14 9c9 0 17 -7 17 -18c0 -4 -2 -7 -4 -10
l-475 -685c-3 -5 -8 -8 -14 -8c-10 0 -16 7 -16 17c0 4 2 8 4 11z" />
    <glyph glyph-name="threequarters" unicode="&#xbe;" horiz-adv-x="834" 
d="M686 8v84h-122c-11 0 -21 7 -21 20c0 3 1 6 2 10l95 281c3 8 9 12 16 12c9 0 17 -6 17 -17c0 -2 0 -4 -1 -6l-91 -267h105v84c0 9 8 17 18 17c9 0 17 -8 17 -17v-84h44c10 0 18 -7 18 -17s-8 -16 -18 -16h-44v-84c0 -10 -7 -18 -18 -18s-17 8 -17 18zM147 490h-11
c-10 0 -17 7 -17 16c0 10 7 16 17 16h7c44 0 79 36 79 78c0 48 -26 79 -69 79c-26 0 -45 -3 -71 -18c-3 -2 -7 -3 -10 -3c-8 0 -16 5 -16 16c0 6 3 12 9 15c32 17 58 22 88 22c62 0 104 -45 104 -111c0 -38 -20 -72 -50 -92c36 -20 61 -59 61 -103c0 -70 -48 -119 -115 -119
c-35 0 -64 7 -92 21c-6 3 -9 9 -9 15c0 9 6 17 16 17c3 0 7 -1 10 -3c21 -13 45 -18 75 -18c48 0 80 36 80 87c0 46 -39 85 -86 85zM180 18l474 684c3 5 8 9 14 9c9 0 17 -7 17 -18c0 -4 -2 -7 -4 -10l-475 -685c-3 -5 -8 -8 -14 -8c-10 0 -16 7 -16 17c0 4 2 8 4 11z" />
    <glyph glyph-name="questiondown" unicode="&#xbf;" horiz-adv-x="438" 
d="M206 106l-66 -51c-31 -24 -46 -64 -46 -104c0 -75 58 -138 129 -138c43 0 82 12 121 28c3 1 6 2 9 2c12 0 19 -8 19 -18c0 -7 -5 -15 -12 -18c-44 -20 -89 -30 -137 -30c-92 0 -168 78 -168 174c0 51 20 100 60 131l65 51c20 16 30 42 30 68v107c0 11 9 20 20 20
s19 -9 19 -20v-105c0 -38 -14 -75 -43 -97zM230 452c-18 0 -32 15 -32 32c0 18 14 33 32 33s32 -15 32 -33c0 -17 -14 -32 -32 -32z" />
    <glyph glyph-name="Agrave" unicode="&#xc0;" horiz-adv-x="523" 
d="M403 208h-283l-66 -204c-3 -9 -11 -14 -19 -14c-10 0 -19 9 -19 20c0 1 0 3 1 6l220 677c3 10 14 18 25 18s20 -7 24 -18l220 -677c1 -3 1 -5 1 -7c0 -9 -8 -19 -19 -19c-8 0 -16 5 -19 14c0 0 -29 91 -66 204zM390 246l-128 397l-129 -397h257zM290 786l-104 63
c-6 4 -9 9 -9 16c0 10 8 19 18 19c4 0 7 -1 11 -3l104 -64c6 -4 9 -10 9 -16c0 -9 -8 -18 -19 -18c-4 0 -6 1 -10 3z" />
    <glyph glyph-name="Aacute" unicode="&#xc1;" horiz-adv-x="523" 
d="M403 208h-283l-66 -204c-3 -9 -11 -14 -19 -14c-10 0 -19 9 -19 20c0 1 0 3 1 6l220 677c3 10 14 18 25 18s20 -7 24 -18l220 -677c1 -3 1 -5 1 -7c0 -9 -8 -19 -19 -19c-8 0 -16 5 -19 14c0 0 -29 91 -66 204zM390 246l-128 397l-129 -397h257zM337 850l-104 -64
c-4 -2 -7 -3 -11 -3c-10 0 -18 9 -18 19c0 7 3 12 9 16l104 63c4 2 6 3 10 3c11 0 19 -9 19 -18c0 -6 -3 -12 -9 -16z" />
    <glyph glyph-name="Acircumflex" unicode="&#xc2;" horiz-adv-x="523" 
d="M403 208h-283l-66 -204c-3 -9 -11 -14 -19 -14c-10 0 -19 9 -19 20c0 1 0 3 1 6l220 677c3 10 14 18 25 18s20 -7 24 -18l220 -677c1 -3 1 -5 1 -7c0 -9 -8 -19 -19 -19c-8 0 -16 5 -19 14c0 0 -29 91 -66 204zM390 246l-128 397l-129 -397h257zM348 787l-87 59l-86 -59
c-3 -2 -7 -4 -11 -4c-12 0 -19 8 -19 18c0 6 2 11 8 15l90 62c5 4 11 6 18 6s14 -2 19 -6l89 -62c6 -4 8 -9 8 -15c0 -11 -8 -18 -18 -18c-4 0 -7 1 -11 4z" />
    <glyph glyph-name="Atilde" unicode="&#xc3;" horiz-adv-x="523" 
d="M403 208h-283l-66 -204c-3 -9 -11 -14 -19 -14c-10 0 -19 9 -19 20c0 1 0 3 1 6l220 677c3 10 14 18 25 18s20 -7 24 -18l220 -677c1 -3 1 -5 1 -7c0 -9 -8 -19 -19 -19c-8 0 -16 5 -19 14c0 0 -29 91 -66 204zM390 246l-128 397l-129 -397h257zM384 852
c-20 -24 -42 -39 -77 -39c-23 0 -41 8 -58 21c-10 8 -22 14 -35 14c-17 0 -36 -10 -47 -25c-4 -5 -9 -9 -16 -9c-11 0 -18 9 -18 18c0 4 2 10 5 13c21 24 47 39 76 39c24 0 42 -10 59 -22c10 -7 22 -13 34 -13c19 0 37 10 48 25c4 5 9 8 15 8c11 0 18 -9 18 -19
c0 -5 -2 -8 -4 -11z" />
    <glyph glyph-name="Adieresis" unicode="&#xc4;" horiz-adv-x="523" 
d="M403 208h-283l-66 -204c-3 -9 -11 -14 -19 -14c-10 0 -19 9 -19 20c0 1 0 3 1 6l220 677c3 10 14 18 25 18s20 -7 24 -18l220 -677c1 -3 1 -5 1 -7c0 -9 -8 -19 -19 -19c-8 0 -16 5 -19 14c0 0 -29 91 -66 204zM390 246l-128 397l-129 -397h257zM211 864
c0 -15 -12 -27 -28 -27c-15 0 -27 12 -27 27c0 16 12 28 27 28c16 0 28 -12 28 -28zM339 837c-16 0 -28 12 -28 27c0 16 12 28 28 28c15 0 27 -12 27 -28c0 -15 -12 -27 -27 -27z" />
    <glyph glyph-name="Aring" unicode="&#xc5;" horiz-adv-x="523" 
d="M403 208h-283l-66 -204c-3 -9 -11 -14 -19 -14c-10 0 -19 9 -19 20c0 1 0 3 1 6l220 677c3 10 14 18 25 18s20 -7 24 -18l220 -677c1 -3 1 -5 1 -7c0 -9 -8 -19 -19 -19c-8 0 -16 5 -19 14c0 0 -29 91 -66 204zM390 246l-128 397l-129 -397h257zM261 769
c-53 0 -95 42 -95 95c0 52 42 95 95 95c52 0 95 -43 95 -95c0 -53 -43 -95 -95 -95zM261 802c33 0 60 28 60 62s-27 62 -60 62s-60 -28 -60 -62s27 -62 60 -62z" />
    <glyph glyph-name="AE" unicode="&#xc6;" horiz-adv-x="791" 
d="M733 0h-297c-18 0 -32 14 -32 32v176h-230l-122 -208c-3 -6 -10 -9 -17 -9c-10 0 -19 7 -19 18c0 3 1 7 3 10l389 667c5 9 17 15 28 15h291c11 0 19 -8 19 -19s-8 -20 -19 -20h-284v-279h271c11 0 19 -9 19 -20c0 -10 -8 -19 -19 -19h-271v-305h290c11 0 20 -9 20 -20
c0 -10 -9 -19 -20 -19zM404 247v354l-207 -354h207z" />
    <glyph glyph-name="Ccedilla" unicode="&#xc7;" horiz-adv-x="465" 
d="M60 216v269c0 67 21 123 62 164c40 40 97 62 164 62c48 0 93 -14 137 -42c6 -4 9 -11 9 -17c0 -10 -8 -18 -19 -18c-4 0 -8 1 -11 3c-37 24 -76 37 -116 37c-115 0 -186 -74 -186 -189v-269c0 -115 71 -189 186 -189c40 0 79 14 116 38c3 2 6 3 10 3c9 0 20 -7 20 -19
c0 -6 -3 -13 -9 -17c-44 -28 -89 -42 -137 -42h-15l-7 -33c34 -16 56 -35 56 -67c0 -52 -40 -84 -102 -105c-7 -2 -20 -6 -27 -6c-10 0 -19 4 -19 16c0 11 7 17 15 18c27 5 96 25 96 69c0 26 -19 35 -52 51c-6 4 -8 8 -8 13c0 6 3 15 4 20l6 29c-44 8 -82 28 -111 57
c-41 41 -62 97 -62 164z" />
    <glyph glyph-name="Egrave" unicode="&#xc8;" horiz-adv-x="469" 
d="M412 0h-298c-18 0 -32 14 -32 32v637c0 18 14 32 32 32h291c11 0 19 -8 19 -19s-8 -19 -19 -19h-283v-281h270c11 0 20 -8 20 -19c0 -10 -9 -19 -20 -19h-270v-306h290c10 0 19 -8 19 -19c0 -10 -9 -19 -19 -19zM280 786l-104 63c-6 4 -9 9 -9 16c0 10 8 19 18 19
c4 0 7 -1 11 -3l104 -64c6 -4 9 -10 9 -16c0 -9 -8 -18 -19 -18c-4 0 -6 1 -10 3z" />
    <glyph glyph-name="Eacute" unicode="&#xc9;" horiz-adv-x="469" 
d="M412 0h-298c-18 0 -32 14 -32 32v637c0 18 14 32 32 32h291c11 0 19 -8 19 -19s-8 -19 -19 -19h-283v-281h270c11 0 20 -8 20 -19c0 -10 -9 -19 -20 -19h-270v-306h290c10 0 19 -8 19 -19c0 -10 -9 -19 -19 -19zM327 850l-104 -64c-4 -2 -7 -3 -11 -3c-10 0 -18 9 -18 19
c0 7 3 12 9 16l104 63c4 2 6 3 10 3c11 0 19 -9 19 -18c0 -6 -3 -12 -9 -16z" />
    <glyph glyph-name="Ecircumflex" unicode="&#xca;" horiz-adv-x="469" 
d="M412 0h-298c-18 0 -32 14 -32 32v637c0 18 14 32 32 32h291c11 0 19 -8 19 -19s-8 -19 -19 -19h-283v-281h270c11 0 20 -8 20 -19c0 -10 -9 -19 -20 -19h-270v-306h290c10 0 19 -8 19 -19c0 -10 -9 -19 -19 -19zM338 787l-87 59l-86 -59c-3 -2 -7 -4 -11 -4
c-12 0 -19 8 -19 18c0 6 2 11 8 15l90 62c5 4 11 6 18 6s14 -2 19 -6l89 -62c6 -4 8 -9 8 -15c0 -11 -8 -18 -18 -18c-4 0 -7 1 -11 4z" />
    <glyph glyph-name="Edieresis" unicode="&#xcb;" horiz-adv-x="469" 
d="M412 0h-298c-18 0 -32 14 -32 32v637c0 18 14 32 32 32h291c11 0 19 -8 19 -19s-8 -19 -19 -19h-283v-281h270c11 0 20 -8 20 -19c0 -10 -9 -19 -20 -19h-270v-306h290c10 0 19 -8 19 -19c0 -10 -9 -19 -19 -19zM201 864c0 -15 -12 -27 -28 -27c-15 0 -27 12 -27 27
c0 16 12 28 27 28c16 0 28 -12 28 -28zM329 837c-16 0 -28 12 -28 27c0 16 12 28 28 28c15 0 27 -12 27 -28c0 -15 -12 -27 -27 -27z" />
    <glyph glyph-name="Igrave" unicode="&#xcc;" horiz-adv-x="204" 
d="M82 10v681c0 11 10 20 20 20c11 0 20 -9 20 -20v-681c0 -11 -9 -20 -20 -20c-10 0 -20 9 -20 20zM131 786l-104 63c-6 4 -9 9 -9 16c0 10 8 19 18 19c4 0 7 -1 11 -3l104 -64c6 -4 9 -10 9 -16c0 -9 -8 -18 -19 -18c-4 0 -6 1 -10 3z" />
    <glyph glyph-name="Iacute" unicode="&#xcd;" horiz-adv-x="204" 
d="M82 10v681c0 11 10 20 20 20c11 0 20 -9 20 -20v-681c0 -11 -9 -20 -20 -20c-10 0 -20 9 -20 20zM178 850l-104 -64c-4 -2 -7 -3 -11 -3c-10 0 -18 9 -18 19c0 7 3 12 9 16l104 63c4 2 6 3 10 3c11 0 19 -9 19 -18c0 -6 -3 -12 -9 -16z" />
    <glyph glyph-name="Icircumflex" unicode="&#xce;" horiz-adv-x="204" 
d="M82 10v681c0 11 10 20 20 20c11 0 20 -9 20 -20v-681c0 -11 -9 -20 -20 -20c-10 0 -20 9 -20 20zM189 787l-87 59l-86 -59c-3 -2 -7 -4 -11 -4c-12 0 -19 8 -19 18c0 6 2 11 8 15l90 62c5 4 11 6 18 6s14 -2 19 -6l89 -62c6 -4 8 -9 8 -15c0 -11 -8 -18 -18 -18
c-4 0 -7 1 -11 4z" />
    <glyph glyph-name="Idieresis" unicode="&#xcf;" horiz-adv-x="204" 
d="M82 10v681c0 11 10 20 20 20c11 0 20 -9 20 -20v-681c0 -11 -9 -20 -20 -20c-10 0 -20 9 -20 20zM52 864c0 -15 -12 -27 -28 -27c-15 0 -27 12 -27 27c0 16 12 28 27 28c16 0 28 -12 28 -28zM180 837c-16 0 -28 12 -28 27c0 16 12 28 28 28c15 0 27 -12 27 -28
c0 -15 -12 -27 -27 -27z" />
    <glyph glyph-name="Eth" unicode="&#xd0;" horiz-adv-x="586" 
d="M284 0h-133c-18 0 -32 14 -32 32v313h-78c-10 0 -19 9 -19 19s9 19 19 19h78v286c0 18 14 32 32 32h133c72 0 132 -22 176 -65c43 -43 66 -104 66 -175v-221c0 -71 -23 -132 -66 -174c-44 -43 -104 -66 -176 -66zM486 239v222c0 61 -19 112 -54 147
c-36 36 -88 54 -149 54h-124v-279h128c11 0 19 -9 19 -19s-8 -19 -19 -19h-128v-307h124c61 0 113 19 148 54c36 36 55 86 55 147z" />
    <glyph glyph-name="Ntilde" unicode="&#xd1;" horiz-adv-x="578" 
d="M447 4l-325 624v-618c0 -13 -9 -20 -20 -20c-10 0 -20 7 -20 20v675c0 14 12 26 26 26c10 0 19 -6 23 -14l325 -624v617c0 12 7 21 19 21s21 -9 21 -21v-674c0 -14 -12 -26 -26 -26c-10 0 -18 5 -23 14zM412 852c-20 -24 -42 -39 -77 -39c-23 0 -41 8 -58 21
c-10 8 -22 14 -35 14c-17 0 -36 -10 -47 -25c-4 -5 -9 -9 -16 -9c-11 0 -18 9 -18 18c0 4 2 10 5 13c21 24 47 39 76 39c24 0 42 -10 59 -22c10 -7 22 -13 34 -13c19 0 37 10 48 25c4 5 9 8 15 8c11 0 18 -9 18 -19c0 -5 -2 -8 -4 -11z" />
    <glyph glyph-name="Ograve" unicode="&#xd2;" horiz-adv-x="547" 
d="M487 498v-294c0 -64 -21 -117 -59 -155c-38 -39 -92 -59 -155 -59s-116 20 -155 59c-38 38 -58 91 -58 155v294c0 63 19 116 58 155s92 58 155 58s117 -20 155 -58c38 -39 59 -92 59 -155zM447 203v296c0 107 -66 175 -174 175c-107 0 -173 -68 -173 -175v-296
c0 -108 66 -176 173 -176c108 0 174 68 174 176zM302 786l-104 63c-6 4 -9 9 -9 16c0 10 8 19 18 19c4 0 7 -1 11 -3l104 -64c6 -4 9 -10 9 -16c0 -9 -8 -18 -19 -18c-4 0 -6 1 -10 3z" />
    <glyph glyph-name="Oacute" unicode="&#xd3;" horiz-adv-x="547" 
d="M487 498v-294c0 -64 -21 -117 -59 -155c-38 -39 -92 -59 -155 -59s-116 20 -155 59c-38 38 -58 91 -58 155v294c0 63 19 116 58 155s92 58 155 58s117 -20 155 -58c38 -39 59 -92 59 -155zM447 203v296c0 107 -66 175 -174 175c-107 0 -173 -68 -173 -175v-296
c0 -108 66 -176 173 -176c108 0 174 68 174 176zM349 850l-104 -64c-4 -2 -7 -3 -11 -3c-10 0 -18 9 -18 19c0 7 3 12 9 16l104 63c4 2 6 3 10 3c11 0 19 -9 19 -18c0 -6 -3 -12 -9 -16z" />
    <glyph glyph-name="Ocircumflex" unicode="&#xd4;" horiz-adv-x="547" 
d="M487 498v-294c0 -64 -21 -117 -59 -155c-38 -39 -92 -59 -155 -59s-116 20 -155 59c-38 38 -58 91 -58 155v294c0 63 19 116 58 155s92 58 155 58s117 -20 155 -58c38 -39 59 -92 59 -155zM447 203v296c0 107 -66 175 -174 175c-107 0 -173 -68 -173 -175v-296
c0 -108 66 -176 173 -176c108 0 174 68 174 176zM360 787l-87 59l-86 -59c-3 -2 -7 -4 -11 -4c-12 0 -19 8 -19 18c0 6 2 11 8 15l90 62c5 4 11 6 18 6s14 -2 19 -6l89 -62c6 -4 8 -9 8 -15c0 -11 -8 -18 -18 -18c-4 0 -7 1 -11 4z" />
    <glyph glyph-name="Otilde" unicode="&#xd5;" horiz-adv-x="547" 
d="M487 498v-294c0 -64 -21 -117 -59 -155c-38 -39 -92 -59 -155 -59s-116 20 -155 59c-38 38 -58 91 -58 155v294c0 63 19 116 58 155s92 58 155 58s117 -20 155 -58c38 -39 59 -92 59 -155zM447 203v296c0 107 -66 175 -174 175c-107 0 -173 -68 -173 -175v-296
c0 -108 66 -176 173 -176c108 0 174 68 174 176zM396 852c-20 -24 -42 -39 -77 -39c-23 0 -41 8 -58 21c-10 8 -22 14 -35 14c-17 0 -36 -10 -47 -25c-4 -5 -9 -9 -16 -9c-11 0 -18 9 -18 18c0 4 2 10 5 13c21 24 47 39 76 39c24 0 42 -10 59 -22c10 -7 22 -13 34 -13
c19 0 37 10 48 25c4 5 9 8 15 8c11 0 18 -9 18 -19c0 -5 -2 -8 -4 -11z" />
    <glyph glyph-name="Odieresis" unicode="&#xd6;" horiz-adv-x="547" 
d="M487 498v-294c0 -64 -21 -117 -59 -155c-38 -39 -92 -59 -155 -59s-116 20 -155 59c-38 38 -58 91 -58 155v294c0 63 19 116 58 155s92 58 155 58s117 -20 155 -58c38 -39 59 -92 59 -155zM447 203v296c0 107 -66 175 -174 175c-107 0 -173 -68 -173 -175v-296
c0 -108 66 -176 173 -176c108 0 174 68 174 176zM223 864c0 -15 -12 -27 -28 -27c-15 0 -27 12 -27 27c0 16 12 28 27 28c16 0 28 -12 28 -28zM351 837c-16 0 -28 12 -28 27c0 16 12 28 28 28c15 0 27 -12 27 -28c0 -15 -12 -27 -27 -27z" />
    <glyph glyph-name="multiply" unicode="&#xd7;" 
d="M435 54l-176 176l-175 -176c-4 -4 -9 -5 -14 -5c-10 0 -19 7 -19 19c0 5 2 10 6 14l176 175l-176 175c-4 4 -6 9 -6 14c0 10 8 19 19 19c5 0 10 -1 14 -5l175 -177l176 177c3 3 8 5 13 5c10 0 20 -7 20 -19c0 -5 -2 -10 -6 -14l-176 -175l176 -175c4 -4 6 -9 6 -14
c0 -10 -8 -19 -20 -19c-5 0 -9 1 -13 5z" />
    <glyph glyph-name="Oslash" unicode="&#xd8;" horiz-adv-x="547" 
d="M149 24l-33 -74c-3 -7 -10 -12 -17 -12c-10 0 -20 9 -20 20c0 3 1 5 2 8l37 83c-38 38 -58 92 -58 155v294c0 63 20 116 58 154c39 39 92 59 155 59c48 0 90 -12 124 -34l33 74c3 7 10 12 18 12c10 0 19 -9 19 -20c0 -3 -1 -5 -2 -8l-37 -83c38 -38 59 -91 59 -154v-294
c0 -64 -21 -117 -59 -155c-38 -39 -92 -59 -155 -59c-47 0 -90 12 -124 34zM135 87l246 556c-28 20 -65 31 -108 31c-107 0 -173 -67 -173 -174v-298c0 -48 12 -86 35 -115zM447 202v298c0 47 -12 85 -36 115l-246 -556c28 -21 65 -32 108 -32c108 0 174 67 174 175z" />
    <glyph glyph-name="Ugrave" unicode="&#xd9;" horiz-adv-x="575" 
d="M464 206v485c0 11 9 20 20 20c10 0 20 -9 20 -20v-484c0 -64 -21 -119 -59 -157c-39 -39 -93 -60 -158 -60c-64 0 -118 21 -157 60c-39 38 -59 93 -59 157v484c0 11 10 20 20 20c11 0 20 -9 20 -20v-485c0 -110 67 -179 176 -179c110 0 177 69 177 179zM316 786l-104 63
c-6 4 -9 9 -9 16c0 10 8 19 18 19c4 0 7 -1 11 -3l104 -64c6 -4 9 -10 9 -16c0 -9 -8 -18 -19 -18c-4 0 -6 1 -10 3z" />
    <glyph glyph-name="Uacute" unicode="&#xda;" horiz-adv-x="575" 
d="M464 206v485c0 11 9 20 20 20c10 0 20 -9 20 -20v-484c0 -64 -21 -119 -59 -157c-39 -39 -93 -60 -158 -60c-64 0 -118 21 -157 60c-39 38 -59 93 -59 157v484c0 11 10 20 20 20c11 0 20 -9 20 -20v-485c0 -110 67 -179 176 -179c110 0 177 69 177 179zM363 850l-104 -64
c-4 -2 -7 -3 -11 -3c-10 0 -18 9 -18 19c0 7 3 12 9 16l104 63c4 2 6 3 10 3c11 0 19 -9 19 -18c0 -6 -3 -12 -9 -16z" />
    <glyph glyph-name="Ucircumflex" unicode="&#xdb;" horiz-adv-x="575" 
d="M464 206v485c0 11 9 20 20 20c10 0 20 -9 20 -20v-484c0 -64 -21 -119 -59 -157c-39 -39 -93 -60 -158 -60c-64 0 -118 21 -157 60c-39 38 -59 93 -59 157v484c0 11 10 20 20 20c11 0 20 -9 20 -20v-485c0 -110 67 -179 176 -179c110 0 177 69 177 179zM374 787l-87 59
l-86 -59c-3 -2 -7 -4 -11 -4c-12 0 -19 8 -19 18c0 6 2 11 8 15l90 62c5 4 11 6 18 6s14 -2 19 -6l89 -62c6 -4 8 -9 8 -15c0 -11 -8 -18 -18 -18c-4 0 -7 1 -11 4z" />
    <glyph glyph-name="Udieresis" unicode="&#xdc;" horiz-adv-x="575" 
d="M464 206v485c0 11 9 20 20 20c10 0 20 -9 20 -20v-484c0 -64 -21 -119 -59 -157c-39 -39 -93 -60 -158 -60c-64 0 -118 21 -157 60c-39 38 -59 93 -59 157v484c0 11 10 20 20 20c11 0 20 -9 20 -20v-485c0 -110 67 -179 176 -179c110 0 177 69 177 179zM237 864
c0 -15 -12 -27 -28 -27c-15 0 -27 12 -27 27c0 16 12 28 27 28c16 0 28 -12 28 -28zM365 837c-16 0 -28 12 -28 27c0 16 12 28 28 28c15 0 27 -12 27 -28c0 -15 -12 -27 -27 -27z" />
    <glyph glyph-name="Yacute" unicode="&#xdd;" horiz-adv-x="461" 
d="M211 10v306l-198 366c-2 4 -2 6 -2 9c0 10 7 20 19 20c9 0 15 -4 18 -10l183 -341l182 341c3 6 9 10 18 10c10 0 19 -8 19 -19c0 -2 0 -6 -2 -10l-198 -366v-306c0 -11 -9 -20 -19 -20c-11 0 -20 9 -20 20zM306 850l-104 -64c-4 -2 -7 -3 -11 -3c-10 0 -18 9 -18 19
c0 7 3 12 9 16l104 63c4 2 6 3 10 3c11 0 19 -9 19 -18c0 -6 -3 -12 -9 -16z" />
    <glyph glyph-name="Thorn" unicode="&#xde;" horiz-adv-x="517" 
d="M273 162h-151v-152c0 -11 -9 -20 -20 -20c-10 0 -20 9 -20 20v681c0 11 10 20 20 20c11 0 20 -9 20 -20v-152h151c55 0 102 -18 136 -52s53 -83 53 -140c0 -55 -18 -101 -50 -133c-34 -34 -82 -52 -139 -52zM122 200h150c47 0 84 14 111 40c26 25 39 63 39 107
c0 47 -14 87 -41 114c-27 26 -64 40 -109 40h-150v-301z" />
    <glyph glyph-name="germandbls" unicode="&#xdf;" horiz-adv-x="523" 
d="M393 214l-89 53c-30 18 -65 40 -65 94c0 62 37 87 70 111c31 23 58 45 58 94c0 65 -50 109 -128 109c-80 0 -129 -51 -129 -132v-533c0 -11 -9 -20 -20 -20c-10 0 -19 9 -19 20v530c0 50 16 93 46 124s72 47 122 47c47 0 87 -13 118 -38c32 -26 49 -63 49 -107
c0 -68 -42 -99 -74 -122c-28 -20 -54 -40 -54 -83c0 -33 23 -50 50 -66l85 -51c49 -29 72 -69 72 -120c0 -74 -59 -134 -132 -134c-40 0 -76 9 -115 29c-7 4 -11 10 -11 17c0 9 7 19 18 19c2 0 5 0 9 -2c36 -17 65 -27 99 -27c51 0 93 46 93 98c0 36 -15 67 -53 90z" />
    <glyph glyph-name="agrave" unicode="&#xe0;" horiz-adv-x="451" 
d="M341 281v76c0 75 -53 111 -117 111c-41 0 -81 -12 -120 -34c-3 -2 -8 -3 -11 -3c-9 0 -18 7 -18 18c0 7 3 13 10 17c48 27 89 38 136 38c86 0 159 -47 159 -137v-322c0 -14 -9 -26 -22 -31c-43 -16 -96 -24 -137 -24c-60 0 -106 14 -136 41c-27 25 -41 61 -41 105
c0 46 14 80 41 105c30 27 76 40 136 40h120zM341 47v198h-120c-50 0 -87 -10 -110 -31c-19 -17 -28 -43 -28 -78c0 -34 9 -61 28 -78c23 -21 60 -32 110 -32c36 0 82 9 120 21zM254 613l-104 63c-6 4 -9 9 -9 16c0 10 8 19 18 19c4 0 7 -1 11 -3l104 -64c6 -4 9 -10 9 -16
c0 -9 -8 -18 -19 -18c-4 0 -6 1 -10 3z" />
    <glyph glyph-name="aacute" unicode="&#xe1;" horiz-adv-x="451" 
d="M341 281v76c0 75 -53 111 -117 111c-41 0 -81 -12 -120 -34c-3 -2 -8 -3 -11 -3c-9 0 -18 7 -18 18c0 7 3 13 10 17c48 27 89 38 136 38c86 0 159 -47 159 -137v-322c0 -14 -9 -26 -22 -31c-43 -16 -96 -24 -137 -24c-60 0 -106 14 -136 41c-27 25 -41 61 -41 105
c0 46 14 80 41 105c30 27 76 40 136 40h120zM341 47v198h-120c-50 0 -87 -10 -110 -31c-19 -17 -28 -43 -28 -78c0 -34 9 -61 28 -78c23 -21 60 -32 110 -32c36 0 82 9 120 21zM302 677l-104 -64c-4 -2 -7 -3 -11 -3c-10 0 -18 9 -18 19c0 7 3 12 9 16l104 63c4 2 6 3 10 3
c11 0 19 -9 19 -18c0 -6 -3 -12 -9 -16z" />
    <glyph glyph-name="acircumflex" unicode="&#xe2;" horiz-adv-x="451" 
d="M341 281v76c0 75 -53 111 -117 111c-41 0 -81 -12 -120 -34c-3 -2 -8 -3 -11 -3c-9 0 -18 7 -18 18c0 7 3 13 10 17c48 27 89 38 136 38c86 0 159 -47 159 -137v-322c0 -14 -9 -26 -22 -31c-43 -16 -96 -24 -137 -24c-60 0 -106 14 -136 41c-27 25 -41 61 -41 105
c0 46 14 80 41 105c30 27 76 40 136 40h120zM341 47v198h-120c-50 0 -87 -10 -110 -31c-19 -17 -28 -43 -28 -78c0 -34 9 -61 28 -78c23 -21 60 -32 110 -32c36 0 82 9 120 21zM312 614l-87 59l-86 -59c-3 -2 -7 -4 -11 -4c-12 0 -19 8 -19 18c0 6 2 11 8 15l90 62
c5 4 11 6 18 6s14 -2 19 -6l89 -62c6 -4 8 -9 8 -15c0 -11 -8 -18 -18 -18c-4 0 -7 1 -11 4z" />
    <glyph glyph-name="atilde" unicode="&#xe3;" horiz-adv-x="451" 
d="M341 281v76c0 75 -53 111 -117 111c-41 0 -81 -12 -120 -34c-3 -2 -8 -3 -11 -3c-9 0 -18 7 -18 18c0 7 3 13 10 17c48 27 89 38 136 38c86 0 159 -47 159 -137v-322c0 -14 -9 -26 -22 -31c-43 -16 -96 -24 -137 -24c-60 0 -106 14 -136 41c-27 25 -41 61 -41 105
c0 46 14 80 41 105c30 27 76 40 136 40h120zM341 47v198h-120c-50 0 -87 -10 -110 -31c-19 -17 -28 -43 -28 -78c0 -34 9 -61 28 -78c23 -21 60 -32 110 -32c36 0 82 9 120 21zM348 679c-20 -24 -42 -39 -77 -39c-23 0 -41 8 -58 21c-10 8 -22 14 -35 14
c-17 0 -36 -10 -47 -25c-4 -5 -9 -9 -16 -9c-11 0 -18 9 -18 18c0 4 2 10 5 13c21 24 47 39 76 39c24 0 42 -10 59 -22c10 -7 22 -13 34 -13c19 0 37 10 48 25c4 5 9 8 15 8c11 0 18 -9 18 -19c0 -5 -2 -8 -4 -11z" />
    <glyph glyph-name="adieresis" unicode="&#xe4;" horiz-adv-x="451" 
d="M341 281v76c0 75 -53 111 -117 111c-41 0 -81 -12 -120 -34c-3 -2 -8 -3 -11 -3c-9 0 -18 7 -18 18c0 7 3 13 10 17c48 27 89 38 136 38c86 0 159 -47 159 -137v-322c0 -14 -9 -26 -22 -31c-43 -16 -96 -24 -137 -24c-60 0 -106 14 -136 41c-27 25 -41 61 -41 105
c0 46 14 80 41 105c30 27 76 40 136 40h120zM341 47v198h-120c-50 0 -87 -10 -110 -31c-19 -17 -28 -43 -28 -78c0 -34 9 -61 28 -78c23 -21 60 -32 110 -32c36 0 82 9 120 21zM175 683c0 -15 -13 -27 -28 -27s-27 12 -27 27c0 16 12 28 27 28s28 -12 28 -28zM330 683
c0 -15 -13 -27 -28 -27s-27 12 -27 27c0 16 12 28 27 28s28 -12 28 -28z" />
    <glyph glyph-name="aring" unicode="&#xe5;" horiz-adv-x="451" 
d="M341 281v76c0 75 -53 111 -117 111c-41 0 -81 -12 -120 -34c-3 -2 -8 -3 -11 -3c-9 0 -18 7 -18 18c0 7 3 13 10 17c48 27 89 38 136 38c86 0 159 -47 159 -137v-322c0 -14 -9 -26 -22 -31c-43 -16 -96 -24 -137 -24c-60 0 -106 14 -136 41c-27 25 -41 61 -41 105
c0 46 14 80 41 105c30 27 76 40 136 40h120zM341 47v198h-120c-50 0 -87 -10 -110 -31c-19 -17 -28 -43 -28 -78c0 -34 9 -61 28 -78c23 -21 60 -32 110 -32c36 0 82 9 120 21zM225 582c-53 0 -95 42 -95 95c0 52 42 95 95 95c52 0 95 -43 95 -95c0 -53 -43 -95 -95 -95z
M225 615c33 0 60 28 60 62s-27 62 -60 62s-60 -28 -60 -62s27 -62 60 -62z" />
    <glyph glyph-name="ae" unicode="&#xe6;" horiz-adv-x="732" 
d="M645 245h-265v-87c0 -79 49 -132 129 -132c42 0 82 13 121 29c3 1 6 2 9 2c9 0 19 -8 19 -18c0 -8 -5 -15 -12 -18c-43 -19 -89 -31 -137 -31c-50 0 -115 14 -149 88c-31 -63 -95 -88 -148 -88c-86 0 -168 47 -168 146c0 104 76 146 177 146h120v85
c0 57 -53 101 -117 101c-41 0 -81 -12 -120 -34c-3 -2 -8 -3 -11 -3c-9 0 -18 7 -18 18c0 7 3 13 10 17c48 27 89 38 136 38c69 0 119 -31 143 -79c28 56 83 79 145 79c50 0 92 -16 122 -46s46 -72 46 -122v-59c0 -18 -14 -32 -32 -32zM341 158v87h-120
c-74 0 -138 -23 -138 -109c0 -74 56 -110 129 -110c91 0 129 74 129 132zM638 282v57c0 80 -49 129 -129 129s-129 -49 -129 -129v-57h258z" />
    <glyph glyph-name="ccedilla" unicode="&#xe7;" horiz-adv-x="392" 
d="M55 158v178c0 50 16 92 46 122s72 46 122 46c44 0 86 -11 125 -29c7 -3 11 -10 11 -17c0 -10 -8 -18 -19 -18c-3 0 -5 1 -8 2c-35 14 -71 26 -109 26c-80 0 -129 -52 -129 -132v-178c0 -79 49 -132 129 -132c38 0 75 10 109 27c2 1 5 2 8 2c9 0 19 -8 19 -19
c0 -7 -4 -13 -11 -17c-36 -19 -75 -28 -116 -29l-7 -33c34 -16 56 -35 56 -67c0 -52 -40 -84 -102 -105c-7 -2 -20 -6 -27 -6c-10 0 -19 4 -19 16c0 11 7 17 15 18c27 5 96 25 96 69c0 26 -19 35 -52 51c-6 4 -8 8 -8 13c0 6 3 15 4 20l6 26c-38 5 -69 20 -93 44
c-30 30 -46 73 -46 122z" />
    <glyph glyph-name="egrave" unicode="&#xe8;" horiz-adv-x="446" 
d="M359 244h-265v-86c0 -79 49 -132 129 -132c42 0 82 13 121 29c3 1 6 2 9 2c9 0 19 -8 19 -18c0 -8 -5 -15 -12 -18c-43 -19 -89 -31 -137 -31c-50 0 -92 16 -122 46s-46 73 -46 122v178c0 50 16 92 46 122s72 46 122 46s92 -16 122 -46s46 -72 46 -122v-60
c0 -18 -14 -32 -32 -32zM352 280v59c0 80 -49 129 -129 129s-129 -49 -129 -129v-59h258zM252 613l-104 63c-6 4 -9 9 -9 16c0 10 8 19 18 19c4 0 7 -1 11 -3l104 -64c6 -4 9 -10 9 -16c0 -9 -8 -18 -19 -18c-4 0 -6 1 -10 3z" />
    <glyph glyph-name="eacute" unicode="&#xe9;" horiz-adv-x="446" 
d="M359 244h-265v-86c0 -79 49 -132 129 -132c42 0 82 13 121 29c3 1 6 2 9 2c9 0 19 -8 19 -18c0 -8 -5 -15 -12 -18c-43 -19 -89 -31 -137 -31c-50 0 -92 16 -122 46s-46 73 -46 122v178c0 50 16 92 46 122s72 46 122 46s92 -16 122 -46s46 -72 46 -122v-60
c0 -18 -14 -32 -32 -32zM352 280v59c0 80 -49 129 -129 129s-129 -49 -129 -129v-59h258zM300 677l-104 -64c-4 -2 -7 -3 -11 -3c-10 0 -18 9 -18 19c0 7 3 12 9 16l104 63c4 2 6 3 10 3c11 0 19 -9 19 -18c0 -6 -3 -12 -9 -16z" />
    <glyph glyph-name="ecircumflex" unicode="&#xea;" horiz-adv-x="446" 
d="M359 244h-265v-86c0 -79 49 -132 129 -132c42 0 82 13 121 29c3 1 6 2 9 2c9 0 19 -8 19 -18c0 -8 -5 -15 -12 -18c-43 -19 -89 -31 -137 -31c-50 0 -92 16 -122 46s-46 73 -46 122v178c0 50 16 92 46 122s72 46 122 46s92 -16 122 -46s46 -72 46 -122v-60
c0 -18 -14 -32 -32 -32zM352 280v59c0 80 -49 129 -129 129s-129 -49 -129 -129v-59h258zM310 614l-87 59l-86 -59c-3 -2 -7 -4 -11 -4c-12 0 -19 8 -19 18c0 6 2 11 8 15l90 62c5 4 11 6 18 6s14 -2 19 -6l89 -62c6 -4 8 -9 8 -15c0 -11 -8 -18 -18 -18c-4 0 -7 1 -11 4z
" />
    <glyph glyph-name="edieresis" unicode="&#xeb;" horiz-adv-x="446" 
d="M359 244h-265v-86c0 -79 49 -132 129 -132c42 0 82 13 121 29c3 1 6 2 9 2c9 0 19 -8 19 -18c0 -8 -5 -15 -12 -18c-43 -19 -89 -31 -137 -31c-50 0 -92 16 -122 46s-46 73 -46 122v178c0 50 16 92 46 122s72 46 122 46s92 -16 122 -46s46 -72 46 -122v-60
c0 -18 -14 -32 -32 -32zM352 280v59c0 80 -49 129 -129 129s-129 -49 -129 -129v-59h258zM173 683c0 -15 -13 -27 -28 -27s-27 12 -27 27c0 16 12 28 27 28s28 -12 28 -28zM328 683c0 -15 -13 -27 -28 -27s-27 12 -27 27c0 16 12 28 27 28s28 -12 28 -28z" />
    <glyph glyph-name="igrave" unicode="&#xec;" horiz-adv-x="215" 
d="M88 10v475c0 10 9 19 20 19c10 0 19 -9 19 -19v-475c0 -11 -9 -20 -19 -20c-11 0 -20 9 -20 20zM136 613l-104 63c-6 4 -9 9 -9 16c0 10 8 19 18 19c4 0 7 -1 11 -3l104 -64c6 -4 9 -10 9 -16c0 -9 -8 -18 -19 -18c-4 0 -6 1 -10 3z" />
    <glyph glyph-name="iacute" unicode="&#xed;" horiz-adv-x="215" 
d="M88 10v475c0 10 9 19 20 19c10 0 19 -9 19 -19v-475c0 -11 -9 -20 -19 -20c-11 0 -20 9 -20 20zM184 677l-104 -64c-4 -2 -7 -3 -11 -3c-10 0 -18 9 -18 19c0 7 3 12 9 16l104 63c4 2 6 3 10 3c11 0 19 -9 19 -18c0 -6 -3 -12 -9 -16z" />
    <glyph glyph-name="icircumflex" unicode="&#xee;" horiz-adv-x="215" 
d="M88 10v475c0 10 9 19 20 19c10 0 19 -9 19 -19v-475c0 -11 -9 -20 -19 -20c-11 0 -20 9 -20 20zM194 614l-87 59l-86 -59c-3 -2 -7 -4 -11 -4c-12 0 -19 8 -19 18c0 6 2 11 8 15l90 62c5 4 11 6 18 6s14 -2 19 -6l89 -62c6 -4 8 -9 8 -15c0 -11 -8 -18 -18 -18
c-4 0 -7 1 -11 4z" />
    <glyph glyph-name="idieresis" unicode="&#xef;" horiz-adv-x="215" 
d="M88 10v475c0 10 9 19 20 19c10 0 19 -9 19 -19v-475c0 -11 -9 -20 -19 -20c-11 0 -20 9 -20 20zM57 683c0 -15 -13 -27 -28 -27s-27 12 -27 27c0 16 12 28 27 28s28 -12 28 -28zM212 683c0 -15 -13 -27 -28 -27s-27 12 -27 27c0 16 12 28 27 28s28 -12 28 -28z" />
    <glyph glyph-name="eth" unicode="&#xf0;" horiz-adv-x="488" 
d="M410 326v-158c0 -53 -16 -97 -48 -129s-77 -49 -129 -49c-53 0 -97 17 -129 49s-49 76 -49 129v158c0 53 17 97 49 129s76 49 129 49c51 0 97 -16 128 -50c-4 21 -11 45 -20 66c-17 41 -38 74 -67 99l-102 -46c-3 -1 -6 -2 -9 -2c-9 0 -18 7 -18 18c0 7 4 14 11 17l84 37
c-23 14 -50 24 -80 31c-8 2 -15 8 -15 18s8 18 18 18c2 0 5 0 9 -1c41 -10 77 -26 107 -48l104 47c3 1 6 2 10 2c9 0 18 -7 18 -18c0 -8 -5 -14 -12 -17l-89 -40c28 -27 49 -61 66 -101c31 -75 34 -154 34 -208zM371 165v164c0 86 -53 139 -138 139
c-86 0 -139 -53 -139 -139v-164c0 -86 53 -139 139 -139c85 0 138 53 138 139z" />
    <glyph glyph-name="ntilde" unicode="&#xf1;" horiz-adv-x="484" 
d="M374 10v329c0 80 -49 129 -129 129c-45 0 -89 -7 -129 -20v-438c0 -11 -9 -20 -20 -20c-10 0 -19 9 -19 20v440c0 13 9 26 22 30c46 15 95 24 146 24c50 0 93 -15 123 -45s45 -73 45 -123v-326c0 -11 -9 -20 -19 -20c-11 0 -20 9 -20 20zM365 679
c-20 -24 -42 -39 -77 -39c-23 0 -41 8 -58 21c-10 8 -22 14 -35 14c-17 0 -36 -10 -47 -25c-4 -5 -9 -9 -16 -9c-11 0 -18 9 -18 18c0 4 2 10 5 13c21 24 47 39 76 39c24 0 42 -10 59 -22c10 -7 22 -13 34 -13c19 0 37 10 48 25c4 5 9 8 15 8c11 0 18 -9 18 -19
c0 -5 -2 -8 -4 -11z" />
    <glyph glyph-name="ograve" unicode="&#xf2;" horiz-adv-x="465" 
d="M410 326v-158c0 -53 -16 -97 -48 -129s-77 -49 -129 -49c-53 0 -97 17 -129 49s-49 76 -49 129v158c0 53 17 97 49 129s76 49 129 49c52 0 97 -17 129 -49s48 -76 48 -129zM371 165v164c0 84 -51 139 -138 139c-86 0 -139 -53 -139 -139v-164c0 -86 53 -139 139 -139
c85 0 138 53 138 139zM261 613l-104 63c-6 4 -9 9 -9 16c0 10 8 19 18 19c4 0 7 -1 11 -3l104 -64c6 -4 9 -10 9 -16c0 -9 -8 -18 -19 -18c-4 0 -6 1 -10 3z" />
    <glyph glyph-name="oacute" unicode="&#xf3;" horiz-adv-x="465" 
d="M410 326v-158c0 -53 -16 -97 -48 -129s-77 -49 -129 -49c-53 0 -97 17 -129 49s-49 76 -49 129v158c0 53 17 97 49 129s76 49 129 49c52 0 97 -17 129 -49s48 -76 48 -129zM371 165v164c0 84 -51 139 -138 139c-86 0 -139 -53 -139 -139v-164c0 -86 53 -139 139 -139
c85 0 138 53 138 139zM309 677l-104 -64c-4 -2 -7 -3 -11 -3c-10 0 -18 9 -18 19c0 7 3 12 9 16l104 63c4 2 6 3 10 3c11 0 19 -9 19 -18c0 -6 -3 -12 -9 -16z" />
    <glyph glyph-name="ocircumflex" unicode="&#xf4;" horiz-adv-x="465" 
d="M410 326v-158c0 -53 -16 -97 -48 -129s-77 -49 -129 -49c-53 0 -97 17 -129 49s-49 76 -49 129v158c0 53 17 97 49 129s76 49 129 49c52 0 97 -17 129 -49s48 -76 48 -129zM371 165v164c0 84 -51 139 -138 139c-86 0 -139 -53 -139 -139v-164c0 -86 53 -139 139 -139
c85 0 138 53 138 139zM319 614l-87 59l-86 -59c-3 -2 -7 -4 -11 -4c-12 0 -19 8 -19 18c0 6 2 11 8 15l90 62c5 4 11 6 18 6s14 -2 19 -6l89 -62c6 -4 8 -9 8 -15c0 -11 -8 -18 -18 -18c-4 0 -7 1 -11 4z" />
    <glyph glyph-name="otilde" unicode="&#xf5;" horiz-adv-x="465" 
d="M410 326v-158c0 -53 -16 -97 -48 -129s-77 -49 -129 -49c-53 0 -97 17 -129 49s-49 76 -49 129v158c0 53 17 97 49 129s76 49 129 49c52 0 97 -17 129 -49s48 -76 48 -129zM371 165v164c0 84 -51 139 -138 139c-86 0 -139 -53 -139 -139v-164c0 -86 53 -139 139 -139
c85 0 138 53 138 139zM355 679c-20 -24 -42 -39 -77 -39c-23 0 -41 8 -58 21c-10 8 -22 14 -35 14c-17 0 -36 -10 -47 -25c-4 -5 -9 -9 -16 -9c-11 0 -18 9 -18 18c0 4 2 10 5 13c21 24 47 39 76 39c24 0 42 -10 59 -22c10 -7 22 -13 34 -13c19 0 37 10 48 25c4 5 9 8 15 8
c11 0 18 -9 18 -19c0 -5 -2 -8 -4 -11z" />
    <glyph glyph-name="odieresis" unicode="&#xf6;" horiz-adv-x="465" 
d="M410 326v-158c0 -53 -16 -97 -48 -129s-77 -49 -129 -49c-53 0 -97 17 -129 49s-49 76 -49 129v158c0 53 17 97 49 129s76 49 129 49c52 0 97 -17 129 -49s48 -76 48 -129zM371 165v164c0 84 -51 139 -138 139c-86 0 -139 -53 -139 -139v-164c0 -86 53 -139 139 -139
c85 0 138 53 138 139zM182 683c0 -15 -13 -27 -28 -27s-27 12 -27 27c0 16 12 28 27 28s28 -12 28 -28zM337 683c0 -15 -13 -27 -28 -27s-27 12 -27 27c0 16 12 28 27 28s28 -12 28 -28z" />
    <glyph glyph-name="divide" unicode="&#xf7;" 
d="M487 229h-455c-10 0 -19 7 -19 18s9 19 19 19h455c11 0 20 -8 20 -19s-9 -18 -20 -18zM260 -10c-18 0 -32 15 -32 33c0 17 14 32 32 32s32 -15 32 -32c0 -18 -14 -33 -32 -33zM260 439c-18 0 -32 15 -32 33s14 32 32 32s32 -14 32 -32s-14 -33 -32 -33z" />
    <glyph glyph-name="oslash" unicode="&#xf8;" horiz-adv-x="445" 
d="M131 11l-30 -61c-3 -7 -10 -12 -18 -12c-10 0 -19 9 -19 20c0 3 1 6 2 8l33 68c-36 34 -54 81 -54 134v158c0 53 17 97 49 129s76 49 129 49c34 0 65 -7 91 -21l30 62c4 7 11 11 18 11c9 0 19 -9 19 -19c0 -3 -1 -6 -2 -9l-32 -68c37 -37 53 -81 53 -134v-158
c0 -53 -16 -97 -48 -129s-77 -49 -129 -49c-35 0 -66 8 -92 21zM116 69l183 381c-22 12 -48 18 -76 18c-86 0 -139 -53 -139 -139v-161c0 -40 10 -75 32 -99zM361 165v164c0 40 -10 69 -31 95l-183 -380c22 -12 47 -18 76 -18c85 0 138 53 138 139z" />
    <glyph glyph-name="ugrave" unicode="&#xf9;" horiz-adv-x="484" 
d="M368 46v438c0 11 9 20 20 20c10 0 19 -9 19 -20v-440c0 -13 -9 -26 -22 -30c-46 -15 -95 -24 -146 -24c-50 0 -93 15 -123 45s-45 73 -45 123v326c0 11 9 20 19 20c11 0 20 -9 20 -20v-329c0 -80 49 -129 129 -129c45 0 89 7 129 20zM271 613l-104 63c-6 4 -9 9 -9 16
c0 10 8 19 18 19c4 0 7 -1 11 -3l104 -64c6 -4 9 -10 9 -16c0 -9 -8 -18 -19 -18c-4 0 -6 1 -10 3z" />
    <glyph glyph-name="uacute" unicode="&#xfa;" horiz-adv-x="484" 
d="M368 46v438c0 11 9 20 20 20c10 0 19 -9 19 -20v-440c0 -13 -9 -26 -22 -30c-46 -15 -95 -24 -146 -24c-50 0 -93 15 -123 45s-45 73 -45 123v326c0 11 9 20 19 20c11 0 20 -9 20 -20v-329c0 -80 49 -129 129 -129c45 0 89 7 129 20zM319 677l-104 -64
c-4 -2 -7 -3 -11 -3c-10 0 -18 9 -18 19c0 7 3 12 9 16l104 63c4 2 6 3 10 3c11 0 19 -9 19 -18c0 -6 -3 -12 -9 -16z" />
    <glyph glyph-name="ucircumflex" unicode="&#xfb;" horiz-adv-x="484" 
d="M368 46v438c0 11 9 20 20 20c10 0 19 -9 19 -20v-440c0 -13 -9 -26 -22 -30c-46 -15 -95 -24 -146 -24c-50 0 -93 15 -123 45s-45 73 -45 123v326c0 11 9 20 19 20c11 0 20 -9 20 -20v-329c0 -80 49 -129 129 -129c45 0 89 7 129 20zM329 614l-87 59l-86 -59
c-3 -2 -7 -4 -11 -4c-12 0 -19 8 -19 18c0 6 2 11 8 15l90 62c5 4 11 6 18 6s14 -2 19 -6l89 -62c6 -4 8 -9 8 -15c0 -11 -8 -18 -18 -18c-4 0 -7 1 -11 4z" />
    <glyph glyph-name="udieresis" unicode="&#xfc;" horiz-adv-x="484" 
d="M368 46v438c0 11 9 20 20 20c10 0 19 -9 19 -20v-440c0 -13 -9 -26 -22 -30c-46 -15 -95 -24 -146 -24c-50 0 -93 15 -123 45s-45 73 -45 123v326c0 11 9 20 19 20c11 0 20 -9 20 -20v-329c0 -80 49 -129 129 -129c45 0 89 7 129 20zM192 683c0 -15 -13 -27 -28 -27
s-27 12 -27 27c0 16 12 28 27 28s28 -12 28 -28zM347 683c0 -15 -13 -27 -28 -27s-27 12 -27 27c0 16 12 28 27 28s28 -12 28 -28z" />
    <glyph glyph-name="yacute" unicode="&#xfd;" horiz-adv-x="398" 
d="M165 -97l27 90l-168 485c-1 3 -1 5 -1 7c0 9 7 19 19 19c8 0 16 -5 19 -13l150 -443l133 442c3 9 10 14 18 14c10 0 20 -7 20 -19c0 -2 0 -3 -1 -6l-179 -587c-21 -69 -86 -115 -161 -115c-11 0 -19 7 -19 18c0 10 7 17 18 18c32 2 52 8 71 19c27 15 45 42 54 71z
M276 677l-104 -64c-4 -2 -7 -3 -11 -3c-10 0 -18 9 -18 19c0 7 3 12 9 16l104 63c4 2 6 3 10 3c11 0 19 -9 19 -18c0 -6 -3 -12 -9 -16z" />
    <glyph glyph-name="thorn" unicode="&#xfe;" horiz-adv-x="473" 
d="M77 -204v895c0 11 9 20 19 20c11 0 20 -9 20 -20v-228c37 27 82 41 129 41c50 0 92 -16 122 -46s46 -72 46 -122v-178c0 -49 -16 -92 -46 -122s-72 -46 -122 -46c-47 0 -92 15 -129 42v-236c0 -10 -9 -19 -20 -19c-10 0 -19 9 -19 19zM374 155v184c0 80 -49 129 -129 129
c-48 0 -94 -19 -129 -53v-336c35 -34 81 -53 129 -53c80 0 129 50 129 129z" />
    <glyph glyph-name="ydieresis" unicode="&#xff;" horiz-adv-x="398" 
d="M165 -97l27 90l-168 485c-1 3 -1 5 -1 7c0 9 7 19 19 19c8 0 16 -5 19 -13l150 -443l133 442c3 9 10 14 18 14c10 0 20 -7 20 -19c0 -2 0 -3 -1 -6l-179 -587c-21 -69 -86 -115 -161 -115c-11 0 -19 7 -19 18c0 10 7 17 18 18c32 2 52 8 71 19c27 15 45 42 54 71z
M149 683c0 -15 -13 -27 -28 -27s-27 12 -27 27c0 16 12 28 27 28s28 -12 28 -28zM304 683c0 -15 -13 -27 -28 -27s-27 12 -27 27c0 16 12 28 27 28s28 -12 28 -28z" />
    <glyph glyph-name="dotlessi" unicode="&#x131;" horiz-adv-x="217" 
d="M89 10v475c0 10 9 19 20 19c10 0 19 -9 19 -19v-475c0 -11 -9 -20 -19 -20c-11 0 -20 9 -20 20z" />
    <glyph glyph-name="Lslash" unicode="&#x141;" horiz-adv-x="478" 
d="M443 0h-298c-18 0 -32 14 -32 32v281l-66 -44c-3 -2 -7 -4 -12 -4c-9 0 -19 7 -19 18c0 6 3 12 9 16l88 59v333c0 11 10 20 20 20c11 0 20 -9 20 -20v-306l163 108c3 2 6 3 10 3c10 0 18 -8 18 -19c0 -6 -2 -11 -8 -15l-183 -122v-302h290c10 0 19 -9 19 -19
s-9 -19 -19 -19z" />
    <glyph glyph-name="lslash" unicode="&#x142;" horiz-adv-x="276" 
d="M119 10v320l-67 -44c-3 -2 -8 -4 -12 -4c-9 0 -18 7 -18 18c0 6 3 12 9 16l88 58v317c0 11 9 20 19 20c11 0 20 -9 20 -20v-291l66 44c3 2 8 4 12 4c10 0 18 -7 18 -18c0 -6 -2 -11 -8 -15l-88 -59v-346c0 -11 -9 -20 -20 -20c-10 0 -19 9 -19 20z" />
    <glyph glyph-name="OE" unicode="&#x152;" horiz-adv-x="835" 
d="M778 0h-298c-18 0 -32 14 -32 32v40c-40 -56 -104 -82 -175 -82c-63 0 -116 20 -155 59c-38 38 -58 91 -58 155v294c0 63 19 116 58 155s92 58 155 58c68 0 133 -23 175 -82v40c0 18 14 32 32 32h291c11 0 19 -8 19 -19s-8 -19 -19 -19h-283v-281h270c11 0 20 -8 20 -19
c0 -10 -9 -19 -20 -19h-270v-306h290c10 0 19 -8 19 -19c0 -10 -9 -19 -19 -19zM448 203v296c0 107 -67 175 -175 175c-107 0 -173 -68 -173 -175v-296c0 -108 66 -176 173 -176c108 0 175 68 175 176z" />
    <glyph glyph-name="oe" unicode="&#x153;" horiz-adv-x="762" 
d="M675 244h-265v-86c0 -79 49 -132 129 -132c42 0 82 13 121 29c3 1 6 2 9 2c9 0 19 -8 19 -18c0 -8 -5 -15 -12 -18c-43 -19 -89 -31 -137 -31c-62 0 -120 25 -150 88c-28 -61 -92 -88 -156 -88c-53 0 -97 17 -129 49s-49 76 -49 129v158c0 53 17 97 49 129s76 49 129 49
c62 0 125 -26 156 -88c27 59 86 88 150 88c50 0 92 -16 122 -46s46 -72 46 -122v-60c0 -18 -14 -32 -32 -32zM371 158v177c0 80 -53 133 -138 133c-86 0 -139 -53 -139 -139v-164c0 -86 53 -139 139 -139c83 0 138 50 138 132zM668 281v58c0 80 -49 129 -129 129
s-129 -49 -129 -129v-58h258z" />
    <glyph glyph-name="Scaron" unicode="&#x160;" horiz-adv-x="451" 
d="M263 323l-109 55c-76 38 -116 94 -116 171c0 89 79 162 187 162c61 0 112 -12 164 -32c8 -3 12 -11 12 -19c0 -10 -7 -18 -19 -18c-2 0 -4 0 -7 1c-49 18 -98 31 -150 31c-98 0 -147 -63 -147 -125c0 -67 35 -105 93 -135l109 -56c71 -37 135 -83 135 -185
c0 -120 -97 -183 -195 -183c-61 0 -115 13 -171 38c-7 3 -11 10 -11 17c0 9 8 20 19 20c3 0 5 -1 8 -2c52 -20 100 -36 155 -36c79 0 155 52 155 146c0 76 -52 120 -112 150zM333 850l-89 -62c-5 -4 -12 -6 -19 -6s-13 2 -18 6l-90 62c-6 4 -8 9 -8 15c0 10 7 18 19 18
c4 0 8 -2 11 -4l86 -59l87 59c4 3 7 4 11 4c10 0 18 -7 18 -18c0 -6 -2 -11 -8 -15z" />
    <glyph glyph-name="scaron" unicode="&#x161;" horiz-adv-x="382" 
d="M217 222l-85 42c-46 23 -83 52 -83 117c0 71 67 123 140 123c42 0 85 -9 124 -24c8 -3 12 -10 12 -18c0 -10 -8 -19 -20 -19c-2 0 -7 1 -9 2c-34 14 -70 23 -107 23c-45 0 -101 -29 -101 -89c0 -49 36 -69 64 -82l85 -40c55 -26 97 -70 97 -127c0 -79 -63 -140 -148 -140
c-45 0 -84 9 -125 27c-7 3 -12 10 -12 17c0 9 8 20 19 20c3 0 5 -1 8 -2c37 -16 70 -27 110 -27c59 0 109 34 109 94c0 53 -27 78 -78 103zM299 678l-89 -62c-5 -4 -12 -6 -19 -6s-13 2 -18 6l-90 62c-6 4 -8 9 -8 15c0 10 7 18 19 18c4 0 8 -2 11 -4l86 -59l87 59
c4 3 7 4 11 4c10 0 18 -7 18 -18c0 -6 -2 -11 -8 -15z" />
    <glyph glyph-name="Ydieresis" unicode="&#x178;" horiz-adv-x="461" 
d="M211 10v306l-198 366c-2 4 -2 6 -2 9c0 10 7 20 19 20c9 0 15 -4 18 -10l183 -341l182 341c3 6 9 10 18 10c10 0 19 -8 19 -19c0 -2 0 -6 -2 -10l-198 -366v-306c0 -11 -9 -20 -19 -20c-11 0 -20 9 -20 20zM180 864c0 -15 -12 -27 -28 -27c-15 0 -27 12 -27 27
c0 16 12 28 27 28c16 0 28 -12 28 -28zM308 837c-16 0 -28 12 -28 27c0 16 12 28 28 28c15 0 27 -12 27 -28c0 -15 -12 -27 -27 -27z" />
    <glyph glyph-name="Zcaron" unicode="&#x17d;" horiz-adv-x="464" 
d="M423 0h-375c-14 0 -26 12 -26 26c0 4 1 7 4 13l365 624h-346c-11 0 -20 8 -20 19s9 19 20 19h368c14 0 26 -11 26 -26c0 -4 -1 -8 -4 -13l-366 -624h354c10 0 19 -8 19 -19c0 -10 -9 -19 -19 -19zM340 850l-89 -62c-5 -4 -12 -6 -19 -6s-13 2 -18 6l-90 62
c-6 4 -8 9 -8 15c0 10 7 18 19 18c4 0 8 -2 11 -4l86 -59l87 59c4 3 7 4 11 4c10 0 18 -7 18 -18c0 -6 -2 -11 -8 -15z" />
    <glyph glyph-name="zcaron" unicode="&#x17e;" horiz-adv-x="402" 
d="M350 0h-291c-14 0 -26 12 -26 26c0 5 1 10 4 14l282 417h-264c-12 0 -19 8 -19 19s9 18 20 18h284c14 0 26 -11 26 -25c0 -6 -2 -11 -5 -15l-282 -417h271c10 0 19 -8 19 -19c0 -10 -9 -18 -19 -18zM309 678l-89 -62c-5 -4 -12 -6 -19 -6s-13 2 -18 6l-90 62
c-6 4 -8 9 -8 15c0 10 7 18 19 18c4 0 8 -2 11 -4l86 -59l87 59c4 3 7 4 11 4c10 0 18 -7 18 -18c0 -6 -2 -11 -8 -15z" />
    <glyph glyph-name="florin" unicode="&#x192;" horiz-adv-x="500" 
d="M165 -121l131 736c10 56 58 96 114 96c19 0 37 0 55 -4c10 -2 16 -8 16 -19c0 -9 -8 -17 -18 -17c-8 0 -24 4 -53 4c-37 0 -71 -29 -78 -66l-40 -226h127c11 0 20 -9 20 -20c0 -10 -9 -19 -20 -19h-134l-83 -472c-10 -55 -56 -95 -113 -95c-18 0 -37 1 -55 4
c-9 2 -16 8 -16 18c0 9 7 18 19 18s24 -4 52 -4c38 0 69 29 76 66z" />
    <glyph glyph-name="circumflex" unicode="&#x2c6;" horiz-adv-x="395" 
d="M284 614l-87 59l-86 -59c-3 -2 -7 -4 -11 -4c-12 0 -19 8 -19 18c0 6 2 11 8 15l90 62c5 4 11 6 18 6s14 -2 19 -6l89 -62c6 -4 8 -9 8 -15c0 -11 -8 -18 -18 -18c-4 0 -7 1 -11 4z" />
    <glyph glyph-name="caron" unicode="&#x2c7;" horiz-adv-x="395" 
d="M305 678l-89 -62c-5 -4 -12 -6 -19 -6s-13 2 -18 6l-90 62c-6 4 -8 9 -8 15c0 10 7 18 19 18c4 0 8 -2 11 -4l86 -59l87 59c4 3 7 4 11 4c10 0 18 -7 18 -18c0 -6 -2 -11 -8 -15z" />
    <glyph glyph-name="breve" unicode="&#x2d8;" horiz-adv-x="395" 
d="M295 679c-28 -30 -59 -48 -98 -48s-70 18 -98 48c-3 3 -5 9 -5 13c0 10 8 19 18 19c6 0 11 -3 15 -8c18 -22 44 -36 70 -36s52 14 70 36c4 5 9 8 15 8c10 0 18 -9 18 -19c0 -4 -2 -10 -5 -13z" />
    <glyph glyph-name="dotaccent" unicode="&#x2d9;" horiz-adv-x="395" 
d="M226 682c0 -16 -13 -29 -29 -29s-29 13 -29 29s13 29 29 29s29 -13 29 -29z" />
    <glyph glyph-name="ring" unicode="&#x2da;" horiz-adv-x="395" 
d="M197 582c-53 0 -95 42 -95 95c0 52 42 95 95 95c52 0 95 -43 95 -95c0 -53 -43 -95 -95 -95zM197 615c33 0 60 28 60 62s-27 62 -60 62s-60 -28 -60 -62s27 -62 60 -62z" />
    <glyph glyph-name="ogonek" unicode="&#x2db;" horiz-adv-x="297" 
d="M225 -189c0 -24 -39 -34 -71 -34c-58 0 -83 37 -83 81c0 53 35 107 75 142h48c-30 -28 -76 -86 -76 -139c0 -23 13 -42 42 -42c28 0 31 9 47 10c10 0 18 -8 18 -18z" />
    <glyph glyph-name="tilde" unicode="&#x2dc;" horiz-adv-x="395" 
d="M321 679c-20 -24 -42 -39 -77 -39c-23 0 -41 8 -58 21c-10 8 -22 14 -35 14c-17 0 -36 -10 -47 -25c-4 -5 -9 -9 -16 -9c-11 0 -18 9 -18 18c0 4 2 10 5 13c21 24 47 39 76 39c24 0 42 -10 59 -22c10 -7 22 -13 34 -13c19 0 37 10 48 25c4 5 9 8 15 8c11 0 18 -9 18 -19
c0 -5 -2 -8 -4 -11z" />
    <glyph glyph-name="hungarumlaut" unicode="&#x2dd;" horiz-adv-x="395" 
d="M181 680l-66 -65c-4 -4 -9 -6 -14 -6c-10 0 -18 8 -18 18c0 5 2 10 6 14l65 64c4 4 8 6 13 6c12 0 19 -8 19 -18c0 -5 -2 -10 -5 -13zM307 680l-66 -65c-4 -4 -9 -6 -14 -6c-10 0 -18 8 -18 18c0 5 2 10 6 14l65 64c4 4 8 6 13 6c12 0 19 -8 19 -18c0 -5 -2 -10 -5 -13z
" />
    <glyph glyph-name="gravecomb" unicode="&#x300;" horiz-adv-x="1" 
d="M-201 613l-104 63c-6 4 -9 9 -9 16c0 10 8 19 18 19c4 0 7 -1 11 -3l104 -64c6 -4 9 -10 9 -16c0 -9 -8 -18 -19 -18c-4 0 -6 1 -10 3z" />
    <glyph glyph-name="acutecomb" unicode="&#x301;" horiz-adv-x="1" 
d="M-153 677l-104 -64c-4 -2 -7 -3 -11 -3c-10 0 -18 9 -18 19c0 7 3 12 9 16l104 63c4 2 6 3 10 3c11 0 19 -9 19 -18c0 -6 -3 -12 -9 -16z" />
    <glyph glyph-name="uni0302" unicode="&#x302;" horiz-adv-x="1" 
d="M-143 614l-87 59l-86 -59c-3 -2 -7 -4 -11 -4c-12 0 -19 8 -19 18c0 6 2 11 8 15l90 62c5 4 11 6 18 6s14 -2 19 -6l89 -62c6 -4 8 -9 8 -15c0 -11 -8 -18 -18 -18c-4 0 -7 1 -11 4z" />
    <glyph glyph-name="tildecomb" unicode="&#x303;" horiz-adv-x="1" 
d="M-107 679c-20 -24 -42 -39 -77 -39c-23 0 -41 8 -58 21c-10 8 -22 14 -35 14c-17 0 -36 -10 -47 -25c-4 -5 -9 -9 -16 -9c-11 0 -18 9 -18 18c0 4 2 10 5 13c21 24 47 39 76 39c24 0 42 -10 59 -22c10 -7 22 -13 34 -13c19 0 37 10 48 25c4 5 9 8 15 8c11 0 18 -9 18 -19
c0 -5 -2 -8 -4 -11z" />
    <glyph glyph-name="uni0308" unicode="&#x308;" horiz-adv-x="1" 
d="M-280 683c0 -15 -13 -27 -28 -27s-27 12 -27 27c0 16 12 28 27 28s28 -12 28 -28zM-125 683c0 -15 -13 -27 -28 -27s-27 12 -27 27c0 16 12 28 27 28s28 -12 28 -28z" />
    <glyph glyph-name="uni030A" unicode="&#x30a;" horiz-adv-x="1" 
d="M-230 582c-53 0 -95 42 -95 95c0 52 42 95 95 95c52 0 95 -43 95 -95c0 -53 -43 -95 -95 -95zM-230 615c33 0 60 28 60 62s-27 62 -60 62s-60 -28 -60 -62s27 -62 60 -62z" />
    <glyph glyph-name="uni030C" unicode="&#x30c;" horiz-adv-x="1" 
d="M-125 678l-89 -62c-5 -4 -12 -6 -19 -6s-13 2 -18 6l-90 62c-6 4 -8 9 -8 15c0 10 7 18 19 18c4 0 8 -2 11 -4l86 -59l87 59c4 3 7 4 11 4c10 0 18 -7 18 -18c0 -6 -2 -11 -8 -15z" />
    <glyph glyph-name="uni0394" unicode="&#x394;" horiz-adv-x="500" 
d="M455 0h-410c-18 0 -32 14 -32 32c0 4 1 7 2 10l211 652c4 10 13 17 24 17s22 -8 25 -18l211 -650c1 -4 1 -7 1 -11c0 -18 -14 -32 -32 -32zM446 38l-196 608l-196 -608h392z" />
    <glyph glyph-name="uni03A9" unicode="&#x3a9;" horiz-adv-x="500" 
d="M427 0h-96c-18 0 -32 14 -32 32v78c0 13 7 24 20 30c58 25 88 76 88 146v229c0 97 -59 158 -157 158s-157 -61 -157 -158v-229c0 -70 32 -120 89 -146c12 -6 20 -17 20 -30v-78c0 -18 -15 -32 -33 -32h-97c-10 0 -19 9 -19 19s9 19 19 19h91v69c-70 31 -110 96 -110 180
v227c0 58 19 108 54 143s85 54 143 54s108 -19 143 -54c36 -35 54 -85 54 -143v-227c0 -84 -40 -149 -110 -180v-69h90c11 0 20 -9 20 -19s-9 -19 -20 -19z" />
    <glyph glyph-name="uni03BC" unicode="&#x3bc;" horiz-adv-x="500" 
d="M385 46v439c0 10 9 19 20 19c10 0 19 -9 19 -19v-440c0 -14 -9 -26 -22 -31c-46 -17 -95 -24 -146 -24c-54 0 -99 23 -129 64v-258c0 -10 -9 -19 -20 -19c-10 0 -19 9 -19 19v689c0 10 9 19 19 19c11 0 20 -9 20 -19v-315c0 -79 47 -144 129 -144c45 0 88 7 129 20z" />
    <glyph glyph-name="pi" unicode="&#x3c0;" horiz-adv-x="500" 
d="M321 107v350h-155v-447c0 -11 -9 -20 -20 -20c-10 0 -19 9 -19 20v447h-91c-10 0 -19 7 -19 18s9 19 19 19h420c11 0 20 -8 20 -19s-9 -18 -20 -18h-96v-350c0 -43 34 -80 77 -80c11 0 19 -9 19 -19s-8 -18 -19 -18c-64 0 -116 52 -116 117z" />
    <glyph glyph-name="uni2007" unicode="&#x2007;" horiz-adv-x="536" 
 />
    <glyph glyph-name="uni2008" unicode="&#x2008;" horiz-adv-x="201" 
 />
    <glyph glyph-name="uni200B" unicode="&#x200b;" horiz-adv-x="0" 
 />
    <glyph glyph-name="endash" unicode="&#x2013;" horiz-adv-x="742" 
d="M591 277h-440c-10 0 -19 7 -19 18s9 19 19 19h440c10 0 19 -9 19 -19s-9 -18 -19 -18z" />
    <glyph glyph-name="emdash" unicode="&#x2014;" horiz-adv-x="1169" 
d="M1018 277h-867c-10 0 -19 7 -19 18s9 19 19 19h867c10 0 19 -9 19 -19s-9 -18 -19 -18z" />
    <glyph glyph-name="quoteleft" unicode="&#x2018;" horiz-adv-x="187" 
d="M61 552l48 146c3 8 11 13 19 13c9 0 19 -8 19 -19c0 -2 0 -4 -1 -7l-48 -145c-3 -8 -11 -13 -19 -13c-10 0 -19 8 -19 19c0 2 0 3 1 6z" />
    <glyph glyph-name="quoteright" unicode="&#x2019;" horiz-adv-x="187" 
d="M41 552l48 146c3 8 11 13 19 13c9 0 19 -8 19 -19c0 -2 0 -4 -1 -7l-48 -145c-3 -8 -11 -13 -19 -13c-10 0 -19 8 -19 19c0 2 0 3 1 6z" />
    <glyph glyph-name="quotesinglbase" unicode="&#x201a;" horiz-adv-x="187" 
d="M61 -97l48 142c3 8 11 13 19 13c10 0 19 -8 19 -19c0 -2 0 -5 -1 -7l-48 -142c-3 -8 -11 -13 -19 -13c-10 0 -19 9 -19 20c0 2 0 4 1 6z" />
    <glyph glyph-name="quotedblleft" unicode="&#x201c;" horiz-adv-x="321" 
d="M61 552l50 146c3 8 10 13 18 13c12 0 19 -11 19 -20c0 -2 0 -4 -1 -6l-49 -145c-3 -8 -11 -13 -19 -13c-12 0 -19 10 -19 19c0 2 0 3 1 6zM193 552l50 146c3 8 11 13 19 13c10 0 19 -9 19 -20c0 -2 0 -3 -1 -6l-50 -145c-3 -8 -10 -13 -18 -13c-10 0 -20 7 -20 19
c0 2 0 3 1 6z" />
    <glyph glyph-name="quotedblright" unicode="&#x201d;" horiz-adv-x="321" 
d="M41 552l50 146c3 8 10 13 18 13c12 0 19 -11 19 -20c0 -2 0 -4 -1 -6l-49 -145c-3 -8 -11 -13 -19 -13c-12 0 -19 10 -19 19c0 2 0 3 1 6zM173 552l50 146c3 8 11 13 19 13c10 0 19 -9 19 -20c0 -2 0 -3 -1 -6l-50 -145c-3 -8 -10 -13 -18 -13c-10 0 -20 7 -20 19
c0 2 0 3 1 6z" />
    <glyph glyph-name="quotedblbase" unicode="&#x201e;" horiz-adv-x="320" 
d="M61 -97l48 142c3 8 11 13 19 13c12 0 19 -10 19 -19c0 -2 0 -4 -1 -7l-48 -142c-3 -8 -11 -13 -19 -13c-12 0 -19 11 -19 20c0 2 0 3 1 6zM193 -97l49 142c2 8 10 13 18 13c11 0 20 -7 20 -20c0 -2 0 -3 -1 -6l-49 -142c-3 -8 -10 -13 -18 -13c-10 0 -20 8 -20 20
c0 2 0 3 1 6z" />
    <glyph glyph-name="dagger" unicode="&#x2020;" horiz-adv-x="500" 
d="M230 -204v660h-175c-10 0 -19 8 -19 19s9 19 19 19h175v197c0 11 10 20 20 20c11 0 20 -9 20 -20v-197h173c11 0 20 -8 20 -19s-9 -19 -20 -19h-173v-660c0 -10 -9 -19 -20 -19c-10 0 -20 9 -20 19z" />
    <glyph glyph-name="daggerdbl" unicode="&#x2021;" horiz-adv-x="500" 
d="M443 0h-173v-204c0 -10 -9 -19 -20 -19c-10 0 -20 9 -20 19v204h-175c-10 0 -19 9 -19 19s9 19 19 19h175v418h-175c-10 0 -19 8 -19 19s9 19 19 19h175v197c0 11 9 20 20 20s20 -9 20 -20v-197h173c11 0 20 -8 20 -19s-9 -19 -20 -19h-173v-418h173c11 0 20 -8 20 -19
c0 -10 -9 -19 -20 -19z" />
    <glyph glyph-name="bullet" unicode="&#x2022;" horiz-adv-x="481" 
d="M241 251c-36 0 -65 29 -65 65c0 35 29 64 65 64c35 0 64 -29 64 -64c0 -36 -29 -65 -64 -65z" />
    <glyph glyph-name="ellipsis" unicode="&#x2026;" horiz-adv-x="771" 
d="M418 24c0 -18 -14 -32 -32 -32s-33 14 -33 32s15 33 33 33s32 -15 32 -33zM657 -8c-18 0 -32 14 -32 32s14 33 32 33s32 -15 32 -33s-14 -32 -32 -32zM147 24c0 -18 -15 -32 -33 -32s-32 14 -32 32s14 33 32 33s33 -15 33 -33z" />
    <glyph glyph-name="perthousand" unicode="&#x2030;" horiz-adv-x="1185" 
d="M786 213v-97c0 -75 -50 -126 -126 -126c-75 0 -126 51 -126 126v97c0 75 51 126 126 126c76 0 126 -51 126 -126zM751 113v103c0 56 -34 91 -91 91c-56 0 -91 -35 -91 -91v-103c0 -56 35 -91 91 -91c57 0 91 35 91 91zM334 585v-97c0 -75 -51 -126 -126 -126
s-126 51 -126 126v97c0 75 51 126 126 126s126 -51 126 -126zM299 485v103c0 56 -35 91 -91 91s-91 -35 -91 -91v-103c0 -56 35 -91 91 -91s91 35 91 91zM1103 213v-97c0 -75 -50 -126 -126 -126c-75 0 -126 51 -126 126v97c0 75 51 126 126 126c76 0 126 -51 126 -126z
M1068 113v103c0 56 -34 91 -91 91c-56 0 -91 -35 -91 -91v-103c0 -56 35 -91 91 -91c57 0 91 35 91 91zM183 18l474 684c3 5 8 9 14 9c9 0 17 -7 17 -18c0 -4 -2 -7 -4 -10l-475 -685c-3 -5 -8 -8 -14 -8c-10 0 -16 7 -16 17c0 4 2 8 4 11z" />
    <glyph glyph-name="guilsinglleft" unicode="&#x2039;" horiz-adv-x="295" 
d="M193 63l-121 169c-4 5 -6 12 -6 18c0 7 2 14 6 19l121 169c4 5 10 8 16 8c10 0 20 -9 20 -20c0 -3 -1 -7 -4 -11l-119 -165l119 -164c3 -4 4 -8 4 -12c0 -9 -10 -19 -20 -19c-6 0 -12 3 -16 8z" />
    <glyph glyph-name="guilsinglright" unicode="&#x203a;" horiz-adv-x="295" 
d="M223 232l-121 -169c-4 -5 -10 -8 -16 -8c-10 0 -20 10 -20 19c0 4 1 8 4 12l119 164l-119 165c-3 4 -4 8 -4 11c0 11 10 20 20 20c6 0 12 -3 16 -8l121 -169c4 -5 6 -12 6 -19c0 -6 -2 -13 -6 -18z" />
    <glyph glyph-name="fraction" unicode="&#x2044;" horiz-adv-x="500" 
d="M97 17l270 682c3 8 11 12 19 12c10 0 18 -8 18 -20c0 -2 0 -4 -1 -7l-270 -681c-3 -8 -10 -12 -18 -12c-10 0 -19 7 -19 19c0 2 0 4 1 7z" />
    <glyph glyph-name="Euro" unicode="&#x20ac;" 
d="M359 260h-200v-46c0 -115 71 -187 187 -187c39 0 79 13 116 37c3 2 6 3 10 3c9 0 19 -8 19 -19c0 -6 -3 -12 -9 -16c-43 -28 -89 -42 -136 -42c-67 0 -124 22 -164 62c-41 41 -63 97 -63 164v44h-71c-10 0 -19 9 -19 19s9 19 19 19h71v112h-71c-10 0 -19 8 -19 19
s9 19 19 19h71v37c0 67 22 124 62 164c41 40 98 62 165 62c47 0 93 -14 136 -42c6 -4 9 -10 9 -16c0 -10 -9 -19 -19 -19c-4 0 -9 2 -12 4c-37 24 -75 36 -114 36c-116 0 -187 -72 -187 -187v-39h200c10 0 19 -9 19 -19s-9 -19 -19 -19h-200v-112h200c10 0 19 -9 19 -19
s-9 -19 -19 -19z" />
    <glyph glyph-name="trademark" unicode="&#x2122;" horiz-adv-x="806" 
d="M156 324v344h-96c-9 0 -16 7 -16 16s7 17 16 17h226c9 0 17 -8 17 -17s-8 -16 -17 -16h-95v-344c0 -10 -8 -18 -17 -18c-10 0 -18 8 -18 18zM684 324v304l-107 -205c-4 -7 -11 -12 -19 -12s-15 4 -19 12l-106 205v-304c0 -10 -8 -18 -18 -18s-17 8 -17 18v362
c0 11 9 21 21 21c8 0 16 -8 18 -12l121 -236l120 235c4 8 11 13 19 13c12 0 21 -10 21 -21v-362c0 -10 -7 -18 -17 -18s-17 8 -17 18z" />
    <glyph glyph-name="Omega" unicode="&#x2126;" horiz-adv-x="500" 
d="M427 0h-96c-18 0 -32 14 -32 32v78c0 13 7 24 20 30c58 25 88 76 88 146v229c0 97 -59 158 -157 158s-157 -61 -157 -158v-229c0 -70 32 -120 89 -146c12 -6 20 -17 20 -30v-78c0 -18 -15 -32 -33 -32h-97c-10 0 -19 9 -19 19s9 19 19 19h91v69c-70 31 -110 96 -110 180
v227c0 58 19 108 54 143s85 54 143 54s108 -19 143 -54c36 -35 54 -85 54 -143v-227c0 -84 -40 -149 -110 -180v-69h90c11 0 20 -9 20 -19s-9 -19 -20 -19z" />
    <glyph glyph-name="arrowleft" unicode="&#x2190;" horiz-adv-x="1310" 
d="M1144 351c0 -11 -9 -20 -19 -20h-894l308 -308c4 -4 6 -8 6 -13c0 -10 -9 -20 -20 -20c-5 0 -9 2 -13 6l-341 341c-4 4 -6 8 -6 13s2 10 6 14l341 341c4 4 8 6 13 6c10 0 20 -9 20 -20c0 -5 -2 -9 -6 -13l-308 -308h894c10 0 19 -9 19 -19z" />
    <glyph glyph-name="arrowup" unicode="&#x2191;" horiz-adv-x="1310" 
d="M654 -168c-10 0 -20 9 -20 19v894l-307 -308c-4 -4 -8 -6 -13 -6c-11 0 -20 10 -20 20c0 5 2 9 6 13l341 341c4 4 9 6 14 6s9 -2 13 -6l341 -341c4 -4 6 -8 6 -13c0 -11 -10 -20 -20 -20c-5 0 -9 2 -13 6l-308 309v-895c0 -10 -9 -19 -20 -19z" />
    <glyph glyph-name="arrowright" unicode="&#x2192;" horiz-adv-x="1310" 
d="M165 351c0 10 9 19 19 19h894l-308 308c-4 4 -6 8 -6 13c0 11 10 20 20 20c5 0 9 -2 13 -6l341 -341c4 -4 6 -9 6 -14s-2 -9 -6 -13l-341 -341c-4 -4 -8 -6 -13 -6c-11 0 -20 10 -20 20c0 5 2 9 6 13l308 308h-894c-10 0 -19 9 -19 20z" />
    <glyph glyph-name="arrowdown" unicode="&#x2193;" horiz-adv-x="1310" 
d="M654 811c11 0 20 -9 20 -19v-895l308 309c4 4 8 6 13 6c10 0 20 -9 20 -20c0 -5 -2 -9 -6 -13l-341 -341c-4 -4 -8 -6 -13 -6s-10 2 -14 6l-341 341c-4 4 -6 8 -6 13c0 10 9 20 20 20c5 0 9 -2 13 -6l307 -308v894c0 10 10 19 20 19z" />
    <glyph glyph-name="uni2196" unicode="&#x2196;" horiz-adv-x="1310" 
d="M990 -10c-5 0 -9 2 -13 6l-638 638v-434c0 -11 -9 -20 -20 -20s-20 9 -20 20v482c0 10 9 19 19 19h482c11 0 20 -8 20 -19s-9 -19 -20 -19h-436l640 -640c4 -3 6 -8 6 -13c0 -11 -10 -20 -20 -20z" />
    <glyph glyph-name="uni2197" unicode="&#x2197;" horiz-adv-x="1310" 
d="M319 -10c-10 0 -20 9 -20 20c0 5 2 10 6 13l640 640h-436c-11 0 -20 8 -20 19s9 19 20 19h482c10 0 19 -9 19 -19v-482c0 -11 -9 -20 -20 -20s-20 9 -20 20v434l-638 -638c-4 -4 -8 -6 -13 -6z" />
    <glyph glyph-name="uni2198" unicode="&#x2198;" horiz-adv-x="1310" 
d="M319 711c5 0 9 -2 13 -6l638 -638v434c0 11 9 20 20 20s20 -9 20 -20v-482c0 -10 -9 -19 -19 -19h-482c-11 0 -20 8 -20 19s9 19 20 19h436l-640 640c-4 3 -6 8 -6 13c0 11 10 20 20 20z" />
    <glyph glyph-name="uni2199" unicode="&#x2199;" horiz-adv-x="1310" 
d="M990 711c10 0 20 -9 20 -20c0 -5 -2 -10 -6 -13l-640 -640h436c11 0 20 -8 20 -19s-9 -19 -20 -19h-482c-10 0 -19 9 -19 19v482c0 11 9 20 20 20s20 -9 20 -20v-434l638 638c4 4 8 6 13 6z" />
    <glyph glyph-name="partialdiff" unicode="&#x2202;" horiz-adv-x="500" 
d="M422 326v-158c0 -53 -16 -97 -48 -129s-77 -49 -129 -49c-53 0 -97 17 -129 49s-49 76 -49 129v158c0 53 17 97 49 129s76 49 129 49c51 0 95 -16 126 -46c-4 20 -9 41 -18 62c-34 84 -89 133 -181 154c-8 2 -15 8 -15 18s8 18 18 18c2 0 5 0 9 -1
c99 -24 166 -82 204 -175c31 -75 34 -154 34 -208zM383 165v164c0 86 -53 139 -138 139c-86 0 -139 -53 -139 -139v-164c0 -86 53 -139 139 -139c85 0 138 53 138 139z" />
    <glyph glyph-name="Delta" unicode="&#x2206;" horiz-adv-x="500" 
d="M455 0h-410c-18 0 -32 14 -32 32c0 4 1 7 2 10l211 652c4 10 13 17 24 17s22 -8 25 -18l211 -650c1 -4 1 -7 1 -11c0 -18 -14 -32 -32 -32zM446 38l-196 608l-196 -608h392z" />
    <glyph glyph-name="product" unicode="&#x220f;" horiz-adv-x="605" 
d="M466 -204v867h-327v-867c0 -10 -9 -19 -20 -19c-10 0 -20 9 -20 19v886c0 11 9 19 19 19h369c10 0 19 -8 19 -19v-886c0 -10 -10 -19 -20 -19c-11 0 -20 9 -20 19z" />
    <glyph glyph-name="summation" unicode="&#x2211;" horiz-adv-x="649" 
d="M564 -213h-466c-18 0 -32 14 -32 32c0 7 2 13 5 18l265 407l-264 407c-3 5 -6 11 -6 18c0 18 14 32 32 32h466c10 0 19 -9 19 -19s-9 -19 -19 -19h-455l262 -401c3 -5 5 -12 5 -18s-2 -13 -5 -18l-261 -401h454c10 0 19 -9 19 -19s-9 -19 -19 -19z" />
    <glyph glyph-name="minus" unicode="&#x2212;" 
d="M487 229h-455c-10 0 -19 7 -19 18s9 19 19 19h455c11 0 20 -8 20 -19s-9 -18 -20 -18z" />
    <glyph glyph-name="uni2219" unicode="&#x2219;" 
d="M261 181c-36 0 -65 29 -65 65c0 35 29 64 65 64c35 0 64 -29 64 -64c0 -36 -29 -65 -64 -65z" />
    <glyph glyph-name="radical" unicode="&#x221a;" horiz-adv-x="500" 
d="M122 9l-123 471c-1 2 -1 3 -1 5c0 9 8 19 20 19c9 0 16 -6 18 -14l111 -430l198 756c4 14 17 24 31 24h107c10 0 19 -9 19 -19s-9 -18 -19 -18h-102l-210 -794c-3 -11 -13 -19 -24 -19c-12 0 -22 8 -25 19z" />
    <glyph glyph-name="infinity" unicode="&#x221e;" horiz-adv-x="752" 
d="M376 216c-37 -52 -97 -108 -168 -108c-78 0 -142 64 -142 142c0 79 64 143 142 143c69 0 128 -53 168 -108c37 52 97 108 168 108c79 0 142 -64 142 -143c0 -78 -63 -142 -142 -142c-69 0 -128 53 -168 108zM353 250c-17 28 -73 107 -145 107c-57 0 -103 -48 -103 -107
s46 -106 103 -106c72 0 128 79 145 106zM399 250c18 -27 74 -106 145 -106c57 0 103 47 103 106s-46 107 -103 107c-71 0 -127 -79 -145 -107z" />
    <glyph glyph-name="integral" unicode="&#x222b;" horiz-adv-x="500" 
d="M231 -96v745c0 72 58 130 129 130c10 0 19 -9 19 -19c0 -9 -8 -18 -19 -18c-50 0 -90 -41 -90 -91v-745c0 -71 -58 -129 -130 -129c-11 0 -19 8 -19 18c0 11 8 19 19 19c50 0 91 40 91 90z" />
    <glyph glyph-name="approxequal" unicode="&#x2248;" 
d="M504 189c-24 -46 -77 -73 -132 -73c-42 0 -83 18 -122 41c-29 17 -63 37 -102 37c-41 0 -82 -22 -100 -56c-4 -6 -10 -10 -17 -10c-10 0 -18 8 -18 19c0 3 1 6 2 9c25 46 79 74 134 74c41 0 82 -18 121 -41c29 -17 64 -37 102 -37c41 0 82 22 100 56c4 6 9 10 16 10
c10 0 19 -8 19 -19c0 -3 -1 -7 -3 -10zM504 336c-24 -46 -77 -73 -132 -73c-42 0 -83 18 -122 41c-29 17 -63 37 -102 37c-41 0 -82 -22 -100 -56c-4 -6 -10 -10 -17 -10c-10 0 -18 8 -18 19c0 3 1 6 2 9c25 46 79 74 134 74c41 0 82 -18 121 -41c29 -17 64 -37 102 -37
c41 0 82 22 100 56c4 6 9 10 16 10c10 0 19 -8 19 -19c0 -3 -1 -7 -3 -10z" />
    <glyph glyph-name="notequal" unicode="&#x2260;" 
d="M488 147h-268l-92 -148c-4 -6 -10 -9 -16 -9c-10 0 -19 8 -19 18c0 4 2 9 4 12l78 127h-143c-10 0 -19 7 -19 18s9 19 19 19h166l80 127h-246c-10 0 -19 7 -19 18s9 19 19 19h269l92 147c4 6 10 9 16 9c10 0 18 -9 18 -19c0 -3 -1 -8 -3 -11l-79 -126h143
c11 0 19 -9 19 -19s-8 -18 -19 -18h-166l-79 -127h245c11 0 19 -9 19 -19s-8 -18 -19 -18z" />
    <glyph glyph-name="lessequal" unicode="&#x2264;" 
d="M449 0h-378c-11 0 -20 8 -20 18c0 11 9 19 20 19h378c10 0 19 -8 19 -19c0 -10 -9 -18 -19 -18zM440 131l-369 156c-12 5 -20 17 -20 30c0 12 8 24 19 29l372 157c3 1 5 1 7 1c11 0 19 -9 19 -19c0 -8 -5 -14 -12 -17l-359 -151l358 -152c8 -3 13 -11 13 -18
c0 -11 -10 -18 -19 -18c-3 0 -6 1 -9 2z" />
    <glyph glyph-name="greaterequal" unicode="&#x2265;" 
d="M448 0h-378c-10 0 -19 8 -19 18c0 11 9 19 19 19h378c11 0 20 -8 20 -19c0 -10 -9 -18 -20 -18zM448 287l-369 -156c-3 -1 -6 -2 -9 -2c-9 0 -19 7 -19 18c0 7 5 15 13 18l358 152l-359 151c-7 3 -12 9 -12 17c0 10 8 19 19 19c2 0 4 0 7 -1l372 -157
c11 -5 19 -17 19 -29c0 -13 -8 -25 -20 -30z" />
    <glyph glyph-name="dotmath" unicode="&#x22c5;" 
d="M292 248c0 -18 -15 -33 -33 -33s-32 15 -32 33c0 17 14 32 32 32s33 -15 33 -32z" />
    <glyph glyph-name="lozenge" unicode="&#x25ca;" horiz-adv-x="500" 
d="M221 6l-181 329c-2 4 -4 10 -4 16c0 5 1 11 4 16l181 328c6 10 17 16 28 16c12 0 22 -6 28 -16l181 -328c3 -5 5 -11 5 -16c0 -6 -3 -12 -5 -16l-181 -329c-6 -10 -16 -16 -28 -16c-11 0 -22 6 -28 16zM249 35l174 316l-174 315l-173 -315z" />
    <glyph glyph-name="zero.tf" 
d="M465 514v-327c0 -58 -18 -107 -56 -143c-36 -35 -89 -54 -149 -54s-113 19 -149 54c-37 36 -56 85 -56 143v327c0 58 19 108 56 143c36 35 89 54 149 54s113 -19 149 -54c38 -35 56 -85 56 -143zM425 184v333c0 97 -63 158 -165 158s-165 -61 -165 -158v-333
c0 -97 63 -158 165 -158s165 61 165 158z" />
    <glyph glyph-name="one.tf" 
d="M266 10v654l-139 -81c-4 -2 -7 -3 -10 -3c-9 0 -19 8 -19 20c0 6 3 12 10 16l158 91c4 3 8 4 13 4c14 0 26 -12 26 -26v-675c0 -11 -9 -20 -20 -20c-10 0 -19 9 -19 20z" />
    <glyph glyph-name="two.tf" 
d="M407 0h-320c-14 0 -27 12 -27 26c0 6 2 11 5 15l260 350c25 34 55 86 55 144c0 85 -54 141 -142 141c-48 0 -89 -7 -138 -33c-3 -2 -7 -2 -10 -2c-10 0 -20 6 -20 18c0 7 5 14 11 17c60 30 105 35 157 35c56 0 100 -17 133 -48c30 -29 50 -74 50 -128
c0 -69 -38 -128 -66 -166l-246 -332h298c12 0 20 -8 20 -19c0 -10 -8 -18 -20 -18z" />
    <glyph glyph-name="three.tf" 
d="M219 346h-21c-11 0 -20 7 -20 18s9 18 20 18h13c43 0 84 14 113 41c30 27 46 65 46 103c0 92 -52 149 -141 149c-48 0 -87 -6 -140 -34c-3 -2 -6 -2 -8 -2c-9 0 -20 8 -20 19c0 7 3 12 11 16c59 32 104 37 157 37c54 0 100 -17 132 -50c33 -33 49 -79 49 -135
c0 -49 -21 -95 -58 -129c-14 -12 -29 -23 -45 -31c22 -9 43 -22 62 -38c41 -36 62 -87 62 -141c0 -60 -20 -110 -57 -145c-36 -34 -87 -52 -145 -52c-63 0 -117 12 -165 36c-6 3 -10 11 -10 18c0 9 9 18 20 18c3 0 6 -1 9 -2c46 -23 89 -34 146 -34c100 0 162 63 162 161
c0 44 -20 88 -50 115c-31 27 -72 44 -122 44z" />
    <glyph glyph-name="four.tf" 
d="M317 10v164h-239c-15 0 -27 10 -27 25c0 1 0 4 1 8l179 491c3 8 10 13 19 13c14 0 21 -14 17 -26l-172 -474h222v164c0 11 9 19 20 19c12 0 21 -8 21 -19v-164h94c10 0 20 -8 20 -19c0 -10 -10 -18 -20 -18h-94v-164c0 -11 -9 -20 -21 -20c-11 0 -20 9 -20 20z" />
    <glyph glyph-name="five.tf" 
d="M401 171v66c0 79 -67 145 -148 145c-44 0 -88 -12 -125 -31c-5 -2 -9 -3 -14 -3c-14 0 -26 11 -26 25v296c0 18 15 32 33 32h280c11 0 21 -8 21 -19s-10 -18 -21 -18h-272v-271c39 17 81 25 124 25c104 0 188 -81 188 -181v-66c0 -100 -84 -181 -188 -181
c-64 0 -115 11 -164 35c-7 4 -11 10 -11 17c0 10 8 19 19 19c4 0 7 0 10 -2c46 -23 88 -33 146 -33c81 0 148 67 148 145z" />
    <glyph glyph-name="six.tf" 
d="M79 171v316c0 155 99 224 200 224c79 0 133 -40 154 -63c7 -7 8 -19 0 -27s-21 -6 -28 1c-29 35 -84 52 -126 52c-80 1 -161 -59 -161 -187v-138c33 42 91 69 149 69c100 0 188 -81 188 -181v-66c0 -100 -88 -181 -188 -181s-188 81 -188 181zM416 168v71
c0 79 -71 143 -149 143s-149 -64 -149 -143v-71c0 -78 71 -142 149 -142s149 64 149 142z" />
    <glyph glyph-name="seven.tf" 
d="M152 17l253 647h-331c-10 0 -19 7 -19 18s9 19 19 19h348c15 0 28 -11 28 -26c0 -1 0 -5 -2 -9l-260 -663c-3 -8 -11 -13 -20 -13c-10 0 -18 8 -18 19c0 2 1 6 2 8z" />
    <glyph glyph-name="eight.tf" 
d="M337 371c23 -9 43 -23 61 -40c36 -36 57 -87 57 -143s-21 -107 -57 -143c-36 -35 -86 -55 -139 -55s-102 20 -138 55c-37 36 -57 87 -57 143s21 106 57 143c17 17 38 31 61 40c-19 8 -35 20 -49 34c-34 33 -52 78 -52 127c0 50 18 95 52 128c33 33 78 51 126 51
c49 0 94 -18 127 -51s52 -78 52 -128c0 -49 -19 -94 -52 -127c-14 -14 -31 -26 -49 -34zM259 388c79 0 139 63 139 144c0 82 -60 143 -139 143c-78 0 -138 -61 -138 -143c0 -81 60 -144 138 -144zM259 26c91 0 155 68 155 162s-64 164 -155 164c-90 0 -154 -70 -154 -164
s64 -162 154 -162z" />
    <glyph glyph-name="nine.tf" 
d="M439 530v-316c0 -155 -99 -224 -200 -224c-79 0 -133 40 -154 63c-7 7 -8 19 0 27s21 6 28 -1c29 -35 84 -52 126 -52c80 -1 161 59 161 187v138c-33 -42 -91 -69 -149 -69c-100 0 -188 81 -188 181v66c0 100 88 181 188 181s188 -81 188 -181zM102 533v-71
c0 -79 71 -143 149 -143s149 64 149 143v71c0 78 -71 142 -149 142s-149 -64 -149 -142z" />
    <glyph glyph-name="uni2007.tf" 
 />
    <glyph glyph-name="parenleft.case" horiz-adv-x="273" 
d="M202 -88c0 -12 -10 -19 -20 -19c-7 0 -14 4 -17 10c-67 131 -105 291 -105 452c0 160 37 316 105 451c4 8 11 11 18 11c12 0 19 -10 19 -20c0 -3 -1 -5 -2 -8c-67 -135 -101 -280 -101 -434s33 -300 101 -434c1 -3 2 -6 2 -9z" />
    <glyph glyph-name="parenright.case" horiz-adv-x="279" 
d="M114 -97c-3 -6 -10 -10 -17 -10c-10 0 -20 7 -20 19c0 3 1 6 2 9c68 134 101 280 101 434s-34 299 -101 434c-1 3 -2 5 -2 8c0 10 7 20 19 20c7 0 14 -3 18 -11c68 -135 105 -291 105 -451c0 -161 -38 -321 -105 -452z" />
    <glyph glyph-name="hyphen.case" horiz-adv-x="397" 
d="M312 336h-227c-10 0 -19 7 -19 18s9 19 19 19h227c10 0 19 -9 19 -19s-9 -18 -19 -18z" />
    <glyph glyph-name="bracketleft.case" horiz-adv-x="322" 
d="M226 -107h-136c-11 0 -19 8 -19 19v885c0 11 8 20 19 20h136c10 0 19 -8 19 -18s-9 -19 -19 -19h-116v-850h116c10 0 19 -7 19 -18s-9 -19 -19 -19z" />
    <glyph glyph-name="bracketright.case" horiz-adv-x="327" 
d="M237 -107h-136c-10 0 -19 8 -19 19s9 18 19 18h116v850h-116c-10 0 -19 9 -19 19s9 18 19 18h136c11 0 19 -9 19 -20v-885c0 -11 -8 -19 -19 -19z" />
    <glyph glyph-name="braceleft.case" horiz-adv-x="373" 
d="M164 22v209c0 53 -39 96 -92 104c-10 2 -17 10 -17 20c0 9 7 18 17 19c53 6 92 51 92 104v209c0 72 59 130 131 130c10 0 18 -8 18 -19c0 -10 -9 -17 -19 -17c-50 0 -91 -44 -91 -94v-209c0 -52 -26 -98 -78 -123c52 -26 78 -72 78 -124v-209c0 -50 41 -93 91 -93
c10 0 19 -7 19 -18s-9 -18 -19 -18c-72 0 -130 57 -130 129z" />
    <glyph glyph-name="braceright.case" horiz-adv-x="373" 
d="M170 22v209c0 52 26 98 78 124c-52 25 -78 71 -78 123v209c0 50 -41 94 -91 94c-10 0 -19 7 -19 17c0 11 8 19 18 19c72 0 131 -58 131 -130v-209c0 -53 39 -98 92 -104c10 -1 17 -10 17 -19c0 -10 -7 -18 -17 -20c-53 -8 -92 -51 -92 -104v-209
c0 -72 -58 -129 -130 -129c-10 0 -19 7 -19 18s9 18 19 18c50 0 91 43 91 93z" />
    <glyph glyph-name="guillemotleft.case" horiz-adv-x="456" 
d="M193 167l-121 169c-4 5 -6 12 -6 18c0 7 2 14 6 19l121 169c4 5 10 8 16 8c11 0 19 -10 19 -20c0 -3 0 -7 -3 -11l-119 -165l119 -164c3 -4 3 -8 3 -12c0 -11 -10 -19 -19 -19c-6 0 -12 3 -16 8zM355 167l-121 169c-4 5 -6 12 -6 18c0 7 2 14 6 19l121 169c4 5 10 8 16 8
c11 0 19 -10 19 -20c0 -3 0 -7 -3 -11l-119 -165l119 -164c3 -4 3 -8 3 -12c0 -11 -10 -19 -19 -19c-6 0 -12 3 -16 8z" />
    <glyph glyph-name="uni00AD.case" horiz-adv-x="397" 
d="M312 336h-227c-10 0 -19 7 -19 18s9 19 19 19h227c10 0 19 -9 19 -19s-9 -18 -19 -18z" />
    <glyph glyph-name="guillemotright.case" horiz-adv-x="456" 
d="M384 336l-121 -169c-4 -5 -10 -8 -16 -8c-9 0 -19 8 -19 19c0 4 0 8 3 12l119 164l-119 165c-3 4 -3 8 -3 11c0 10 8 20 19 20c6 0 12 -3 16 -8l121 -169c4 -5 6 -12 6 -19c0 -6 -2 -13 -6 -18zM222 336l-121 -169c-4 -5 -10 -8 -16 -8c-9 0 -19 8 -19 19c0 4 0 8 3 12
l119 164l-119 165c-3 4 -3 8 -3 11c0 10 8 20 19 20c6 0 12 -3 16 -8l121 -169c4 -5 6 -12 6 -19c0 -6 -2 -13 -6 -18z" />
    <glyph glyph-name="gravecomb.case" horiz-adv-x="1" 
d="M-243 786l-104 63c-6 4 -9 9 -9 16c0 10 8 19 18 19c4 0 7 -1 11 -3l104 -64c6 -4 9 -10 9 -16c0 -9 -8 -18 -19 -18c-4 0 -6 1 -10 3z" />
    <glyph glyph-name="acutecomb.case" horiz-adv-x="1" 
d="M-196 850l-104 -64c-4 -2 -7 -3 -11 -3c-10 0 -18 9 -18 19c0 7 3 12 9 16l104 63c4 2 6 3 10 3c11 0 19 -9 19 -18c0 -6 -3 -12 -9 -16z" />
    <glyph glyph-name="uni0302.case" horiz-adv-x="1" 
d="M-185 787l-87 59l-86 -59c-3 -2 -7 -4 -11 -4c-12 0 -19 8 -19 18c0 6 2 11 8 15l90 62c5 4 11 6 18 6s14 -2 19 -6l89 -62c6 -4 8 -9 8 -15c0 -11 -8 -18 -18 -18c-4 0 -7 1 -11 4z" />
    <glyph glyph-name="tildecomb.case" horiz-adv-x="1" 
d="M-149 852c-20 -24 -42 -39 -77 -39c-23 0 -41 8 -58 21c-10 8 -22 14 -35 14c-17 0 -36 -10 -47 -25c-4 -5 -9 -9 -16 -9c-11 0 -18 9 -18 18c0 4 2 10 5 13c21 24 47 39 76 39c24 0 42 -10 59 -22c10 -7 22 -13 34 -13c19 0 37 10 48 25c4 5 9 8 15 8c11 0 18 -9 18 -19
c0 -5 -2 -8 -4 -11z" />
    <glyph glyph-name="uni0308.case" horiz-adv-x="1" 
d="M-322 864c0 -15 -12 -27 -28 -27c-15 0 -27 12 -27 27c0 16 12 28 27 28c16 0 28 -12 28 -28zM-194 837c-16 0 -28 12 -28 27c0 16 12 28 28 28c15 0 27 -12 27 -28c0 -15 -12 -27 -27 -27z" />
    <glyph glyph-name="uni030A.case" horiz-adv-x="1" 
d="M-272 769c-53 0 -95 42 -95 95c0 52 42 95 95 95c52 0 95 -43 95 -95c0 -53 -43 -95 -95 -95zM-272 802c33 0 60 28 60 62s-27 62 -60 62s-60 -28 -60 -62s27 -62 60 -62z" />
    <glyph glyph-name="uni030C.case" horiz-adv-x="1" 
d="M-167 850l-89 -62c-5 -4 -12 -6 -19 -6s-13 2 -18 6l-90 62c-6 4 -8 9 -8 15c0 10 7 18 19 18c4 0 8 -2 11 -4l86 -59l87 59c4 3 7 4 11 4c10 0 18 -7 18 -18c0 -6 -2 -11 -8 -15z" />
    <glyph glyph-name="endash.case" horiz-adv-x="742" 
d="M591 336h-440c-10 0 -19 7 -19 18s9 19 19 19h440c10 0 19 -9 19 -19s-9 -18 -19 -18z" />
    <glyph glyph-name="emdash.case" horiz-adv-x="1169" 
d="M1018 336h-867c-10 0 -19 7 -19 18s9 19 19 19h867c10 0 19 -9 19 -19s-9 -18 -19 -18z" />
    <glyph glyph-name="guilsinglleft.case" horiz-adv-x="295" 
d="M193 167l-121 169c-4 5 -6 12 -6 18c0 7 2 14 6 19l121 169c4 5 10 8 16 8c10 0 20 -9 20 -20c0 -3 -1 -7 -4 -11l-119 -165l119 -164c3 -4 4 -8 4 -12c0 -9 -10 -19 -20 -19c-6 0 -12 3 -16 8z" />
    <glyph glyph-name="guilsinglright.case" horiz-adv-x="295" 
d="M223 336l-121 -169c-4 -5 -10 -8 -16 -8c-10 0 -20 10 -20 19c0 4 1 8 4 12l119 164l-119 165c-3 4 -4 8 -4 11c0 11 10 20 20 20c6 0 12 -3 16 -8l121 -169c4 -5 6 -12 6 -19c0 -6 -2 -13 -6 -18z" />
    <glyph glyph-name="l.ss01" horiz-adv-x="216" 
d="M82 76v615c0 11 9 20 19 20c11 0 20 -9 20 -20v-618c0 -26 21 -47 46 -47c11 0 17 3 25 3c9 0 19 -7 19 -19c0 -9 -7 -17 -17 -18c-9 -1 -18 -2 -27 -2c-47 0 -85 39 -85 86z" />
    <glyph glyph-name="lslash.ss01" horiz-adv-x="276" 
d="M119 330l-67 -44c-3 -2 -8 -4 -12 -4c-9 0 -18 7 -18 18c0 6 3 12 9 16l88 58v317c0 11 9 20 19 20c11 0 20 -9 20 -20v-291l66 44c3 2 8 4 12 4c10 0 18 -7 18 -18c0 -6 -2 -11 -8 -15l-88 -59v-283c0 -26 21 -47 46 -47c11 0 17 3 25 3c9 0 19 -7 19 -19
c0 -9 -7 -17 -17 -18c-9 -1 -18 -2 -27 -2c-47 0 -85 39 -85 86v254z" />
    <glyph glyph-name="fl.ss01" horiz-adv-x="496" 
d="M362 76v615c0 11 9 20 19 20c11 0 20 -9 20 -20v-618c0 -26 21 -47 46 -47c11 0 17 3 25 3c9 0 19 -7 19 -19c0 -9 -7 -17 -17 -18c-9 -1 -18 -2 -27 -2c-47 0 -85 39 -85 86zM77 10v448h-58c-11 0 -19 7 -19 18s8 18 19 18h58v101c0 64 52 116 116 116c19 0 35 -2 53 -5
c10 -2 18 -8 18 -19c0 -10 -9 -17 -19 -17c-14 0 -28 5 -52 5c-42 0 -77 -35 -77 -77v-104h129c11 0 19 -7 19 -18s-8 -18 -19 -18h-129v-448c0 -11 -9 -20 -20 -20c-10 0 -19 9 -19 20z" />
    <glyph glyph-name="ampersand.ss02" horiz-adv-x="658" 
d="M479 0h-187c-113 0 -193 71 -193 192c0 77 49 143 120 173c-60 31 -102 91 -102 161c0 116 78 185 197 185c38 0 73 -6 101 -18c7 -3 11 -10 11 -17c0 -9 -8 -18 -19 -18c-3 0 -6 1 -9 2c-23 8 -51 15 -84 15c-93 0 -158 -48 -158 -149c0 -79 68 -144 152 -144h303
c11 0 20 -9 20 -19c0 -11 -9 -18 -20 -18h-100v-313c0 -18 -15 -32 -32 -32zM472 37v308h-163c-96 0 -171 -69 -171 -154c0 -96 57 -154 154 -154h180z" />
    <glyph glyph-name="commaaccent" horiz-adv-x="250" 
d="M82 -201l48 142c3 8 11 13 19 13c10 0 19 -8 19 -19c0 -2 0 -5 -1 -7l-48 -142c-3 -8 -11 -13 -19 -13c-10 0 -19 9 -19 20c0 2 0 4 1 6z" />
    <glyph glyph-name="Abreve" unicode="&#x102;" horiz-adv-x="523" 
d="M403 208h-283l-66 -204c-3 -9 -11 -14 -19 -14c-10 0 -19 9 -19 20c0 1 0 3 1 6l220 677c3 10 14 18 25 18s20 -7 24 -18l220 -677c1 -3 1 -5 1 -7c0 -9 -8 -19 -19 -19c-8 0 -16 5 -19 14c0 0 -29 91 -66 204zM390 246l-128 397l-129 -397h257zM359 838
c-28 -30 -59 -48 -98 -48s-70 18 -98 48c-3 3 -5 9 -5 13c0 10 8 19 18 19c6 0 11 -3 15 -8c18 -22 44 -36 70 -36s52 14 70 36c4 5 9 8 15 8c10 0 18 -9 18 -19c0 -4 -2 -10 -5 -13z" />
    <glyph glyph-name="abreve" unicode="&#x103;" horiz-adv-x="451" 
d="M341 281v76c0 75 -53 111 -117 111c-41 0 -81 -12 -120 -34c-3 -2 -8 -3 -11 -3c-9 0 -18 7 -18 18c0 7 3 13 10 17c48 27 89 38 136 38c86 0 159 -47 159 -137v-322c0 -14 -9 -26 -22 -31c-43 -16 -96 -24 -137 -24c-60 0 -106 14 -136 41c-27 25 -41 61 -41 105
c0 46 14 80 41 105c30 27 76 40 136 40h120zM341 47v198h-120c-50 0 -87 -10 -110 -31c-19 -17 -28 -43 -28 -78c0 -34 9 -61 28 -78c23 -21 60 -32 110 -32c36 0 82 9 120 21zM323 667c-28 -30 -59 -48 -98 -48s-70 18 -98 48c-3 3 -5 9 -5 13c0 10 8 19 18 19
c6 0 11 -3 15 -8c18 -22 44 -36 70 -36s52 14 70 36c4 5 9 8 15 8c10 0 18 -9 18 -19c0 -4 -2 -10 -5 -13z" />
    <glyph glyph-name="Amacron" unicode="&#x100;" horiz-adv-x="523" 
d="M403 208h-283l-66 -204c-3 -9 -11 -14 -19 -14c-10 0 -19 9 -19 20c0 1 0 3 1 6l220 677c3 10 14 18 25 18s20 -7 24 -18l220 -677c1 -3 1 -5 1 -7c0 -9 -8 -19 -19 -19c-8 0 -16 5 -19 14c0 0 -29 91 -66 204zM390 246l-128 397l-129 -397h257zM338 821h-155
c-10 0 -19 7 -19 18s9 19 19 19h155c11 0 20 -8 20 -19s-9 -18 -20 -18z" />
    <glyph glyph-name="amacron" unicode="&#x101;" horiz-adv-x="451" 
d="M341 281v76c0 75 -53 111 -117 111c-41 0 -81 -12 -120 -34c-3 -2 -8 -3 -11 -3c-9 0 -18 7 -18 18c0 7 3 13 10 17c48 27 89 38 136 38c86 0 159 -47 159 -137v-322c0 -14 -9 -26 -22 -31c-43 -16 -96 -24 -137 -24c-60 0 -106 14 -136 41c-27 25 -41 61 -41 105
c0 46 14 80 41 105c30 27 76 40 136 40h120zM341 47v198h-120c-50 0 -87 -10 -110 -31c-19 -17 -28 -43 -28 -78c0 -34 9 -61 28 -78c23 -21 60 -32 110 -32c36 0 82 9 120 21zM302 656h-155c-10 0 -19 7 -19 18s9 19 19 19h155c11 0 20 -8 20 -19s-9 -18 -20 -18z" />
    <glyph glyph-name="Aogonek" unicode="&#x104;" horiz-adv-x="523" 
d="M536 -189c0 -24 -39 -34 -71 -34c-58 0 -84 37 -83 81c2 70 47 114 85 151l-64 199h-283l-66 -204c-3 -9 -11 -14 -19 -14c-10 0 -19 9 -19 20c0 1 0 3 1 6l220 677c3 10 14 18 25 18s20 -7 24 -18l220 -677c1 -3 1 -5 1 -7c0 -7 -4 -12 -9 -16c-35 -33 -73 -86 -73 -132
c0 -23 17 -44 46 -44c28 0 31 11 47 12c10 0 18 -8 18 -18zM390 246l-128 397l-129 -397h257z" />
    <glyph glyph-name="aogonek" unicode="&#x105;" horiz-adv-x="451" 
d="M380 -189c0 -24 -39 -34 -71 -34c-58 0 -83 37 -83 81c0 43 31 100 70 139c-26 -5 -53 -7 -75 -7c-60 0 -106 14 -136 41c-27 25 -41 61 -41 105c0 46 14 80 41 105c30 27 76 40 136 40h120v76c0 75 -53 111 -117 111c-41 0 -81 -12 -120 -34c-3 -2 -8 -3 -11 -3
c-9 0 -18 7 -18 18c0 7 3 13 10 17c48 27 89 38 136 38c86 0 159 -47 159 -137v-322c0 -12 -6 -21 -15 -28c-36 -28 -96 -106 -96 -156c0 -23 17 -44 46 -44c28 0 31 11 47 12c10 0 18 -8 18 -18zM341 47v198h-120c-50 0 -87 -10 -110 -31c-19 -17 -28 -43 -28 -78
c0 -34 9 -61 28 -78c23 -21 60 -32 110 -32c36 0 82 9 120 21z" />
    <glyph glyph-name="Ccaron" unicode="&#x10c;" horiz-adv-x="465" 
d="M60 216v269c0 67 21 123 62 164c40 40 97 62 164 62c48 0 93 -14 137 -42c6 -4 9 -11 9 -17c0 -10 -8 -18 -19 -18c-4 0 -8 1 -11 3c-37 24 -76 37 -116 37c-115 0 -186 -74 -186 -189v-269c0 -115 71 -189 186 -189c40 0 79 14 116 38c3 2 6 3 10 3c9 0 20 -7 20 -19
c0 -6 -3 -13 -9 -17c-44 -28 -89 -42 -137 -42c-67 0 -124 22 -164 62c-41 41 -62 97 -62 164zM387 850l-89 -62c-5 -4 -12 -6 -19 -6s-13 2 -18 6l-90 62c-6 4 -8 9 -8 15c0 10 7 18 19 18c4 0 8 -2 11 -4l86 -59l87 59c4 3 7 4 11 4c10 0 18 -7 18 -18c0 -6 -2 -11 -8 -15
z" />
    <glyph glyph-name="ccaron" unicode="&#x10d;" horiz-adv-x="392" 
d="M55 158v178c0 50 16 92 46 122s72 46 122 46c44 0 86 -11 125 -29c7 -3 11 -10 11 -17c0 -10 -8 -18 -19 -18c-3 0 -5 1 -8 2c-35 14 -71 26 -109 26c-80 0 -129 -52 -129 -132v-178c0 -79 49 -132 129 -132c38 0 75 10 109 27c2 1 5 2 8 2c9 0 19 -8 19 -19
c0 -7 -4 -13 -11 -17c-38 -20 -81 -29 -125 -29c-50 0 -92 16 -122 46s-46 73 -46 122zM331 678l-89 -62c-5 -4 -12 -6 -19 -6s-13 2 -18 6l-90 62c-6 4 -8 9 -8 15c0 10 7 18 19 18c4 0 8 -2 11 -4l86 -59l87 59c4 3 7 4 11 4c10 0 18 -7 18 -18c0 -6 -2 -11 -8 -15z" />
    <glyph glyph-name="Cacute" unicode="&#x106;" horiz-adv-x="465" 
d="M60 216v269c0 67 21 123 62 164c40 40 97 62 164 62c48 0 93 -14 137 -42c6 -4 9 -11 9 -17c0 -10 -8 -18 -19 -18c-4 0 -8 1 -11 3c-37 24 -76 37 -116 37c-115 0 -186 -74 -186 -189v-269c0 -115 71 -189 186 -189c40 0 79 14 116 38c3 2 6 3 10 3c9 0 20 -7 20 -19
c0 -6 -3 -13 -9 -17c-44 -28 -89 -42 -137 -42c-67 0 -124 22 -164 62c-41 41 -62 97 -62 164zM329 850l-104 -64c-4 -2 -7 -3 -11 -3c-10 0 -18 9 -18 19c0 7 3 12 9 16l104 63c4 2 6 3 10 3c11 0 19 -9 19 -18c0 -6 -3 -12 -9 -16z" />
    <glyph glyph-name="cacute" unicode="&#x107;" horiz-adv-x="392" 
d="M55 158v178c0 50 16 92 46 122s72 46 122 46c44 0 86 -11 125 -29c7 -3 11 -10 11 -17c0 -10 -8 -18 -19 -18c-3 0 -5 1 -8 2c-35 14 -71 26 -109 26c-80 0 -129 -52 -129 -132v-178c0 -79 49 -132 129 -132c38 0 75 10 109 27c2 1 5 2 8 2c9 0 19 -8 19 -19
c0 -7 -4 -13 -11 -17c-38 -20 -81 -29 -125 -29c-50 0 -92 16 -122 46s-46 73 -46 122zM291 677l-104 -64c-4 -2 -7 -3 -11 -3c-10 0 -18 9 -18 19c0 7 3 12 9 16l104 63c4 2 6 3 10 3c11 0 19 -9 19 -18c0 -6 -3 -12 -9 -16z" />
    <glyph glyph-name="Zacute" unicode="&#x179;" horiz-adv-x="464" 
d="M423 0h-375c-14 0 -26 12 -26 26c0 4 1 7 4 13l365 624h-346c-11 0 -20 8 -20 19s9 19 20 19h368c14 0 26 -11 26 -26c0 -4 -1 -8 -4 -13l-366 -624h354c10 0 19 -8 19 -19c0 -10 -9 -19 -19 -19zM304 851l-104 -64c-4 -2 -7 -3 -11 -3c-10 0 -18 9 -18 19c0 7 3 12 9 16
l104 63c4 2 6 3 10 3c11 0 19 -9 19 -18c0 -6 -3 -12 -9 -16z" />
    <glyph glyph-name="zacute" unicode="&#x17a;" horiz-adv-x="402" 
d="M350 0h-291c-14 0 -26 12 -26 26c0 5 1 10 4 14l282 417h-264c-12 0 -19 8 -19 19s9 18 20 18h284c14 0 26 -11 26 -25c0 -6 -2 -11 -5 -15l-282 -417h271c10 0 19 -8 19 -19c0 -10 -9 -18 -19 -18zM263 677l-104 -64c-4 -2 -7 -3 -11 -3c-10 0 -18 9 -18 19
c0 7 3 12 9 16l104 63c4 2 6 3 10 3c11 0 19 -9 19 -18c0 -6 -3 -12 -9 -16z" />
    <glyph glyph-name="Dcroat" unicode="&#x110;" horiz-adv-x="549" 
d="M247 0h-133c-18 0 -32 14 -32 32v637c0 18 14 32 32 32h133c72 0 132 -22 176 -65c43 -43 66 -104 66 -175v-221c0 -71 -23 -132 -66 -174c-44 -43 -104 -66 -176 -66zM449 240v221c0 61 -18 112 -53 147c-36 36 -88 55 -149 55h-125v-625h125c61 0 113 20 148 55
c36 36 54 86 54 147zM245 346h-227c-10 0 -19 7 -19 18s9 19 19 19h227c10 0 19 -9 19 -19s-9 -18 -19 -18z" />
    <glyph glyph-name="dcroat" unicode="&#x111;" horiz-adv-x="468" 
d="M449 568h-58v-523c0 -14 -9 -26 -22 -31c-46 -17 -95 -24 -146 -24c-50 0 -92 16 -122 46s-46 73 -46 122v178c0 50 16 92 46 122s72 46 122 46c47 0 92 -15 129 -42v106h-112c-10 0 -19 7 -19 18s9 19 19 19h112v86c0 11 9 20 20 20c10 0 19 -9 19 -20v-86h58
c10 0 19 -9 19 -19s-9 -18 -19 -18zM352 46v369c-35 34 -81 53 -129 53c-80 0 -129 -49 -129 -129v-184c0 -79 49 -129 129 -129c45 0 88 7 129 20z" />
    <glyph glyph-name="Dcaron" unicode="&#x10e;" horiz-adv-x="549" 
d="M247 0h-133c-18 0 -32 14 -32 32v637c0 18 14 32 32 32h133c72 0 132 -22 176 -65c43 -43 66 -104 66 -175v-221c0 -71 -23 -132 -66 -174c-44 -43 -104 -66 -176 -66zM449 240v221c0 61 -18 112 -53 147c-36 36 -88 55 -149 55h-125v-625h125c61 0 113 20 148 55
c36 36 54 86 54 147zM382 850l-89 -62c-5 -4 -12 -6 -19 -6s-13 2 -18 6l-90 62c-6 4 -8 9 -8 15c0 10 7 18 19 18c4 0 8 -2 11 -4l86 -59l87 59c4 3 7 4 11 4c10 0 18 -7 18 -18c0 -6 -2 -11 -8 -15z" />
    <glyph glyph-name="dcaron" unicode="&#x10f;" horiz-adv-x="483" 
d="M55 158v178c0 50 16 92 46 122s72 46 122 46c47 0 92 -15 129 -42v229c0 11 9 20 20 20c10 0 19 -9 19 -20v-646c0 -14 -9 -26 -22 -31c-46 -17 -95 -24 -146 -24c-50 0 -92 16 -122 46s-46 73 -46 122zM352 46v369c-35 34 -81 53 -129 53c-80 0 -129 -49 -129 -129v-184
c0 -79 49 -129 129 -129c45 0 88 7 129 20zM417 552l48 146c3 8 11 13 19 13c9 0 19 -8 19 -19c0 -2 0 -4 -1 -7l-48 -145c-3 -8 -11 -13 -19 -13c-10 0 -19 8 -19 19c0 2 0 3 1 6z" />
    <glyph glyph-name="Emacron" unicode="&#x112;" horiz-adv-x="469" 
d="M412 0h-298c-18 0 -32 14 -32 32v637c0 18 14 32 32 32h291c11 0 19 -8 19 -19s-8 -19 -19 -19h-283v-281h270c11 0 20 -8 20 -19c0 -10 -9 -19 -20 -19h-270v-306h290c10 0 19 -8 19 -19c0 -10 -9 -19 -19 -19zM330 820h-155c-10 0 -19 7 -19 18s9 19 19 19h155
c11 0 20 -8 20 -19s-9 -18 -20 -18z" />
    <glyph glyph-name="emacron" unicode="&#x113;" horiz-adv-x="446" 
d="M359 244h-265v-86c0 -79 49 -132 129 -132c42 0 82 13 121 29c3 1 6 2 9 2c9 0 19 -8 19 -18c0 -8 -5 -15 -12 -18c-43 -19 -89 -31 -137 -31c-50 0 -92 16 -122 46s-46 73 -46 122v178c0 50 16 92 46 122s72 46 122 46s92 -16 122 -46s46 -72 46 -122v-60
c0 -18 -14 -32 -32 -32zM352 280v59c0 80 -49 129 -129 129s-129 -49 -129 -129v-59h258zM300 657h-155c-10 0 -19 7 -19 18s9 19 19 19h155c11 0 20 -8 20 -19s-9 -18 -20 -18z" />
    <glyph glyph-name="Edotaccent" unicode="&#x116;" horiz-adv-x="469" 
d="M412 0h-298c-18 0 -32 14 -32 32v637c0 18 14 32 32 32h291c11 0 19 -8 19 -19s-8 -19 -19 -19h-283v-281h270c11 0 20 -8 20 -19c0 -10 -9 -19 -20 -19h-270v-306h290c10 0 19 -8 19 -19c0 -10 -9 -19 -19 -19zM279 839c0 -16 -13 -29 -29 -29s-29 13 -29 29
s13 29 29 29s29 -13 29 -29z" />
    <glyph glyph-name="edotaccent" unicode="&#x117;" horiz-adv-x="446" 
d="M359 244h-265v-86c0 -79 49 -132 129 -132c42 0 82 13 121 29c3 1 6 2 9 2c9 0 19 -8 19 -18c0 -8 -5 -15 -12 -18c-43 -19 -89 -31 -137 -31c-50 0 -92 16 -122 46s-46 73 -46 122v178c0 50 16 92 46 122s72 46 122 46s92 -16 122 -46s46 -72 46 -122v-60
c0 -18 -14 -32 -32 -32zM352 280v59c0 80 -49 129 -129 129s-129 -49 -129 -129v-59h258zM252 674c0 -16 -13 -29 -29 -29s-29 13 -29 29s13 29 29 29s29 -13 29 -29z" />
    <glyph glyph-name="Ecaron" unicode="&#x11a;" horiz-adv-x="469" 
d="M412 0h-298c-18 0 -32 14 -32 32v637c0 18 14 32 32 32h291c11 0 19 -8 19 -19s-8 -19 -19 -19h-283v-281h270c11 0 20 -8 20 -19c0 -10 -9 -19 -20 -19h-270v-306h290c10 0 19 -8 19 -19c0 -10 -9 -19 -19 -19zM363 850l-89 -62c-5 -4 -12 -6 -19 -6s-13 2 -18 6l-90 62
c-6 4 -8 9 -8 15c0 10 7 18 19 18c4 0 8 -2 11 -4l86 -59l87 59c4 3 7 4 11 4c10 0 18 -7 18 -18c0 -6 -2 -11 -8 -15z" />
    <glyph glyph-name="ecaron" unicode="&#x11b;" horiz-adv-x="446" 
d="M359 244h-265v-86c0 -79 49 -132 129 -132c42 0 82 13 121 29c3 1 6 2 9 2c9 0 19 -8 19 -18c0 -8 -5 -15 -12 -18c-43 -19 -89 -31 -137 -31c-50 0 -92 16 -122 46s-46 73 -46 122v178c0 50 16 92 46 122s72 46 122 46s92 -16 122 -46s46 -72 46 -122v-60
c0 -18 -14 -32 -32 -32zM352 280v59c0 80 -49 129 -129 129s-129 -49 -129 -129v-59h258zM331 678l-89 -62c-5 -4 -12 -6 -19 -6s-13 2 -18 6l-90 62c-6 4 -8 9 -8 15c0 10 7 18 19 18c4 0 8 -2 11 -4l86 -59l87 59c4 3 7 4 11 4c10 0 18 -7 18 -18c0 -6 -2 -11 -8 -15z" />
    <glyph glyph-name="Gbreve" unicode="&#x11e;" horiz-adv-x="530" 
d="M430 56v266h-131c-11 0 -19 8 -19 19s8 19 19 19h139c18 0 32 -14 32 -32v-276c0 -13 -7 -25 -19 -30c-44 -19 -107 -32 -165 -32c-67 0 -124 22 -164 62c-41 41 -62 97 -62 164v269c0 67 21 123 62 164c40 40 97 62 164 62c56 0 114 -23 149 -42c6 -3 9 -10 9 -17
c0 -10 -8 -18 -20 -18c-2 0 -5 0 -9 2c-29 16 -81 38 -129 38c-115 0 -186 -72 -186 -187v-273c0 -115 71 -187 186 -187c50 0 105 13 144 29zM380 838c-28 -30 -59 -48 -98 -48s-70 18 -98 48c-3 3 -5 9 -5 13c0 10 8 19 18 19c6 0 11 -3 15 -8c18 -22 44 -36 70 -36
s52 14 70 36c4 5 9 8 15 8c10 0 18 -9 18 -19c0 -4 -2 -10 -5 -13z" />
    <glyph glyph-name="gbreve" unicode="&#x11f;" horiz-adv-x="468" 
d="M352 -66v87c-37 -27 -82 -42 -129 -42c-50 0 -93 15 -123 45s-45 74 -45 123v178c0 50 15 93 45 123s73 45 123 45c51 0 100 -9 146 -24c13 -4 22 -17 22 -30v-505c0 -50 -16 -92 -46 -122s-72 -46 -122 -46c-46 0 -94 6 -133 28c-7 4 -11 11 -11 18c0 12 10 18 19 18
c3 0 5 -1 8 -2c37 -15 76 -26 117 -26c80 0 129 52 129 132zM352 65v372c-41 13 -84 20 -129 20c-80 0 -129 -49 -129 -129v-184c0 -79 49 -129 129 -129c47 0 92 16 129 50zM332 668c-28 -30 -59 -48 -98 -48s-70 18 -98 48c-3 3 -5 9 -5 13c0 10 8 19 18 19
c6 0 11 -3 15 -8c18 -22 44 -36 70 -36s52 14 70 36c4 5 9 8 15 8c10 0 18 -9 18 -19c0 -4 -2 -10 -5 -13z" />
    <glyph glyph-name="Eogonek" unicode="&#x118;" horiz-adv-x="469" 
d="M444 -189c0 -24 -39 -34 -71 -34c-58 0 -83 37 -83 81c0 53 35 107 75 142h-251c-18 0 -32 14 -32 32v637c0 18 14 32 32 32h291c11 0 19 -8 19 -19s-8 -19 -19 -19h-283v-281h270c11 0 20 -8 20 -19c0 -10 -9 -19 -20 -19h-270v-306h290c10 0 19 -8 19 -19
c0 -10 -9 -19 -18 -19c-30 -28 -80 -86 -80 -139c0 -23 17 -44 46 -44c28 0 31 11 47 12c10 0 18 -8 18 -18z" />
    <glyph glyph-name="eogonek" unicode="&#x119;" horiz-adv-x="446" 
d="M352 -189c0 -24 -39 -34 -71 -34c-58 0 -83 37 -83 81c0 50 30 100 67 135c-14 -2 -28 -3 -42 -3c-50 0 -92 16 -122 46s-46 73 -46 122v178c0 50 16 92 46 122s72 46 122 46s92 -16 122 -46s46 -72 46 -122v-60c0 -18 -14 -32 -32 -32h-265v-86c0 -79 49 -132 129 -132
c42 0 82 13 121 29c3 1 6 2 9 2c9 0 19 -8 19 -18c0 -8 -5 -15 -12 -18l-28 -11h1c-36 -28 -92 -96 -92 -149c0 -23 17 -45 46 -45c28 0 31 12 47 13c10 0 18 -8 18 -18zM352 280v59c0 80 -49 129 -129 129s-129 -49 -129 -129v-59h258z" />
    <glyph glyph-name="Gcommaaccent" unicode="&#x122;" horiz-adv-x="530" 
d="M430 56v266h-131c-11 0 -19 8 -19 19s8 19 19 19h139c18 0 32 -14 32 -32v-276c0 -13 -7 -25 -19 -30c-44 -19 -107 -32 -165 -32c-67 0 -124 22 -164 62c-41 41 -62 97 -62 164v269c0 67 21 123 62 164c40 40 97 62 164 62c56 0 114 -23 149 -42c6 -3 9 -10 9 -17
c0 -10 -8 -18 -20 -18c-2 0 -5 0 -9 2c-29 16 -81 38 -129 38c-115 0 -186 -72 -186 -187v-273c0 -115 71 -187 186 -187c50 0 105 13 144 29zM222 -201l48 142c3 8 11 13 19 13c10 0 19 -8 19 -19c0 -2 0 -5 -1 -7l-48 -142c-3 -8 -11 -13 -19 -13c-10 0 -19 9 -19 20
c0 2 0 4 1 6z" />
    <glyph glyph-name="gcommaaccent" unicode="&#x123;" horiz-adv-x="468" 
d="M352 -55v87c-37 -27 -82 -42 -129 -42c-50 0 -93 15 -123 45s-45 74 -45 123v178c0 50 15 93 45 123s73 45 123 45c51 0 100 -9 146 -24c13 -4 22 -17 22 -30v-505c0 -50 -16 -92 -46 -122s-72 -46 -122 -46c-46 0 -94 6 -133 28c-7 4 -11 11 -11 18c0 12 10 18 19 18
c3 0 5 -1 8 -2c37 -15 76 -26 117 -26c80 0 129 52 129 132zM352 76v372c-41 13 -84 20 -129 20c-80 0 -129 -49 -129 -129v-184c0 -79 49 -129 129 -129c47 0 92 16 129 50zM191 594l48 146c3 8 11 13 19 13c9 0 19 -8 19 -19c0 -2 0 -4 -1 -7l-48 -145
c-3 -8 -11 -13 -19 -13c-10 0 -19 8 -19 19c0 2 0 3 1 6z" />
    <glyph glyph-name="Iogonek" unicode="&#x12e;" horiz-adv-x="204" 
d="M152 -189c0 -24 -39 -34 -71 -34c-58 0 -83 37 -83 81c0 53 37 107 84 142v691c0 11 10 20 20 20c11 0 20 -9 20 -20v-691c-30 -28 -82 -86 -82 -139c0 -23 18 -45 47 -45c28 0 31 12 47 13c10 0 18 -8 18 -18z" />
    <glyph glyph-name="iogonek" unicode="&#x12f;" horiz-adv-x="215" 
d="M108 649c-17 0 -31 14 -31 31s14 31 31 31s30 -14 30 -31s-13 -31 -30 -31zM88 0v485c0 10 9 19 20 19c10 0 19 -9 19 -19v-485c-30 -28 -81 -86 -81 -139c0 -23 18 -45 47 -45c28 0 31 12 47 13c10 0 18 -8 18 -18c0 -24 -39 -34 -71 -34c-58 0 -83 37 -83 81
c0 53 37 107 84 142z" />
    <glyph glyph-name="imacron" unicode="&#x12b;" horiz-adv-x="217" 
d="M89 10v475c0 10 9 19 20 19c10 0 19 -9 19 -19v-475c0 -11 -9 -20 -19 -20c-11 0 -20 9 -20 20zM186 656h-155c-10 0 -19 7 -19 18s9 19 19 19h155c11 0 20 -8 20 -19s-9 -18 -20 -18z" />
    <glyph glyph-name="Kcommaaccent" unicode="&#x136;" horiz-adv-x="479" 
d="M429 -3l-307 346v-333c0 -11 -9 -20 -20 -20c-10 0 -20 9 -20 20v681c0 11 10 20 20 20c11 0 20 -9 20 -20v-308l295 322c4 4 9 6 14 6c10 0 19 -8 19 -20c0 -4 -1 -9 -5 -13l-290 -315l303 -340c4 -4 5 -9 5 -13c0 -10 -7 -20 -19 -20c-5 0 -11 3 -15 7zM197 -201
l48 142c3 8 11 13 19 13c10 0 19 -8 19 -19c0 -2 0 -5 -1 -7l-48 -142c-3 -8 -11 -13 -19 -13c-10 0 -19 9 -19 20c0 2 0 4 1 6z" />
    <glyph glyph-name="Lcommaaccent" unicode="&#x13b;" horiz-adv-x="447" 
d="M412 0h-298c-18 0 -32 14 -32 32v659c0 11 10 20 20 20c11 0 20 -9 20 -20v-653h290c10 0 19 -8 19 -19c0 -10 -9 -19 -19 -19zM201 -201l48 142c3 8 11 13 19 13c10 0 19 -8 19 -19c0 -2 0 -5 -1 -7l-48 -142c-3 -8 -11 -13 -19 -13c-10 0 -19 9 -19 20c0 2 0 4 1 6z
" />
    <glyph glyph-name="lcommaaccent" unicode="&#x13c;" horiz-adv-x="203" 
d="M82 10v681c0 11 9 20 19 20c11 0 20 -9 20 -20v-681c0 -11 -9 -20 -20 -20c-10 0 -19 9 -19 20zM53 -201l48 142c3 8 11 13 19 13c10 0 19 -8 19 -19c0 -2 0 -5 -1 -7l-48 -142c-3 -8 -11 -13 -19 -13c-10 0 -19 9 -19 20c0 2 0 4 1 6z" />
    <glyph glyph-name="Lcaron" unicode="&#x13d;" horiz-adv-x="447" 
d="M412 0h-298c-18 0 -32 14 -32 32v659c0 11 10 20 20 20c11 0 20 -9 20 -20v-653h290c10 0 19 -8 19 -19c0 -10 -9 -19 -19 -19zM181 759l48 146c3 8 11 13 19 13c9 0 19 -8 19 -19c0 -2 0 -4 -1 -7l-48 -145c-3 -8 -11 -13 -19 -13c-10 0 -19 8 -19 19c0 2 0 3 1 6z" />
    <glyph glyph-name="lcaron" unicode="&#x13e;" horiz-adv-x="213" 
d="M82 10v681c0 11 9 20 19 20c11 0 20 -9 20 -20v-681c0 -11 -9 -20 -20 -20c-10 0 -19 9 -19 20zM147 552l48 146c3 8 11 13 19 13c9 0 19 -8 19 -19c0 -2 0 -4 -1 -7l-48 -145c-3 -8 -11 -13 -19 -13c-10 0 -19 8 -19 19c0 2 0 3 1 6z" />
    <glyph glyph-name="Lacute" unicode="&#x139;" horiz-adv-x="447" 
d="M412 0h-298c-18 0 -32 14 -32 32v659c0 11 10 20 20 20c11 0 20 -9 20 -20v-653h290c10 0 19 -8 19 -19c0 -10 -9 -19 -19 -19zM215 851l-104 -64c-4 -2 -7 -3 -11 -3c-10 0 -18 9 -18 19c0 7 3 12 9 16l104 63c4 2 6 3 10 3c11 0 19 -9 19 -18c0 -6 -3 -12 -9 -16z" />
    <glyph glyph-name="lacute" unicode="&#x13a;" horiz-adv-x="203" 
d="M82 10v681c0 11 9 20 19 20c11 0 20 -9 20 -20v-681c0 -11 -9 -20 -20 -20c-10 0 -19 9 -19 20zM215 851l-104 -64c-4 -2 -7 -3 -11 -3c-10 0 -18 9 -18 19c0 7 3 12 9 16l104 63c4 2 6 3 10 3c11 0 19 -9 19 -18c0 -6 -3 -12 -9 -16z" />
    <glyph glyph-name="Ncommaaccent" unicode="&#x145;" horiz-adv-x="578" 
d="M447 4l-325 624v-618c0 -13 -9 -20 -20 -20c-10 0 -20 7 -20 20v675c0 14 12 26 26 26c10 0 19 -6 23 -14l325 -624v617c0 12 7 21 19 21s21 -9 21 -21v-674c0 -14 -12 -26 -26 -26c-10 0 -18 5 -23 14zM246 -201l48 142c3 8 11 13 19 13c10 0 19 -8 19 -19
c0 -2 0 -5 -1 -7l-48 -142c-3 -8 -11 -13 -19 -13c-10 0 -19 9 -19 20c0 2 0 4 1 6z" />
    <glyph glyph-name="ncommaaccent" unicode="&#x146;" horiz-adv-x="484" 
d="M374 10v329c0 80 -49 129 -129 129c-45 0 -89 -7 -129 -20v-438c0 -11 -9 -20 -20 -20c-10 0 -19 9 -19 20v440c0 13 9 26 22 30c46 15 95 24 146 24c50 0 93 -15 123 -45s45 -73 45 -123v-326c0 -11 -9 -20 -19 -20c-11 0 -20 9 -20 20zM199 -201l48 142
c3 8 11 13 19 13c10 0 19 -8 19 -19c0 -2 0 -5 -1 -7l-48 -142c-3 -8 -11 -13 -19 -13c-10 0 -19 9 -19 20c0 2 0 4 1 6z" />
    <glyph glyph-name="Nacute" unicode="&#x143;" horiz-adv-x="578" 
d="M447 4l-325 624v-618c0 -13 -9 -20 -20 -20c-10 0 -20 7 -20 20v675c0 14 12 26 26 26c10 0 19 -6 23 -14l325 -624v617c0 12 7 21 19 21s21 -9 21 -21v-674c0 -14 -12 -26 -26 -26c-10 0 -18 5 -23 14zM359 850l-104 -64c-4 -2 -7 -3 -11 -3c-10 0 -18 9 -18 19
c0 7 3 12 9 16l104 63c4 2 6 3 10 3c11 0 19 -9 19 -18c0 -6 -3 -12 -9 -16z" />
    <glyph glyph-name="nacute" unicode="&#x144;" horiz-adv-x="484" 
d="M374 10v329c0 80 -49 129 -129 129c-45 0 -89 -7 -129 -20v-438c0 -11 -9 -20 -20 -20c-10 0 -19 9 -19 20v440c0 13 9 26 22 30c46 15 95 24 146 24c50 0 93 -15 123 -45s45 -73 45 -123v-326c0 -11 -9 -20 -19 -20c-11 0 -20 9 -20 20zM304 677l-104 -64
c-4 -2 -7 -3 -11 -3c-10 0 -18 9 -18 19c0 7 3 12 9 16l104 63c4 2 6 3 10 3c11 0 19 -9 19 -18c0 -6 -3 -12 -9 -16z" />
    <glyph glyph-name="Ncaron" unicode="&#x147;" horiz-adv-x="578" 
d="M447 4l-325 624v-618c0 -13 -9 -20 -20 -20c-10 0 -20 7 -20 20v675c0 14 12 26 26 26c10 0 19 -6 23 -14l325 -624v617c0 12 7 21 19 21s21 -9 21 -21v-674c0 -14 -12 -26 -26 -26c-10 0 -18 5 -23 14zM397 850l-89 -62c-5 -4 -12 -6 -19 -6s-13 2 -18 6l-90 62
c-6 4 -8 9 -8 15c0 10 7 18 19 18c4 0 8 -2 11 -4l86 -59l87 59c4 3 7 4 11 4c10 0 18 -7 18 -18c0 -6 -2 -11 -8 -15z" />
    <glyph glyph-name="ncaron" unicode="&#x148;" horiz-adv-x="484" 
d="M374 10v329c0 80 -49 129 -129 129c-45 0 -89 -7 -129 -20v-438c0 -11 -9 -20 -20 -20c-10 0 -19 9 -19 20v440c0 13 9 26 22 30c46 15 95 24 146 24c50 0 93 -15 123 -45s45 -73 45 -123v-326c0 -11 -9 -20 -19 -20c-11 0 -20 9 -20 20zM350 678l-89 -62
c-5 -4 -12 -6 -19 -6s-13 2 -18 6l-90 62c-6 4 -8 9 -8 15c0 10 7 18 19 18c4 0 8 -2 11 -4l86 -59l87 59c4 3 7 4 11 4c10 0 18 -7 18 -18c0 -6 -2 -11 -8 -15z" />
    <glyph glyph-name="Ohungarumlaut" unicode="&#x150;" horiz-adv-x="547" 
d="M487 498v-294c0 -64 -21 -117 -59 -155c-38 -39 -92 -59 -155 -59s-116 20 -155 59c-38 38 -58 91 -58 155v294c0 63 19 116 58 155s92 58 155 58s117 -20 155 -58c38 -39 59 -92 59 -155zM447 203v296c0 107 -66 175 -174 175c-107 0 -173 -68 -173 -175v-296
c0 -108 66 -176 173 -176c108 0 174 68 174 176zM257 853l-66 -65c-4 -4 -9 -6 -14 -6c-10 0 -18 8 -18 18c0 5 2 10 6 14l65 64c4 4 8 6 13 6c12 0 19 -8 19 -18c0 -5 -2 -10 -5 -13zM383 853l-66 -65c-4 -4 -9 -6 -14 -6c-10 0 -18 8 -18 18c0 5 2 10 6 14l65 64
c4 4 8 6 13 6c12 0 19 -8 19 -18c0 -5 -2 -10 -5 -13z" />
    <glyph glyph-name="ohungarumlaut" unicode="&#x151;" horiz-adv-x="465" 
d="M410 326v-158c0 -53 -16 -97 -48 -129s-77 -49 -129 -49c-53 0 -97 17 -129 49s-49 76 -49 129v158c0 53 17 97 49 129s76 49 129 49c52 0 97 -17 129 -49s48 -76 48 -129zM371 165v164c0 84 -51 139 -138 139c-86 0 -139 -53 -139 -139v-164c0 -86 53 -139 139 -139
c85 0 138 53 138 139zM216 680l-66 -65c-4 -4 -9 -6 -14 -6c-10 0 -18 8 -18 18c0 5 2 10 6 14l65 64c4 4 8 6 13 6c12 0 19 -8 19 -18c0 -5 -2 -10 -5 -13zM342 680l-66 -65c-4 -4 -9 -6 -14 -6c-10 0 -18 8 -18 18c0 5 2 10 6 14l65 64c4 4 8 6 13 6c12 0 19 -8 19 -18
c0 -5 -2 -10 -5 -13z" />
    <glyph glyph-name="Omacron" unicode="&#x14c;" horiz-adv-x="547" 
d="M487 498v-294c0 -64 -21 -117 -59 -155c-38 -39 -92 -59 -155 -59s-116 20 -155 59c-38 38 -58 91 -58 155v294c0 63 19 116 58 155s92 58 155 58s117 -20 155 -58c38 -39 59 -92 59 -155zM447 203v296c0 107 -66 175 -174 175c-107 0 -173 -68 -173 -175v-296
c0 -108 66 -176 173 -176c108 0 174 68 174 176zM350 820h-155c-10 0 -19 7 -19 18s9 19 19 19h155c11 0 20 -8 20 -19s-9 -18 -20 -18z" />
    <glyph glyph-name="omacron" unicode="&#x14d;" horiz-adv-x="465" 
d="M410 326v-158c0 -53 -16 -97 -48 -129s-77 -49 -129 -49c-53 0 -97 17 -129 49s-49 76 -49 129v158c0 53 17 97 49 129s76 49 129 49c52 0 97 -17 129 -49s48 -76 48 -129zM371 165v164c0 84 -51 139 -138 139c-86 0 -139 -53 -139 -139v-164c0 -86 53 -139 139 -139
c85 0 138 53 138 139zM309 656h-155c-10 0 -19 7 -19 18s9 19 19 19h155c11 0 20 -8 20 -19s-9 -18 -20 -18z" />
    <glyph glyph-name="Racute" unicode="&#x154;" horiz-adv-x="509" 
d="M440 0l-176 326h-142v-316c0 -11 -9 -20 -20 -20c-10 0 -20 9 -20 20v659c0 18 14 32 32 32h171c55 0 102 -18 135 -51c35 -35 53 -83 53 -140c0 -55 -18 -101 -52 -134c-28 -28 -67 -45 -113 -49l166 -308c1 -3 2 -6 2 -9c0 -9 -8 -20 -19 -20c-7 0 -14 4 -17 10z
M122 663v-299h163c46 0 84 13 110 38c25 25 39 63 39 108c0 47 -14 86 -41 113c-26 27 -64 40 -108 40h-163zM316 851l-104 -64c-4 -2 -7 -3 -11 -3c-10 0 -18 9 -18 19c0 7 3 12 9 16l104 63c4 2 6 3 10 3c11 0 19 -9 19 -18c0 -6 -3 -12 -9 -16z" />
    <glyph glyph-name="racute" unicode="&#x155;" horiz-adv-x="293" 
d="M77 10v368c0 78 52 126 116 126c23 0 46 -2 68 -7c9 -2 16 -9 16 -20c0 -9 -9 -17 -18 -17c-14 0 -25 8 -66 8c-42 0 -77 -31 -77 -87v-371c0 -11 -9 -20 -20 -20c-10 0 -19 9 -19 20zM242 677l-104 -64c-4 -2 -7 -3 -11 -3c-10 0 -18 9 -18 19c0 7 3 12 9 16l104 63
c4 2 6 3 10 3c11 0 19 -9 19 -18c0 -6 -3 -12 -9 -16z" />
    <glyph glyph-name="Rcaron" unicode="&#x158;" horiz-adv-x="509" 
d="M440 0l-176 326h-142v-316c0 -11 -9 -20 -20 -20c-10 0 -20 9 -20 20v659c0 18 14 32 32 32h171c55 0 102 -18 135 -51c35 -35 53 -83 53 -140c0 -55 -18 -101 -52 -134c-28 -28 -67 -45 -113 -49l166 -308c1 -3 2 -6 2 -9c0 -9 -8 -20 -19 -20c-7 0 -14 4 -17 10z
M122 663v-299h163c46 0 84 13 110 38c25 25 39 63 39 108c0 47 -14 86 -41 113c-26 27 -64 40 -108 40h-163zM362 850l-89 -62c-5 -4 -12 -6 -19 -6s-13 2 -18 6l-90 62c-6 4 -8 9 -8 15c0 10 7 18 19 18c4 0 8 -2 11 -4l86 -59l87 59c4 3 7 4 11 4c10 0 18 -7 18 -18
c0 -6 -2 -11 -8 -15z" />
    <glyph glyph-name="rcaron" unicode="&#x159;" horiz-adv-x="293" 
d="M77 10v368c0 78 52 126 116 126c23 0 46 -2 68 -7c9 -2 16 -9 16 -20c0 -9 -9 -17 -18 -17c-14 0 -25 8 -66 8c-42 0 -77 -31 -77 -87v-371c0 -11 -9 -20 -20 -20c-10 0 -19 9 -19 20zM274 678l-89 -62c-5 -4 -12 -6 -19 -6s-13 2 -18 6l-90 62c-6 4 -8 9 -8 15
c0 10 7 18 19 18c4 0 8 -2 11 -4l86 -59l87 59c4 3 7 4 11 4c10 0 18 -7 18 -18c0 -6 -2 -11 -8 -15z" />
    <glyph glyph-name="Rcommaaccent" unicode="&#x156;" horiz-adv-x="509" 
d="M440 0l-176 326h-142v-316c0 -11 -9 -20 -20 -20c-10 0 -20 9 -20 20v659c0 18 14 32 32 32h171c55 0 102 -18 135 -51c35 -35 53 -83 53 -140c0 -55 -18 -101 -52 -134c-28 -28 -67 -45 -113 -49l166 -308c1 -3 2 -6 2 -9c0 -9 -8 -20 -19 -20c-7 0 -14 4 -17 10z
M122 663v-299h163c46 0 84 13 110 38c25 25 39 63 39 108c0 47 -14 86 -41 113c-26 27 -64 40 -108 40h-163zM212 -201l48 142c3 8 11 13 19 13c10 0 19 -8 19 -19c0 -2 0 -5 -1 -7l-48 -142c-3 -8 -11 -13 -19 -13c-10 0 -19 9 -19 20c0 2 0 4 1 6z" />
    <glyph glyph-name="rcommaaccent" unicode="&#x157;" horiz-adv-x="293" 
d="M77 10v368c0 78 52 126 116 126c23 0 46 -2 68 -7c9 -2 16 -9 16 -20c0 -9 -9 -17 -18 -17c-14 0 -25 8 -66 8c-42 0 -77 -31 -77 -87v-371c0 -11 -9 -20 -20 -20c-10 0 -19 9 -19 20zM104 -201l48 142c3 8 11 13 19 13c10 0 19 -8 19 -19c0 -2 0 -5 -1 -7l-48 -142
c-3 -8 -11 -13 -19 -13c-10 0 -19 9 -19 20c0 2 0 4 1 6z" />
    <glyph glyph-name="Scommaaccent" unicode="&#x218;" horiz-adv-x="451" 
d="M263 323l-109 55c-76 38 -116 94 -116 171c0 89 79 162 187 162c61 0 112 -12 164 -32c8 -3 12 -11 12 -19c0 -10 -7 -18 -19 -18c-2 0 -4 0 -7 1c-49 18 -98 31 -150 31c-98 0 -147 -63 -147 -125c0 -67 35 -105 93 -135l109 -56c71 -37 135 -83 135 -185
c0 -120 -97 -183 -195 -183c-61 0 -115 13 -171 38c-7 3 -11 10 -11 17c0 9 8 20 19 20c3 0 5 -1 8 -2c52 -20 100 -36 155 -36c79 0 155 52 155 146c0 76 -52 120 -112 150zM176 -201l48 142c3 8 11 13 19 13c10 0 19 -8 19 -19c0 -2 0 -5 -1 -7l-48 -142
c-3 -8 -11 -13 -19 -13c-10 0 -19 9 -19 20c0 2 0 4 1 6z" />
    <glyph glyph-name="scommaaccent" unicode="&#x219;" horiz-adv-x="382" 
d="M217 222l-85 42c-46 23 -83 52 -83 117c0 71 67 123 140 123c42 0 85 -9 124 -24c8 -3 12 -10 12 -18c0 -10 -8 -19 -20 -19c-2 0 -7 1 -9 2c-34 14 -70 23 -107 23c-45 0 -101 -29 -101 -89c0 -49 36 -69 64 -82l85 -40c55 -26 97 -70 97 -127c0 -79 -63 -140 -148 -140
c-45 0 -84 9 -125 27c-7 3 -12 10 -12 17c0 9 8 20 19 20c3 0 5 -1 8 -2c37 -16 70 -27 110 -27c59 0 109 34 109 94c0 53 -27 78 -78 103zM148 -201l48 142c3 8 11 13 19 13c10 0 19 -8 19 -19c0 -2 0 -5 -1 -7l-48 -142c-3 -8 -11 -13 -19 -13c-10 0 -19 9 -19 20
c0 2 0 4 1 6z" />
    <glyph glyph-name="Sacute" unicode="&#x15a;" horiz-adv-x="451" 
d="M263 323l-109 55c-76 38 -116 94 -116 171c0 89 79 162 187 162c61 0 112 -12 164 -32c8 -3 12 -11 12 -19c0 -10 -7 -18 -19 -18c-2 0 -4 0 -7 1c-49 18 -98 31 -150 31c-98 0 -147 -63 -147 -125c0 -67 35 -105 93 -135l109 -56c71 -37 135 -83 135 -185
c0 -120 -97 -183 -195 -183c-61 0 -115 13 -171 38c-7 3 -11 10 -11 17c0 9 8 20 19 20c3 0 5 -1 8 -2c52 -20 100 -36 155 -36c79 0 155 52 155 146c0 76 -52 120 -112 150zM287 850l-104 -64c-4 -2 -7 -3 -11 -3c-10 0 -18 9 -18 19c0 7 3 12 9 16l104 63c4 2 6 3 10 3
c11 0 19 -9 19 -18c0 -6 -3 -12 -9 -16z" />
    <glyph glyph-name="sacute" unicode="&#x15b;" horiz-adv-x="382" 
d="M217 222l-85 42c-46 23 -83 52 -83 117c0 71 67 123 140 123c42 0 85 -9 124 -24c8 -3 12 -10 12 -18c0 -10 -8 -19 -20 -19c-2 0 -7 1 -9 2c-34 14 -70 23 -107 23c-45 0 -101 -29 -101 -89c0 -49 36 -69 64 -82l85 -40c55 -26 97 -70 97 -127c0 -79 -63 -140 -148 -140
c-45 0 -84 9 -125 27c-7 3 -12 10 -12 17c0 9 8 20 19 20c3 0 5 -1 8 -2c37 -16 70 -27 110 -27c59 0 109 34 109 94c0 53 -27 78 -78 103zM253 677l-104 -64c-4 -2 -7 -3 -11 -3c-10 0 -18 9 -18 19c0 7 3 12 9 16l104 63c4 2 6 3 10 3c11 0 19 -9 19 -18
c0 -6 -3 -12 -9 -16z" />
    <glyph glyph-name="Scedilla" unicode="&#x15e;" horiz-adv-x="451" 
d="M263 323l-109 55c-76 38 -116 94 -116 171c0 89 79 162 187 162c61 0 112 -12 164 -32c8 -3 12 -11 12 -19c0 -10 -7 -18 -19 -18c-2 0 -4 0 -7 1c-49 18 -98 31 -150 31c-98 0 -147 -63 -147 -125c0 -67 35 -105 93 -135l109 -56c71 -37 135 -83 135 -185
c0 -108 -78 -170 -165 -181l-7 -35c34 -16 56 -35 56 -67c0 -52 -40 -84 -102 -105c-7 -2 -20 -6 -27 -6c-10 0 -19 4 -19 16c0 11 7 17 15 18c27 5 96 25 96 69c0 26 -19 35 -52 51c-6 4 -8 8 -8 13c0 6 3 15 4 20l5 24c-57 1 -109 14 -162 38c-7 3 -11 10 -11 17
c0 9 8 20 19 20c3 0 5 -1 8 -2c52 -20 100 -36 155 -36c79 0 155 52 155 146c0 76 -52 120 -112 150z" />
    <glyph glyph-name="scedilla" unicode="&#x15f;" horiz-adv-x="382" 
d="M217 222l-85 42c-46 23 -83 52 -83 117c0 71 67 123 140 123c42 0 85 -9 124 -24c8 -3 12 -10 12 -18c0 -10 -8 -19 -20 -19c-2 0 -7 1 -9 2c-34 14 -70 23 -107 23c-45 0 -101 -29 -101 -89c0 -49 36 -69 64 -82l85 -40c55 -26 97 -70 97 -127c0 -70 -48 -125 -118 -137
l-7 -36c34 -16 56 -35 56 -67c0 -52 -40 -84 -102 -105c-7 -2 -20 -6 -27 -6c-10 0 -19 4 -19 16c0 11 7 17 15 18c27 5 96 25 96 69c0 26 -19 35 -52 51c-6 4 -8 8 -8 13c0 6 3 15 4 20l5 24c-41 1 -78 10 -116 27c-7 3 -12 10 -12 17c0 9 8 20 19 20c3 0 5 -1 8 -2
c37 -16 70 -27 110 -27c59 0 109 34 109 94c0 53 -27 78 -78 103z" />
    <glyph glyph-name="Tcaron" unicode="&#x164;" horiz-adv-x="449" 
d="M204 10v653h-180c-10 0 -19 8 -19 19s9 19 19 19h401c11 0 19 -8 19 -19s-8 -19 -19 -19h-181v-653c0 -11 -10 -20 -20 -20c-11 0 -20 9 -20 20zM332 850l-89 -62c-5 -4 -12 -6 -19 -6s-13 2 -18 6l-90 62c-6 4 -8 9 -8 15c0 10 7 18 19 18c4 0 8 -2 11 -4l86 -59l87 59
c4 3 7 4 11 4c10 0 18 -7 18 -18c0 -6 -2 -11 -8 -15z" />
    <glyph glyph-name="tcaron" unicode="&#x165;" horiz-adv-x="297" 
d="M77 117v341h-58c-11 0 -19 7 -19 18s8 18 19 18h58v197c0 11 9 20 19 20c11 0 20 -9 20 -20v-197h129c11 0 19 -7 19 -18s-8 -18 -19 -18h-129v-341c0 -56 33 -91 77 -91c17 0 43 5 53 5c9 0 18 -7 18 -18c0 -9 -6 -16 -16 -18c-18 -3 -36 -5 -55 -5
c-68 0 -116 48 -116 127zM142 552l48 146c3 8 11 13 19 13c9 0 19 -8 19 -19c0 -2 0 -4 -1 -7l-48 -145c-3 -8 -11 -13 -19 -13c-10 0 -19 8 -19 19c0 2 0 3 1 6z" />
    <glyph glyph-name="Tcommaaccent" unicode="&#x162;" horiz-adv-x="449" 
d="M204 10v653h-180c-10 0 -19 8 -19 19s9 19 19 19h401c11 0 19 -8 19 -19s-8 -19 -19 -19h-181v-653c0 -11 -10 -20 -20 -20c-11 0 -20 9 -20 20zM177 -201l48 142c3 8 11 13 19 13c10 0 19 -8 19 -19c0 -2 0 -5 -1 -7l-48 -142c-3 -8 -11 -13 -19 -13c-10 0 -19 9 -19 20
c0 2 0 4 1 6z" />
    <glyph glyph-name="tcommaaccent" unicode="&#x163;" horiz-adv-x="297" 
d="M77 117v341h-58c-11 0 -19 7 -19 18s8 18 19 18h58v197c0 11 9 20 19 20c11 0 20 -9 20 -20v-197h129c11 0 19 -7 19 -18s-8 -18 -19 -18h-129v-341c0 -56 33 -91 77 -91c17 0 43 5 53 5c9 0 18 -7 18 -18c0 -9 -6 -16 -16 -18c-18 -3 -36 -5 -55 -5
c-68 0 -116 48 -116 127zM106 -201l48 142c3 8 11 13 19 13c10 0 19 -8 19 -19c0 -2 0 -5 -1 -7l-48 -142c-3 -8 -11 -13 -19 -13c-10 0 -19 9 -19 20c0 2 0 4 1 6z" />
    <glyph glyph-name="Umacron" unicode="&#x16a;" horiz-adv-x="575" 
d="M464 206v485c0 11 9 20 20 20c10 0 20 -9 20 -20v-484c0 -64 -21 -119 -59 -157c-39 -39 -93 -60 -158 -60c-64 0 -118 21 -157 60c-39 38 -59 93 -59 157v484c0 11 10 20 20 20c11 0 20 -9 20 -20v-485c0 -110 67 -179 176 -179c110 0 177 69 177 179zM364 821h-155
c-10 0 -19 7 -19 18s9 19 19 19h155c11 0 20 -8 20 -19s-9 -18 -20 -18z" />
    <glyph glyph-name="umacron" unicode="&#x16b;" horiz-adv-x="484" 
d="M368 46v438c0 11 9 20 20 20c10 0 19 -9 19 -20v-440c0 -13 -9 -26 -22 -30c-46 -15 -95 -24 -146 -24c-50 0 -93 15 -123 45s-45 73 -45 123v326c0 11 9 20 19 20c11 0 20 -9 20 -20v-329c0 -80 49 -129 129 -129c45 0 89 7 129 20zM319 656h-155c-10 0 -19 7 -19 18
s9 19 19 19h155c11 0 20 -8 20 -19s-9 -18 -20 -18z" />
    <glyph glyph-name="Uring" unicode="&#x16e;" horiz-adv-x="575" 
d="M464 206v485c0 11 9 20 20 20c10 0 20 -9 20 -20v-484c0 -64 -21 -119 -59 -157c-39 -39 -93 -60 -158 -60c-64 0 -118 21 -157 60c-39 38 -59 93 -59 157v484c0 11 10 20 20 20c11 0 20 -9 20 -20v-485c0 -110 67 -179 176 -179c110 0 177 69 177 179zM287 749
c-53 0 -95 42 -95 95c0 52 42 95 95 95c52 0 95 -43 95 -95c0 -53 -43 -95 -95 -95zM287 782c33 0 60 28 60 62s-27 62 -60 62s-60 -28 -60 -62s27 -62 60 -62z" />
    <glyph glyph-name="uring" unicode="&#x16f;" horiz-adv-x="484" 
d="M368 46v438c0 11 9 20 20 20c10 0 19 -9 19 -20v-440c0 -13 -9 -26 -22 -30c-46 -15 -95 -24 -146 -24c-50 0 -93 15 -123 45s-45 73 -45 123v326c0 11 9 20 19 20c11 0 20 -9 20 -20v-329c0 -80 49 -129 129 -129c45 0 89 7 129 20zM242 567c-53 0 -95 42 -95 95
c0 52 42 95 95 95c52 0 95 -43 95 -95c0 -53 -43 -95 -95 -95zM242 600c33 0 60 28 60 62s-27 62 -60 62s-60 -28 -60 -62s27 -62 60 -62z" />
    <glyph glyph-name="Uhungarumlaut" unicode="&#x170;" horiz-adv-x="575" 
d="M464 206v485c0 11 9 20 20 20c10 0 20 -9 20 -20v-484c0 -64 -21 -119 -59 -157c-39 -39 -93 -60 -158 -60c-64 0 -118 21 -157 60c-39 38 -59 93 -59 157v484c0 11 10 20 20 20c11 0 20 -9 20 -20v-485c0 -110 67 -179 176 -179c110 0 177 69 177 179zM271 853l-66 -65
c-4 -4 -9 -6 -14 -6c-10 0 -18 8 -18 18c0 5 2 10 6 14l65 64c4 4 8 6 13 6c12 0 19 -8 19 -18c0 -5 -2 -10 -5 -13zM397 853l-66 -65c-4 -4 -9 -6 -14 -6c-10 0 -18 8 -18 18c0 5 2 10 6 14l65 64c4 4 8 6 13 6c12 0 19 -8 19 -18c0 -5 -2 -10 -5 -13z" />
    <glyph glyph-name="uhungarumlaut" unicode="&#x171;" horiz-adv-x="484" 
d="M368 46v438c0 11 9 20 20 20c10 0 19 -9 19 -20v-440c0 -13 -9 -26 -22 -30c-46 -15 -95 -24 -146 -24c-50 0 -93 15 -123 45s-45 73 -45 123v326c0 11 9 20 19 20c11 0 20 -9 20 -20v-329c0 -80 49 -129 129 -129c45 0 89 7 129 20zM225 680l-66 -65c-4 -4 -9 -6 -14 -6
c-10 0 -18 8 -18 18c0 5 2 10 6 14l65 64c4 4 8 6 13 6c12 0 19 -8 19 -18c0 -5 -2 -10 -5 -13zM351 680l-66 -65c-4 -4 -9 -6 -14 -6c-10 0 -18 8 -18 18c0 5 2 10 6 14l65 64c4 4 8 6 13 6c12 0 19 -8 19 -18c0 -5 -2 -10 -5 -13z" />
    <glyph glyph-name="Uogonek" unicode="&#x172;" horiz-adv-x="575" 
d="M382 -184c0 -24 -39 -34 -71 -34c-58 0 -83 37 -83 81c0 46 26 93 59 127c-64 0 -118 21 -157 60c-39 38 -59 93 -59 157v484c0 11 10 20 20 20c11 0 20 -9 20 -20v-485c0 -110 67 -179 176 -179c110 0 177 69 177 179v485c0 11 9 20 20 20c10 0 20 -9 20 -20v-484
c0 -64 -21 -119 -59 -157c-28 -28 -63 -47 -104 -55c-30 -30 -70 -81 -70 -129c0 -23 17 -44 46 -44c28 0 31 11 47 12c10 0 18 -8 18 -18z" />
    <glyph glyph-name="uogonek" unicode="&#x173;" horiz-adv-x="484" 
d="M407 -189c0 -24 -39 -34 -71 -34c-58 0 -83 37 -83 81c0 53 34 106 73 141c-28 -6 -57 -9 -87 -9c-50 0 -93 15 -123 45s-45 73 -45 123v326c0 11 9 20 19 20c11 0 20 -9 20 -20v-329c0 -80 49 -129 129 -129c45 0 89 7 129 20v438c0 11 9 20 20 20c10 0 19 -9 19 -20
v-440c0 -13 -7 -25 -20 -29c-36 -35 -91 -107 -91 -154c0 -23 17 -44 46 -44c28 0 31 11 47 12c10 0 18 -8 18 -18z" />
    <glyph glyph-name="kcommaaccent" unicode="&#x137;" horiz-adv-x="412" 
d="M358 -3l-237 263v-250c0 -11 -9 -20 -20 -20c-10 0 -19 9 -19 20v681c0 11 9 20 19 20c11 0 20 -9 20 -20v-393l233 201c4 3 8 5 12 5c9 0 20 -8 20 -19c0 -6 -3 -11 -7 -15l-223 -192l231 -255c4 -4 5 -9 5 -13c0 -10 -7 -20 -19 -20c-5 0 -11 3 -15 7zM163 -201l48 142
c3 8 11 13 19 13c10 0 19 -8 19 -19c0 -2 0 -5 -1 -7l-48 -142c-3 -8 -11 -13 -19 -13c-10 0 -19 9 -19 20c0 2 0 4 1 6z" />
    <glyph glyph-name="Zdotaccent" unicode="&#x17b;" horiz-adv-x="464" 
d="M423 0h-375c-14 0 -26 12 -26 26c0 4 1 7 4 13l365 624h-346c-11 0 -20 8 -20 19s9 19 20 19h368c14 0 26 -11 26 -26c0 -4 -1 -8 -4 -13l-366 -624h354c10 0 19 -8 19 -19c0 -10 -9 -19 -19 -19zM264 839c0 -16 -13 -29 -29 -29s-29 13 -29 29s13 29 29 29
s29 -13 29 -29z" />
    <glyph glyph-name="zdotaccent" unicode="&#x17c;" horiz-adv-x="402" 
d="M350 0h-291c-14 0 -26 12 -26 26c0 5 1 10 4 14l282 417h-264c-12 0 -19 8 -19 19s9 18 20 18h284c14 0 26 -11 26 -25c0 -6 -2 -11 -5 -15l-282 -417h271c10 0 19 -8 19 -19c0 -10 -9 -18 -19 -18zM230 675c0 -16 -13 -29 -29 -29s-29 13 -29 29s13 29 29 29
s29 -13 29 -29z" />
    <glyph glyph-name="Idotaccent" unicode="&#x130;" horiz-adv-x="204" 
d="M82 10v681c0 11 10 20 20 20c11 0 20 -9 20 -20v-681c0 -11 -9 -20 -20 -20c-10 0 -20 9 -20 20zM131 838c0 -16 -13 -29 -29 -29s-29 13 -29 29s13 29 29 29s29 -13 29 -29z" />
    <glyph glyph-name="uni021A" unicode="&#x21a;" horiz-adv-x="449" 
d="M204 10v653h-180c-10 0 -19 8 -19 19s9 19 19 19h401c11 0 19 -8 19 -19s-8 -19 -19 -19h-181v-653c0 -11 -10 -20 -20 -20c-11 0 -20 9 -20 20zM177 -201l48 142c3 8 11 13 19 13c10 0 19 -8 19 -19c0 -2 0 -5 -1 -7l-48 -142c-3 -8 -11 -13 -19 -13c-10 0 -19 9 -19 20
c0 2 0 4 1 6z" />
    <glyph glyph-name="uni021B" unicode="&#x21b;" horiz-adv-x="297" 
d="M77 117v341h-58c-11 0 -19 7 -19 18s8 18 19 18h58v197c0 11 9 20 19 20c11 0 20 -9 20 -20v-197h129c11 0 19 -7 19 -18s-8 -18 -19 -18h-129v-341c0 -56 33 -91 77 -91c17 0 43 5 53 5c9 0 18 -7 18 -18c0 -9 -6 -16 -16 -18c-18 -3 -36 -5 -55 -5
c-68 0 -116 48 -116 127zM106 -201l48 142c3 8 11 13 19 13c10 0 19 -8 19 -19c0 -2 0 -5 -1 -7l-48 -142c-3 -8 -11 -13 -19 -13c-10 0 -19 9 -19 20c0 2 0 4 1 6z" />
    <glyph glyph-name="Imacron" unicode="&#x12a;" horiz-adv-x="204" 
d="M82 10v681c0 11 10 20 20 20c11 0 20 -9 20 -20v-681c0 -11 -9 -20 -20 -20c-10 0 -20 9 -20 20zM179 821h-155c-10 0 -19 7 -19 18s9 19 19 19h155c11 0 20 -8 20 -19s-9 -18 -20 -18z" />
    </font>
</defs>
</svg>
