<?xml version="1.0" encoding="UTF-8" standalone="no"?>
<svg width="1937px" height="2748px" viewBox="0 0 1937 2748" version="1.1" xmlns="http://www.w3.org/2000/svg" xmlns:xlink="http://www.w3.org/1999/xlink" xmlns:sketch="http://www.bohemiancoding.com/sketch/ns">
    <!-- Generator: Sketch 3.4.4 (17249) - http://www.bohemiancoding.com/sketch -->
    <title>Case lista desk Copy</title>
    <desc>Created with Sketch.</desc>
    <defs></defs>
    <g id="Case-lista" stroke="none" stroke-width="1" fill="none" fill-rule="evenodd" sketch:type="MSPage">
        <g id="Case-lista-desk-Copy" sketch:type="MSArtboardGroup">
            <g id="Group" sketch:type="MSLayerGroup" transform="translate(-61.000000, -96.000000)">
                <path d="M2004.27169,2649 L1924,2733.7198" id="Stroke-1" stroke="#E9E9E9" sketch:type="MSShapeGroup"></path>
                <path d="M1603,1375 L1872.95871,1555.39138 L1603,1375 Z" id="Stroke-3" stroke="#E9E9E9" sketch:type="MSShapeGroup"></path>
                <path d="M1688,1654.2228 L1872.10459,1555" id="Line" stroke="#E9E9E9" stroke-linecap="square" sketch:type="MSShapeGroup"></path>
                <path d="M967.484827,1822 L906,2201.10361 L967.484827,1822 Z" id="Stroke-8" stroke="#E9E9E9" sketch:type="MSShapeGroup"></path>
                <path d="M1121.5,2012.5 L967.5,1821.5" id="Line" stroke="#E9E9E9" stroke-linecap="square" sketch:type="MSShapeGroup"></path>
                <path d="M793.216926,1583 L660,1869.88828 L967.422938,1822.07376 L793.216926,1583 Z" id="Stroke-9" stroke="#E9E9E9" sketch:type="MSShapeGroup"></path>
                <path d="M660.274284,1869.84436 L455.326457,1682 L428,1996.21222 L660.274284,1869.84436 L660.274284,1869.84436 Z" id="Stroke-13" stroke="#E9E9E9" sketch:type="MSShapeGroup"></path>
                <path d="M567.714088,1452 L455,1681.98004 L793.164753,1582.93492 L567.714088,1452 Z" id="Stroke-14" stroke="#E9E9E9" sketch:type="MSShapeGroup"></path>
                <path d="M536.713948,1252 L234,1507.51074 L567.293721,1452.493 L536.713948,1252 Z" id="Stroke-14-Copy" stroke="#E9E9E9" sketch:type="MSShapeGroup"></path>
                <path d="M158,1969 L267.305827,2238.81261 L427.84921,1996.32275 L158,1969 L158,1969 Z" id="Stroke-30" stroke="#E9E9E9" sketch:type="MSShapeGroup"></path>
                <path d="M66,2387 L66,2674.2415 L171.890469,2532.27072 L66,2387 L66,2387 Z" id="Stroke-31" stroke="#E9E9E9" sketch:type="MSShapeGroup"></path>
                <path d="M66,2764 L233.375296,2877.36684 L66,2764 Z" id="Stroke-33" stroke="#E9E9E9" sketch:type="MSShapeGroup"></path>
                <path d="M172,2532 L233.484827,2876.94987 L537.49121,2620.79924 L172,2532 L172,2532 Z" id="Stroke-35" stroke="#E9E9E9" sketch:type="MSShapeGroup"></path>
                <path d="M1261.75911,1787.59728 L1087.5531,1610 L968,1821.75101 L1261.75911,1787.59728 L1261.75911,1787.59728 Z" id="Stroke-39" stroke="#E9E9E9" sketch:type="MSShapeGroup"></path>
                <path d="M1452.33284,1972.42826 L1261.04764,1788 L1121,2013.41299 L1452.33284,1972.42826 L1452.33284,1972.42826 Z" id="Stroke-41" stroke="#E9E9E9" sketch:type="MSShapeGroup"></path>
                <path d="M1452.95874,1972 L1289,2132.52161 L1452.95874,1972 Z" id="Stroke-43" stroke="#E9E9E9" sketch:type="MSShapeGroup"></path>
                <path d="M1527.5,2211.5 L1288.5,2132.5" id="Line" stroke="#E9E9E9" stroke-linecap="square" sketch:type="MSShapeGroup"></path>
                <path d="M1558.17447,1784.02864 L1377.13654,1644 L1261,1787.44354 L1558.17447,1784.02864 L1558.17447,1784.02864 Z" id="Stroke-44" stroke="#E9E9E9" sketch:type="MSShapeGroup"></path>
                <path d="M1453,1971.84436 L1558.89047,1784 L1453,1971.84436 Z" id="Stroke-45" stroke="#E9E9E9" sketch:type="MSShapeGroup"></path>
                <path d="M1688,1655 L1759.7321,1873.582 L1688,1655 Z" id="Stroke-46" stroke="#E9E9E9" sketch:type="MSShapeGroup"></path>
                <path d="M1811.23756,2067.50501 L2004.23043,1850.03417 L2004.23043,1829 L1760,1872.83087 L1811.23756,2067.50501 L1811.23756,2067.50501 Z" id="Stroke-48" stroke="#E9E9E9" sketch:type="MSShapeGroup"></path>
                <path d="M2004.50925,1786.83946 L1873,1556 L2004.50925,1786.83946 Z" id="Stroke-50" stroke="#E9E9E9" sketch:type="MSShapeGroup"></path>
                <path d="M1872.5,1555.5 L1759.5,1872.5" id="Line" stroke="#E9E9E9" stroke-linecap="square" sketch:type="MSShapeGroup"></path>
                <path d="M1873,1555.07051 L2004.62891,1508.84785 L1923.85626,1364 L1873,1555.07051 Z" id="Stroke-50" stroke="#E9E9E9" sketch:type="MSShapeGroup"></path>
                <path d="M1801.26337,2251.98472 L1528,2211 L1801.26337,2251.98472 Z" id="Stroke-53" stroke="#E9E9E9" sketch:type="MSShapeGroup"></path>
                <path d="M1801,2252.42826 L2004.24015,2258.15288 L2004.24015,2226.91354 L1811.24727,2068 L1801,2252.42826 L1801,2252.42826 Z" id="Stroke-54" stroke="#E9E9E9" sketch:type="MSShapeGroup"></path>
                <path d="M1456.2852,2392.56553 L1288.9111,2133 L1265,2365.24278 L1456.2852,2392.56553 L1456.2852,2392.56553 Z" id="Stroke-56" stroke="#E9E9E9" sketch:type="MSShapeGroup"></path>
                <path d="M1265,2365 L1374.30583,2573.33612 L1265,2365 Z" id="Stroke-57" stroke="#E9E9E9" sketch:type="MSShapeGroup"></path>
                <path d="M1527.7321,2211 L1456,2392.01337 L1732.67993,2446.65887 L1527.7321,2211 Z" id="Stroke-59" stroke="#E9E9E9" sketch:type="MSShapeGroup"></path>
                <path d="M1121.1963,2013 L906,2200.84436 L1087.03793,2313.55025 L1121.1963,2013 L1121.1963,2013 Z" id="Stroke-60" stroke="#E9E9E9" sketch:type="MSShapeGroup"></path>
                <path d="M1015,2518.69062 L1264.35347,2365 L1015,2518.69062 Z" id="Stroke-61" stroke="#E9E9E9" sketch:type="MSShapeGroup"></path>
                <path d="M1264.5,2364.5 L1086.5,2313.5" id="Line" stroke="#E9E9E9" stroke-linecap="square" sketch:type="MSShapeGroup"></path>
                <path d="M1288.53247,2133 L1087,2314.01217 L1288.53247,2133 Z" id="Stroke-63" stroke="#E9E9E9" sketch:type="MSShapeGroup"></path>
                <path d="M1264.821,2365 L1217,2597.24278 L1264.821,2365 Z" id="Stroke-64" stroke="#E9E9E9" sketch:type="MSShapeGroup"></path>
                <path d="M1193,2822.41299 L1411.61165,2818.99809 L1216.9111,2597 L1193,2822.41299 L1193,2822.41299 Z" id="Stroke-66" stroke="#E9E9E9" sketch:type="MSShapeGroup"></path>
                <path d="M1374.12683,2573 L1217,2596.90786 L1374.12683,2573 Z" id="Stroke-67" stroke="#E9E9E9" sketch:type="MSShapeGroup"></path>
                <path d="M1411.57373,2818.90475 L1602.85893,2743.76749 L1374,2573 L1411.57373,2818.90475 L1411.57373,2818.90475 Z" id="Stroke-68" stroke="#E9E9E9" sketch:type="MSShapeGroup"></path>
                <path d="M1924.08557,2734.19886 L1766.95874,2601 L1603,2744.44474 L1924.08557,2734.19886 L1924.08557,2734.19886 Z" id="Stroke-70" stroke="#E9E9E9" sketch:type="MSShapeGroup"></path>
                <path d="M2004.39852,2603.89524 L1767,2601 L2004.39852,2603.89524 Z" id="Stroke-71" stroke="#E9E9E9" sketch:type="MSShapeGroup"></path>
                <path d="M1927.54338,2416 L1767,2600.42826 L1927.54338,2416 Z" id="Stroke-73" stroke="#E9E9E9" sketch:type="MSShapeGroup"></path>
                <path d="M1927.70056,2415.9365 L1801.31554,2252 L1733,2446.67414 L1927.70056,2415.9365 L1927.70056,2415.9365 Z" id="Stroke-74" stroke="#E9E9E9" sketch:type="MSShapeGroup"></path>
                <path d="M1412,1450 L1558.06442,1784.52948 L1412,1450 Z" id="Stroke-94" stroke="#E9E9E9" sketch:type="MSShapeGroup"></path>
                <path d="M1377.5,1644.5 L1411.5,1450.5" id="Line" stroke="#E9E9E9" stroke-linecap="square" sketch:type="MSShapeGroup"></path>
                <path d="M1603.4116,1376 L1559,1784.76549 L1688.80037,1654.98272 L1603.4116,1376 Z" id="Stroke-95" stroke="#E9E9E9" sketch:type="MSShapeGroup"></path>
                <path d="M66,2100 L66,2315.50357 L267.532469,2238.87558 L66,2100 L66,2100 Z" id="Stroke-100" stroke="#E9E9E9" sketch:type="MSShapeGroup"></path>
                <path d="M66,1818.96874 L66,1872.18817 L158.226642,1969.01337 L274.364383,1788 L66,1818.96874 Z" id="Stroke-106" stroke="#E9E9E9" sketch:type="MSShapeGroup"></path>
                <path d="M233.873764,1510 L66,1780.45726 L233.873764,1510 Z" id="Stroke-108" stroke="#E9E9E9" sketch:type="MSShapeGroup"></path>
                <path d="M427.711469,1996.33612 L274,1788 L427.711469,1996.33612 Z" id="Stroke-111" stroke="#E9E9E9" sketch:type="MSShapeGroup"></path>
                <path d="M233,1509 L273.675407,1788.12809 L454.713333,1682.25318 L233,1509 Z" id="Stroke-112" stroke="#E9E9E9" sketch:type="MSShapeGroup"></path>
                <path d="M1014.7504,1430 L793,1583.05401 L1086.75911,1610.37796 L1014.7504,1430 Z" id="Stroke-118" stroke="#E9E9E9" sketch:type="MSShapeGroup"></path>
                <path d="M1015.63228,2798.69062 L879,2645" id="Stroke-121" stroke="#E9E9E9" sketch:type="MSShapeGroup"></path>
                <path d="M1015.63228,2519 L879,2645.36787 L1015.63228,2519 Z" id="Stroke-122" stroke="#E9E9E9" sketch:type="MSShapeGroup"></path>
                <path d="M1015,2519 L1015,2799.05849 L1216.53247,2597.55336 L1015,2519 L1015,2519 Z" id="Stroke-123" stroke="#E9E9E9" sketch:type="MSShapeGroup"></path>
                <path d="M639.473914,2733.70589 L537,2621" id="Stroke-125" stroke="#E9E9E9" sketch:type="MSShapeGroup"></path>
                <path d="M639.473914,2348 L537,2621.2275 L827.343753,2457.291 L639.473914,2348 L639.473914,2348 Z" id="Stroke-127" stroke="#E9E9E9" sketch:type="MSShapeGroup"></path>
                <path d="M828,2457.15063 L906.562815,2201 L828,2457.15063 Z" id="Stroke-129" stroke="#E9E9E9" sketch:type="MSShapeGroup"></path>
                <path d="M640,2733.64239 L879.106198,2644.84316 L827.86984,2457 L640,2733.64239 L640,2733.64239 Z" id="Stroke-130" stroke="#E9E9E9" sketch:type="MSShapeGroup"></path>
                <path d="M828,2457.44474 L1015.86864,2518.92003 L1087.60074,2314 L828,2457.44474 Z" id="Stroke-133" stroke="#E9E9E9" sketch:type="MSShapeGroup"></path>
                <path d="M537.453284,2621.41299 L353,2396 L537.453284,2621.41299 Z" id="Stroke-135" stroke="#E9E9E9" sketch:type="MSShapeGroup"></path>
                <path d="M267.642,2239 L172,2532.71926 L353.036728,2396.10551 L267.642,2239 L267.642,2239 Z" id="Stroke-136" stroke="#E9E9E9" sketch:type="MSShapeGroup"></path>
                <path d="M725.394728,2140 L640,2348.33612 L906.432654,2201.47649 L725.394728,2140 L725.394728,2140 Z" id="Stroke-138" stroke="#E9E9E9" sketch:type="MSShapeGroup"></path>
                <path d="M660,1870 L724.900185,2139.81261 L660,1870 Z" id="Stroke-139" stroke="#E9E9E9" sketch:type="MSShapeGroup"></path>
                <path d="M724.5,2139.5 L967.5,1821.5" id="Line" stroke="#E9E9E9" stroke-linecap="square" sketch:type="MSShapeGroup"></path>
                <path d="M472.553099,2187 L353,2395.33612 L639.927198,2347.52161 L472.553099,2187 L472.553099,2187 Z" id="Stroke-141" stroke="#E9E9E9" sketch:type="MSShapeGroup"></path>
                <path d="M428,1996 L472.405642,2187.25925 L725.175667,2139.44474 L428,1996 L428,1996 Z" id="Stroke-142" stroke="#E9E9E9" sketch:type="MSShapeGroup"></path>
                <path d="M267,2238.23061 L471.947827,2187 L267,2238.23061 Z" id="Stroke-144" stroke="#E9E9E9" sketch:type="MSShapeGroup"></path>
                <path d="M1637.45328,2026.6455 L1453,1972 L1528.14746,2211.07376 L1637.45328,2026.6455 Z" id="Stroke-146" stroke="#E9E9E9" sketch:type="MSShapeGroup"></path>
                <path d="M1760.53367,1872.79924 L1559,1784 L1637.56401,2026.48986 L1760.53367,1872.79924 Z" id="Stroke-149" stroke="#E9E9E9" sketch:type="MSShapeGroup"></path>
                <path d="M1637,2027 L1800.95874,2252.41299 L1637,2027 Z" id="Stroke-151" stroke="#E9E9E9" sketch:type="MSShapeGroup"></path>
                <path d="M1810.5,2067.5 L1636.5,2026.5" id="Line" stroke="#E9E9E9" stroke-linecap="square" sketch:type="MSShapeGroup"></path>
                <path d="M1374,2573.01337 L1548.20601,2545.69062 L1455.97937,2392 L1374,2573.01337 L1374,2573.01337 Z" id="Stroke-152" stroke="#E9E9E9" sketch:type="MSShapeGroup"></path>
                <path d="M1548,2546 L1602.65291,2744.09024 L1548,2546 Z" id="Stroke-153" stroke="#E9E9E9" sketch:type="MSShapeGroup"></path>
                <path d="M1548,2546.04512 L1766.61165,2600.69062 L1732.45328,2447 L1548,2546.04512 L1548,2546.04512 Z" id="Stroke-156" stroke="#E9E9E9" sketch:type="MSShapeGroup"></path>
                <path d="M1194.39549,1453 L1087,1609.70485 L1194.39549,1453 Z" id="Stroke-159" stroke="#E9E9E9" sketch:type="MSShapeGroup"></path>
                <path d="M1261,1788 L1194,1455" id="Line" stroke="#E9E9E9" stroke-linecap="square" sketch:type="MSShapeGroup"></path>
                <path d="M1195,1454 L1377.84658,1644.1512 L1195,1454 Z" id="Stroke-162" stroke="#E9E9E9" sketch:type="MSShapeGroup"></path>
                <path d="M1192.62137,2822.90786 L1015,2799" id="Stroke-165" stroke="#E9E9E9" sketch:type="MSShapeGroup"></path>
                <path d="M1121.1963,644.25925 L967.484827,453 L906,832.103605 L1121.1963,644.25925 L1121.1963,644.25925 Z" id="Stroke-8" stroke="#E9E9E9" sketch:type="MSShapeGroup"></path>
                <path d="M967.422938,453.073763 L793.216926,214 L660,500.888276 L967.422938,453.073763 L967.422938,453.073763 Z" id="Stroke-9" stroke="#E9E9E9" sketch:type="MSShapeGroup"></path>
                <path d="M660.274284,500.844355 L455.326457,313 L428,627.212224 L660.274284,500.844355 L660.274284,500.844355 Z" id="Stroke-13" stroke="#E9E9E9" sketch:type="MSShapeGroup"></path>
                <path d="M793.164753,213.521605 L502.821,53 L455,312.566724 L793.164753,213.521605 L793.164753,213.521605 Z" id="Stroke-14" stroke="#E9E9E9" sketch:type="MSShapeGroup"></path>
                <path d="M66,1018 L66,1305.2415 L171.890469,1163.27072 L66,1018 L66,1018 Z" id="Stroke-31" stroke="#E9E9E9" sketch:type="MSShapeGroup"></path>
                <path d="M0,1393 L233.450438,1507.89014 L0,1393 Z" id="Stroke-33" stroke="#E9E9E9" sketch:type="MSShapeGroup"></path>
                <path d="M232.326172,1508.33789 L172,1164" id="Line" stroke="#E9E9E9" stroke-linecap="square" sketch:type="MSShapeGroup"></path>
                <path d="M1261.75911,418.597276 L1087.5531,241 L968,452.751013 L1261.75911,418.597276 L1261.75911,418.597276 Z" id="Stroke-39" stroke="#E9E9E9" sketch:type="MSShapeGroup"></path>
                <path d="M1452.33284,603.428263 L1261.04764,419 L1121,644.412987 L1452.33284,603.428263 L1452.33284,603.428263 Z" id="Stroke-41" stroke="#E9E9E9" sketch:type="MSShapeGroup"></path>
                <path d="M1121,644 L1288.3741,763.536882 L1121,644 Z" id="Stroke-42" stroke="#E9E9E9" sketch:type="MSShapeGroup"></path>
                <path d="M1288.5,763.5 L1452.5,602.5" id="Line" stroke="#E9E9E9" stroke-linecap="square" sketch:type="MSShapeGroup"></path>
                <path d="M1261,418.414895 L1558.17447,415 L1261,418.414895 Z" id="Stroke-44" stroke="#E9E9E9" sketch:type="MSShapeGroup"></path>
                <path d="M1760.53247,504.582 L1688.80037,286 L1559,415.782763 L1760.53247,504.582 L1760.53247,504.582 Z" id="Stroke-46" stroke="#E9E9E9" sketch:type="MSShapeGroup"></path>
                <path d="M2039.87094,453 L1760,503.432887 L1811.23756,698.107032 L2039.87094,453 Z" id="Stroke-48" stroke="#E9E9E9" sketch:type="MSShapeGroup"></path>
                <path d="M1872.72119,185 L1760,502.627118 L1872.72119,185 Z" id="Stroke-50" stroke="#E9E9E9" sketch:type="MSShapeGroup"></path>
                <path d="M1872.5,184.5 L2004.5,458.5" id="Line" stroke="#E9E9E9" stroke-linecap="square" sketch:type="MSShapeGroup"></path>
                <path d="M1732.94783,1077.65887 L1801.26337,882.984724 L1528,842 L1732.94783,1077.65887 L1732.94783,1077.65887 Z" id="Stroke-53" stroke="#E9E9E9" sketch:type="MSShapeGroup"></path>
                <path d="M1801,883.428263 L2004.24015,889.152882 L2004.24015,857.913539 L1811.24727,699 L1801,883.428263 L1801,883.428263 Z" id="Stroke-54" stroke="#E9E9E9" sketch:type="MSShapeGroup"></path>
                <path d="M1456.2852,1023.56553 L1288.9111,764 L1265,996.242776 L1456.2852,1023.56553 L1456.2852,1023.56553 Z" id="Stroke-56" stroke="#E9E9E9" sketch:type="MSShapeGroup"></path>
                <path d="M1528.1062,842.552158 L1289,764 L1528.1062,842.552158 Z" id="Stroke-58" stroke="#E9E9E9" sketch:type="MSShapeGroup"></path>
                <path d="M1455.5,1023.5 L1527.5,842.5" id="Line" stroke="#E9E9E9" stroke-linecap="square" sketch:type="MSShapeGroup"></path>
                <path d="M1456,1023 L1732.67993,1077.6455 L1456,1023 Z" id="Stroke-59" stroke="#E9E9E9" sketch:type="MSShapeGroup"></path>
                <path d="M1087,944.55025 L1121.15837,644 L1087,944.55025 Z" id="Stroke-60" stroke="#E9E9E9" sketch:type="MSShapeGroup"></path>
                <path d="M1264.35347,996.230605 L1086.7321,945 L1015,1149.92122 L1264.35347,996.230605 L1264.35347,996.230605 Z" id="Stroke-61" stroke="#E9E9E9" sketch:type="MSShapeGroup"></path>
                <path d="M1288.53247,764 L1087,945.012171 L1288.53247,764 Z" id="Stroke-63" stroke="#E9E9E9" sketch:type="MSShapeGroup"></path>
                <path d="M1015,1150 L1216.53247,1228.55336 L1015,1150 Z" id="Stroke-64" stroke="#E9E9E9" sketch:type="MSShapeGroup"></path>
                <path d="M1217,1228.24278 L1374.12683,1204.33492 L1264.821,996 L1217,1228.24278 L1217,1228.24278 Z" id="Stroke-65" stroke="#E9E9E9" sketch:type="MSShapeGroup"></path>
                <path d="M1193,1453.41299 L1411.61165,1449.99809 L1216.9111,1228 L1193,1453.41299 L1193,1453.41299 Z" id="Stroke-66" stroke="#E9E9E9" sketch:type="MSShapeGroup"></path>
                <path d="M1374,1204 L1411.57373,1449.90475 L1374,1204 Z" id="Stroke-67" stroke="#E9E9E9" sketch:type="MSShapeGroup"></path>
                <path d="M1603.2852,1375 L1412,1450.13726" id="Stroke-69" stroke="#E9E9E9" sketch:type="MSShapeGroup"></path>
                <path d="M1924.08557,1365.19886 L1766.95874,1232 L1603,1375.44474 L1924.08557,1365.19886 L1924.08557,1365.19886 Z" id="Stroke-70" stroke="#E9E9E9" sketch:type="MSShapeGroup"></path>
                <path d="M1767.15837,1231.42826 L1927.70175,1047 L1733,1077.73764 L1767.15837,1231.42826 L1767.15837,1231.42826 Z" id="Stroke-73" stroke="#E9E9E9" sketch:type="MSShapeGroup"></path>
                <path d="M1801,883 L1927.38501,1046.9365 L1801,883 Z" id="Stroke-74" stroke="#E9E9E9" sketch:type="MSShapeGroup"></path>
                <path d="M1499.96846,122 L1377,275.690618 L1558.03673,415.719263 L1499.96846,122 L1499.96846,122 Z" id="Stroke-94" stroke="#E9E9E9" sketch:type="MSShapeGroup"></path>
                <path d="M66,503 L66,661.301684 L158.226642,599.825197 L66,503 L66,503 Z" id="Stroke-98" stroke="#E9E9E9" sketch:type="MSShapeGroup"></path>
                <path d="M66,731 L66,946.503566 L267.532469,869.875579 L66,731 L66,731 Z" id="Stroke-100" stroke="#E9E9E9" sketch:type="MSShapeGroup"></path>
                <path d="M267.305827,869.812605 L158,600 L267.305827,869.812605 Z" id="Stroke-102" stroke="#E9E9E9" sketch:type="MSShapeGroup"></path>
                <path d="M274,418.876105 L455.037926,313 L274,418.876105 Z" id="Stroke-105" stroke="#E9E9E9" sketch:type="MSShapeGroup"></path>
                <path d="M427.5,624.5 L274.5,418.5" id="Line" stroke="#E9E9E9" stroke-linecap="square" sketch:type="MSShapeGroup"></path>
                <path d="M158,600.013368 L274.137741,419 L158,600.013368 Z" id="Stroke-106" stroke="#E9E9E9" sketch:type="MSShapeGroup"></path>
                <path d="M206.198853,163 L66,410.912306 L66,449.50349 L274.364383,418.534754 L206.198853,163 Z" id="Stroke-108" stroke="#E9E9E9" sketch:type="MSShapeGroup"></path>
                <path d="M206,164 L455.246475,312.932552 L206,164 Z" id="Stroke-108" stroke="#E9E9E9" sketch:type="MSShapeGroup"></path>
                <path d="M158,600 L427.84921,627.32275 L158,600 Z" id="Stroke-111" stroke="#E9E9E9" sketch:type="MSShapeGroup"></path>
                <path d="M918.603462,100 L793,213.490875 L1086.75911,240.814823 L918.603462,100 Z" id="Stroke-118" stroke="#E9E9E9" sketch:type="MSShapeGroup"></path>
                <path d="M1015.63228,1429.69062 L879,1276" id="Stroke-121" stroke="#E9E9E9" sketch:type="MSShapeGroup"></path>
                <path d="M1015,1430.05849 L1015,1150 L1015,1430.05849 Z" id="Stroke-122" stroke="#E9E9E9" sketch:type="MSShapeGroup"></path>
                <path d="M1216.53247,1228 L1015,1429.50513 L1216.53247,1228 Z" id="Stroke-124" stroke="#E9E9E9" sketch:type="MSShapeGroup"></path>
                <path d="M639.473914,1364.70589 L537,1252" id="Stroke-125" stroke="#E9E9E9" sketch:type="MSShapeGroup"></path>
                <path d="M879.106198,1276 L640,1364.79924" id="Stroke-126" stroke="#E9E9E9" sketch:type="MSShapeGroup"></path>
                <path d="M639.473914,979 L537,1252.2275 L827.343753,1088.291 L639.473914,979 L639.473914,979 Z" id="Stroke-127" stroke="#E9E9E9" sketch:type="MSShapeGroup"></path>
                <path d="M640,1364.64239 L827.86984,1088 L640,1364.64239 Z" id="Stroke-128" stroke="#E9E9E9" sketch:type="MSShapeGroup"></path>
                <path d="M906.432654,832 L640,978.859632 L906.432654,832 Z" id="Stroke-129" stroke="#E9E9E9" sketch:type="MSShapeGroup"></path>
                <path d="M828,1088 L879.237556,1275.84436 L1015.86984,1149.47649 L828,1088 L828,1088 Z" id="Stroke-131" stroke="#E9E9E9" sketch:type="MSShapeGroup"></path>
                <path d="M828,1088.15063 L1087.60194,944.705895 L906.564012,832 L828,1088.15063 Z" id="Stroke-132" stroke="#E9E9E9" sketch:type="MSShapeGroup"></path>
                <path d="M353.037926,1027 L172,1163.61375 L537.49121,1252.41299 L353.037926,1027 L353.037926,1027 Z" id="Stroke-135" stroke="#E9E9E9" sketch:type="MSShapeGroup"></path>
                <path d="M172,1163.71926 L267.642,870 L172,1163.71926 Z" id="Stroke-136" stroke="#E9E9E9" sketch:type="MSShapeGroup"></path>
                <path d="M352.5,1026.5 L267.5,870.5" id="Line" stroke="#E9E9E9" stroke-linecap="square" sketch:type="MSShapeGroup"></path>
                <path d="M660,501 L724.900185,770.812605 L660,501 Z" id="Stroke-139" stroke="#E9E9E9" sketch:type="MSShapeGroup"></path>
                <path d="M967.522753,453 L725,770.627118 L967.522753,453 Z" id="Stroke-140" stroke="#E9E9E9" sketch:type="MSShapeGroup"></path>
                <path d="M905.5,832.5 L725.5,769.5" id="Line" stroke="#E9E9E9" stroke-linecap="square" sketch:type="MSShapeGroup"></path>
                <path d="M472.553099,818 L353,1026.33612 L639.927198,978.521605 L472.553099,818 L472.553099,818 Z" id="Stroke-141" stroke="#E9E9E9" sketch:type="MSShapeGroup"></path>
                <path d="M428,627 L472.405642,818.25925 L725.175667,770.444737 L428,627 L428,627 Z" id="Stroke-142" stroke="#E9E9E9" sketch:type="MSShapeGroup"></path>
                <path d="M640,979.336118 L725.394728,771 L640,979.336118 Z" id="Stroke-143" stroke="#E9E9E9" sketch:type="MSShapeGroup"></path>
                <path d="M267,869.489855 L427.543383,627 L267,869.489855 Z" id="Stroke-145" stroke="#E9E9E9" sketch:type="MSShapeGroup"></path>
                <path d="M471.5,817.5 L266.5,868.5" id="Line" stroke="#E9E9E9" stroke-linecap="square" sketch:type="MSShapeGroup"></path>
                <path d="M1528.14746,842.073763 L1637.45328,657.6455 L1453,603 L1528.14746,842.073763 L1528.14746,842.073763 Z" id="Stroke-146" stroke="#E9E9E9" sketch:type="MSShapeGroup"></path>
                <path d="M1558.89047,415 L1453,602.844355 L1558.89047,415 Z" id="Stroke-147" stroke="#E9E9E9" sketch:type="MSShapeGroup"></path>
                <path d="M1636.5,656.5 L1558.5,415.5" id="Line" stroke="#E9E9E9" stroke-linecap="square" sketch:type="MSShapeGroup"></path>
                <path d="M1759.96965,504 L1637,657.690618 L1759.96965,504 Z" id="Stroke-149" stroke="#E9E9E9" sketch:type="MSShapeGroup"></path>
                <path d="M1637,658 L1800.95874,883.412987 L1637,658 Z" id="Stroke-151" stroke="#E9E9E9" sketch:type="MSShapeGroup"></path>
                <path d="M1810.5,698.5 L1637.5,657.5" id="Line" stroke="#E9E9E9" stroke-linecap="square" sketch:type="MSShapeGroup"></path>
                <path d="M1374,1204.01337 L1548.20601,1176.69062 L1455.97937,1023 L1374,1204.01337 L1374,1204.01337 Z" id="Stroke-152" stroke="#E9E9E9" sketch:type="MSShapeGroup"></path>
                <path d="M1374,1204 L1602.85893,1374.76749 L1374,1204 Z" id="Stroke-153" stroke="#E9E9E9" sketch:type="MSShapeGroup"></path>
                <path d="M1602.5,1375.5 L1547.5,1176.5" id="Line" stroke="#E9E9E9" stroke-linecap="square" sketch:type="MSShapeGroup"></path>
                <path d="M1732.45328,1078 L1548,1177.04512 L1732.45328,1078 Z" id="Stroke-156" stroke="#E9E9E9" sketch:type="MSShapeGroup"></path>
                <path d="M1765.5,1231.5 L1547.5,1176.5" id="Line" stroke="#E9E9E9" stroke-linecap="square" sketch:type="MSShapeGroup"></path>
                <path d="M1087,240.814224 L1243.59081,100 L1087,240.814224 Z" id="Stroke-159" stroke="#E9E9E9" sketch:type="MSShapeGroup"></path>
                <path d="M1244,100 L1261.53099,418.412338 L1377.66873,274.967601 L1244,100 Z" id="Stroke-162" stroke="#E9E9E9" sketch:type="MSShapeGroup"></path>
                <path d="M1192.62137,1453.90786 L1015,1430" id="Stroke-165" stroke="#E9E9E9" sketch:type="MSShapeGroup"></path>
                <path d="M2004.26694,1234.86753 L1928,1047 L2004.26694,1234.86753 Z" id="Stroke-71" stroke="#E9E9E9" sketch:type="MSShapeGroup"></path>
                <path d="M2003.97852,1058.15625 L2003.97852,889 L1927,1047.14844 L2003.97852,1058.15625 Z" id="Stroke-71" stroke="#E9E9E9" sketch:type="MSShapeGroup"></path>
                <path d="M67.2617188,218.441406 L206.205731,163.130469 L60,38 L67.2617188,218.441406 Z" id="Stroke-112" stroke="#E9E9E9" sketch:type="MSShapeGroup"></path>
                <path d="M1715.31883,100 L1688,285.244812 L1872.61603,185.66996 L1715.31883,100 Z" id="Stroke-95" stroke="#E9E9E9" sketch:type="MSShapeGroup"></path>
                <path d="M1501,122 L1688.94043,285.467773 L1501,122 Z" id="Stroke-95" stroke="#E9E9E9" sketch:type="MSShapeGroup"></path>
                <path d="M1900.31883,0 L1873,185.244812 L2057.61603,85.66996 L1900.31883,0 Z" id="Stroke-95" stroke="#E9E9E9" sketch:type="MSShapeGroup"></path>
                <path d="M1244,100 L1500.71902,121.183884 L1244,100 Z" id="Stroke-94" stroke="#E9E9E9" sketch:type="MSShapeGroup"></path>
                <path d="M157.5,1968.5 L66.5,2099.5" id="Line" stroke="#E9E9E9" stroke-linecap="square" sketch:type="MSShapeGroup"></path>
                <path d="M567.5,1452.5 L639.5,1364.5" id="Line" stroke="#E9E9E9" stroke-linecap="square" sketch:type="MSShapeGroup"></path>
                <path d="M878.5,1276.5 L793.5,1582.5" id="Line" stroke="#E9E9E9" stroke-linecap="square" sketch:type="MSShapeGroup"></path>
                <path d="M793.5,1582.5 L639.5,1364.5" id="Line" stroke="#E9E9E9" stroke-linecap="square" sketch:type="MSShapeGroup"></path>
                <path d="M1923.5,1364.5 L1927.5,1046.5" id="Line" stroke="#E9E9E9" stroke-linecap="square" sketch:type="MSShapeGroup"></path>
                <path d="M1923.5,1364.5 L2006.5,1234.5" id="Line" stroke="#E9E9E9" stroke-linecap="square" sketch:type="MSShapeGroup"></path>
                <path d="M206.5,162.5 L494.5,99.5" id="Line" stroke="#E9E9E9" stroke-linecap="square" sketch:type="MSShapeGroup"></path>
                <path d="M1500.5,121.5 L1616.5,45.5" id="Line" stroke="#E9E9E9" stroke-linecap="square" sketch:type="MSShapeGroup"></path>
                <path d="M1288.5,2132.5 L1121.5,2013.5" id="Line" stroke="#EEEEEE" stroke-linecap="square" sketch:type="MSShapeGroup"></path>
            </g>
        </g>
    </g>
</svg>